<svg width="20" height="28" viewBox="0 0 14 19" fill="none" xmlns="http://www.w3.org/2000/svg">
<path d="M5.74841 9.32657C3.23269 9.32657 1.18237 7.23259 1.18237 4.66329C1.18237 2.09398 3.23269 0 5.74841 0C8.26413 0 10.3144 2.09398 10.3144 4.66329C10.3144 7.23259 8.26413 9.32657 5.74841 9.32657ZM5.74841 0.526707C3.522 0.526707 1.6981 2.37661 1.6981 4.66329C1.6981 6.94997 3.50942 8.79986 5.74841 8.79986C7.9874 8.79986 9.79873 6.94997 9.79873 4.66329C9.79873 2.37661 7.9874 0.526707 5.74841 0.526707Z" fill="white"/>
<path d="M8.12579 19.0001H0.264151C0.125786 19.0001 0 18.8845 0 18.7303V14.7736C0 11.472 2.62893 8.78711 5.86163 8.78711C8.08805 8.78711 10.1006 10.0461 11.0943 12.0758C11.1572 12.2043 11.1069 12.3584 10.9811 12.4355C10.8553 12.4998 10.7044 12.4484 10.6289 12.3199C9.71069 10.47 7.88679 9.31382 5.84906 9.31382C2.91824 9.32666 0.515723 11.7803 0.515723 14.7864V18.4734H8.12579C8.26415 18.4734 8.38994 18.589 8.38994 18.7432C8.38994 18.8973 8.27673 19.0129 8.12579 19.0129V19.0001Z" fill="white"/>
<path d="M13.7358 16.6748H9.18236C9.044 16.6748 8.91821 16.5592 8.91821 16.405C8.91821 16.2509 9.03142 16.1353 9.18236 16.1353H13.7358C13.8742 16.1353 14 16.2509 14 16.405C14 16.5592 13.8868 16.6748 13.7358 16.6748Z" fill="white"/>
<path d="M11.4717 19.0001C11.3333 19.0001 11.2075 18.8844 11.2075 18.7303V14.0798C11.2075 13.9385 11.3207 13.8101 11.4717 13.8101C11.6226 13.8101 11.7358 13.9257 11.7358 14.0798V18.7303C11.7358 18.8716 11.6226 19.0001 11.4717 19.0001Z" fill="white"/>
</svg>
