<svg width="201" height="212" viewBox="0 0 201 212" fill="none" xmlns="http://www.w3.org/2000/svg">
<g clip-path="url(#clip0_101_2962)">
<path d="M98.5799 66.21C98.5699 49.77 98.7299 33.33 98.7999 16.89C98.8199 12.63 97.8499 8.51 95.4099 5.09C91.0199 -1.03 81.5299 -1.75 74.7199 3.58C70.9399 6.54 67.3199 9.68 67.7199 15.54C68.0499 20.25 68.8799 24.44 72.3499 27.82C73.1999 28.65 73.7899 29.71 72.6599 30.62C71.7499 31.35 70.8199 30.71 70.1899 29.91C67.2999 26.24 63.6199 22.93 64.8099 17.46C65.3499 14.98 63.8599 14.15 61.6799 13.68C51.3099 11.41 40.2299 16.11 34.8799 25.24C32.9699 28.51 32.8399 32.02 33.1499 35.48C33.1999 36.02 33.6199 36.45 34.1499 36.51C35.7499 36.71 37.2999 36.22 38.7499 36.72C39.7199 37.05 39.8099 38.39 38.8899 38.84C37.9399 39.31 36.7999 39.12 35.8399 39.22C20.2199 40.78 8.61987 53.36 9.02987 67.66C9.43987 81.84 19.9799 93.17 34.5799 95.1C36.1399 95.31 38.0999 94.68 39.4199 95.94C39.8699 96.36 39.8999 97.06 39.4999 97.53C38.5299 98.67 37.1199 98.16 35.9999 98.04C26.1299 97.01 17.5399 93.32 11.6499 85.02C9.29987 81.7 7.46987 82.29 5.27987 84.73C4.09987 86.05 2.87987 87.4 2.01987 88.93C-3.20013 98.26 1.74987 110.78 14.5699 113.38C15.8099 113.63 17.4899 113.08 18.4999 114.18C18.9899 114.71 18.8599 115.56 18.2499 115.93C16.4899 117.01 14.5499 116.26 12.9299 115.65C9.81987 114.48 8.08987 115.7 6.44987 118.09C-1.95013 130.4 3.77987 145.18 16.5699 150.7C30.0499 156.52 48.4999 147.25 49.0199 131.6C49.0499 130.74 49.1799 129.95 50.1599 129.53C50.8799 129.22 51.6799 129.7 51.7699 130.48C52.2399 134.9 50.8299 138.96 48.5499 142.56C41.8299 153.16 31.7999 156.34 20.0599 154.78C19.4899 154.7 18.9599 155.06 18.7999 155.61C14.5999 170.36 28.0999 188.03 44.1499 187.59C44.6899 187.58 45.1599 187.19 45.2599 186.66C46.1899 181.91 47.3199 179.24 49.3299 178C50.2799 177.41 51.4299 178.42 50.9799 179.45C46.8299 188.78 47.2299 196.95 57.8799 202.72C63.6299 205.84 69.0099 205.47 74.5499 203.12C75.0299 202.91 75.3099 202.41 75.2299 201.89C74.6999 198.46 75.1099 195.57 76.4199 192.75C76.9199 191.68 77.5699 190.64 78.8099 191.35C79.7599 191.9 79.4199 192.9 78.8899 193.86C73.6499 203.4 84.2399 212.65 91.8999 211.96C95.1999 211.66 97.2799 210.27 98.1499 207.06C98.8099 204.65 98.7899 202.18 98.7799 199.71C98.7099 155.21 98.5899 110.71 98.5499 66.21H98.5799ZM47.5799 112.67C46.2999 112.19 46.7599 110.27 48.1199 110.45C48.5199 110.5 48.9199 110.57 49.2999 110.56C59.2699 110.43 67.6799 103.4 68.5699 94.4C69.5199 84.78 62.9899 76.53 52.6099 74.82C43.0599 73.24 35.5499 69.09 31.5099 59.89C31.1799 59.14 30.8399 58.38 30.6799 57.58C30.4199 56.36 29.2399 54.65 31.2699 54.14C32.9199 53.72 32.8999 55.57 33.2899 56.66C36.2299 64.84 42.1199 69.84 50.4599 71.57C66.5999 74.92 80.8599 60.18 76.0999 45.1C73.3499 36.39 66.8999 31.63 58.0199 30.06C56.8199 29.85 56.4399 29.8 55.7499 29.41C54.6999 28.82 55.1699 27.21 56.3699 27.26C56.5999 27.27 56.8299 27.3 57.0599 27.32C62.3099 27.91 67.2099 29.22 70.9799 33.36C73.0799 35.67 75.4299 37.78 78.4799 38.92C82.7699 40.52 87.5799 39.31 90.4199 35.86C93.1799 32.5 93.2199 28.74 90.6099 24.51C90.5999 24.49 90.5899 24.47 90.5699 24.45C89.8799 23.31 91.3499 22.11 92.3299 23.01C95.0099 25.44 96.0199 28.5 95.4099 31.8C94.1899 38.44 89.5399 41.67 80.0399 42.39C79.3899 42.44 78.9199 43.02 78.9899 43.66C80.7399 60.01 77.0199 67.17 62.8899 73.64C62.1199 73.99 61.9799 75.02 62.6199 75.57C68.9899 80.92 72.7999 87.4 71.1999 96.13C70.2199 101.5 67.2799 105.7 62.9399 108.93C57.9899 112.61 51.3599 114.08 47.5799 112.67ZM94.5199 193.4C93.9999 194.33 93.4199 195.59 92.0699 194.97C90.5699 194.27 91.5399 193.2 91.9499 192.21C94.0799 187.06 92.8799 182.85 88.6699 180.58C84.2999 178.23 79.4499 179.54 76.1199 183.76C74.2199 186.17 72.4299 188.88 69.1699 189.51C68.0099 189.73 67.3199 188.26 68.2199 187.5C71.3499 184.84 73.9499 182.09 75.4499 178.49C80.7399 165.75 69.4999 152.55 55.0099 154.51C49.1399 155.31 44.3499 157.91 41.0899 163.16C40.7299 163.74 40.4599 164.83 39.8299 165.43C38.9999 166.22 37.6399 165.37 37.9499 164.27C39.7899 157.75 46.6599 153.31 58.0199 151.46C58.7799 151.34 59.2099 150.52 58.8799 149.83C56.8299 145.58 56.2299 141.14 58.0199 136.67C59.5199 132.91 62.4599 130.29 66.1699 128.62C70.7699 126.55 75.9399 126.7 78.8299 128.76C79.9499 129.56 78.9599 131.29 77.6999 130.75C77.3199 130.59 76.9499 130.41 76.5899 130.33C69.6899 128.88 63.0599 131.95 59.9799 138.12C57.8299 142.42 61.3299 150.6 66.7999 153.36C73.0999 156.54 76.7599 161.65 79.0299 168.15C79.7199 170.13 79.1399 171.91 79.2199 173.78C79.3299 176.47 79.6999 177.7 83.0699 176.98C87.5599 176.02 91.4599 178.01 94.0799 181.79C96.6299 185.47 96.7499 189.46 94.5299 193.42L94.5199 193.4Z" fill="#012CFD"/>
<path d="M183.19 114C184.22 113.82 185.16 113.65 186.03 113.31C191.91 111.06 197.64 108.73 199.77 101.78C202.1 94.18 198.76 85.96 191.58 82.42C191.09 82.18 190.5 82.31 190.17 82.74C189.7 83.33 189.22 83.94 188.77 84.56C182.89 92.53 174.88 96.77 165.18 97.97C164.27 98.08 163.24 98.34 162.31 98.08C161.07 97.74 161.26 95.91 162.55 95.83C165.18 95.67 167.56 94.8 169.98 94.2C181.93 91.27 190.87 80.67 191.36 69.04C192.03 53.37 181.01 40.95 165.05 39.32C163.77 39.19 162.08 39.75 161.11 38.52C160.67 37.97 160.85 37.14 161.48 36.82C163.01 36.02 164.84 36.95 166.38 36.58C166.84 36.47 167.17 36.07 167.23 35.61C168.87 22 153.41 9.53996 137.67 14.04C136 14.52 135.71 15.59 135.69 17.13C135.64 21.54 134.09 25.46 131.28 28.81C130.43 29.82 129.61 31.46 127.95 30.7C127.52 30.5 127.25 30.05 127.29 29.57C127.38 28.67 128.12 28.11 128.66 27.48C133.58 21.87 134.09 15.45 130.81 9.18996C127.87 3.55996 122.69 0.469962 116.12 0.0799618C111.11 -0.210038 107.37 1.42996 104.01 5.48996C100.94 9.19996 101.74 13.14 101.72 16.99C101.55 40.41 101.64 63.84 101.64 87.26C101.64 124.82 101.64 162.38 101.62 199.94C101.62 202.56 101.78 205.15 102.55 207.66C103.25 209.94 104.74 211.42 107.18 211.77C112.58 212.53 116.61 210.03 119.93 206.16C122.89 202.71 123.02 198.74 121.56 194.58C121.2 193.56 120.14 192.62 120.58 191.43C120.74 191 121.15 190.71 121.6 190.7C122.95 190.65 123.35 191.95 123.88 192.95C125.06 195.18 125.61 197.62 125.24 200.11C124.9 202.38 125.97 203.28 127.89 203.97C134.21 206.24 144.9 203.26 148.8 197.82C152.77 192.3 152.91 186.39 150 180.33C149.57 179.44 148.7 178.5 149.09 177.62C149.4 176.93 150.32 176.77 150.89 177.28C153.13 179.27 153.37 179.96 155.12 187.01C155.25 187.52 155.7 187.88 156.22 187.88C172.48 187.97 186.07 169.73 181.64 155.48C181.47 154.95 180.96 154.61 180.41 154.67C165 156.41 157.59 151.95 151.6 141.98C149.05 137.73 148.27 133.91 149.13 131.15C149.48 130.01 151.12 130.11 151.36 131.27C151.55 132.2 151.51 133.13 151.66 134C153.64 145.25 164.16 153.04 176.42 152.31C188.16 151.61 197.36 142.69 198 131.42C198.21 127.66 196.87 124.4 195.44 120.97C193.48 116.23 191.92 114.92 186.94 115.81C185.7 116.03 184.31 116.66 182.98 116.21C181.86 115.83 182.01 114.19 183.17 113.99L183.19 114ZM161.17 161.32C162.01 162.56 163.29 163.85 162.87 165.54C162.73 166.12 162.15 166.5 161.56 166.39C159.98 166.09 159.81 164.39 159.15 163.32C152.06 151.89 134.85 151.23 126.94 162.11C121.4 169.72 122.87 180.03 130.28 186.04C131.36 186.91 132.82 187.45 133.63 188.56C133.97 189.02 133.92 189.66 133.51 190.06C132.71 190.83 131.86 190.37 131.09 189.93C128.44 188.42 126.28 186.38 124.41 183.94C120.97 179.44 116.02 178.2 111.81 180.6C107.57 183.02 106.57 186.99 108.89 192.67C109.08 193.14 109.21 193.55 109.14 193.97C109.02 194.67 108.28 195.07 107.62 194.83C106.16 194.29 105.24 193.26 104.9 191.26C103.39 182.45 108.95 176.14 117.9 176.74C118.5 176.78 119.1 176.84 119.65 176.9C120.17 176.95 120.68 176.65 120.85 176.15C121.01 175.67 120.91 175.14 120.87 174.63C120.25 165.12 124.39 158.44 132.64 153.82C140.36 149.49 143.12 142.21 137.79 134.88C135.05 131.1 131.21 130.08 126.93 130.19C126.23 130.21 125.53 130.26 124.82 130.3C123.43 130.37 123.14 128.36 124.49 128.03C129.2 126.92 134.05 128.02 137.67 131.42C142.14 135.62 145.96 138.71 141.71 149.92C141.43 150.65 141.94 151.44 142.72 151.48C150.32 151.89 156.71 154.78 161.17 161.3V161.32ZM132.61 96.78C134.31 102.98 141.5 110.62 149.71 110.53C150.82 110.52 151.99 110.3 153.12 110.44C154.12 110.57 154.5 111.82 153.72 112.47C148.29 116.99 132.99 108.41 129.79 98.03C127.78 91.51 128.93 85.39 133.25 79.99C134.49 78.44 135.78 76.92 137.05 75.41C137.56 74.8 137.32 73.88 136.58 73.6C131.34 71.63 126.79 67.75 123.64 62.21C120.34 56.4 119.86 50.31 121.65 44.06C121.84 43.39 121.4 42.7 120.7 42.6C109.97 41.11 106.36 38.51 105.23 31.89C104.59 28.14 105.29 25.3 107.33 23.4C108.32 22.48 109.81 23.76 109.06 24.89C109.06 24.89 109.05 24.91 109.04 24.92C105.48 30.25 108.16 35.3 111.74 37.98C115.53 40.81 121.78 40.33 125.51 36.52C130.05 31.89 135.11 28.36 141.65 27.45C142.97 27.27 144.45 26.69 145.69 27.64C146.11 27.96 146.25 28.54 146.02 29.02C145.41 30.28 143.91 29.87 142.77 30.02C132.64 31.39 124.77 39.01 123.61 48.62C122.47 58.02 127.81 66.84 137.52 70.41C149.45 74.79 162.72 69.5 167.03 57.2C167.3 56.43 167.44 55.6 167.79 54.86C168.1 54.2 168.72 53.88 169.49 54.13C170.26 54.39 170.59 55.04 170.41 55.74C170.03 57.19 169.7 58.7 168.99 59.99C164.83 67.55 159.6 73.58 150.1 74.35C135.62 75.53 130.06 87.49 132.61 96.78Z" fill="#012CFD"/>
</g>
<defs>
<clipPath id="clip0_101_2962">
<rect width="200.51" height="211.99" fill="white"/>
</clipPath>
</defs>
</svg>
