<svg width="20" height="15" viewBox="0 0 20 15" fill="none" xmlns="http://www.w3.org/2000/svg">
<path d="M15.5068 4.90814C15.3648 4.85612 15.2228 4.93415 15.1711 5.0642C15.1195 5.20725 15.197 5.3503 15.3261 5.40232C16.6172 5.8835 17.8309 6.53373 18.9672 7.32702C16.075 9.42079 12.5371 10.4612 8.97351 10.2531C8.83148 10.2531 8.70236 10.3571 8.68945 10.5002C8.68945 10.6432 8.79275 10.7733 8.93477 10.7863C9.23174 10.7993 9.54163 10.8123 9.83859 10.8123C13.3377 10.8123 16.7593 9.66788 19.5611 7.5351C19.6257 7.48308 19.6644 7.40505 19.6644 7.32702C19.6644 7.249 19.6257 7.15796 19.5611 7.11895C18.3216 6.19561 16.9529 5.44133 15.5068 4.90814Z" fill="#1E2E34"/>
<path d="M6.37838 10.4481C6.49459 10.4481 6.6108 10.3701 6.63662 10.24C6.66244 10.097 6.58497 9.95392 6.43003 9.92791C4.36416 9.45974 2.44031 8.60143 0.723053 7.35297C4.28669 4.81705 8.75414 3.88071 13.0279 4.76503C13.1699 4.79104 13.312 4.7 13.3378 4.55695C13.3636 4.4139 13.2732 4.27085 13.1312 4.24484C8.63793 3.3085 3.93807 4.33587 0.232406 7.04086L0.103291 7.13189C0.0387326 7.18391 0 7.26194 0 7.33997C0 7.418 0.0387326 7.50903 0.103291 7.56105C1.94967 8.96556 4.04136 9.94092 6.30091 10.4481C6.32674 10.4481 6.33965 10.4481 6.35256 10.4481H6.37838Z" fill="#1E2E34"/>
<path d="M11.9953 7.3663C11.9953 8.56273 11.0269 9.53809 9.83902 9.53809C9.69699 9.53809 9.56787 9.65513 9.56787 9.81119C9.56787 9.96725 9.68408 10.0843 9.83902 10.0843C11.3239 10.0843 12.5246 8.87485 12.5246 7.3793C12.5246 7.23625 12.4084 7.1062 12.2535 7.1062C12.0986 7.1062 11.9824 7.22324 11.9824 7.3793L11.9953 7.3663Z" fill="#1E2E34"/>
<path d="M9.83896 5.19439C10.4716 5.19439 11.0785 5.4805 11.4917 5.96167C11.582 6.07872 11.7499 6.09172 11.8661 5.98768C11.9823 5.89665 11.9952 5.72759 11.8919 5.61054C11.3755 4.99932 10.6266 4.64819 9.83896 4.64819C8.35411 4.64819 7.15332 5.85764 7.15332 7.35318C7.15332 8.00342 7.38573 8.62765 7.79891 9.10882C7.85055 9.17385 7.92802 9.19986 8.00549 9.19986C8.07005 9.19986 8.1217 9.17385 8.17335 9.13483C8.28955 9.0438 8.30246 8.87474 8.19917 8.75769C7.86347 8.36755 7.6827 7.86037 7.6827 7.34018C7.6827 6.14374 8.65108 5.16838 9.83896 5.16838V5.19439Z" fill="#1E2E34"/>
<path d="M19.6127 0.0965544C19.5223 -0.0204884 19.3545 -0.0334931 19.2382 0.0705449L2.55631 14.5318C2.44011 14.6229 2.4272 14.7919 2.53049 14.909C2.58214 14.974 2.65961 15 2.73708 15C2.80163 15 2.85328 14.974 2.90493 14.935L19.574 0.473692C19.6902 0.382659 19.7031 0.213597 19.5998 0.0965544H19.6127Z" fill="#1E2E34"/>
<path d="M19.871 4.92127C18.8252 4.40108 17.7535 3.94591 16.6818 3.59478C16.5398 3.54276 16.3978 3.62079 16.3461 3.76384C16.2945 3.9069 16.372 4.04995 16.514 4.10197C17.5598 4.4531 18.6057 4.88225 19.6257 5.40244C19.6644 5.41545 19.7032 5.42845 19.7419 5.42845C19.8452 5.42845 19.9356 5.37643 19.9743 5.2854C20.0389 5.15535 19.9743 4.9993 19.8581 4.93427L19.871 4.92127Z" fill="#1E2E34"/>
<path d="M0.464519 5.42852C0.464519 5.42852 0.567814 5.41551 0.606549 5.3895C0.658196 5.35049 6.44265 1.69616 14.4479 3.52983C14.5899 3.56884 14.732 3.47781 14.7707 3.33475C14.7965 3.1917 14.7191 3.04865 14.577 3.00964C6.35226 1.13695 0.387051 4.90833 0.335404 4.94734C0.206287 5.02537 0.180462 5.19443 0.257932 5.31148C0.309579 5.3895 0.399963 5.42852 0.477434 5.42852H0.464519Z" fill="#1E2E34"/>
</svg>
