<svg width="20" height="9" viewBox="0 0 20 9" fill="none" xmlns="http://www.w3.org/2000/svg">
<path d="M0.239662 4.90834L0.109229 5.00676C0.0440127 5.06301 0.00488281 5.14737 0.00488281 5.23174C0.00488281 5.3161 0.0440127 5.41453 0.109229 5.47077C3.00484 7.81893 6.46131 9.00004 9.93082 9.00004C13.4003 9.00004 16.8568 7.81893 19.7524 5.47077C19.8176 5.41453 19.8568 5.33016 19.8568 5.2458C19.8568 5.16143 19.8176 5.06301 19.7524 5.02082C13.9351 0.380756 6.0961 0.338574 0.239662 4.9224V4.90834ZM0.722263 5.2458C6.26566 1.01349 13.596 1.02755 19.1394 5.2458C13.6612 9.4781 6.20044 9.49216 0.722263 5.2458Z" fill="#1E2E34"/>
<path d="M7.21777 5.25985C7.21777 6.87685 8.4308 8.1845 9.93078 8.1845C11.4308 8.1845 12.6438 6.87685 12.6438 5.25985C12.6438 3.64286 11.4308 2.33521 9.93078 2.33521C8.4308 2.33521 7.21777 3.64286 7.21777 5.25985ZM12.109 5.25985C12.109 6.55345 11.1308 7.60801 9.93078 7.60801C8.73079 7.60801 7.75255 6.55345 7.75255 5.25985C7.75255 3.96626 8.73079 2.9117 9.93078 2.9117C11.1308 2.9117 12.109 3.96626 12.109 5.25985Z" fill="#1E2E34"/>
<path d="M19.8698 2.63045C8.90041 -3.26103 0.213584 2.57421 0.122281 2.64451C-0.00815205 2.72888 -0.0342386 2.91167 0.0440211 3.03821C0.122281 3.17882 0.291843 3.20694 0.409233 3.12258C0.43532 3.10852 2.54833 1.66026 5.96567 0.957214C9.1091 0.296356 14.0395 0.141687 19.622 3.1507C19.6611 3.16476 19.7002 3.17882 19.7394 3.17882C19.8437 3.17882 19.935 3.12258 19.9742 3.02415C20.0394 2.88355 19.9742 2.71482 19.8568 2.64451L19.8698 2.63045Z" fill="#1E2E34"/>
</svg>
