<svg width="86" height="86" viewBox="0 0 86 86" fill="none" xmlns="http://www.w3.org/2000/svg">
<g clip-path="url(#clip0_97_1826)">
<path d="M42.9715 86C19.2945 86 0 66.7055 0 42.9715C0 19.2376 19.2945 0 42.9715 0C66.6486 0 85.9431 19.2945 85.9431 42.9715C85.9431 66.6486 66.6486 85.9431 42.9715 85.9431V86ZM42.9715 2.33355C20.5467 2.33355 2.33355 20.5467 2.33355 42.9715C2.33355 65.3964 20.5467 83.6095 42.9715 83.6095C65.3964 83.6095 83.6095 65.3964 83.6095 42.9715C83.6095 20.5467 65.3964 2.33355 42.9715 2.33355Z" fill="#012CFD"/>
<path d="M42.9716 69.039C42.3455 69.039 41.7764 68.5268 41.7764 67.8438V18.6684C41.7764 18.0423 42.2886 17.4731 42.9716 17.4731C43.6546 17.4731 44.1668 17.9854 44.1668 18.6684V67.9007C44.1668 68.5268 43.6546 69.0959 42.9716 69.0959V69.039Z" fill="#012CFD"/>
<path d="M67.6163 44.4514H18.384C17.7579 44.4514 17.1887 43.9391 17.1887 43.2561C17.1887 42.5732 17.701 42.0609 18.384 42.0609H67.6163C68.2423 42.0609 68.8115 42.5732 68.8115 43.2561C68.8115 43.9391 68.2992 44.4514 67.6163 44.4514Z" fill="#012CFD"/>
</g>
<defs>
<clipPath id="clip0_97_1826">
<rect width="86" height="86" fill="white"/>
</clipPath>
</defs>
</svg>
