<svg width="54" height="63" viewBox="0 0 54 63" fill="none" xmlns="http://www.w3.org/2000/svg">
<g clip-path="url(#clip0_99_2014)">
<path d="M31.0263 27.6533C31.2481 27.0711 31.0493 26.9126 30.816 26.6935C30.6287 26.5177 30.3781 26.4601 30.1332 26.5177C30.064 26.535 30.0784 26.6388 30.1505 26.6359C30.1879 26.6359 30.2225 26.6301 30.2599 26.6301C30.4818 26.6244 30.6806 26.6762 30.8246 26.8722C31.1012 27.2526 30.9572 27.6302 30.5567 27.855C30.1303 28.0942 29.9142 28.4401 29.9459 28.9329C29.9459 28.9588 29.9545 28.9876 29.9459 29.0107C29.9373 29.0366 29.9113 29.051 29.8825 29.0482C29.8537 29.0453 29.822 29.0424 29.7932 29.0395C29.3293 29.0078 29.0412 29.3364 29.119 29.7917C29.1363 29.8955 29.1853 29.9474 29.2602 29.9762C29.2948 29.9877 29.3322 29.9675 29.338 29.933C29.3409 29.9099 29.3351 29.8897 29.3236 29.8667C29.2026 29.5727 29.2544 29.3652 29.4763 29.2413C29.6952 29.1173 29.9517 29.1807 30.1303 29.4142C30.2282 29.541 30.3406 29.6476 30.476 29.7254C30.5163 29.7485 30.5596 29.7716 30.6028 29.7312C30.6229 29.711 30.6258 29.6765 30.6085 29.6534C30.5653 29.5958 30.4904 29.5669 30.4357 29.5237C30.0525 29.2124 29.9747 28.6764 30.2628 28.2815C30.6719 27.7167 31.5651 27.7512 31.9338 28.3449C31.9684 28.3997 31.9771 28.489 32.0577 28.5035C32.0894 28.5092 32.1182 28.489 32.1269 28.4602C32.1499 28.3738 32.0837 28.3046 32.0376 28.2412C31.8071 27.904 31.4757 27.7541 31.081 27.7311C31.0407 27.7311 31.0148 27.6878 31.0292 27.6504L31.0263 27.6533Z" fill="#012CFD"/>
<path d="M27.3702 24.8634C27.4538 24.4109 27.255 24.0737 26.9265 23.7971C26.892 23.7682 26.9006 23.7164 26.9409 23.6962C27.6727 23.3619 27.8658 22.9901 27.7765 22.1399C27.7736 22.1053 27.7966 22.0765 27.8312 22.0736C28.3239 22.0361 28.5659 21.869 28.6293 21.5231C28.6609 21.3531 28.6091 21.1917 28.4708 21.0678C28.4189 21.0216 28.344 21.085 28.3786 21.1427C28.3786 21.1427 28.3786 21.1427 28.3786 21.1456C28.514 21.3646 28.5111 21.5606 28.37 21.7335C28.223 21.9122 27.9724 21.9756 27.7505 21.892C27.5921 21.8344 27.4711 21.7249 27.3616 21.6038C27.1657 21.3877 26.9121 21.3214 26.6384 21.2897C26.6269 21.2897 26.6154 21.2897 26.6039 21.2868C26.5405 21.2868 26.5174 21.3675 26.5722 21.3992C26.6067 21.4194 26.6269 21.4222 26.6903 21.4338C27.1513 21.5145 27.4855 21.7623 27.6266 22.2148C27.8744 22.9987 27.134 23.7625 26.2985 23.5867C25.8663 23.4973 25.5609 23.2379 25.4082 22.8143C25.388 22.7566 25.388 22.6615 25.3045 22.6846C25.1979 22.7105 25.2613 22.7999 25.2728 22.8633C25.2814 22.9036 25.2987 22.944 25.316 22.9843C25.5263 23.4627 25.9153 23.676 26.4108 23.7596C26.9496 23.8489 27.2867 24.2755 27.2377 24.7741C27.1916 25.241 26.7566 25.607 26.238 25.6127C26.2178 25.6127 26.1976 25.6099 26.1775 25.607C26.1083 25.5983 26.0824 25.6963 26.1486 25.7223C26.3446 25.7943 26.6874 25.7194 26.9438 25.5292C27.1685 25.362 27.3212 25.143 27.3731 24.8663L27.3702 24.8634Z" fill="#012CFD"/>
<path d="M27.9839 29.0539C27.8081 29.0914 27.7909 29.028 27.7851 28.8868C27.7822 28.7888 27.811 28.6965 27.7765 28.5957C27.6583 28.2585 27.4682 27.9933 27.1426 27.829C26.8603 27.6849 26.6788 27.2613 26.7882 27.0394C26.9467 26.7195 27.2924 26.5609 27.6497 26.6359C27.667 26.6388 27.6871 26.6503 27.7073 26.656C27.7736 26.6849 27.8226 26.5955 27.7649 26.5523C27.6151 26.4457 27.3472 26.437 27.108 26.5465C26.915 26.633 26.7623 26.7684 26.6845 26.9644C26.5923 27.1979 26.624 27.4256 26.7277 27.6475C26.745 27.6821 26.722 27.7253 26.6845 27.7311C26.0968 27.8262 25.7395 28.0567 25.6445 28.3968C25.6272 28.4544 25.6992 28.4977 25.7424 28.4573C25.7741 28.4256 25.7885 28.368 25.8087 28.3392C25.9787 28.0683 26.2264 27.9328 26.5318 27.8896C27.2838 27.7887 27.8658 28.4717 27.5921 29.1346C27.5143 29.3219 27.3789 29.4632 27.2175 29.6015C27.1714 29.6418 27.206 29.7168 27.2665 29.7053C27.4365 29.6736 27.5287 29.5323 27.6266 29.4055C27.7995 29.1865 28.0502 29.1173 28.2778 29.2412C28.4967 29.3594 28.5572 29.5784 28.4477 29.8436C28.4276 29.8955 28.3757 29.9502 28.4535 29.9877C28.5227 30.0194 28.5543 29.956 28.5803 29.907C28.6955 29.7024 28.6898 29.4949 28.5572 29.3046C28.4218 29.1087 28.2201 29.0049 27.9868 29.0539H27.9839Z" fill="#012CFD"/>
<path d="M31.4585 23.7337C31.9511 23.6933 32.222 23.3821 32.438 22.9872C32.4755 22.921 32.4928 22.8403 32.5129 22.7653C32.5216 22.7279 32.5043 22.6962 32.464 22.6817C32.4236 22.6673 32.3919 22.6846 32.3747 22.7192C32.3574 22.7567 32.3487 22.7999 32.3343 22.8403C32.1096 23.4772 31.4239 23.7539 30.8045 23.5262C30.3003 23.3417 30.0237 22.8835 30.0842 22.3964C30.1447 21.8978 30.5538 21.503 31.0782 21.4309C31.1387 21.4223 31.2136 21.4453 31.2453 21.3791C31.2568 21.3531 31.251 21.3243 31.228 21.307C31.1646 21.258 31.0868 21.2868 31.0177 21.2984C30.6777 21.3445 30.4155 21.5289 30.1822 21.7681C29.9891 21.9641 29.6636 21.9901 29.4677 21.8431C29.2833 21.7047 29.1421 21.4425 29.3265 21.1658C29.3639 21.1081 29.289 21.0419 29.2372 21.088C29.1306 21.186 29.096 21.3329 29.1277 21.5289C29.1853 21.8719 29.3726 22.0073 29.9286 22.0852C29.9632 22.0909 29.9862 22.1255 29.9776 22.1601C29.8854 22.4858 29.9085 22.7999 30.0813 23.1025C30.2455 23.3907 30.4818 23.5925 30.7526 23.6933C30.7901 23.7078 30.8045 23.7567 30.7757 23.7884C30.7094 23.8663 30.6431 23.947 30.5797 24.0248C30.355 24.3043 30.2945 24.6214 30.4011 24.9614C30.5682 25.5004 31.3605 25.9442 31.6429 25.7108C31.6832 25.6762 31.663 25.6128 31.6112 25.607C31.5536 25.5984 31.493 25.6099 31.4354 25.6128C31.009 25.6157 30.6374 25.2208 30.5481 24.898C30.4155 24.4167 30.7036 23.7942 31.4556 23.7337H31.4585Z" fill="#012CFD"/>
<path d="M27.0014 0C12.089 0 0 11.753 0 26.2468V62.137H8.81321V45.986H9.12437L19.1851 62.137H34.8927V46.3001H45.109V62.137H54V26.2468C54 11.753 41.9139 0 27.0014 0ZM26.0795 58.2866L16.6123 43.0232L23.6479 31.9792C24.3797 32.5009 25.1979 32.9072 26.0795 33.1695V58.2866ZM28.7675 30.616C28.7214 30.7832 28.6148 30.8552 28.442 30.8696C28.0444 30.9042 27.497 30.4258 27.7678 29.9301C27.7937 29.8811 27.8139 29.8292 27.7649 29.8004C27.7015 29.7629 27.667 29.8177 27.641 29.8724C27.5748 30.0194 27.5517 30.1693 27.5805 30.348C27.5834 30.3739 27.569 30.3999 27.546 30.4114C27.2579 30.5324 26.9784 30.5526 26.6816 30.3912C26.1285 30.0915 26.1083 29.6678 26.3244 29.1836C26.3474 29.1318 26.2898 29.077 26.238 29.1087C26.1342 29.1721 26.0737 29.3104 26.0276 29.5583C26.0219 29.5871 25.9988 29.6044 25.97 29.6073C25.1374 29.6304 24.4373 28.7139 24.6562 27.9472C24.6649 27.9184 24.6908 27.9011 24.7225 27.904C25.3304 27.9847 25.8519 27.8204 26.2005 27.27C26.3186 27.0826 26.3907 26.8722 26.3676 26.6445C26.3647 26.6042 26.3215 26.5783 26.2841 26.5956C26.2322 26.6186 26.2264 26.659 26.2264 26.7022C26.2005 27.5149 25.2411 27.9933 24.5439 27.6936C23.8812 27.4083 23.5845 26.6417 24.0195 26.0019C24.1031 25.8779 24.1953 25.8145 24.3566 25.875C24.4402 25.9067 24.541 25.9442 24.6332 25.8895C24.6649 25.8693 24.6707 25.826 24.6447 25.7972C24.5929 25.7396 24.5064 25.7684 24.4402 25.7569C23.7746 25.6214 23.5182 24.973 23.789 24.4888C23.8323 24.4081 23.8956 24.3389 23.959 24.2697C24.0714 24.1429 24.1665 24.1141 24.2903 24.2841C24.5957 24.7136 25.0423 24.9067 25.5523 24.9585C25.6099 24.9643 25.6819 24.9903 25.7338 24.9326C25.7539 24.9096 25.7539 24.8721 25.7309 24.849C25.6617 24.7827 25.5609 24.8173 25.4802 24.8058C24.7225 24.7049 24.178 24.117 24.1549 23.3821C24.1348 22.6414 24.734 21.9872 25.5436 21.9065C25.5926 21.9007 25.6531 21.9122 25.7021 21.8863C25.7511 21.8632 25.7453 21.7941 25.6934 21.7768C25.6185 21.7508 25.5379 21.7768 25.4543 21.7652C25.4255 21.7624 25.4053 21.7393 25.4024 21.7105C25.3852 21.5318 25.3938 21.3502 25.4918 21.1802C25.7683 20.7075 26.3446 20.4626 26.8804 20.5807C26.9928 20.6067 27.0706 20.647 27.0418 20.7767C26.9784 21.0591 27.1714 21.2321 27.3212 21.4223C27.3529 21.4626 27.4019 21.4972 27.4509 21.4597C27.5085 21.4136 27.4797 21.356 27.4336 21.3156C27.2521 21.1398 27.2118 20.9237 27.1945 20.6787C27.1743 20.3761 27.3616 20.2118 27.5575 20.0591C27.909 19.7824 28.4016 19.8199 28.6292 20.1369C28.756 20.3127 28.805 20.5288 28.805 20.7479C28.8021 21.601 28.7935 22.454 28.7935 23.3071C28.7935 25.6157 28.8021 27.9242 28.805 30.2327C28.805 30.3595 28.805 30.4892 28.7733 30.6131L28.7675 30.616ZM34.0341 25.1545C33.9247 25.5148 33.6279 25.6358 33.3225 25.7511C33.2764 25.7684 33.2274 25.7771 33.1756 25.7857C33.1151 25.7972 33.1064 25.8808 33.1669 25.901C33.2361 25.924 33.3081 25.8923 33.3715 25.8808C33.6308 25.8347 33.7115 25.9039 33.8123 26.1488C33.8872 26.3275 33.9564 26.4947 33.9448 26.6907C33.9103 27.2757 33.4349 27.7368 32.827 27.7743C32.1903 27.8118 31.6457 27.4083 31.542 26.8261C31.5334 26.78 31.5363 26.7339 31.5276 26.6849C31.5161 26.6244 31.4297 26.6186 31.4124 26.6791C31.3663 26.8232 31.4066 27.0221 31.5391 27.2411C31.8503 27.757 32.2335 27.9905 33.0315 27.8982C33.0603 27.8954 33.0863 27.9126 33.0949 27.9415C33.3254 28.6793 32.6195 29.6275 31.7754 29.6217C31.7495 29.6217 31.7235 29.6015 31.7178 29.5756C31.6256 29.2096 31.614 29.175 31.4988 29.0712C31.47 29.0453 31.421 29.0539 31.4066 29.0885C31.3864 29.1346 31.4325 29.1836 31.4527 29.2297C31.6025 29.5439 31.5968 29.8494 31.3893 30.1376C31.1876 30.42 30.6316 30.5757 30.306 30.4575C30.2052 30.4229 30.1505 30.3739 30.1677 30.2586C30.1879 30.1289 30.1591 30.0021 30.0986 29.8869C30.0698 29.835 30.0496 29.7687 29.9805 29.7716C29.9574 29.7716 29.9344 29.7889 29.9286 29.809C29.9056 29.8696 29.9603 29.9186 29.9805 29.9733C30.0554 30.1895 30.0496 30.3941 29.8969 30.5728C29.7241 30.7745 29.5166 30.9042 29.2372 30.8639C29.1104 30.8466 29.0326 30.7688 28.998 30.6506C28.9577 30.5209 28.9491 30.3854 28.9491 30.25C28.9491 28.3017 28.9491 26.3535 28.9491 24.4052C28.9491 23.189 28.9433 21.9756 28.9519 20.7594C28.9519 20.5605 28.9116 20.3559 29.0701 20.1628C29.2429 19.9524 29.4388 19.866 29.6981 19.8833C30.0381 19.9034 30.3089 20.0648 30.4616 20.3559C30.6316 20.6816 30.6057 21.013 30.3493 21.3041C30.3204 21.3358 30.283 21.3646 30.2772 21.4136C30.2772 21.4396 30.2887 21.4626 30.3118 21.4713C30.3982 21.5116 30.4414 21.4252 30.4847 21.3733C30.6316 21.2004 30.7094 20.9957 30.7123 20.768C30.7123 20.6873 30.7296 20.6326 30.816 20.6067C31.6313 20.3732 32.4352 21.0188 32.3487 21.7249C32.3458 21.7479 32.3285 21.7681 32.3055 21.7768C32.2248 21.7969 32.1298 21.7479 32.052 21.7883C32.0203 21.8056 32.0116 21.8488 32.0318 21.8776C32.0808 21.941 32.1701 21.9122 32.2364 21.918C33.0632 22.0016 33.6337 22.6471 33.5991 23.4599C33.5732 24.0622 33.1093 24.6127 32.4899 24.7654C32.3631 24.7972 32.2421 24.8404 32.1038 24.849C32.0376 24.8519 32.026 24.947 32.0923 24.9672C32.1413 24.9816 32.1931 24.9672 32.2421 24.9614C32.7463 24.898 33.1612 24.679 33.4666 24.2669C33.4896 24.2352 33.5156 24.2035 33.5386 24.1717C33.5559 24.1487 33.5876 24.1429 33.6106 24.1545C33.9823 24.3389 34.1552 24.7655 34.0341 25.1574V25.1545ZM45.109 42.0866H34.8927V30.4863C36.0797 29.0482 36.7942 27.2008 36.7942 25.1891C36.7942 20.5894 33.0661 16.86 28.4679 16.86C23.8697 16.86 20.1416 20.5894 20.1416 25.1891C20.1416 26.3333 20.3721 27.4256 20.7898 28.417L12.4779 41.6946H8.81321V26.2468C8.81321 16.5343 16.8082 8.66056 26.9582 8.66056C37.1083 8.66056 45.109 16.5343 45.109 26.2468V42.0837V42.0866Z" fill="#012CFD"/>
</g>
<defs>
<clipPath id="clip0_99_2014">
<rect width="54" height="62.137" fill="white"/>
</clipPath>
</defs>
</svg>
