<svg width="34" height="39" viewBox="0 0 34 39" fill="none" xmlns="http://www.w3.org/2000/svg">
<path d="M17.0009 0C7.61159 0 0 7.37672 0 16.4737V39H5.54906V28.8629H5.74497L12.0795 39H21.9695V29.0601H28.402V39H34V16.4737C34 7.37672 26.3902 0 17.0009 0ZM16.4204 36.5833L10.4596 27.0033L14.8894 20.0716C15.3502 20.399 15.8653 20.6541 16.4204 20.8187V36.5833ZM18.1129 19.216C18.0839 19.3209 18.0168 19.3661 17.9079 19.3752C17.6576 19.3969 17.3129 19.0966 17.4834 18.7855C17.4998 18.7547 17.5125 18.7222 17.4816 18.7041C17.4417 18.6806 17.4199 18.7149 17.4036 18.7493C17.3619 18.8416 17.3474 18.9356 17.3655 19.0478C17.3673 19.0641 17.3583 19.0803 17.3438 19.0876C17.1624 19.1635 16.9864 19.1762 16.7996 19.0749C16.4513 18.8868 16.4386 18.6209 16.5746 18.317C16.5891 18.2844 16.5528 18.25 16.5202 18.2699C16.4549 18.3097 16.4168 18.3966 16.3878 18.5521C16.3841 18.5702 16.3696 18.5811 16.3515 18.5829C15.8272 18.5974 15.3864 18.0221 15.5243 17.541C15.5297 17.5229 15.5461 17.512 15.566 17.5138C15.9488 17.5645 16.2771 17.4614 16.4966 17.1159C16.571 16.9983 16.6163 16.8662 16.6018 16.7233C16.6 16.698 16.5728 16.6817 16.5492 16.6926C16.5166 16.707 16.5129 16.7324 16.5129 16.7595C16.4966 17.2696 15.8925 17.5699 15.4536 17.3818C15.0363 17.2027 14.8495 16.7215 15.1234 16.3199C15.176 16.2422 15.2341 16.2024 15.3356 16.2404C15.3883 16.2603 15.4517 16.2838 15.5098 16.2494C15.5297 16.2367 15.5334 16.2096 15.517 16.1915C15.4844 16.1553 15.43 16.1734 15.3883 16.1662C14.9692 16.0812 14.8078 15.6742 14.9783 15.3703C15.0055 15.3196 15.0454 15.2762 15.0853 15.2328C15.1561 15.1532 15.2159 15.1351 15.2939 15.2418C15.4862 15.5114 15.7674 15.6326 16.0885 15.6651C16.1247 15.6687 16.1701 15.685 16.2027 15.6488C16.2154 15.6344 16.2154 15.6109 16.2009 15.5964C16.1574 15.5548 16.0939 15.5765 16.0431 15.5692C15.566 15.5059 15.2232 15.1369 15.2087 14.6756C15.196 14.2108 15.5733 13.8001 16.083 13.7495C16.1139 13.7459 16.152 13.7531 16.1828 13.7368C16.2136 13.7224 16.21 13.6789 16.1773 13.6681C16.1302 13.6518 16.0794 13.6681 16.0268 13.6609C16.0086 13.659 15.9959 13.6446 15.9941 13.6265C15.9832 13.5143 15.9887 13.4004 16.0504 13.2936C16.2245 12.997 16.5873 12.8432 16.9247 12.9174C16.9955 12.9337 17.0444 12.959 17.0263 13.0404C16.9864 13.2177 17.1079 13.3262 17.2023 13.4456C17.2222 13.4709 17.2531 13.4926 17.2839 13.4691C17.3202 13.4402 17.302 13.404 17.273 13.3787C17.1587 13.2683 17.1333 13.1327 17.1224 12.9789C17.1097 12.789 17.2277 12.6859 17.351 12.59C17.5723 12.4163 17.8825 12.4398 18.0258 12.6388C18.1056 12.7492 18.1365 12.8848 18.1365 13.0223C18.1347 13.5577 18.1292 14.0932 18.1292 14.6286C18.1292 16.0776 18.1347 17.5265 18.1365 18.9754C18.1365 19.055 18.1365 19.1364 18.1165 19.2142L18.1129 19.216ZM21.4289 15.7881C21.36 16.0142 21.1731 16.0902 20.9808 16.1626C20.9518 16.1734 20.921 16.1789 20.8883 16.1843C20.8502 16.1915 20.8448 16.244 20.8829 16.2566C20.9264 16.2711 20.9718 16.2512 21.0117 16.244C21.1749 16.215 21.2257 16.2584 21.2892 16.4122C21.3364 16.5244 21.3799 16.6293 21.3727 16.7523C21.3509 17.1195 21.0516 17.4089 20.6688 17.4324C20.2679 17.4559 19.9251 17.2027 19.8598 16.8373C19.8543 16.8083 19.8562 16.7794 19.8507 16.7487C19.8435 16.7107 19.789 16.707 19.7782 16.745C19.7491 16.8355 19.7745 16.9603 19.858 17.0978C20.0539 17.4216 20.2952 17.5681 20.7976 17.5102C20.8158 17.5084 20.8321 17.5192 20.8375 17.5373C20.9827 18.0004 20.5382 18.5955 20.0067 18.5919C19.9904 18.5919 19.9741 18.5793 19.9704 18.563C19.9124 18.3333 19.9051 18.3115 19.8326 18.2464C19.8144 18.2301 19.7836 18.2356 19.7745 18.2573C19.7618 18.2862 19.7909 18.317 19.8036 18.3459C19.8979 18.5431 19.8943 18.7348 19.7636 18.9157C19.6367 19.093 19.2866 19.1907 19.0816 19.1165C19.0181 19.0948 18.9836 19.0641 18.9945 18.9917C19.0072 18.9103 18.9891 18.8307 18.951 18.7583C18.9328 18.7258 18.9201 18.6842 18.8766 18.686C18.8621 18.686 18.8476 18.6968 18.8439 18.7095C18.8294 18.7475 18.8639 18.7782 18.8766 18.8126C18.9238 18.9483 18.9201 19.0767 18.824 19.1889C18.7151 19.3155 18.5845 19.3969 18.4086 19.3716C18.3288 19.3607 18.2798 19.3119 18.258 19.2377C18.2326 19.1563 18.2272 19.0713 18.2272 18.9863C18.2272 17.7635 18.2272 16.5406 18.2272 15.3178C18.2272 14.5545 18.2236 13.7929 18.229 13.0295C18.229 12.9047 18.2036 12.7763 18.3034 12.6551C18.4122 12.5231 18.5356 12.4688 18.6988 12.4796C18.9129 12.4923 19.0834 12.5936 19.1795 12.7763C19.2866 12.9807 19.2702 13.1887 19.1088 13.3714C19.0906 13.3913 19.0671 13.4094 19.0634 13.4402C19.0634 13.4564 19.0707 13.4709 19.0852 13.4763C19.1396 13.5017 19.1668 13.4474 19.194 13.4148C19.2866 13.3063 19.3355 13.1779 19.3374 13.035C19.3374 12.9843 19.3482 12.95 19.4027 12.9337C19.916 12.7872 20.4221 13.1923 20.3677 13.6355C20.3659 13.65 20.355 13.6627 20.3405 13.6681C20.2897 13.6807 20.2298 13.65 20.1809 13.6753C20.1609 13.6862 20.1555 13.7133 20.1682 13.7314C20.199 13.7712 20.2552 13.7531 20.297 13.7567C20.8176 13.8092 21.1768 14.2144 21.155 14.7245C21.1387 15.1026 20.8466 15.4481 20.4566 15.5439C20.3768 15.5638 20.3006 15.591 20.2135 15.5964C20.1718 15.5982 20.1645 15.6579 20.2063 15.6705C20.2371 15.6796 20.2698 15.6705 20.3006 15.6669C20.618 15.6271 20.8793 15.4897 21.0715 15.231C21.0861 15.2111 21.1024 15.1912 21.1169 15.1713C21.1278 15.1568 21.1477 15.1532 21.1622 15.1604C21.3963 15.2762 21.5051 15.5439 21.4289 15.7899V15.7881ZM28.402 26.4154H21.9695V19.1346C22.7169 18.232 23.1667 17.0724 23.1667 15.8098C23.1667 12.9228 20.8194 10.5821 17.9242 10.5821C15.0291 10.5821 12.6817 12.9228 12.6817 15.8098C12.6817 16.528 12.8269 17.2135 13.0899 17.8358L7.85648 26.1694H5.54906V16.4737C5.54906 10.3777 10.5829 5.43576 16.9737 5.43576C23.3645 5.43576 28.402 10.3777 28.402 16.4737V26.4136V26.4154Z" fill="white"/>
</svg>
