<svg width="16" height="15" viewBox="0 0 16 15" fill="none" xmlns="http://www.w3.org/2000/svg">
<g clip-path="url(#clip0_126_845)">
<path d="M10.45 8.90691C11.1584 7.97955 11.5856 6.83357 11.5856 5.59591C11.5819 2.51058 8.98585 0 5.79096 0C2.59607 0 0 2.51058 0 5.59238C0 8.67419 2.59973 11.1848 5.79096 11.1848C7.31356 11.1848 8.69375 10.61 9.73072 9.68265L15.0799 14.8484C15.1858 14.9506 15.3245 15 15.4596 15C15.5947 15 15.7371 14.9506 15.8393 14.8484C16.0511 14.6439 16.0511 14.3159 15.8393 14.1114L10.4464 8.90339L10.45 8.90691ZM5.79096 10.1446C3.19124 10.1446 1.07713 8.10296 1.07713 5.59238C1.07713 3.08181 3.19124 1.0402 5.79096 1.0402C8.39069 1.0402 10.5048 3.08181 10.5048 5.59238C10.5048 8.10296 8.39069 10.1446 5.79096 10.1446Z" fill="#012CFD"/>
</g>
<defs>
<clipPath id="clip0_126_845">
<rect width="16" height="15" fill="white"/>
</clipPath>
</defs>
</svg>
