<svg width="20" height="20" viewBox="0 0 20 20" fill="none" xmlns="http://www.w3.org/2000/svg">
<g clip-path="url(#clip0_100_2498)">
<path d="M9.99338 20C4.48709 20 0 15.5129 0 9.99338C0 4.47386 4.48709 0 9.99338 0C15.4997 0 19.9868 4.4871 19.9868 9.99338C19.9868 15.4997 15.4997 19.9868 9.99338 19.9868V20ZM9.99338 0.542687C4.77829 0.542687 0.542687 4.77829 0.542687 9.99338C0.542687 15.2085 4.77829 19.4441 9.99338 19.4441C15.2085 19.4441 19.4441 15.2085 19.4441 9.99338C19.4441 4.77829 15.2085 0.542687 9.99338 0.542687Z" fill="#012CFD"/>
<path d="M9.99329 16.0555C9.84769 16.0555 9.71533 15.9364 9.71533 15.7776V4.34144C9.71533 4.19584 9.83446 4.06348 9.99329 4.06348C10.1521 4.06348 10.2713 4.1826 10.2713 4.34144V15.7908C10.2713 15.9364 10.1521 16.0688 9.99329 16.0688V16.0555Z" fill="#012CFD"/>
<path d="M15.7249 10.3375H4.27552C4.12992 10.3375 3.99756 10.2184 3.99756 10.0596C3.99756 9.90074 4.11669 9.78162 4.27552 9.78162H15.7249C15.8705 9.78162 16.0029 9.90074 16.0029 10.0596C16.0029 10.2184 15.8837 10.3375 15.7249 10.3375Z" fill="#012CFD"/>
</g>
<defs>
<clipPath id="clip0_100_2498">
<rect width="20" height="20" fill="white"/>
</clipPath>
</defs>
</svg>
