<svg width="430" height="420" viewBox="0 0 674 405" fill="none" xmlns="http://www.w3.org/2000/svg">
<g clip-path="url(#clip0_97_1127)">
<path d="M622.36 206.4H561.84C557.66 206.4 554.27 203.01 554.27 198.83V115.07C554.27 110.89 557.66 107.5 561.84 107.5H600.22L629.93 138.12V198.83C629.93 203.01 626.54 206.4 622.36 206.4Z" fill="#ECECEC"/>
<path d="M600.22 107.5V131.07C600.22 134.96 603.37 138.11 607.26 138.11H629.93L600.22 107.49V107.5Z" fill="#F5F5F5"/>
<path d="M600.53 133.14C600.53 133.14 600.23 138.86 606.74 140.74C606.98 140.81 607.24 140.86 607.49 140.91C610.45 141.44 629.93 144.9 629.93 144.46C629.93 143.98 629.93 138.13 629.93 138.13H607.26C607.26 138.13 601.6 137.94 600.53 133.15V133.14Z" fill="#E1E1E1"/>
<path d="M622.36 206.4C622.36 206.4 622.81 206.4 623.67 206.25C624.51 206.09 625.79 205.71 627.1 204.65C628.37 203.6 629.68 201.76 629.81 199.31C629.85 196.87 629.81 194.03 629.81 190.87C629.79 178.19 629.76 160.04 629.72 138.12L629.78 138.27C620.79 129.01 610.75 118.69 600.05 107.67L600.23 107.75C593.11 107.75 585.71 107.75 578.08 107.75C574.27 107.75 570.4 107.75 566.5 107.75C565.52 107.75 564.54 107.75 563.56 107.75C562.58 107.76 561.58 107.7 560.65 107.86C558.77 108.16 557.02 109.25 555.9 110.82C555.12 111.91 554.64 113.21 554.56 114.54C554.51 115.88 554.55 117.28 554.53 118.65C554.53 121.39 554.53 124.12 554.53 126.82C554.53 132.23 554.53 137.56 554.53 142.79C554.53 153.26 554.52 163.36 554.51 172.99C554.51 177.8 554.51 182.49 554.5 187.05C554.5 189.33 554.5 191.58 554.5 193.79C554.5 194.9 554.5 195.99 554.5 197.08C554.52 198.17 554.43 199.25 554.64 200.27C555.03 202.32 556.35 204.11 558.07 205.14C558.93 205.66 559.89 205.99 560.86 206.13C561.83 206.25 562.85 206.19 563.84 206.21C567.81 206.21 571.62 206.22 575.26 206.23C589.8 206.26 601.58 206.29 609.73 206.31C613.79 206.33 616.94 206.35 619.1 206.36C620.16 206.37 620.97 206.38 621.54 206.39C622.09 206.39 622.37 206.42 622.37 206.42C622.37 206.42 622.09 206.44 621.54 206.45C620.98 206.45 620.16 206.46 619.1 206.48C616.94 206.49 613.79 206.51 609.73 206.53C601.58 206.55 589.8 206.58 575.26 206.61C571.62 206.61 567.81 206.62 563.84 206.63C562.85 206.61 561.85 206.68 560.81 206.56C559.78 206.42 558.77 206.07 557.86 205.53C556.04 204.45 554.65 202.56 554.23 200.39C554.01 199.3 554.1 198.2 554.08 197.12C554.08 196.03 554.08 194.94 554.08 193.83C554.08 191.62 554.08 189.37 554.08 187.09C554.08 182.53 554.08 177.84 554.07 173.03C554.07 163.41 554.07 153.31 554.05 142.83C554.05 137.59 554.05 132.26 554.05 126.86C554.05 124.16 554.05 121.43 554.05 118.69C554.06 117.31 554.02 115.96 554.08 114.55C554.17 113.13 554.68 111.73 555.51 110.56C556.7 108.88 558.58 107.71 560.6 107.39C561.62 107.22 562.61 107.29 563.59 107.28C564.57 107.28 565.55 107.28 566.53 107.28C570.44 107.28 574.3 107.28 578.11 107.28C585.73 107.28 593.14 107.28 600.26 107.28H600.37L600.44 107.36C611.13 118.39 621.14 128.73 630.13 138L630.19 138.06V138.15C630.15 160.07 630.12 178.22 630.1 190.9C630.08 194.07 630.1 196.89 630.05 199.35C629.9 201.87 628.53 203.73 627.23 204.78C625.88 205.85 624.58 206.21 623.73 206.34C623.3 206.41 622.97 206.43 622.74 206.43C622.52 206.43 622.41 206.43 622.41 206.43L622.36 206.4Z" fill="#E1E1E1"/>
<path d="M629.93 138.12C629.93 138.12 629.73 138.16 629.35 138.17C628.91 138.18 628.36 138.2 627.68 138.22C626.16 138.24 624.08 138.27 621.54 138.3C618.93 138.32 615.84 138.33 612.43 138.35C610.71 138.35 608.91 138.35 607.05 138.35C605.12 138.31 603.14 137.43 601.79 135.88C601.11 135.11 600.6 134.21 600.3 133.26C599.98 132.32 599.94 131.28 599.97 130.37C599.97 128.51 599.98 126.71 599.99 124.99C600.01 121.58 600.03 118.5 600.05 115.88C600.08 113.34 600.11 111.26 600.13 109.74C600.15 109.06 600.17 108.51 600.18 108.07C600.2 107.69 600.21 107.49 600.23 107.49C600.25 107.49 600.27 107.69 600.28 108.07C600.29 108.51 600.31 109.06 600.33 109.74C600.35 111.26 600.38 113.34 600.41 115.88C600.43 118.49 600.44 121.58 600.47 124.99C600.47 126.71 600.47 128.5 600.49 130.37C600.37 132.21 600.9 134.1 602.19 135.54C603.45 136.98 605.28 137.8 607.08 137.84C608.94 137.84 610.74 137.86 612.45 137.87C615.86 137.89 618.94 137.91 621.56 137.93C624.1 137.96 626.18 137.99 627.7 138.01C628.38 138.03 628.93 138.05 629.37 138.06C629.75 138.08 629.95 138.09 629.95 138.11L629.93 138.12Z" fill="#E1E1E1"/>
<path d="M599.08 128.53C599.08 128.67 591.93 128.79 583.12 128.79C574.31 128.79 567.16 128.67 567.16 128.53C567.16 128.39 574.31 128.27 583.12 128.27C591.93 128.27 599.08 128.39 599.08 128.53Z" fill="#E1E1E1"/>
<path d="M614.23 140.29C614.23 140.43 603.69 140.55 590.69 140.55C577.69 140.55 567.15 140.43 567.15 140.29C567.15 140.15 577.69 140.03 590.69 140.03C603.69 140.03 614.23 140.15 614.23 140.29Z" fill="#E1E1E1"/>
<path d="M614.23 152.05C614.23 152.19 603.69 152.31 590.69 152.31C577.69 152.31 567.15 152.19 567.15 152.05C567.15 151.91 577.69 151.79 590.69 151.79C603.69 151.79 614.23 151.91 614.23 152.05Z" fill="#E1E1E1"/>
<path d="M614.23 163.81C614.23 163.95 603.69 164.07 590.69 164.07C577.69 164.07 567.15 163.95 567.15 163.81C567.15 163.67 577.69 163.55 590.69 163.55C603.69 163.55 614.23 163.67 614.23 163.81Z" fill="#E1E1E1"/>
<path d="M614.23 175.57C614.23 175.71 603.69 175.83 590.69 175.83C577.69 175.83 567.15 175.71 567.15 175.57C567.15 175.43 577.69 175.31 590.69 175.31C603.69 175.31 614.23 175.43 614.23 175.57Z" fill="#E1E1E1"/>
<path d="M614.23 190.07C614.23 190.21 603.69 190.33 590.69 190.33C577.69 190.33 567.15 190.21 567.15 190.07C567.15 189.93 577.69 189.81 590.69 189.81C603.69 189.81 614.23 189.93 614.23 190.07Z" fill="#E1E1E1"/>
<path d="M544.93 166.98H587.89C590.22 166.98 592.11 168.87 592.11 171.2V185.85C592.11 188.18 590.22 190.07 587.89 190.07H544.93C542.6 190.07 540.71 188.18 540.71 185.85V171.2C540.71 168.87 542.6 166.98 544.93 166.98Z" fill="#E1E1E1"/>
<path d="M546.66 174.51H550.62C553.47 174.51 555.43 176.23 555.43 178.87C555.43 181.51 553.47 183.23 550.62 183.23H546.66V174.5V174.51ZM550.52 181.58C552.25 181.58 553.39 180.55 553.39 178.87C553.39 177.19 552.26 176.16 550.52 176.16H548.68V181.57H550.52V181.58Z" fill="white"/>
<path d="M556.41 178.87C556.41 176.28 558.43 174.36 561.18 174.36C563.93 174.36 565.95 176.27 565.95 178.87C565.95 181.47 563.92 183.38 561.18 183.38C558.44 183.38 556.41 181.46 556.41 178.87ZM563.91 178.87C563.91 177.21 562.74 176.08 561.18 176.08C559.62 176.08 558.45 177.21 558.45 178.87C558.45 180.53 559.62 181.66 561.18 181.66C562.74 181.66 563.91 180.53 563.91 178.87Z" fill="white"/>
<path d="M566.93 178.87C566.93 176.24 568.95 174.36 571.67 174.36C573.18 174.36 574.44 174.91 575.26 175.91L573.96 177.11C573.37 176.44 572.64 176.09 571.77 176.09C570.14 176.09 568.98 177.24 568.98 178.88C568.98 180.52 570.14 181.67 571.77 181.67C572.64 181.67 573.38 181.32 573.96 180.63L575.26 181.83C574.44 182.84 573.18 183.39 571.66 183.39C568.95 183.39 566.94 181.51 566.94 178.88L566.93 178.87Z" fill="white"/>
<path d="M581.93 183.24L579.82 180.21L577.75 183.24H575.43L578.66 178.8L575.59 174.51H577.88L579.89 177.34L581.86 174.51H584.04L581 178.72L584.25 183.23H581.92L581.93 183.24Z" fill="white"/>
<path d="M550.53 314.55L504.71 394.69L414.05 396C411.17 396.04 408.81 398.31 408.65 401.19L500.85 401.45L504.32 401.33L619.76 401.56L643.09 361.33L672.89 318.62C674.84 315.82 672.83 311.98 669.42 311.99L554.18 312.43C552.67 312.43 551.29 313.24 550.54 314.55H550.53Z" fill="#ECECEC"/>
<path d="M672.9 315.03C672.9 315.03 672.71 315.07 672.35 315.09C671.92 315.11 671.38 315.12 670.73 315.15C669.21 315.18 667.13 315.21 664.5 315.26C658.99 315.3 651.18 315.37 641.57 315.44C622.13 315.48 595.43 315.54 565.94 315.61C564.09 315.61 562.26 315.61 560.43 315.61C558.7 315.48 557.13 316.24 556.23 317.59C554.49 320.72 552.78 323.81 551.1 326.84C547.73 332.93 544.47 338.81 541.37 344.41C535.16 355.58 529.56 365.64 524.83 374.12C520.12 382.49 516.3 389.3 513.6 394.1C512.29 396.38 511.25 398.19 510.5 399.5C510.16 400.06 509.89 400.52 509.67 400.89C509.48 401.2 509.37 401.35 509.35 401.34C509.33 401.34 509.41 401.16 509.57 400.83C509.77 400.44 510.01 399.97 510.3 399.38C511.01 398.04 511.98 396.2 513.22 393.87C515.84 389.02 519.56 382.16 524.14 373.71C528.8 365.19 534.33 355.09 540.46 343.88C543.54 338.27 546.78 332.38 550.13 326.28C551.82 323.22 553.54 320.11 555.29 316.95C556.36 315.25 558.52 314.29 560.44 314.45C562.26 314.45 564.1 314.45 565.95 314.45C595.44 314.52 622.14 314.57 641.58 314.62C651.19 314.7 658.99 314.76 664.51 314.8C667.14 314.85 669.23 314.88 670.74 314.91C671.4 314.93 671.93 314.95 672.36 314.97C672.73 314.99 672.91 315.01 672.91 315.03H672.9Z" fill="#E1E1E1"/>
<path d="M591.66 355.32C589.62 357.58 589.57 360.86 591.55 362.65C593.53 364.44 596.79 364.05 598.83 361.79C600.87 359.53 600.92 356.25 598.94 354.46C596.96 352.67 593.7 353.06 591.66 355.32Z" fill="white"/>
<path d="M8.20996 316.06V363.99H0.209961V369.19H8.20996V401.27H157.79V372.08H146.71V365.72H157.79V356.18H162.71V351.85H156.86V316.06H8.20996Z" fill="#F5F5F5"/>
<path d="M118.07 316.2V400.73H157.79V371.55H146.71V365.72L157.79 365.92V356.38L162.81 356.39L162.72 351.46L156.87 351.32V316.06L118.07 316.2Z" fill="#E1E1E1"/>
<path d="M120.9 368.5C120.9 368.79 93.83 369.03 60.45 369.03C27.07 369.03 0 368.79 0 368.5C0 368.21 27.06 367.97 60.45 367.97C93.84 367.97 120.9 368.21 120.9 368.5Z" fill="#E1E1E1"/>
<path d="M120.9 363.63C120.9 363.92 93.83 364.16 60.45 364.16C27.07 364.16 0 363.92 0 363.63C0 363.34 27.06 363.1 60.45 363.1C93.84 363.1 120.9 363.34 120.9 363.63Z" fill="#E1E1E1"/>
<path d="M128.67 350.53C128.67 350.82 101.6 351.06 68.22 351.06C34.84 351.06 7.77002 350.82 7.77002 350.53C7.77002 350.24 34.83 350 68.22 350C101.61 350 128.67 350.24 128.67 350.53Z" fill="#E1E1E1"/>
<path d="M129.41 386.24C129.41 386.53 102.34 386.77 68.9598 386.77C35.5798 386.77 8.50977 386.53 8.50977 386.24C8.50977 385.95 35.5698 385.71 68.9598 385.71C102.35 385.71 129.41 385.95 129.41 386.24Z" fill="#E1E1E1"/>
<path d="M507.35 112.05H448.23C444.14 112.05 440.83 108.74 440.83 104.65V22.83C440.83 18.74 444.14 15.43 448.23 15.43H485.72L514.74 45.34V104.65C514.74 108.74 511.43 112.05 507.34 112.05H507.35Z" fill="#ECECEC"/>
<path d="M485.729 15.43V38.46C485.729 42.26 488.809 45.34 492.609 45.34H514.749L485.729 15.43Z" fill="#F5F5F5"/>
<path d="M486.029 40.48C486.029 40.48 485.739 46.07 492.099 47.9C492.339 47.97 492.579 48.02 492.829 48.06C495.719 48.58 514.749 51.96 514.749 51.53C514.749 51.06 514.749 45.34 514.749 45.34H492.609C492.609 45.34 487.079 45.15 486.029 40.48Z" fill="#E1E1E1"/>
<path d="M507.35 112.05C507.35 112.05 507.79 112.05 508.63 111.9C509.45 111.75 510.7 111.38 511.98 110.34C513.22 109.31 514.5 107.52 514.63 105.12C514.67 102.73 514.63 99.97 514.63 96.88C514.61 84.49 514.58 66.76 514.54 45.35L514.6 45.5C505.81 36.46 496.01 26.37 485.56 15.61L485.74 15.69C478.79 15.69 471.55 15.69 464.11 15.69C460.39 15.69 456.61 15.69 452.79 15.69C451.84 15.69 450.88 15.69 449.92 15.69C448.96 15.7 447.99 15.64 447.08 15.79C445.24 16.08 443.53 17.15 442.44 18.68C441.68 19.74 441.21 21.02 441.13 22.31C441.08 23.62 441.12 24.99 441.1 26.32C441.1 29 441.1 31.66 441.1 34.3C441.1 39.58 441.1 44.79 441.1 49.9C441.1 60.13 441.09 70 441.09 79.4C441.09 84.1 441.09 88.68 441.08 93.14C441.08 95.37 441.08 97.56 441.08 99.72C441.08 100.8 441.08 101.87 441.08 102.93C441.1 104 441.01 105.05 441.22 106.04C441.6 108.04 442.89 109.79 444.56 110.79C445.4 111.3 446.33 111.62 447.29 111.75C448.23 111.87 449.23 111.81 450.2 111.83C454.08 111.83 457.8 111.84 461.36 111.85C475.57 111.88 487.07 111.91 495.03 111.93C498.99 111.95 502.08 111.97 504.19 111.98C505.23 111.99 506.02 112 506.57 112.01C507.11 112.01 507.38 112.04 507.38 112.04C507.38 112.04 507.11 112.06 506.57 112.07C506.02 112.07 505.23 112.08 504.19 112.1C502.08 112.11 499 112.13 495.03 112.15C487.06 112.17 475.56 112.2 461.36 112.23C457.81 112.23 454.08 112.24 450.2 112.25C449.23 112.23 448.26 112.3 447.24 112.18C446.23 112.05 445.24 111.7 444.35 111.17C442.57 110.11 441.21 108.27 440.8 106.15C440.58 105.08 440.67 104.01 440.65 102.96C440.65 101.9 440.65 100.83 440.65 99.75C440.65 97.59 440.65 95.4 440.65 93.17C440.65 88.72 440.65 84.13 440.64 79.43C440.64 70.03 440.64 60.16 440.62 49.93C440.62 44.81 440.62 39.61 440.62 34.33C440.62 31.69 440.62 29.03 440.62 26.35C440.63 25 440.59 23.68 440.65 22.3C440.74 20.91 441.24 19.54 442.05 18.4C443.22 16.76 445.05 15.61 447.02 15.3C448.02 15.13 448.99 15.2 449.94 15.19C450.9 15.19 451.86 15.19 452.81 15.19C456.63 15.19 460.4 15.19 464.13 15.19C471.58 15.19 478.81 15.19 485.76 15.19H485.87L485.94 15.27C496.38 26.05 506.17 36.15 514.94 45.2L515 45.26V45.35C514.96 66.76 514.93 84.49 514.91 96.88C514.89 99.98 514.91 102.73 514.86 105.14C514.71 107.6 513.38 109.42 512.1 110.45C510.78 111.49 509.51 111.84 508.68 111.98C508.26 112.05 507.93 112.07 507.72 112.07C507.5 112.07 507.39 112.07 507.39 112.07L507.35 112.05Z" fill="#E1E1E1"/>
<path d="M514.75 45.34C514.75 45.34 514.55 45.38 514.18 45.39C513.75 45.4 513.21 45.42 512.55 45.44C511.06 45.46 509.03 45.49 506.55 45.52C504 45.54 500.99 45.55 497.65 45.57C495.97 45.57 494.21 45.57 492.39 45.57C490.5 45.53 488.57 44.67 487.24 43.15C486.58 42.4 486.08 41.52 485.79 40.58C485.48 39.66 485.44 38.65 485.47 37.75C485.47 35.93 485.48 34.17 485.49 32.5C485.51 29.17 485.53 26.16 485.55 23.6C485.58 21.12 485.61 19.09 485.63 17.6C485.65 16.94 485.67 16.4 485.68 15.97C485.7 15.6 485.71 15.4 485.73 15.4C485.75 15.4 485.77 15.6 485.78 15.97C485.79 16.4 485.81 16.94 485.83 17.6C485.85 19.09 485.88 21.12 485.91 23.6C485.93 26.15 485.94 29.16 485.97 32.5C485.97 34.18 485.97 35.93 485.99 37.75C485.87 39.55 486.39 41.39 487.65 42.8C488.88 44.2 490.67 45.01 492.42 45.05C494.24 45.05 495.99 45.07 497.67 45.08C501 45.1 504.01 45.12 506.57 45.14C509.05 45.17 511.08 45.2 512.57 45.22C513.23 45.24 513.77 45.26 514.2 45.27C514.57 45.29 514.77 45.3 514.77 45.32L514.75 45.34Z" fill="#E1E1E1"/>
<path d="M484.61 35.98C484.61 36.12 477.63 36.24 469.02 36.24C460.41 36.24 453.42 36.12 453.42 35.98C453.42 35.84 460.4 35.72 469.02 35.72C477.63 35.72 484.61 35.84 484.61 35.98Z" fill="#E1E1E1"/>
<path d="M499.41 47.47C499.41 47.61 489.11 47.73 476.42 47.73C463.72 47.73 453.42 47.61 453.42 47.47C453.42 47.33 463.71 47.21 476.42 47.21C489.12 47.21 499.41 47.33 499.41 47.47Z" fill="#E1E1E1"/>
<path d="M499.41 58.96C499.41 59.1 489.11 59.22 476.42 59.22C463.72 59.22 453.42 59.1 453.42 58.96C453.42 58.82 463.71 58.7 476.42 58.7C489.13 58.7 499.41 58.82 499.41 58.96Z" fill="#E1E1E1"/>
<path d="M499.41 70.44C499.41 70.58 489.11 70.7 476.42 70.7C463.72 70.7 453.43 70.58 453.43 70.44C453.43 70.3 463.72 70.18 476.42 70.18C489.12 70.18 499.41 70.3 499.41 70.44Z" fill="#E1E1E1"/>
<path d="M499.41 81.93C499.41 82.07 489.11 82.19 476.42 82.19C463.73 82.19 453.43 82.07 453.43 81.93C453.43 81.79 463.72 81.67 476.42 81.67C489.12 81.67 499.41 81.79 499.41 81.93Z" fill="#E1E1E1"/>
<path d="M499.41 96.1C499.41 96.24 489.11 96.36 476.42 96.36C463.72 96.36 453.43 96.24 453.43 96.1C453.43 95.96 463.72 95.84 476.42 95.84C489.12 95.84 499.41 95.96 499.41 96.1Z" fill="#E1E1E1"/>
<path d="M473.58 73.54H431.81C429.479 73.54 427.59 75.4294 427.59 77.76V91.88C427.59 94.2106 429.479 96.1 431.81 96.1H473.58C475.91 96.1 477.8 94.2106 477.8 91.88V77.76C477.8 75.4294 475.91 73.54 473.58 73.54Z" fill="#E1E1E1"/>
<path d="M447.22 83.99C447.22 85.89 445.8 87.07 443.52 87.07H441.8V89.42H439.83V80.9H443.52C445.8 80.9 447.22 82.08 447.22 83.99ZM445.22 83.99C445.22 83.05 444.61 82.5 443.41 82.5H441.8V85.46H443.41C444.62 85.46 445.22 84.91 445.22 83.99Z" fill="white"/>
<path d="M448.62 80.9H452.49C455.28 80.9 457.19 82.58 457.19 85.16C457.19 87.74 455.28 89.42 452.49 89.42H448.62V80.9ZM452.39 87.8C454.08 87.8 455.19 86.79 455.19 85.16C455.19 83.53 454.08 82.52 452.39 82.52H450.59V87.8H452.39Z" fill="white"/>
<path d="M460.65 82.48V84.73H464.6V86.31H460.65V89.42H458.68V80.9H465.12V82.48H460.65Z" fill="white"/>
<path d="M208.77 76.2H240.71V21.16L208.77 21.16V76.2Z" fill="#ECECEC"/>
<path d="M119.68 77.07H144.9V8.35998H119.68V77.07Z" fill="#ECECEC"/>
<path d="M119.39 13.32C119.39 13.11 125.16 12.94 132.27 12.94C139.38 12.94 145.15 13.11 145.15 13.32C145.15 13.53 139.38 13.7 132.27 13.7C125.16 13.7 119.39 13.53 119.39 13.32Z" fill="#FAFAFA"/>
<path d="M120.78 16.58C120.78 16.37 126.23 16.2 132.96 16.2C139.69 16.2 145.14 16.37 145.14 16.58C145.14 16.79 139.69 16.96 132.96 16.96C126.23 16.96 120.78 16.79 120.78 16.58Z" fill="#FAFAFA"/>
<path d="M131.57 63.52C131.36 63.52 131.19 54.42 131.19 43.19C131.19 31.96 131.36 22.86 131.57 22.86C131.78 22.86 131.95 31.96 131.95 43.19C131.95 54.42 131.78 63.52 131.57 63.52Z" fill="#FAFAFA"/>
<path d="M119.68 69.81C119.68 69.6 125.21 69.43 132.03 69.43C138.85 69.43 144.38 69.6 144.38 69.81C144.38 70.02 138.85 70.19 132.03 70.19C125.21 70.19 119.68 70.02 119.68 69.81Z" fill="#FAFAFA"/>
<path d="M119.68 72.76C119.68 72.55 125.35 72.38 132.34 72.38C139.33 72.38 145 72.55 145 72.76C145 72.97 139.33 73.14 132.34 73.14C125.35 73.14 119.68 72.97 119.68 72.76Z" fill="#FAFAFA"/>
<path d="M144.89 77.07H165.15V0.930008H144.89V77.07Z" fill="#E1E1E1"/>
<path d="M144.76 35.9C144.83 35.82 146.01 36.66 147.89 38.07C149.98 39.65 152.46 41.54 155.2 43.62C157.94 45.71 160.42 47.59 162.5 49.18C164.36 50.62 165.49 51.53 165.43 51.62C165.37 51.7 164.13 50.94 162.18 49.62C160.24 48.3 157.59 46.4 154.73 44.23C151.87 42.06 149.34 40.02 147.55 38.5C145.75 36.98 144.69 35.99 144.75 35.91L144.76 35.9Z" fill="#FAFAFA"/>
<path d="M144.67 23.98C144.81 23.82 149.45 27.57 155.04 32.36C160.63 37.15 165.05 41.16 164.91 41.32C164.77 41.48 160.13 37.73 154.54 32.94C148.95 28.15 144.53 24.14 144.67 23.98Z" fill="#FAFAFA"/>
<path d="M56.83 77.13H66.52L66.52 4.60001H56.83L56.83 77.13Z" fill="#ECECEC"/>
<path d="M57.2402 14.47C57.2402 14.72 59.2702 14.93 61.7802 14.93C64.2902 14.93 66.3202 14.73 66.3202 14.47C66.3202 14.21 64.2902 14.01 61.7802 14.01C59.2702 14.01 57.2402 14.21 57.2402 14.47Z" fill="#FAFAFA"/>
<path d="M57.04 12.89C57.04 13.14 59.07 13.35 61.58 13.35C64.09 13.35 66.12 13.15 66.12 12.89C66.12 12.63 64.09 12.43 61.58 12.43C59.07 12.43 57.04 12.63 57.04 12.89Z" fill="#FAFAFA"/>
<path d="M57.2402 71.52C57.2402 71.77 59.2702 71.98 61.7802 71.98C64.2902 71.98 66.3202 71.78 66.3202 71.52C66.3202 71.26 64.2902 71.06 61.7802 71.06C59.2702 71.06 57.2402 71.26 57.2402 71.52Z" fill="#FAFAFA"/>
<path d="M57.04 69.94C57.04 70.19 59.07 70.4 61.58 70.4C64.09 70.4 66.12 70.2 66.12 69.94C66.12 69.68 64.09 69.48 61.58 69.48C59.07 69.48 57.04 69.68 57.04 69.94Z" fill="#FAFAFA"/>
<path d="M61.98 60.46C62.23 60.46 62.44 52.15 62.44 41.91C62.44 31.67 62.24 23.35 61.98 23.35C61.72 23.35 61.52 31.66 61.52 41.91C61.52 52.16 61.72 60.46 61.98 60.46Z" fill="#FAFAFA"/>
<path d="M100.26 76.66H119.64L119.64 4.13H100.26L100.26 76.66Z" fill="#E1E1E1"/>
<path d="M114.19 77.59C114.19 77.59 114.28 77.46 114.42 77.2C114.56 76.93 114.74 76.53 114.97 75.99C115.41 74.91 116.03 73.28 116.38 71.07C116.69 68.9 116.78 65.98 115.25 63.09C114.49 61.67 113.34 60.32 111.81 59.3C110.29 58.3 108.3 57.65 106.23 57.98C105.2 58.15 104.18 58.58 103.34 59.31C102.5 60.02 101.88 61.16 101.95 62.37C102 63.58 102.7 64.68 103.61 65.44C104.52 66.21 105.68 66.73 106.92 66.84C109.38 67.13 111.93 66.09 113.79 64.34C115.72 62.61 116.9 60.04 117.2 57.37C117.52 54.69 117.09 51.91 116.2 49.28C115.29 46.65 113.82 44.05 111.45 42.21C110.27 41.31 108.81 40.66 107.27 40.56C105.73 40.43 104.07 40.92 102.92 42.1C102.35 42.69 101.96 43.51 101.92 44.37C101.88 45.23 102.16 46.05 102.59 46.74C103.46 48.14 104.94 49.03 106.5 49.41C109.67 50.09 112.97 48.84 115.04 46.55C117.13 44.26 118.05 41.25 118.36 38.38C118.65 35.49 118.43 32.59 117.53 29.91C116.64 27.25 114.89 24.85 112.52 23.47C110.21 22.07 107.28 21.61 104.82 22.66C103.6 23.16 102.52 24.28 102.32 25.62C102.08 26.93 102.44 28.27 103.2 29.27C104.82 31.32 107.61 31.66 109.73 31C111.91 30.33 113.58 28.86 114.88 27.34C117.5 24.24 118.63 20.57 118.74 17.39C118.85 14.18 117.97 11.48 116.95 9.51001C115.92 7.52001 114.74 6.21001 113.9 5.40001C113.47 5.00001 113.13 4.71001 112.89 4.53001C112.65 4.35001 112.52 4.26001 112.51 4.27001C112.38 4.36001 114.63 5.72001 116.62 9.66001C117.57 11.62 118.38 14.26 118.22 17.36C118.06 20.43 116.92 23.96 114.38 26.91C113.12 28.36 111.51 29.72 109.52 30.31C107.6 30.9 105.11 30.52 103.79 28.8C103.16 27.96 102.86 26.81 103.07 25.75C103.25 24.67 104.07 23.82 105.13 23.38C107.28 22.47 109.95 22.87 112.08 24.17C114.25 25.45 115.86 27.65 116.69 30.17C117.54 32.69 117.74 35.49 117.46 38.26C117.16 41.01 116.26 43.82 114.35 45.91C112.5 47.97 109.46 49.1 106.69 48.49C105.33 48.16 104.06 47.38 103.35 46.23C102.6 45.1 102.62 43.62 103.56 42.69C104.46 41.75 105.87 41.3 107.19 41.42C108.54 41.5 109.82 42.06 110.9 42.88C113.06 44.54 114.5 47.01 115.37 49.52C116.24 52.05 116.65 54.71 116.36 57.23C116.08 59.75 115.02 62.11 113.24 63.71C111.52 65.34 109.2 66.29 107 66.05C104.87 65.87 102.79 64.25 102.66 62.29C102.6 61.32 103.07 60.4 103.79 59.77C104.51 59.13 105.42 58.73 106.34 58.57C108.21 58.25 110.05 58.81 111.5 59.74C112.95 60.68 114.06 61.95 114.8 63.29C116.29 66 116.28 68.84 116.03 70.98C115.75 73.16 115.19 74.79 114.8 75.88C114.4 76.97 114.16 77.53 114.19 77.55V77.59Z" fill="#FAFAFA"/>
<path d="M66.3805 76.69H100L100 10.63H66.3805V76.69Z" fill="#FAFAFA"/>
<path d="M67.5303 21.61C67.5303 21.86 74.8203 22.07 83.8003 22.07C92.7803 22.07 100.07 21.87 100.07 21.61C100.07 21.35 92.7903 21.15 83.8003 21.15C74.8103 21.15 67.5303 21.35 67.5303 21.61Z" fill="#E1E1E1"/>
<path d="M67.1104 26.62C67.1104 26.87 74.3003 27.08 83.1703 27.08C92.0403 27.08 99.2403 26.88 99.2403 26.62C99.2403 26.36 92.0504 26.16 83.1703 26.16C74.2903 26.16 67.1104 26.36 67.1104 26.62Z" fill="#E1E1E1"/>
<path d="M66.0303 69.22C66.0303 69.47 73.6103 69.68 82.9503 69.68C92.2903 69.68 99.8703 69.48 99.8703 69.22C99.8703 68.96 92.3003 68.76 82.9503 68.76C73.6003 68.76 66.0303 68.96 66.0303 69.22Z" fill="#E1E1E1"/>
<path d="M66.4805 63.34C66.4805 63.59 73.8605 63.8 82.9605 63.8C92.0605 63.8 99.4405 63.6 99.4405 63.34C99.4405 63.08 92.0605 62.88 82.9605 62.88C73.8605 62.88 66.4805 63.08 66.4805 63.34Z" fill="#E1E1E1"/>
<path d="M165.12 76.2H184.5V3.66998H165.12V76.2Z" fill="#ECECEC"/>
<path d="M179.06 77.13C179.06 77.13 179.15 77 179.29 76.74C179.43 76.47 179.61 76.07 179.84 75.53C180.28 74.45 180.9 72.82 181.25 70.61C181.56 68.44 181.65 65.52 180.12 62.63C179.36 61.21 178.21 59.86 176.68 58.84C175.16 57.84 173.17 57.19 171.1 57.52C170.07 57.69 169.05 58.12 168.21 58.85C167.37 59.56 166.75 60.7 166.82 61.91C166.87 63.13 167.57 64.22 168.48 64.98C169.39 65.75 170.55 66.27 171.79 66.38C174.25 66.67 176.8 65.63 178.66 63.88C180.59 62.15 181.77 59.58 182.07 56.91C182.39 54.23 181.96 51.45 181.07 48.82C180.16 46.19 178.69 43.59 176.32 41.75C175.14 40.85 173.68 40.2 172.14 40.1C170.6 39.97 168.94 40.46 167.79 41.64C167.22 42.23 166.83 43.05 166.79 43.91C166.75 44.77 167.03 45.59 167.46 46.28C168.33 47.68 169.81 48.57 171.37 48.95C174.54 49.63 177.84 48.38 179.91 46.09C182 43.8 182.92 40.79 183.23 37.92C183.52 35.03 183.3 32.13 182.4 29.45C181.51 26.79 179.76 24.39 177.39 23.01C175.08 21.61 172.15 21.15 169.69 22.2C168.47 22.7 167.39 23.82 167.19 25.16C166.95 26.47 167.31 27.81 168.07 28.81C169.69 30.86 172.48 31.2 174.6 30.54C176.78 29.87 178.45 28.4 179.75 26.88C182.37 23.78 183.5 20.11 183.61 16.93C183.72 13.72 182.84 11.02 181.82 9.04999C180.79 7.05999 179.61 5.74999 178.77 4.93999C178.34 4.53999 178 4.24999 177.76 4.06999C177.52 3.88999 177.39 3.79999 177.38 3.80999C177.25 3.89999 179.5 5.25999 181.49 9.19999C182.44 11.16 183.25 13.8 183.09 16.9C182.93 19.97 181.79 23.5 179.25 26.45C177.99 27.9 176.38 29.26 174.39 29.85C172.47 30.44 169.98 30.06 168.66 28.34C168.03 27.5 167.73 26.35 167.94 25.29C168.12 24.21 168.94 23.36 170 22.92C172.15 22.01 174.82 22.41 176.94 23.71C179.11 24.99 180.72 27.19 181.55 29.71C182.4 32.23 182.6 35.03 182.32 37.8C182.02 40.54 181.12 43.36 179.21 45.45C177.36 47.51 174.32 48.64 171.55 48.03C170.19 47.7 168.92 46.92 168.21 45.77C167.46 44.64 167.48 43.16 168.42 42.23C169.32 41.29 170.73 40.84 172.05 40.96C173.4 41.04 174.68 41.6 175.76 42.42C177.92 44.08 179.36 46.55 180.23 49.06C181.1 51.59 181.51 54.25 181.22 56.77C180.94 59.29 179.88 61.65 178.1 63.25C176.38 64.88 174.06 65.83 171.86 65.59C169.73 65.41 167.65 63.79 167.52 61.83C167.46 60.86 167.93 59.94 168.65 59.31C169.37 58.67 170.28 58.27 171.2 58.11C173.07 57.79 174.91 58.35 176.36 59.28C177.81 60.22 178.92 61.49 179.66 62.83C181.15 65.54 181.14 68.38 180.89 70.52C180.61 72.7 180.05 74.33 179.66 75.42C179.26 76.51 179.02 77.07 179.05 77.09L179.06 77.13Z" fill="#FAFAFA"/>
<path d="M29.9001 76.2H56.8301L56.8301 1.52588e-05H29.9001L29.9001 76.2Z" fill="#E1E1E1"/>
<path d="M184.5 76.2H209.69V8.37001H184.5V76.2Z" fill="#E1E1E1"/>
<path d="M210.33 42.19C210.45 42.07 211.61 43.68 214.33 45.04C215.68 45.72 217.41 46.28 219.4 46.45C221.38 46.6 223.57 46.3 225.69 45.36C227.81 44.45 229.76 43.29 231.74 42.6C233.69 41.89 235.66 41.68 237.23 42.1C238.79 42.49 239.87 43.34 240.41 44.03C240.97 44.73 241.06 45.23 241.03 45.24C240.97 45.27 240.78 44.82 240.18 44.23C239.6 43.64 238.56 42.92 237.1 42.63C235.65 42.31 233.83 42.55 231.97 43.27C230.09 43.96 228.18 45.12 225.98 46.07C223.79 47.05 221.4 47.37 219.33 47.16C217.24 46.95 215.45 46.3 214.07 45.53C212.69 44.77 211.73 43.92 211.13 43.28C210.53 42.64 210.28 42.23 210.31 42.2L210.33 42.19Z" fill="#FAFAFA"/>
<path d="M209.76 48.9C209.88 48.78 211.04 50.39 213.76 51.75C215.11 52.43 216.84 52.99 218.83 53.16C220.81 53.31 223 53.01 225.12 52.07C227.24 51.16 229.19 50 231.17 49.31C233.12 48.6 235.1 48.39 236.66 48.81C238.22 49.2 239.3 50.04 239.84 50.74C240.4 51.44 240.49 51.94 240.46 51.95C240.4 51.98 240.21 51.53 239.61 50.94C239.03 50.35 237.99 49.63 236.53 49.34C235.08 49.02 233.26 49.26 231.4 49.98C229.52 50.67 227.61 51.83 225.41 52.78C223.22 53.76 220.83 54.08 218.76 53.87C216.67 53.66 214.88 53.01 213.5 52.24C212.12 51.48 211.16 50.63 210.56 49.99C209.96 49.35 209.71 48.94 209.74 48.91L209.76 48.9Z" fill="#FAFAFA"/>
<path d="M210.18 27.18C210.18 26.97 217.12 26.8 225.67 26.8C234.22 26.8 241.16 26.97 241.16 27.18C241.16 27.39 234.23 27.56 225.67 27.56C217.11 27.56 210.18 27.39 210.18 27.18Z" fill="#FAFAFA"/>
<path d="M198.77 19.29C198.71 19.41 197.93 18.72 196.58 19.11C195.95 19.3 195.2 19.75 194.88 20.52C194.53 21.27 194.81 22.29 195.52 22.98C196.24 23.67 197.26 23.91 198 23.53C198.76 23.18 199.19 22.41 199.35 21.77C199.68 20.41 198.96 19.65 199.08 19.59C199.11 19.56 199.33 19.68 199.56 20.06C199.8 20.43 199.99 21.08 199.88 21.88C199.76 22.65 199.33 23.63 198.31 24.17C197.29 24.74 195.87 24.42 194.98 23.54C194.07 22.69 193.7 21.28 194.22 20.24C194.72 19.21 195.68 18.74 196.44 18.59C197.23 18.45 197.89 18.62 198.27 18.84C198.65 19.06 198.78 19.28 198.76 19.3L198.77 19.29Z" fill="#FAFAFA"/>
<path d="M197.14 69.4C196.93 69.4 196.76 59.89 196.76 48.16C196.76 36.43 196.93 26.92 197.14 26.92C197.35 26.92 197.52 36.43 197.52 48.16C197.52 59.89 197.35 69.4 197.14 69.4Z" fill="#FAFAFA"/>
<path d="M267.02 75.81H6.33984V90.69H267.02V75.81Z" fill="#ECECEC"/>
<path d="M267.02 75.81H244.26V90.69H267.02V75.81Z" fill="#E1E1E1"/>
<path d="M280.13 74.67L278.86 177.08C278.64 194.5 281.88 220.12 309.43 219.21C333.27 216.61 339.6 194.04 339.78 177.79C339.87 170.08 339.96 163.65 340.02 162.86C340.02 162.86 366.12 160.73 368.32 134.95C369.38 122.49 369.49 96.65 369.31 73.28C369.12 48.17 349.65 27.43 324.61 25.61L322.12 25.43C295.16 25.04 279.76 47.72 280.12 74.68L280.13 74.67Z" fill="#FFC3A3"/>
<path d="M340.03 162.86C340.03 162.86 323.7 162.63 307.16 150.47C307.16 150.47 313.98 169.92 339.9 169.47L340.03 162.85V162.86Z" fill="#F59F75"/>
<path d="M325.25 83.84C324.74 84.36 321.76 81.97 317.44 81.85C313.13 81.67 309.9 83.85 309.44 83.3C309.22 83.05 309.75 82.1 311.16 81.11C312.55 80.12 314.89 79.2 317.58 79.29C320.27 79.39 322.5 80.47 323.78 81.54C325.08 82.62 325.5 83.61 325.25 83.84Z" fill="#1E2E34"/>
<path d="M324.34 92.78C324.27 94.63 322.65 96.09 320.72 96.05C318.8 96.01 317.29 94.49 317.36 92.64C317.43 90.79 319.05 89.33 320.97 89.37C322.9 89.41 324.41 90.93 324.34 92.78Z" fill="#1E2E34"/>
<path d="M336.07 113.89C336.07 113.66 338.56 113.42 342.6 113.2C343.62 113.17 344.59 113.04 344.81 112.36C345.1 111.65 344.76 110.52 344.35 109.31C343.58 106.79 342.77 104.15 341.92 101.38C338.56 90.1 336.21 80.85 336.67 80.72C337.13 80.59 340.22 89.63 343.57 100.91C344.37 103.69 345.14 106.34 345.87 108.88C346.17 110.06 346.73 111.41 346.1 112.89C345.77 113.63 344.99 114.12 344.33 114.25C343.67 114.4 343.1 114.37 342.59 114.36C338.55 114.28 336.06 114.12 336.06 113.89H336.07Z" fill="#1E2E34"/>
<path d="M323.41 67.6C322.99 68.56 319.53 67.84 315.39 68.05C311.25 68.18 307.85 69.18 307.37 68.25C307.16 67.81 307.8 66.93 309.21 66.07C310.61 65.22 312.79 64.47 315.27 64.36C317.75 64.26 319.98 64.83 321.43 65.57C322.89 66.31 323.59 67.14 323.41 67.59V67.6Z" fill="#1E2E34"/>
<path d="M364.43 75.61C363.98 76.39 360.61 75.52 356.52 75.4C352.44 75.2 349.05 75.8 348.61 74.98C348.42 74.59 349.09 73.89 350.52 73.27C351.93 72.65 354.11 72.18 356.56 72.27C359.01 72.37 361.17 73.02 362.57 73.75C363.97 74.48 364.63 75.24 364.43 75.61Z" fill="#1E2E34"/>
<path d="M280.85 93.93C280.42 93.71 263.5 87.39 262.78 105.07C262.06 122.75 279.96 119.83 280.01 119.33C280.06 118.83 280.85 93.93 280.85 93.93Z" fill="#FFC3A3"/>
<path d="M274.88 112.41C274.8 112.35 274.56 112.61 274.03 112.83C273.51 113.04 272.63 113.17 271.73 112.78C269.89 112.02 268.44 108.99 268.48 105.8C268.5 104.19 268.9 102.67 269.52 101.43C270.11 100.16 270.99 99.29 271.93 99.16C272.87 98.98 273.52 99.57 273.71 100.08C273.93 100.58 273.8 100.93 273.89 100.97C273.94 101.02 274.28 100.69 274.17 99.95C274.11 99.6 273.92 99.17 273.52 98.81C273.11 98.45 272.49 98.25 271.84 98.29C270.47 98.33 269.19 99.53 268.51 100.9C267.75 102.27 267.26 103.98 267.24 105.78C267.21 109.35 268.9 112.76 271.42 113.6C272.65 113.98 273.7 113.64 274.26 113.25C274.83 112.84 274.93 112.44 274.88 112.41Z" fill="#F59F75"/>
<path d="M331.9 126.13C332.09 125.68 328.63 124.65 326.19 121.4C324.97 119.8 324.27 118.06 323.74 116.78C323.22 115.5 322.83 114.69 322.64 114.75C322.46 114.81 322.5 115.68 322.79 117.07C323.09 118.45 323.69 120.43 325.07 122.24C326.43 124.08 328.25 125.17 329.59 125.7C330.94 126.25 331.85 126.28 331.9 126.13Z" fill="#1E2E34"/>
<path d="M403.56 50.13C403.28 49.09 402.52 48.24 401.6 47.69C399.58 46.5 397.26 46.66 395.01 46.62C388.17 46.51 381.38 44.42 375.62 40.73C372.92 36.84 369.89 33.19 366.6 29.8C358.79 21.74 352.36 16.26 345.7 13.58C337.1 10.12 322.71 8.70999 313.74 11.07C304.77 13.42 296.71 20.7 295.47 29.89C290.44 25.64 282.89 25.67 276.76 28.14L276.61 28.07C269.79 30.5 265.91 37.71 263.9 44.67C261.89 51.63 261.03 59.07 257.34 65.31C256.57 66.61 255.65 68.18 256.33 69.53C256.85 70.58 258.18 71.01 259.34 70.84C260.5 70.67 261.53 70.03 262.52 69.4C261.76 71.22 261 73.04 260.24 74.87C262.71 75.3 265.27 75.1 267.66 74.37C269.11 80.88 270.84 88.31 272.51 92.72C275.36 92.72 277.97 92.92 279.73 94.5C282.12 96.65 283.19 100.69 287.16 99.16C289.18 98.38 291.03 94.14 291.7 92.08C296.19 78.42 297.68 63.78 296.06 49.49C298.89 46.48 302.3 44.02 306.05 42.28L305.74 42.55C312.95 40.05 321.09 37.59 327.93 40.97C333.23 43.59 336.35 49.1 340.31 53.49C347.82 61.81 357.96 66.33 369.16 66.82C369.54 74.08 368.93 84.34 369.31 91.6L375.42 79.97V80.03C375.93 79.18 376.34 78.32 376.74 77.46L376.88 77.2V77.17C377.51 75.79 378.12 74.41 378.92 73.04C378.94 73.06 378.97 73.08 378.99 73.1C382.92 76.57 388.72 71.26 385.62 67.03C385 66.19 384.27 65.44 383.43 64.83C385.23 66.52 387.91 67.33 390.27 66.6C392.63 65.88 394.46 63.49 394.25 61.03C394.11 59.35 392.91 57.85 391.4 57.19C394.58 57.43 397.83 56.74 400.6 55.16C402.42 54.12 404.2 52.42 403.58 50.14L403.56 50.13Z" fill="#1E2E34"/>
<path d="M303.58 32.85C303.63 32.92 302.5 33.53 300.99 35.22C299.5 36.9 297.82 39.81 297.03 43.78C296.62 45.75 296.37 47.96 296.37 50.33C296.36 52.71 296.55 55.25 296.73 57.93C296.9 60.61 297.1 63.44 296.92 66.39C296.83 67.86 296.66 69.36 296.34 70.85C296.02 72.32 295.63 73.91 294.52 75.18C293.64 76.21 292.16 76.67 290.88 76.4C289.59 76.17 288.44 75.49 287.61 74.55C285.95 72.61 285.54 70.16 285.12 67.99L285.66 68.06C284.78 70.01 283.87 71.93 282.52 73.46C281.2 75 279.37 76.03 277.5 76.19C276.57 76.27 275.64 76.12 274.84 75.72C274.03 75.32 273.44 74.65 273.03 73.94C272.64 73.22 272.44 72.42 272.48 71.65C272.52 70.88 272.82 70.16 273.31 69.64L273.58 69.88C271.59 72.14 269.49 73.36 268.04 74.04C267.31 74.38 266.72 74.58 266.32 74.71C265.92 74.83 265.71 74.88 265.7 74.86C265.7 74.84 265.89 74.76 266.28 74.61C266.66 74.45 267.23 74.22 267.94 73.86C269.35 73.14 271.38 71.89 273.29 69.64L273.56 69.88C272.69 70.8 272.64 72.41 273.39 73.71C273.77 74.35 274.31 74.95 275.02 75.28C275.73 75.63 276.58 75.76 277.43 75.67C279.14 75.5 280.85 74.54 282.09 73.07C283.36 71.6 284.24 69.73 285.11 67.78L285.48 66.95L285.65 67.84C286.06 70 286.5 72.36 288.02 74.11C288.77 74.95 289.82 75.57 290.95 75.76C292.08 75.98 293.27 75.61 294.04 74.72C295.01 73.63 295.41 72.12 295.72 70.67C296.03 69.21 296.21 67.75 296.3 66.3C296.48 63.4 296.3 60.59 296.14 57.91C295.97 55.23 295.8 52.68 295.83 50.27C295.85 47.87 296.13 45.63 296.57 43.63C297.43 39.61 299.2 36.66 300.77 35C302.36 33.34 303.53 32.79 303.53 32.79L303.58 32.85Z" fill="#3F5963"/>
<path d="M383.36 57.94C383.36 57.94 383.3 58.01 383.15 58.12C382.98 58.25 382.76 58.4 382.51 58.59C382.23 58.8 381.87 59.05 381.42 59.29C380.97 59.55 380.47 59.86 379.85 60.12C377.45 61.26 373.61 62.39 368.81 62.11C364.05 61.84 358.34 60.16 353.25 56.36C348.1 52.66 343.58 47.2 339.88 40.95C338 37.83 336.48 34.63 334.79 31.67C333.12 28.71 331.27 25.98 329.03 23.82C326.82 21.65 324.25 20.05 321.6 19.31C320.28 18.92 318.95 18.83 317.68 18.86C316.41 18.93 315.2 19.18 314.09 19.55C311.87 20.3 310.07 21.52 308.71 22.79C307.34 24.06 306.43 25.41 305.8 26.57C304.63 28.94 304.56 30.46 304.47 30.44C304.46 30.44 304.47 30.35 304.49 30.17C304.52 29.96 304.56 29.7 304.61 29.38C304.74 28.69 305.03 27.69 305.59 26.47C306.2 25.28 307.1 23.88 308.48 22.56C309.85 21.24 311.67 19.96 313.95 19.16C315.09 18.77 316.33 18.49 317.65 18.41C318.96 18.36 320.36 18.45 321.73 18.84C324.48 19.58 327.14 21.22 329.41 23.43C331.71 25.63 333.61 28.41 335.3 31.39C337.01 34.37 338.54 37.56 340.4 40.65C344.07 46.85 348.53 52.25 353.58 55.92C358.58 59.68 364.16 61.37 368.84 61.69C373.56 62.02 377.36 60.98 379.75 59.92C382.17 58.84 383.31 57.89 383.36 57.96V57.94Z" fill="#3F5963"/>
<path d="M385.709 46.61C385.709 46.61 385.4 46.87 384.79 47.25C384.18 47.64 383.239 48.13 382.049 48.64C380.859 49.16 379.389 49.65 377.709 50.06C376.029 50.44 374.15 50.72 372.17 50.8C370.18 50.85 368.289 50.69 366.589 50.42C364.899 50.12 363.39 49.72 362.17 49.28C360.95 48.84 359.979 48.42 359.349 48.07C358.709 47.73 358.37 47.52 358.39 47.49C358.44 47.39 359.859 48.12 362.309 48.88C363.529 49.27 365.019 49.61 366.679 49.88C368.349 50.12 370.209 50.26 372.159 50.2C374.109 50.13 375.949 49.87 377.599 49.53C379.249 49.16 380.709 48.72 381.899 48.25C384.289 47.33 385.669 46.51 385.719 46.61H385.709Z" fill="#3F5963"/>
<path d="M364.629 85.47C364.119 85.99 361.139 83.59 356.819 83.48C352.509 83.3 349.279 85.48 348.819 84.93C348.599 84.68 349.129 83.73 350.539 82.74C351.929 81.75 354.269 80.83 356.959 80.92C359.649 81.02 361.879 82.1 363.159 83.17C364.459 84.25 364.879 85.24 364.629 85.47Z" fill="#1E2E34"/>
<path d="M360.22 94.03C360.15 95.88 358.53 97.34 356.6 97.3C354.68 97.26 353.17 95.74 353.24 93.89C353.31 92.05 354.93 90.58 356.85 90.62C358.78 90.66 360.29 92.18 360.22 94.03Z" fill="#1E2E34"/>
<path d="M521.33 188.32C521.33 180.83 514.17 180.83 514.17 180.83C511.44 177.25 508.37 178.55 508.37 178.55L496.78 186.37C495.08 189.3 483.83 200.38 483.83 200.38C480.76 198.1 480.76 193.54 477.09 188C473.41 182.46 465.09 183.11 465.09 183.11C465.09 183.11 471.57 197.77 472.25 206.89C472.93 216.01 467.27 241.45 467.27 241.45L500.04 250.66C500.04 250.66 502.11 236.7 505.78 235.58C510.2 234.22 512.66 227.7 512.66 227.7C517.44 218.02 527.14 203.96 528.5 196.79C529.86 189.62 521.34 188.32 521.34 188.32H521.33Z" fill="#FFC3A3"/>
<path d="M277.66 172.12C298.53 185.24 319.56 190.17 340.87 181.68L372.89 189.86L404.4 400.35L219.68 401.95L228.78 353.06L251.68 177.4L277.67 172.11L277.66 172.12Z" fill="#012CFD"/>
<path d="M372.89 189.85C372.89 189.85 397.8 200.19 407.3 218.31C416.81 236.43 432.08 287.28 432.08 287.28L460.22 235.6L512.45 248.95C512.45 248.95 473.57 356.19 463.81 365.95C453.12 376.64 424 387.42 409.75 379.1C395.49 370.78 392.59 339.21 392.59 339.21L372.88 189.85H372.89Z" fill="#012CFD"/>
<path d="M374.6 277.9C374.46 277.9 374.34 268.55 374.34 257.02C374.34 245.49 374.46 236.14 374.6 236.14C374.74 236.14 374.86 245.49 374.86 257.02C374.86 268.55 374.74 277.9 374.6 277.9Z" fill="#1E2E34"/>
<path d="M384.35 201.88C384.42 201.91 383.92 203.21 383.13 205.33C382.35 207.44 381.3 210.38 380.29 213.66C379.27 216.95 378.48 219.95 377.93 222.14C377.38 224.33 377.06 225.69 376.98 225.67C376.94 225.67 376.98 225.31 377.08 224.69C377.17 224.06 377.34 223.16 377.57 222.06C378.03 219.85 378.77 216.81 379.79 213.51C380.81 210.21 381.91 207.28 382.79 205.2C383.23 204.16 383.6 203.32 383.87 202.75C384.14 202.18 384.31 201.87 384.34 201.89L384.35 201.88Z" fill="#1E2E34"/>
<path d="M248.29 256.23L254.07 176.92C254.07 176.92 210.59 180.95 196.2 211.63C184.07 237.48 150.61 315.25 147.02 325.89C136.51 357.11 152.93 400.03 220.63 397.55L228.35 355.11L248.29 256.24V256.23Z" fill="#012CFD"/>
<path d="M199.61 363.95C199.61 363.95 199.72 363.68 199.96 363.19C200.23 362.66 200.6 361.95 201.06 361.06C202.06 359.17 203.47 356.52 205.21 353.26C205.65 352.44 206.11 351.58 206.6 350.68C207.09 349.79 207.66 348.82 208.59 348.12C209.52 347.42 210.74 347.14 211.93 347.16C213.13 347.17 214.34 347.43 215.53 347.74C217.93 348.37 220.39 349.27 222.81 350.49C224.01 351.1 225.21 351.82 226.3 352.72L226.7 353.07C226.86 353.21 226.99 353.43 227.04 353.61C227.17 353.98 227.23 354.34 227.26 354.7C227.33 355.42 227.33 356.14 227.31 356.85C227.2 359.72 226.85 362.48 226.49 365.14C226.12 367.8 225.72 370.36 225.31 372.8C224.49 377.67 223.67 382.04 222.97 385.7C222.26 389.32 221.68 392.27 221.27 394.37C221.08 395.36 220.92 396.14 220.81 396.73C220.7 397.27 220.65 397.55 220.64 397.55C220.62 397.55 220.64 397.26 220.71 396.71C220.78 396.16 220.91 395.36 221.08 394.33C221.45 392.22 221.97 389.26 222.62 385.63C223.27 381.96 224.06 377.59 224.85 372.72C225.24 370.29 225.64 367.73 226 365.07C226.35 362.41 226.7 359.65 226.8 356.83C226.82 356.13 226.82 355.42 226.76 354.74C226.73 354.4 226.67 354.07 226.57 353.78C226.51 353.63 226.46 353.54 226.36 353.44L225.98 353.11C224.93 352.25 223.77 351.55 222.59 350.94C220.22 349.73 217.79 348.84 215.43 348.2C214.25 347.89 213.08 347.63 211.94 347.61C210.81 347.58 209.7 347.84 208.86 348.46C208.01 349.08 207.46 349.99 206.97 350.86C206.48 351.75 206.01 352.61 205.56 353.42C203.77 356.65 202.31 359.28 201.27 361.14C200.77 362.01 200.38 362.71 200.08 363.23C199.8 363.7 199.65 363.95 199.63 363.94L199.61 363.95Z" fill="#1E2E34"/>
<path d="M168.17 326.27C168.17 326.27 168.35 326.25 168.68 326.25C169.07 326.27 169.56 326.28 170.14 326.31C171.41 326.37 173.24 326.48 175.5 326.69C177.76 326.9 180.45 327.22 183.4 327.84C186.34 328.45 189.54 329.4 192.69 330.92C195.82 332.45 198.6 334.3 200.86 336.31C203.09 338.34 204.82 340.51 205.82 342.58C206.83 344.64 207.25 346.48 207.32 347.75C207.41 348.38 207.34 348.88 207.35 349.22C207.34 349.55 207.33 349.73 207.31 349.73C207.25 349.73 207.27 349.02 207.12 347.78C206.99 346.53 206.52 344.74 205.49 342.75C204.47 340.75 202.75 338.65 200.54 336.67C198.3 334.71 195.55 332.9 192.46 331.39C189.37 329.9 186.21 328.95 183.3 328.31C180.39 327.67 177.71 327.31 175.47 327.06C173.22 326.8 171.4 326.64 170.13 326.52C169.55 326.46 169.07 326.41 168.68 326.37C168.35 326.33 168.17 326.3 168.18 326.28L168.17 326.27Z" fill="#1E2E34"/>
<path d="M214.69 322.27C214.75 322.3 214.36 323.49 213.61 325.39C212.87 327.29 211.76 329.88 210.48 332.71C209.24 335.47 208.11 337.97 207.22 339.96C206.39 341.82 205.87 342.97 205.8 342.94C205.74 342.91 206.13 341.72 206.88 339.82C207.62 337.92 208.73 335.33 210.01 332.5C211.25 329.74 212.38 327.24 213.27 325.25C214.1 323.39 214.62 322.24 214.69 322.27Z" fill="#1E2E34"/>
<path d="M238.75 259.85C238.61 259.85 238.49 254.82 238.49 248.62C238.49 242.42 238.61 237.39 238.75 237.39C238.89 237.39 239.01 242.42 239.01 248.62C239.01 254.82 238.89 259.85 238.75 259.85Z" fill="#1E2E34"/>
<g opacity="0.3">
<path d="M207.3 349.72C195.86 353.71 188.13 364.09 185.01 375.79C184.68 377.02 184.46 378.47 185.28 379.44C186.13 380.44 187.75 380.41 188.87 379.73C189.99 379.06 190.72 377.91 191.42 376.8C196.93 367.98 202.31 359.81 207.3 349.72Z" fill="black"/>
</g>
<g opacity="0.3">
<path d="M193.11 327.1C187.13 323.78 180.25 322.35 173.42 321.94C170.74 321.78 168.08 322.09 165.46 322.64C161.89 323.39 157.79 325.19 157 327.76C165.21 325.19 177.29 326.88 185.7 328.72C194.18 330.57 201.07 335.38 205.79 342.96C203.76 336.57 198.97 330.37 193.1 327.11L193.11 327.1Z" fill="black"/>
</g>
<path d="M232.35 226.07C232.35 226.07 232.17 225.63 231.95 224.82C231.74 224.01 231.39 222.84 230.92 221.41C229.98 218.56 228.41 214.69 226.09 210.74C223.76 206.79 221.15 203.54 219.11 201.33C218.09 200.22 217.24 199.35 216.63 198.77C216.03 198.18 215.71 197.84 215.73 197.81C215.75 197.78 216.12 198.07 216.77 198.62C217.42 199.16 218.32 200 219.38 201.08C221.5 203.24 224.19 206.49 226.54 210.48C228.88 214.48 230.42 218.4 231.28 221.31C231.71 222.76 232.01 223.95 232.16 224.78C232.32 225.61 232.4 226.07 232.36 226.08L232.35 226.07Z" fill="#1E2E34"/>
<path d="M248.32 401.92L199.87 285.03C197.66 279.7 200.43 275.37 206.06 275.37H215.81C219.79 275.37 222.5 273.18 222.75 269.76L223.07 265.46C223.33 262.04 226.04 259.85 230.03 259.85H276.35C279.96 259.85 284.04 261.65 287.08 264.6L290.84 268.24C293.87 271.18 297.95 272.99 301.56 272.99H360.55C366.18 272.99 372.49 277.31 374.64 282.65L422.67 401.93H248.32V401.92Z" fill="#FF7E66"/>
<path d="M248.32 401.92L199.87 285.03C197.66 279.7 200.43 275.37 206.06 275.37H215.81C219.79 275.37 222.5 273.18 222.75 269.76L223.07 265.46C223.33 262.04 226.04 259.85 230.03 259.85H276.35C279.96 259.85 284.04 261.65 287.08 264.6L290.84 268.24C293.87 271.18 297.95 272.99 301.56 272.99H360.55C366.18 272.99 372.49 277.31 374.64 282.65L422.67 401.93H248.32V401.92Z" fill="#1E2E34"/>
<path d="M240.31 362.22L222.04 291.57C220.84 286.92 223.88 282.25 228.12 282.25H371.35C374.18 282.25 376.67 284.4 377.45 287.51L404.05 393.85C405.22 398.52 403.35 401.32 399.11 401.27L255 401.31C252.21 401.27 249.76 399.16 248.98 396.09L240.32 362.22H240.31Z" fill="#E1E1E1"/>
<path d="M250.21 398.72L242.43 287.46C242.15 283.51 245.28 280.16 249.24 280.16H397.64V398.72H250.22H250.21Z" fill="#ECECEC"/>
<path d="M248.55 401.27L266.2 286.57C267.01 282.83 270.38 280.16 274.27 280.16H424.39C430.32 280.16 434.31 286.12 431.97 291.46L399.55 396.42L248.54 401.25L248.55 401.27Z" fill="#FAFAFA"/>
<path d="M248.32 401.87L284.73 294.45C286.25 289.97 290.3 286.98 294.86 286.98H449.62C454.61 286.98 458.12 292.09 456.53 297.02L422.67 401.93L248.32 401.88V401.87Z" fill="#1E2E34"/>
<g opacity="0.3">
<path d="M323.15 383.88C323.15 383.88 317.31 384.15 314.61 384.33C301.78 385.21 288.75 382.89 277.01 377.66C273.37 376.04 269.52 373.75 268.42 369.92C267.19 365.63 269.97 361.16 273.35 358.25C276.74 355.34 280.86 353.27 283.8 349.91C286.74 346.55 288.13 341.11 285.24 337.72L284.44 338.31C282.35 343.61 276.52 346.17 271.69 349.21C262.72 354.85 255.89 363.78 252.79 373.91C251.09 379.47 250.64 385.96 254.01 390.7C256.4 394.06 260.32 395.97 264.19 397.41C275.9 401.75 288.41 401.91 300.9 401.93C304.85 401.93 316.95 401.77 316.95 401.77C320.76 400.73 322.01 398.75 324.3 395.54C326.4 392.59 325.94 386.21 323.15 383.89V383.88Z" fill="black"/>
</g>
<path d="M323.15 383.88L282.79 377.81L267.12 368.79C265.05 367.6 263.64 365.48 263.52 363.1C263.52 363.06 263.52 363.01 263.52 362.97C263.4 360 265.21 357.29 267.96 356.14C272.93 354.05 280.81 351.26 284.17 345.37C289 336.91 284.17 335.16 284.17 335.16L250.46 348.63L226.6 364.87L221.8 391.95L255.09 402.82C255.09 402.82 292.19 404.91 302.43 403.76C312.67 402.61 312.67 397.84 312.67 397.84C314.57 397.25 318.41 393.87 318.41 390.73C323.38 386.07 323.17 383.87 323.17 383.87" fill="#FFC3A3"/>
<path d="M271.52 395.54C271.52 395.54 272.13 395.61 273.18 395.86C274.23 396.12 275.77 396.46 277.67 396.83C281.47 397.59 286.78 398.39 292.68 398.62C298.59 398.84 303.94 398.47 307.79 398C309.71 397.77 311.27 397.55 312.34 397.38C313.41 397.22 314.01 397.15 314.02 397.19C314.02 397.24 313.45 397.39 312.39 397.64C311.33 397.89 309.78 398.19 307.85 398.48C304 399.07 298.6 399.53 292.65 399.3C286.7 399.06 281.35 398.19 277.56 397.3C275.66 396.86 274.14 396.45 273.1 396.11C272.06 395.78 271.49 395.58 271.51 395.53L271.52 395.54Z" fill="#F59F75"/>
<path d="M275.21 389.3C275.21 389.3 275.82 389.37 276.9 389.62C277.97 389.88 279.53 390.22 281.46 390.59C285.32 391.34 290.72 392.09 296.72 392.28C302.72 392.46 308.16 392.06 312.06 391.58C314.01 391.34 315.59 391.12 316.68 390.94C317.77 390.77 318.38 390.7 318.39 390.75C318.39 390.8 317.81 390.96 316.73 391.21C315.65 391.47 314.08 391.77 312.12 392.06C308.21 392.67 302.74 393.15 296.69 392.97C290.64 392.78 285.21 391.95 281.35 391.07C279.42 390.64 277.87 390.22 276.82 389.88C275.76 389.55 275.19 389.35 275.2 389.3H275.21Z" fill="#F59F75"/>
<path d="M513.27 239.99L441.55 254.16C436.59 255.14 431.78 251.91 430.8 246.96L411.19 147.69C410.21 142.73 413.44 137.92 418.39 136.94L463.87 127.96L506.25 157.3L520.46 229.25C521.44 234.21 518.21 239.02 513.26 240L513.27 239.99Z" fill="#ECECEC"/>
<path d="M463.89 127.96L469.41 155.9C470.32 160.51 474.79 163.51 479.4 162.6L506.26 157.3L463.88 127.96H463.89Z" fill="#F5F5F5"/>
<path d="M470.26 158.28C470.26 158.28 471.24 165.13 479.4 165.83C479.71 165.86 480.02 165.86 480.32 165.85C483.95 165.78 507.85 165.33 507.75 164.8C507.64 164.23 506.27 157.29 506.27 157.29L479.41 162.6C479.41 162.6 472.66 163.7 470.27 158.28H470.26Z" fill="#E1E1E1"/>
<path d="M513.27 239.99C513.27 239.99 513.4 239.95 513.66 239.88C513.92 239.82 514.3 239.71 514.79 239.51C515.75 239.13 517.19 238.38 518.49 236.81C519.75 235.27 520.88 232.78 520.46 229.83C519.94 226.92 519.22 223.58 518.48 219.83C515.49 204.81 511.21 183.31 506.04 157.33L506.13 157.47C493.3 148.6 479 138.71 463.74 128.16L463.93 128.2C455.5 129.87 446.72 131.6 437.69 133.39C433.17 134.28 428.59 135.19 423.96 136.1C422.8 136.33 421.64 136.56 420.48 136.79C419.32 137.04 418.13 137.19 417.05 137.6C414.87 138.4 413.04 140.11 412.08 142.25C411.41 143.73 411.14 145.4 411.36 147C411.61 148.61 411.99 150.26 412.29 151.88C412.93 155.13 413.57 158.36 414.2 161.56C415.46 167.97 416.71 174.29 417.94 180.49C420.39 192.9 422.75 204.87 424.99 216.28C426.11 221.98 427.21 227.54 428.27 232.95C428.8 235.65 429.33 238.31 429.84 240.93C430.1 242.24 430.35 243.54 430.61 244.83C430.89 246.12 431.04 247.42 431.52 248.58C432.47 250.93 434.46 252.75 436.75 253.57C437.89 253.99 439.11 254.16 440.31 254.09C441.49 254.01 442.69 253.7 443.86 253.49C448.57 252.57 453.09 251.68 457.4 250.83C474.65 247.46 488.61 244.73 498.27 242.84C503.09 241.91 506.83 241.19 509.39 240.69C510.65 240.45 511.62 240.27 512.28 240.14C512.93 240.02 513.27 239.97 513.27 239.97C513.27 239.97 512.94 240.05 512.29 240.19C511.63 240.33 510.67 240.53 509.41 240.79C506.86 241.3 503.12 242.06 498.31 243.03C488.66 244.96 474.71 247.74 457.47 251.18C453.16 252.04 448.64 252.93 443.94 253.87C442.76 254.08 441.59 254.4 440.33 254.49C439.08 254.57 437.81 254.39 436.61 253.96C434.21 253.11 432.13 251.2 431.13 248.74C430.61 247.5 430.46 246.18 430.18 244.91C429.92 243.62 429.67 242.32 429.41 241.01C428.89 238.39 428.36 235.73 427.83 233.03C426.76 227.63 425.66 222.07 424.53 216.37C422.27 204.97 419.9 193 417.45 180.59C416.22 174.38 414.97 168.07 413.71 161.66C413.08 158.46 412.44 155.23 411.8 151.98C411.49 150.34 411.13 148.75 410.86 147.07C410.63 145.37 410.91 143.6 411.62 142.04C412.64 139.78 414.57 137.97 416.88 137.12C418.04 136.68 419.24 136.54 420.39 136.29C421.55 136.06 422.72 135.83 423.87 135.6C428.5 134.69 433.08 133.78 437.6 132.89C446.63 131.11 455.41 129.38 463.85 127.71L463.95 127.69L464.04 127.75C479.29 138.32 493.58 148.23 506.4 157.11L506.47 157.16L506.49 157.25C511.58 183.24 515.8 204.75 518.75 219.78C519.47 223.54 520.16 226.87 520.67 229.81C521.08 232.82 519.9 235.34 518.61 236.89C517.27 238.47 515.81 239.2 514.83 239.57C514.34 239.76 513.95 239.86 513.68 239.91C513.42 239.97 513.29 239.99 513.29 239.99H513.27Z" fill="#1E2E34"/>
<path d="M506.26 157.3C506.26 157.3 506.03 157.38 505.58 157.49C505.08 157.6 504.42 157.75 503.61 157.93C501.84 158.3 499.37 158.82 496.35 159.45C493.26 160.08 489.61 160.82 485.57 161.63C483.54 162.03 481.4 162.45 479.19 162.89C476.91 163.3 474.37 162.71 472.42 161.2C471.44 160.45 470.63 159.51 470.06 158.45C469.47 157.41 469.18 156.21 468.99 155.12C468.56 152.91 468.14 150.78 467.75 148.74C466.97 144.69 466.27 141.03 465.67 137.94C465.11 134.91 464.65 132.43 464.31 130.65C464.17 129.83 464.05 129.17 463.97 128.66C463.9 128.2 463.87 127.96 463.89 127.96C463.91 127.96 463.97 128.19 464.08 128.64C464.19 129.14 464.34 129.79 464.52 130.61C464.89 132.38 465.41 134.85 466.04 137.87C466.67 140.96 467.41 144.61 468.23 148.65C468.64 150.68 469.06 152.81 469.5 155.02C469.7 156.14 469.96 157.21 470.52 158.2C471.06 159.19 471.82 160.08 472.74 160.78C474.58 162.2 476.96 162.75 479.11 162.38C481.32 161.95 483.45 161.54 485.48 161.15C489.53 160.37 493.19 159.67 496.28 159.07C499.31 158.51 501.79 158.05 503.57 157.72C504.39 157.58 505.05 157.46 505.56 157.38C506.02 157.31 506.26 157.28 506.26 157.3Z" fill="#1E2E34"/>
<path d="M467.46 153.16C467.49 153.3 459.04 155.09 448.59 157.15C438.14 159.21 429.65 160.77 429.62 160.63C429.59 160.49 438.04 158.7 448.49 156.64C458.94 154.58 467.43 153.02 467.46 153.16Z" fill="#1E2E34"/>
<path d="M488.16 163.55C488.19 163.69 475.72 166.27 460.32 169.31C444.91 172.35 432.4 174.71 432.37 174.56C432.34 174.42 444.81 171.84 460.22 168.79C475.62 165.75 488.14 163.39 488.17 163.54L488.16 163.55Z" fill="#1E2E34"/>
<path d="M490.92 177.49C490.95 177.63 478.48 180.21 463.08 183.26C447.67 186.3 435.16 188.66 435.13 188.51C435.1 188.37 447.57 185.79 462.98 182.74C478.38 179.7 490.9 177.34 490.93 177.49H490.92Z" fill="#1E2E34"/>
<path d="M437.88 202.44C437.85 202.3 450.32 199.72 465.72 196.68C481.13 193.64 493.64 191.28 493.67 191.43C493.7 191.57 481.23 194.15 465.82 197.2C450.42 200.24 437.9 202.6 437.87 202.45L437.88 202.44Z" fill="#1E2E34"/>
<path d="M496.42 205.36C496.45 205.5 483.98 208.08 468.58 211.12C453.17 214.16 440.66 216.52 440.63 216.37C440.6 216.23 453.07 213.65 468.48 210.6C483.88 207.56 496.4 205.2 496.43 205.35L496.42 205.36Z" fill="#1E2E34"/>
<path d="M499.17 219.3C499.2 219.44 486.73 222.02 471.33 225.06C455.92 228.1 443.41 230.46 443.38 230.31C443.35 230.17 455.82 227.59 471.23 224.54C486.63 221.5 499.15 219.14 499.18 219.29L499.17 219.3Z" fill="#1E2E34"/>
<path d="M411.412 211.591L464.046 201.198C466.332 200.746 468.552 202.234 469.004 204.52L472.774 223.612C473.225 225.897 471.737 228.118 469.451 228.569L416.817 238.962C414.531 239.414 412.311 237.926 411.86 235.64L408.09 216.548C407.639 214.262 409.127 212.042 411.412 211.591Z" fill="#012CFD"/>
<path d="M423.96 218.35L428.66 217.42C432.04 216.75 434.77 218.33 435.38 221.46C436 224.59 434.08 227.09 430.7 227.76L426 228.69L423.96 218.35ZM430.19 225.82C432.24 225.41 433.35 223.92 432.95 221.94C432.56 219.96 430.97 219 428.92 219.41L426.73 219.84L428 226.25L430.19 225.82Z" fill="white"/>
<path d="M436.53 221.23C435.92 218.16 437.87 215.41 441.13 214.76C444.38 214.12 447.24 215.9 447.85 218.99C448.46 222.08 446.5 224.81 443.25 225.46C439.99 226.11 437.14 224.3 436.53 221.23ZM445.43 219.48C445.04 217.52 443.39 216.44 441.54 216.81C439.69 217.18 438.57 218.79 438.96 220.76C439.35 222.72 441 223.8 442.85 223.43C444.7 223.07 445.82 221.45 445.43 219.48Z" fill="white"/>
<path d="M449 218.77C448.38 215.65 450.34 212.95 453.56 212.31C455.35 211.96 456.97 212.31 458.18 213.3L456.92 215.02C456.07 214.36 455.11 214.12 454.08 214.32C452.15 214.7 451.04 216.33 451.42 218.28C451.81 220.23 453.45 221.32 455.38 220.94C456.41 220.73 457.2 220.15 457.74 219.2L459.56 220.31C458.82 221.7 457.46 222.64 455.65 223C452.44 223.63 449.61 221.88 448.99 218.76L449 218.77Z" fill="white"/>
<path d="M501.99 166.12C501.99 166.12 507.29 159.41 511.37 163.16C515.45 166.91 514.27 168.84 510.39 174.77C510.39 174.77 519.05 174.32 516.27 183.21C516.27 183.21 524.9 182.26 524.07 189.53C524.07 189.53 530.58 195.9 527.2 200.01C523.81 204.12 511.52 211.54 508.42 210.26C505.32 208.98 505.29 204.59 505.29 204.59C505.29 204.59 501.6 202.93 500.58 200.98C499.56 199.04 501.31 196.31 501.31 196.31C501.31 196.31 498.2 193.13 497.43 192.24C496.66 191.35 497.85 187.23 497.85 187.23L502.82 182.41C502.82 182.41 495.98 185.38 494.55 184.25C493.12 183.12 491.52 182.14 493.04 180.07C494.57 178 499.99 173.37 499.99 173.37L501.99 166.12Z" fill="#FFC3A3"/>
<path d="M505.98 205.11C505.9 205.02 506.82 204.05 508.22 202.39C509.63 200.76 511.62 198.35 514.54 196.6C517.4 194.85 520.03 193.44 521.64 192.03C523.29 190.66 523.94 189.47 524.06 189.54C524.14 189.56 523.65 190.92 522.03 192.47C520.45 194.05 517.78 195.58 514.98 197.3C512.16 198.98 510.19 201.24 508.65 202.79C507.13 204.36 506.05 205.2 505.98 205.12V205.11Z" fill="#F59F75"/>
<path d="M501.19 197.6C501.03 197.44 504.21 194.01 508.29 189.93C510.34 187.92 512.1 185.98 513.61 184.78C515.1 183.56 516.23 183.11 516.27 183.21C516.33 183.32 515.34 183.92 513.99 185.22C512.62 186.48 510.94 188.48 508.87 190.51C504.79 194.58 501.35 197.76 501.19 197.59V197.6Z" fill="#F59F75"/>
<path d="M502.82 182.42C502.66 182.21 504.62 180.66 506.8 178.58C509.02 176.52 510.1 174.31 510.31 174.39C510.55 174.44 509.7 177 507.38 179.17C505.11 181.33 502.94 182.58 502.82 182.42Z" fill="#F59F75"/>
<path d="M502 166.1C502 166.1 501.98 166.28 501.91 166.6C501.82 166.97 501.71 167.44 501.57 168.01C501.23 169.31 500.77 171.11 500.18 173.4V173.45L500.12 173.49C499.12 174.37 498 175.38 496.78 176.52C495.6 177.67 494.18 178.92 493.09 180.47C492.85 180.86 492.67 181.3 492.71 181.72C492.75 182.14 493.02 182.54 493.38 182.89C493.73 183.24 494.16 183.56 494.6 183.9C494.96 184.21 495.43 184.2 495.98 184.17C498.14 183.92 500.41 183.03 502.69 182.09L504.29 181.43L503.05 182.64C501.49 184.17 499.82 185.79 498.1 187.48L498.18 187.37C497.55 188.91 497.15 190.85 497.92 192.4C498.78 193.94 500.31 195.24 501.84 196.39L502.18 196.64L501.91 196.96C500.83 198.24 500.06 200.26 501.48 201.5C502.74 202.81 504.46 203.81 506.17 204.71L505.59 205.03V204.93C505.59 204.93 505.6 204.89 505.6 204.9C505.7 205.03 505.37 204.62 505.84 205.26C506.96 204.73 506.16 205.04 506.41 204.96V205.15V205.55C506.42 205.82 506.45 206.09 506.49 206.36C506.57 206.9 506.71 207.43 506.92 207.93C507.13 208.42 507.42 208.88 507.8 209.25C508.18 209.61 508.64 209.94 509.08 209.99C510.09 210.1 511.27 209.73 512.35 209.34C513.45 208.94 514.53 208.43 515.6 207.88C517.62 206.83 519.55 205.65 521.38 204.38C523.2 203.1 524.97 201.77 526.44 200.23C527.19 199.47 527.68 198.63 527.75 197.63C527.84 196.65 527.6 195.65 527.22 194.72C526.44 192.85 525.17 191.19 523.82 189.77L523.7 189.64V189.45C523.76 188.47 523.8 187.47 523.42 186.61C523.08 185.74 522.46 185.03 521.68 184.55C520.09 183.59 518.1 183.42 516.34 183.53L515.84 183.56L515.96 183.07C516.09 182.53 516.25 182 516.36 181.46C516.39 180.92 516.55 180.39 516.48 179.87C516.51 178.82 516.17 177.82 515.59 177.05C514.37 175.5 512.23 175.03 510.44 175.03H509.86L510.17 174.56C511.2 172.99 512.21 171.5 512.96 170.01C513.32 169.26 513.6 168.51 513.67 167.76C513.74 167.01 513.56 166.29 513.23 165.66C512.52 164.44 511.5 163.37 510.51 162.7C509.45 162.06 508.24 162.08 507.27 162.37C505.3 162.99 504.06 164.18 503.24 164.89C502.83 165.26 502.54 165.57 502.34 165.77C502.14 165.98 502.04 166.08 502.03 166.07C502.02 166.07 502.1 165.93 502.28 165.71C502.46 165.49 502.73 165.16 503.12 164.76C503.51 164.36 504.02 163.88 504.67 163.39C505.32 162.9 506.13 162.37 507.17 162.04C508.18 161.71 509.53 161.64 510.71 162.34C510.98 162.54 511.26 162.74 511.54 162.95C511.79 163.18 512.04 163.42 512.29 163.67C512.77 164.19 513.28 164.73 513.65 165.43C514.03 166.11 514.26 166.95 514.18 167.8C514.11 168.65 513.82 169.47 513.45 170.25C512.69 171.81 511.69 173.31 510.68 174.89L510.41 174.42C511.42 174.39 512.42 174.53 513.43 174.85C514.42 175.17 515.42 175.74 516.12 176.63C516.82 177.52 517.21 178.69 517.18 179.84C517.25 180.42 517.09 180.98 517.06 181.57C516.95 182.14 516.79 182.7 516.65 183.27L516.27 182.81C518.19 182.68 520.23 182.83 522.08 183.9C522.98 184.44 523.74 185.3 524.14 186.32C524.59 187.34 524.55 188.46 524.49 189.53L524.38 189.21C525.82 190.71 527.12 192.38 527.98 194.41C528.39 195.42 528.68 196.54 528.58 197.7C528.53 198.29 528.34 198.85 528.1 199.39C527.78 199.9 527.46 200.39 527.06 200.78C525.51 202.4 523.73 203.75 521.88 205.05C520.02 206.34 518.07 207.54 516.01 208.61C514.92 209.17 513.81 209.69 512.67 210.11C511.52 210.51 510.35 210.93 508.99 210.79C507.55 210.49 506.71 209.37 506.2 208.25C505.96 207.67 505.8 207.08 505.72 206.48C505.68 206.18 505.65 205.88 505.64 205.58V205.13V204.89V204.84V204.83C505.88 204.74 505.09 205.05 506.21 204.52C506.68 205.15 506.35 204.75 506.45 204.87V204.98L506.43 205.1L506.38 205.7L505.85 205.42C504.07 204.47 502.35 203.49 500.93 202.02C500.59 201.64 500.26 201.21 500.09 200.67C499.92 200.14 499.92 199.58 500.02 199.07C500.24 198.04 500.74 197.19 501.37 196.42L501.44 196.99C499.84 195.76 498.3 194.49 497.3 192.71C496.83 191.77 496.74 190.73 496.84 189.77C496.94 188.8 497.19 187.9 497.57 187.03L497.59 186.97L497.64 186.92C499.38 185.25 501.05 183.63 502.63 182.12L503 182.67C500.65 183.61 498.41 184.48 496.07 184.74C495.51 184.78 494.78 184.76 494.28 184.33C493.86 183.99 493.42 183.66 493.02 183.26C492.63 182.87 492.27 182.36 492.21 181.74C492.16 181.13 492.41 180.59 492.68 180.15C493.9 178.48 495.3 177.32 496.52 176.16C497.76 175.03 498.9 174.04 499.93 173.18L499.87 173.27C500.54 170.99 501.06 169.19 501.44 167.9C501.61 167.34 501.75 166.88 501.87 166.52C501.97 166.21 502.03 166.06 502.04 166.07L502 166.1Z" fill="#F59F75"/>
<path d="M137.8 220.04H76.1004C71.8404 220.04 68.3804 216.58 68.3804 212.32V126.92C68.3804 122.66 71.8404 119.2 76.1004 119.2H115.23L145.52 150.42V212.32C145.52 216.58 142.06 220.04 137.8 220.04Z" fill="#ECECEC"/>
<path d="M115.23 119.2V143.24C115.23 147.21 118.44 150.42 122.41 150.42H145.52L115.23 119.2Z" fill="#F5F5F5"/>
<path d="M115.54 145.34C115.54 145.34 115.24 151.17 121.87 153.09C122.12 153.16 122.37 153.22 122.63 153.26C125.65 153.8 145.51 157.33 145.51 156.88C145.51 156.39 145.51 150.42 145.51 150.42H122.4C122.4 150.42 116.63 150.22 115.54 145.34Z" fill="#E1E1E1"/>
<path d="M137.8 220.04C137.8 220.04 138.26 220.04 139.13 219.88C139.99 219.72 141.3 219.33 142.63 218.25C143.92 217.18 145.26 215.31 145.39 212.8C145.43 210.31 145.39 207.42 145.39 204.19C145.37 191.26 145.34 172.76 145.3 150.41L145.36 150.56C136.19 141.12 125.96 130.6 115.05 119.36L115.23 119.44C107.97 119.44 100.42 119.44 92.6502 119.44C88.7602 119.44 84.8202 119.44 80.8401 119.44C79.8401 119.44 78.8401 119.44 77.8401 119.44C76.8401 119.45 75.8202 119.39 74.8802 119.55C72.9602 119.86 71.1702 120.97 70.0302 122.57C69.2402 123.68 68.7502 125.01 68.6602 126.37C68.6102 127.74 68.6402 129.17 68.6302 130.56C68.6302 133.36 68.6302 136.13 68.6302 138.89C68.6302 144.4 68.6302 149.84 68.6302 155.18C68.6302 165.86 68.6202 176.16 68.6102 185.97C68.6102 190.88 68.6102 195.66 68.6002 200.31C68.6002 202.63 68.6002 204.92 68.6002 207.18C68.6002 208.31 68.6002 209.43 68.6002 210.53C68.6202 211.64 68.5302 212.75 68.7402 213.78C69.1402 215.87 70.4802 217.69 72.2402 218.75C73.1202 219.28 74.0902 219.62 75.0902 219.76C76.0802 219.88 77.1202 219.82 78.1302 219.84C82.1802 219.84 86.0702 219.85 89.7802 219.86C104.61 219.89 116.61 219.92 124.93 219.94C129.07 219.96 132.29 219.98 134.49 219.99C135.57 220 136.4 220.01 136.97 220.02C137.53 220.02 137.82 220.05 137.82 220.05C137.82 220.05 137.53 220.07 136.97 220.08C136.4 220.08 135.57 220.09 134.49 220.11C132.29 220.12 129.07 220.14 124.93 220.16C116.62 220.18 104.61 220.21 89.7802 220.24C86.0702 220.24 82.1802 220.25 78.1302 220.26C77.1202 220.24 76.1002 220.31 75.0402 220.18C73.9902 220.04 72.9602 219.68 72.0302 219.13C70.1802 218.03 68.7602 216.1 68.3302 213.89C68.1002 212.78 68.1902 211.66 68.1702 210.56C68.1702 209.45 68.1702 208.33 68.1702 207.21C68.1702 204.96 68.1702 202.67 68.1702 200.34C68.1702 195.69 68.1702 190.91 68.1602 186C68.1602 176.19 68.1602 165.89 68.1402 155.21C68.1402 149.87 68.1402 144.44 68.1402 138.92C68.1402 136.16 68.1402 133.39 68.1402 130.59C68.1502 129.18 68.1102 127.81 68.1702 126.36C68.2602 124.91 68.7802 123.48 69.6302 122.3C70.8502 120.59 72.7602 119.4 74.8102 119.07C75.8502 118.9 76.8602 118.97 77.8602 118.95C78.8602 118.95 79.8602 118.95 80.8602 118.95C84.8502 118.95 88.7902 118.95 92.6702 118.95C100.44 118.95 108 118.95 115.25 118.95H115.36L115.43 119.03C126.33 130.28 136.54 140.82 145.7 150.27L145.76 150.33V150.42C145.72 172.77 145.69 191.27 145.67 204.2C145.65 207.43 145.67 210.3 145.62 212.82C145.47 215.39 144.08 217.28 142.75 218.36C141.38 219.45 140.05 219.82 139.18 219.96C138.74 220.03 138.4 220.05 138.18 220.05C137.95 220.05 137.84 220.05 137.84 220.05L137.8 220.04Z" fill="#1E2E34"/>
<path d="M145.52 150.42C145.52 150.42 145.32 150.46 144.93 150.47C144.48 150.48 143.92 150.5 143.23 150.52C141.68 150.54 139.56 150.57 136.97 150.6C134.31 150.62 131.16 150.63 127.69 150.65C125.94 150.65 124.1 150.65 122.2 150.65C120.23 150.61 118.21 149.71 116.84 148.13C116.15 147.35 115.63 146.43 115.33 145.46C115.01 144.5 114.97 143.45 114.99 142.51C114.99 140.61 115 138.78 115.01 137.03C115.03 133.55 115.05 130.41 115.07 127.74C115.1 125.15 115.13 123.03 115.15 121.48C115.17 120.79 115.19 120.22 115.2 119.78C115.22 119.39 115.23 119.19 115.25 119.19C115.27 119.19 115.29 119.39 115.3 119.78C115.31 120.23 115.33 120.79 115.35 121.48C115.37 123.03 115.4 125.15 115.43 127.74C115.45 130.4 115.46 133.55 115.49 137.03C115.49 138.78 115.49 140.61 115.51 142.51C115.49 143.47 115.53 144.39 115.83 145.3C116.12 146.2 116.6 147.06 117.24 147.79C118.52 149.26 120.39 150.1 122.23 150.14C124.13 150.14 125.96 150.16 127.71 150.17C131.19 150.19 134.33 150.21 136.99 150.23C139.58 150.26 141.7 150.29 143.25 150.31C143.94 150.33 144.51 150.35 144.95 150.36C145.34 150.38 145.54 150.39 145.54 150.41L145.52 150.42Z" fill="#1E2E34"/>
<path d="M114.06 140.65C114.06 140.79 106.77 140.91 97.78 140.91C88.79 140.91 81.5 140.79 81.5 140.65C81.5 140.51 88.79 140.39 97.78 140.39C106.77 140.39 114.06 140.51 114.06 140.65Z" fill="#1E2E34"/>
<path d="M129.51 152.64C129.51 152.78 118.76 152.9 105.51 152.9C92.2503 152.9 81.5103 152.78 81.5103 152.64C81.5103 152.5 92.2503 152.38 105.51 152.38C118.77 152.38 129.51 152.5 129.51 152.64Z" fill="#1E2E34"/>
<path d="M129.51 164.63C129.51 164.77 118.76 164.89 105.51 164.89C92.2603 164.89 81.5103 164.77 81.5103 164.63C81.5103 164.49 92.2503 164.37 105.51 164.37C118.77 164.37 129.51 164.49 129.51 164.63Z" fill="#1E2E34"/>
<path d="M129.51 176.62C129.51 176.76 118.76 176.88 105.51 176.88C92.2603 176.88 81.5103 176.76 81.5103 176.62C81.5103 176.48 92.2503 176.36 105.51 176.36C118.77 176.36 129.51 176.48 129.51 176.62Z" fill="#1E2E34"/>
<path d="M129.51 188.61C129.51 188.75 118.76 188.87 105.51 188.87C92.2603 188.87 81.5103 188.75 81.5103 188.61C81.5103 188.47 92.2503 188.35 105.51 188.35C118.77 188.35 129.51 188.47 129.51 188.61Z" fill="#1E2E34"/>
<path d="M129.51 200.6C129.51 200.74 118.76 200.86 105.51 200.86C92.2603 200.86 81.5103 200.74 81.5103 200.6C81.5103 200.46 92.2503 200.34 105.51 200.34C118.77 200.34 129.51 200.46 129.51 200.6Z" fill="#1E2E34"/>
<path d="M58.76 179.85H102.73C105.06 179.85 106.95 181.74 106.95 184.07V199.18C106.95 201.51 105.06 203.4 102.73 203.4H58.76C56.43 203.4 54.54 201.51 54.54 199.18V184.07C54.54 181.74 56.43 179.85 58.76 179.85Z" fill="#012CFD"/>
<path d="M75.0601 190.74C75.0601 192.72 73.5701 193.96 71.2001 193.96H69.4101V196.41H67.3501V187.51H71.2001C73.5801 187.51 75.0601 188.74 75.0601 190.74ZM72.9701 190.74C72.9701 189.76 72.3301 189.19 71.0801 189.19H69.4001V192.28H71.0801C72.3401 192.28 72.9701 191.71 72.9701 190.74Z" fill="white"/>
<path d="M76.52 187.52H80.56C83.47 187.52 85.47 189.27 85.47 191.97C85.47 194.67 83.47 196.42 80.56 196.42H76.52V187.52ZM80.46 194.72C82.23 194.72 83.38 193.67 83.38 191.96C83.38 190.25 82.22 189.2 80.46 189.2H78.58V194.72H80.46Z" fill="white"/>
<path d="M89.08 189.17V191.52H93.2V193.17H89.08V196.41H87.02V187.51H93.74V189.16H89.08V189.17Z" fill="white"/>
<path d="M98.5003 360.77H37.4603C33.2403 360.77 29.8203 357.35 29.8203 353.13V268.64C29.8203 264.42 33.2403 261 37.4603 261H76.1703L106.14 291.89V353.13C106.14 357.35 102.72 360.77 98.5003 360.77Z" fill="#ECECEC"/>
<path d="M76.1704 261V284.78C76.1704 288.7 79.3504 291.88 83.2704 291.88H106.14L76.1704 261Z" fill="#F5F5F5"/>
<path d="M76.4802 286.87C76.4802 286.87 76.1802 292.64 82.7402 294.53C82.9902 294.6 83.2402 294.65 83.4902 294.7C86.4802 295.23 106.13 298.73 106.13 298.28V291.89H83.2602C83.2602 291.89 77.5502 291.69 76.4702 286.87H76.4802Z" fill="#E1E1E1"/>
<path d="M98.5001 360.77C98.5001 360.77 98.9601 360.77 99.8201 360.61C100.67 360.45 101.96 360.07 103.28 359C104.56 357.94 105.89 356.09 106.01 353.61C106.05 351.15 106.01 348.29 106.01 345.1C105.99 332.31 105.96 314 105.92 291.89L105.98 292.04C96.9101 282.7 86.7901 272.29 75.9901 261.17L76.1701 261.25C68.9901 261.25 61.5201 261.25 53.8301 261.25C49.9901 261.25 46.0901 261.25 42.1401 261.25C41.1501 261.25 40.1701 261.25 39.1701 261.25C38.1801 261.26 37.1801 261.2 36.2401 261.36C34.3401 261.66 32.5701 262.76 31.4501 264.35C30.6701 265.45 30.1801 266.76 30.1001 268.11C30.0501 269.46 30.0801 270.88 30.0701 272.25C30.0701 275.02 30.0701 277.76 30.0701 280.49C30.0701 285.95 30.0701 291.32 30.0701 296.6C30.0701 307.16 30.0601 317.35 30.0501 327.06C30.0501 331.91 30.0501 336.65 30.0401 341.24C30.0401 343.54 30.0401 345.8 30.0401 348.04C30.0401 349.16 30.0401 350.26 30.0401 351.36C30.0601 352.46 29.9701 353.55 30.1801 354.57C30.5801 356.64 31.9001 358.44 33.6401 359.48C34.5101 360 35.4701 360.34 36.4601 360.47C37.4401 360.59 38.4701 360.53 39.4601 360.55C43.4701 360.55 47.3101 360.56 50.9801 360.57C65.6501 360.6 77.5301 360.63 85.7501 360.65C89.8401 360.67 93.0301 360.69 95.2001 360.7C96.2701 360.71 97.0901 360.72 97.6601 360.73C98.2101 360.73 98.5001 360.76 98.5001 360.76C98.5001 360.76 98.2201 360.78 97.6601 360.79C97.0901 360.79 96.2701 360.8 95.2001 360.82C93.0201 360.83 89.8401 360.85 85.7501 360.87C77.5301 360.89 65.6501 360.92 50.9801 360.95C47.3101 360.95 43.4601 360.96 39.4601 360.97C38.4601 360.95 37.4501 361.02 36.4001 360.89C35.3601 360.75 34.3401 360.4 33.4201 359.85C31.5801 358.76 30.1801 356.85 29.7501 354.67C29.5201 353.57 29.6201 352.46 29.5901 351.37C29.5901 350.27 29.5901 349.17 29.5901 348.05C29.5901 345.82 29.5901 343.55 29.5901 341.25C29.5901 336.65 29.5901 331.92 29.5801 327.07C29.5801 317.36 29.5801 307.17 29.5601 296.61C29.5601 291.33 29.5601 285.95 29.5601 280.5C29.5601 277.77 29.5601 275.02 29.5601 272.26C29.5701 270.87 29.5301 269.51 29.5901 268.08C29.6801 266.64 30.2001 265.23 31.0401 264.06C32.2401 262.36 34.1301 261.19 36.1701 260.86C37.2001 260.69 38.2001 260.76 39.1901 260.75C40.1801 260.75 41.1701 260.75 42.1601 260.75C46.1001 260.75 50.0001 260.75 53.8501 260.75C61.5401 260.75 69.0101 260.75 76.1901 260.75H76.3001L76.3701 260.83C87.1501 271.96 97.2601 282.39 106.31 291.74L106.37 291.8V291.89C106.33 314 106.3 332.31 106.28 345.1C106.26 348.3 106.28 351.14 106.23 353.63C106.08 356.17 104.7 358.05 103.39 359.11C102.03 360.19 100.72 360.55 99.8501 360.69C99.4101 360.76 99.0801 360.78 98.8601 360.78C98.6401 360.78 98.5201 360.78 98.5201 360.78L98.5001 360.77Z" fill="#1E2E34"/>
<path d="M106.14 291.89C106.14 291.89 105.94 291.93 105.55 291.94C105.11 291.95 104.55 291.97 103.87 291.99C102.34 292.01 100.24 292.04 97.68 292.07C95.04 292.09 91.93 292.1 88.49 292.12C86.76 292.12 84.94 292.12 83.06 292.12C81.11 292.08 79.12 291.19 77.75 289.63C77.07 288.86 76.55 287.94 76.25 286.98C75.93 286.03 75.89 284.99 75.91 284.06C75.91 282.18 75.92 280.37 75.93 278.63C75.95 275.19 75.97 272.08 75.99 269.44C76.02 266.88 76.05 264.78 76.07 263.25C76.09 262.57 76.11 262.01 76.12 261.57C76.14 261.19 76.15 260.98 76.17 260.98C76.19 260.98 76.21 261.18 76.22 261.57C76.23 262.01 76.25 262.57 76.27 263.25C76.29 264.78 76.32 266.88 76.35 269.44C76.37 272.08 76.38 275.19 76.41 278.63C76.41 280.36 76.41 282.18 76.43 284.06C76.41 285.01 76.45 285.92 76.75 286.82C77.03 287.71 77.51 288.56 78.14 289.28C79.41 290.73 81.26 291.56 83.07 291.61C84.95 291.61 86.76 291.63 88.49 291.64C91.93 291.66 95.04 291.68 97.68 291.7C100.24 291.73 102.34 291.76 103.87 291.78C104.55 291.8 105.11 291.82 105.55 291.83C105.93 291.85 106.14 291.86 106.14 291.88V291.89Z" fill="#1E2E34"/>
<path d="M75.0101 282.22C75.0101 282.36 67.8001 282.48 58.9101 282.48C50.0201 282.48 42.8101 282.36 42.8101 282.22C42.8101 282.08 50.0201 281.96 58.9101 281.96C67.8001 281.96 75.0101 282.08 75.0101 282.22Z" fill="#1E2E34"/>
<path d="M90.2998 294.09C90.2998 294.23 79.6698 294.35 66.5598 294.35C53.4398 294.35 42.8198 294.23 42.8198 294.09C42.8198 293.95 53.4498 293.83 66.5598 293.83C79.6698 293.83 90.2998 293.95 90.2998 294.09Z" fill="#1E2E34"/>
<path d="M90.3001 305.95C90.3001 306.09 79.6701 306.21 66.5601 306.21C53.4401 306.21 42.8101 306.09 42.8101 305.95C42.8101 305.81 53.4401 305.69 66.5601 305.69C79.6801 305.69 90.3001 305.81 90.3001 305.95Z" fill="#1E2E34"/>
<path d="M90.3001 317.81C90.3001 317.95 79.6701 318.07 66.5601 318.07C53.4501 318.07 42.8101 317.95 42.8101 317.81C42.8101 317.67 53.4401 317.55 66.5601 317.55C79.6701 317.55 90.3001 317.67 90.3001 317.81Z" fill="#1E2E34"/>
<path d="M90.3001 329.67C90.3001 329.81 79.6701 329.93 66.5601 329.93C53.4401 329.93 42.8101 329.81 42.8101 329.67C42.8101 329.53 53.4401 329.41 66.5601 329.41C79.6801 329.41 90.3001 329.53 90.3001 329.67Z" fill="#1E2E34"/>
<path d="M90.3001 341.54C90.3001 341.68 79.6701 341.8 66.5601 341.8C53.4401 341.8 42.8101 341.68 42.8101 341.54C42.8101 341.4 53.4401 341.28 66.5601 341.28C79.6801 341.28 90.3001 341.4 90.3001 341.54Z" fill="#1E2E34"/>
<path d="M20.3499 321.01H63.7599C66.0899 321.01 67.9799 322.9 67.9799 325.23V340.08C67.9799 342.41 66.0899 344.3 63.7599 344.3H20.3499C18.0199 344.3 16.1299 342.41 16.1299 340.08V325.23C16.1299 322.9 18.0199 321.01 20.3499 321.01Z" fill="#012CFD"/>
<path d="M36.42 331.79C36.42 333.75 34.95 334.97 32.6 334.97H30.83V337.4H28.79V328.6H32.6C34.95 328.6 36.42 329.82 36.42 331.79ZM34.36 331.79C34.36 330.82 33.73 330.26 32.49 330.26H30.83V333.32H32.49C33.73 333.32 34.36 332.75 34.36 331.8V331.79Z" fill="white"/>
<path d="M45.5001 331.79C45.5001 333.75 44.0301 334.97 41.6801 334.97H39.9101V337.4H37.8701V328.6H41.6801C44.0301 328.6 45.5001 329.82 45.5001 331.79ZM43.4401 331.79C43.4401 330.82 42.8101 330.26 41.5701 330.26H39.9101V333.32H41.5701C42.8101 333.32 43.4401 332.75 43.4401 331.8V331.79Z" fill="white"/>
<path d="M48.53 330.26H45.71V328.6H53.38V330.26H50.56V337.4H48.52V330.26H48.53Z" fill="white"/>
<path d="M218.53 119.41H157.87C153.68 119.41 150.28 116.01 150.28 111.82V27.86C150.28 23.67 153.68 20.27 157.87 20.27H196.34L226.12 50.96V111.81C226.12 116 222.72 119.4 218.53 119.4V119.41Z" fill="#ECECEC"/>
<path d="M196.34 20.27V43.9C196.34 47.8 199.5 50.96 203.4 50.96H226.12L196.34 20.27Z" fill="#F5F5F5"/>
<path d="M196.65 45.97C196.65 45.97 196.35 51.7 202.87 53.58C203.11 53.65 203.37 53.7 203.62 53.75C206.59 54.28 226.11 57.75 226.11 57.31V50.96H203.39C203.39 50.96 197.72 50.77 196.64 45.97H196.65Z" fill="#E1E1E1"/>
<path d="M218.53 119.41C218.53 119.41 218.99 119.41 219.84 119.26C220.69 119.1 221.97 118.72 223.28 117.66C224.55 116.61 225.87 114.77 226 112.31C226.04 109.86 226 107.02 226 103.85C225.98 91.14 225.95 72.95 225.91 50.98L225.97 51.13C216.95 41.85 206.9 31.5 196.17 20.46L196.35 20.54C189.22 20.54 181.79 20.54 174.15 20.54C170.33 20.54 166.46 20.54 162.54 20.54C161.56 20.54 160.58 20.54 159.59 20.54C158.6 20.55 157.61 20.49 156.68 20.65C154.79 20.95 153.04 22.04 151.92 23.62C151.14 24.71 150.66 26.02 150.58 27.35C150.53 28.69 150.57 30.1 150.55 31.47C150.55 34.22 150.55 36.95 150.55 39.66C150.55 45.08 150.55 50.42 150.55 55.67C150.55 66.17 150.54 76.29 150.53 85.94C150.53 90.76 150.53 95.47 150.52 100.03C150.52 102.31 150.52 104.57 150.52 106.78C150.52 107.89 150.52 108.99 150.52 110.08C150.54 111.17 150.45 112.26 150.66 113.27C151.05 115.32 152.37 117.12 154.09 118.15C154.95 118.67 155.91 119.01 156.89 119.14C157.86 119.26 158.88 119.2 159.87 119.22C163.85 119.22 167.67 119.23 171.32 119.24C185.9 119.27 197.7 119.3 205.87 119.32C209.94 119.34 213.1 119.36 215.26 119.37C216.32 119.38 217.14 119.39 217.7 119.4C218.25 119.4 218.53 119.43 218.53 119.43C218.53 119.43 218.25 119.45 217.7 119.46C217.14 119.46 216.32 119.47 215.26 119.49C213.1 119.5 209.94 119.52 205.87 119.54C197.7 119.56 185.9 119.59 171.32 119.62C167.67 119.62 163.85 119.63 159.87 119.64C158.87 119.62 157.88 119.69 156.83 119.56C155.8 119.42 154.78 119.07 153.87 118.52C152.05 117.43 150.65 115.54 150.23 113.37C150.01 112.27 150.1 111.17 150.08 110.09C150.08 109 150.08 107.9 150.08 106.79C150.08 104.57 150.08 102.32 150.08 100.04C150.08 95.47 150.08 90.77 150.07 85.95C150.07 76.3 150.07 66.18 150.05 55.68C150.05 50.43 150.05 45.09 150.05 39.67C150.05 36.96 150.05 34.23 150.05 31.48C150.06 30.1 150.02 28.74 150.08 27.33C150.17 25.9 150.68 24.5 151.52 23.33C152.72 21.64 154.6 20.47 156.62 20.15C157.64 19.98 158.64 20.05 159.62 20.04C160.6 20.04 161.59 20.04 162.57 20.04C166.49 20.04 170.36 20.04 174.18 20.04C181.82 20.04 189.25 20.04 196.38 20.04H196.49L196.56 20.12C207.27 31.18 217.31 41.54 226.31 50.83L226.37 50.89V50.98C226.33 72.95 226.3 91.14 226.28 103.85C226.26 107.03 226.28 109.85 226.23 112.32C226.08 114.84 224.71 116.71 223.4 117.76C222.05 118.83 220.74 119.19 219.89 119.33C219.46 119.4 219.13 119.42 218.9 119.42C218.68 119.42 218.57 119.42 218.57 119.42L218.53 119.41Z" fill="#1E2E34"/>
<path d="M226.12 50.96C226.12 50.96 225.92 51 225.54 51.01C225.1 51.02 224.55 51.04 223.87 51.06C222.35 51.08 220.26 51.11 217.72 51.14C215.1 51.16 212.01 51.17 208.59 51.19C206.87 51.19 205.06 51.19 203.19 51.19C201.25 51.15 199.27 50.27 197.92 48.71C197.24 47.94 196.73 47.04 196.43 46.08C196.11 45.14 196.07 44.1 196.1 43.18C196.1 41.31 196.11 39.51 196.12 37.79C196.14 34.37 196.16 31.28 196.18 28.66C196.21 26.11 196.24 24.03 196.26 22.51C196.28 21.83 196.3 21.28 196.31 20.84C196.33 20.46 196.34 20.26 196.36 20.26C196.38 20.26 196.4 20.46 196.41 20.84C196.42 21.28 196.44 21.83 196.46 22.51C196.48 24.03 196.51 26.12 196.54 28.66C196.56 31.28 196.57 34.37 196.6 37.79C196.6 39.51 196.6 41.31 196.62 43.18C196.6 44.13 196.64 45.02 196.94 45.92C197.22 46.81 197.69 47.65 198.33 48.36C199.59 49.8 201.43 50.63 203.23 50.67C205.09 50.67 206.89 50.69 208.61 50.7C212.03 50.72 215.12 50.74 217.74 50.76C220.29 50.79 222.37 50.82 223.89 50.84C224.57 50.86 225.12 50.88 225.56 50.89C225.94 50.91 226.14 50.92 226.14 50.94L226.12 50.96Z" fill="#1E2E34"/>
<path d="M195.19 41.36C195.19 41.5 188.03 41.62 179.19 41.62C170.35 41.62 163.19 41.5 163.19 41.36C163.19 41.22 170.35 41.1 179.19 41.1C188.03 41.1 195.19 41.22 195.19 41.36Z" fill="#1E2E34"/>
<path d="M210.38 53.14C210.38 53.28 199.82 53.4 186.79 53.4C173.76 53.4 163.2 53.28 163.2 53.14C163.2 53 173.76 52.88 186.79 52.88C199.82 52.88 210.38 53 210.38 53.14Z" fill="#1E2E34"/>
<path d="M210.38 64.93C210.38 65.07 199.82 65.19 186.79 65.19C173.76 65.19 163.2 65.07 163.2 64.93C163.2 64.79 173.76 64.67 186.79 64.67C199.82 64.67 210.38 64.79 210.38 64.93Z" fill="#1E2E34"/>
<path d="M210.38 76.72C210.38 76.86 199.82 76.98 186.79 76.98C173.76 76.98 163.2 76.86 163.2 76.72C163.2 76.58 173.76 76.46 186.79 76.46C199.82 76.46 210.38 76.58 210.38 76.72Z" fill="#1E2E34"/>
<path d="M210.38 88.5C210.38 88.64 199.82 88.76 186.79 88.76C173.76 88.76 163.2 88.64 163.2 88.5C163.2 88.36 173.76 88.24 186.79 88.24C199.82 88.24 210.38 88.36 210.38 88.5Z" fill="#1E2E34"/>
<path d="M210.38 100.29C210.38 100.43 199.82 100.55 186.79 100.55C173.76 100.55 163.2 100.43 163.2 100.29C163.2 100.15 173.76 100.03 186.79 100.03C199.82 100.03 210.38 100.15 210.38 100.29Z" fill="#1E2E34"/>
<path d="M140.9 79.89H183.98C186.31 79.89 188.2 81.78 188.2 84.11V98.82C188.2 101.15 186.31 103.04 183.98 103.04H140.9C138.57 103.04 136.68 101.15 136.68 98.82V84.11C136.68 81.78 138.57 79.89 140.9 79.89Z" fill="#012CFD"/>
<path d="M154.79 96.17L152.68 93.13L150.61 96.17H148.29L151.53 91.72L148.46 87.42H150.76L152.77 90.26L154.74 87.42H156.93L153.88 91.64L157.14 96.16H154.8L154.79 96.17Z" fill="white"/>
<path d="M157.92 87.42H159.94V94.52H164.33V96.17H157.92V87.42Z" fill="white"/>
<path d="M164.73 95.31L165.42 93.79C166.16 94.33 167.26 94.7 168.31 94.7C169.51 94.7 170 94.3 170 93.76C170 92.12 164.91 93.25 164.91 90C164.91 88.51 166.11 87.28 168.6 87.28C169.7 87.28 170.82 87.54 171.64 88.05L171.02 89.59C170.21 89.13 169.37 88.9 168.6 88.9C167.4 88.9 166.94 89.35 166.94 89.9C166.94 91.51 172.03 90.4 172.03 93.61C172.03 95.07 170.82 96.32 168.32 96.32C166.93 96.32 165.53 95.91 164.76 95.31H164.73Z" fill="white"/>
<path d="M593.71 372.63H532.09C527.83 372.63 524.38 369.18 524.38 364.92V279.63C524.38 275.37 527.83 271.92 532.09 271.92H571.17L601.42 303.1V364.92C601.42 369.18 597.97 372.63 593.71 372.63Z" fill="#ECECEC"/>
<path d="M571.17 271.91V295.91C571.17 299.87 574.38 303.08 578.34 303.08H601.42L571.17 271.9V271.91Z" fill="#F5F5F5"/>
<path d="M571.48 298.02C571.48 298.02 571.18 303.84 577.8 305.76C578.05 305.83 578.3 305.89 578.56 305.93C581.57 306.47 601.41 310 601.41 309.54C601.41 309.05 601.41 303.09 601.41 303.09H578.33C578.33 303.09 572.57 302.89 571.47 298.02H571.48Z" fill="#E1E1E1"/>
<path d="M593.71 372.63C593.71 372.63 594.17 372.63 595.04 372.47C595.9 372.31 597.2 371.92 598.54 370.84C599.83 369.77 601.17 367.9 601.3 365.4C601.34 362.91 601.3 360.03 601.3 356.81C601.28 343.9 601.25 325.42 601.21 303.1L601.27 303.25C592.11 293.82 581.9 283.31 571 272.09L571.18 272.17C563.93 272.17 556.39 272.17 548.63 272.17C544.75 272.17 540.81 272.17 536.83 272.17C535.84 272.17 534.84 272.17 533.84 272.17C532.84 272.18 531.83 272.12 530.88 272.28C528.96 272.59 527.18 273.7 526.04 275.3C525.25 276.41 524.76 277.74 524.68 279.09C524.63 280.46 524.66 281.89 524.65 283.27C524.65 286.06 524.65 288.84 524.65 291.59C524.65 297.1 524.65 302.52 524.65 307.86C524.65 318.52 524.64 328.81 524.63 338.61C524.63 343.51 524.63 348.29 524.62 352.93C524.62 355.25 524.62 357.54 524.62 359.79C524.62 360.92 524.62 362.03 524.62 363.14C524.64 364.25 524.55 365.35 524.76 366.38C525.16 368.47 526.5 370.29 528.25 371.34C529.12 371.87 530.1 372.21 531.09 372.34C532.08 372.46 533.12 372.4 534.12 372.42C538.16 372.42 542.05 372.43 545.75 372.44C560.56 372.47 572.55 372.5 580.85 372.52C584.98 372.54 588.2 372.56 590.39 372.57C591.47 372.58 592.3 372.59 592.87 372.6C593.43 372.6 593.72 372.63 593.72 372.63C593.72 372.63 593.43 372.65 592.87 372.66C592.3 372.66 591.47 372.67 590.39 372.69C588.19 372.7 584.98 372.72 580.85 372.74C572.55 372.76 560.56 372.79 545.75 372.82C542.04 372.82 538.16 372.83 534.12 372.84C533.11 372.82 532.1 372.89 531.03 372.76C529.98 372.62 528.95 372.26 528.03 371.71C526.18 370.61 524.76 368.69 524.33 366.48C524.1 365.37 524.19 364.25 524.17 363.15C524.17 362.04 524.17 360.93 524.17 359.8C524.17 357.55 524.17 355.26 524.17 352.94C524.17 348.3 524.17 343.52 524.16 338.62C524.16 328.82 524.16 318.53 524.14 307.87C524.14 302.54 524.14 297.11 524.14 291.6C524.14 288.85 524.14 286.07 524.14 283.28C524.15 281.88 524.11 280.5 524.17 279.06C524.26 277.61 524.78 276.19 525.63 275C526.85 273.29 528.75 272.1 530.81 271.77C531.85 271.6 532.86 271.67 533.85 271.65C534.85 271.65 535.85 271.65 536.84 271.65C540.82 271.65 544.76 271.65 548.64 271.65C556.4 271.65 563.95 271.65 571.19 271.65H571.3L571.37 271.73C582.25 282.97 592.45 293.49 601.6 302.93L601.66 302.99V303.08C601.62 325.4 601.59 343.88 601.57 356.79C601.55 360.02 601.57 362.89 601.52 365.4C601.37 367.96 599.98 369.86 598.65 370.93C597.28 372.02 595.95 372.38 595.08 372.52C594.64 372.59 594.3 372.61 594.08 372.61C593.85 372.61 593.74 372.61 593.74 372.61L593.71 372.63Z" fill="#1E2E34"/>
<path d="M601.42 303.09C601.42 303.09 601.22 303.13 600.83 303.14C600.38 303.15 599.82 303.17 599.13 303.19C597.58 303.21 595.47 303.24 592.88 303.27C590.22 303.29 587.08 303.3 583.61 303.32C581.86 303.32 580.03 303.32 578.13 303.32C576.16 303.28 574.15 302.38 572.77 300.81C572.08 300.03 571.56 299.11 571.26 298.14C570.94 297.18 570.9 296.13 570.92 295.2C570.92 293.3 570.93 291.47 570.94 289.72C570.96 286.25 570.98 283.11 571 280.45C571.03 277.86 571.06 275.74 571.08 274.2C571.1 273.51 571.12 272.95 571.13 272.5C571.15 272.11 571.16 271.91 571.18 271.91C571.2 271.91 571.22 272.11 571.23 272.5C571.24 272.95 571.26 273.51 571.28 274.2C571.3 275.75 571.33 277.86 571.36 280.45C571.38 283.11 571.39 286.25 571.42 289.72C571.42 291.47 571.42 293.3 571.44 295.2C571.42 296.16 571.46 297.07 571.76 297.99C572.05 298.89 572.53 299.74 573.17 300.47C574.45 301.94 576.32 302.78 578.15 302.82C580.04 302.82 581.87 302.84 583.62 302.85C587.09 302.87 590.23 302.89 592.89 302.91C595.48 302.94 597.6 302.97 599.14 302.99C599.83 303.01 600.39 303.03 600.84 303.04C601.23 303.06 601.43 303.07 601.43 303.09H601.42Z" fill="#1E2E34"/>
<path d="M570 293.33C570 293.47 562.72 293.59 553.74 293.59C544.76 293.59 537.48 293.47 537.48 293.33C537.48 293.19 544.76 293.07 553.74 293.07C562.72 293.07 570 293.19 570 293.33Z" fill="#1E2E34"/>
<path d="M585.43 305.31C585.43 305.45 574.7 305.57 561.46 305.57C548.22 305.57 537.49 305.45 537.49 305.31C537.49 305.17 548.22 305.05 561.46 305.05C574.7 305.05 585.43 305.17 585.43 305.31Z" fill="#1E2E34"/>
<path d="M585.43 317.28C585.43 317.42 574.7 317.54 561.46 317.54C548.22 317.54 537.49 317.42 537.49 317.28C537.49 317.14 548.22 317.02 561.46 317.02C574.7 317.02 585.43 317.14 585.43 317.28Z" fill="#1E2E34"/>
<path d="M585.43 329.26C585.43 329.4 574.7 329.52 561.46 329.52C548.22 329.52 537.49 329.4 537.49 329.26C537.49 329.12 548.22 329 561.46 329C574.7 329 585.43 329.12 585.43 329.26Z" fill="#1E2E34"/>
<path d="M585.43 341.23C585.43 341.37 574.7 341.49 561.46 341.49C548.22 341.49 537.49 341.37 537.49 341.23C537.49 341.09 548.22 340.97 561.46 340.97C574.7 340.97 585.43 341.09 585.43 341.23Z" fill="#1E2E34"/>
<path d="M585.43 356C585.43 356.14 574.7 356.26 561.46 356.26C548.22 356.26 537.49 356.14 537.49 356C537.49 355.86 548.22 355.74 561.46 355.74C574.7 355.74 585.43 355.86 585.43 356Z" fill="#1E2E34"/>
<path d="M514.78 332.48H558.68C561.01 332.48 562.9 334.37 562.9 336.7V351.77C562.9 354.1 561.01 355.99 558.68 355.99H514.78C512.45 355.99 510.56 354.1 510.56 351.77V336.7C510.56 334.37 512.45 332.48 514.78 332.48Z" fill="#012CFD"/>
<path d="M516.62 340.15H520.66C523.57 340.15 525.56 341.9 525.56 344.59C525.56 347.28 523.57 349.03 520.66 349.03H516.62V340.14V340.15ZM520.56 347.35C522.32 347.35 523.48 346.3 523.48 344.6C523.48 342.9 522.32 341.85 520.56 341.85H518.68V347.36H520.56V347.35Z" fill="white"/>
<path d="M526.55 344.6C526.55 341.96 528.61 340 531.41 340C534.21 340 536.27 341.94 536.27 344.6C536.27 347.26 534.2 349.2 531.41 349.2C528.62 349.2 526.55 347.24 526.55 344.6ZM534.19 344.6C534.19 342.91 533 341.76 531.41 341.76C529.82 341.76 528.63 342.92 528.63 344.6C528.63 346.28 529.82 347.44 531.41 347.44C533 347.44 534.19 346.28 534.19 344.6Z" fill="white"/>
<path d="M537.26 344.6C537.26 341.92 539.32 340 542.08 340C543.62 340 544.9 340.56 545.74 341.57L544.42 342.79C543.82 342.1 543.07 341.75 542.19 341.75C540.53 341.75 539.35 342.92 539.35 344.59C539.35 346.26 540.53 347.43 542.19 347.43C543.08 347.43 543.83 347.07 544.42 346.38L545.74 347.6C544.9 348.63 543.62 349.19 542.07 349.19C539.32 349.19 537.26 347.27 537.26 344.59V344.6Z" fill="white"/>
<path d="M552.54 349.04L550.39 345.96L548.28 349.04H545.92L549.21 344.52L546.09 340.15H548.43L550.47 343.03L552.48 340.15H554.7L551.6 344.44L554.91 349.04H552.54Z" fill="white"/>
</g>
<defs>
<clipPath id="clip0_97_1127">
<rect width="673.65" height="404.12" fill="white"/>
</clipPath>
</defs>
</svg>
