<svg width="430" height="420" viewBox="0 0 434 440" fill="none" xmlns="http://www.w3.org/2000/svg">
<g clip-path="url(#clip0_96_905)">
<path d="M329.745 0.286137L301.81 14.2782C299.718 15.1652 298.362 17.2158 298.362 19.4858V32.5336C298.362 44.1889 301.619 55.7487 308.323 65.9447C313.356 73.6036 320.032 83.3894 331.13 88.9881H336.144C348.503 85.2207 357.729 75.1869 363.373 66.6028C370.078 56.4068 373.334 44.847 373.334 33.1917V19.4858C373.334 17.2158 371.978 15.1747 369.887 14.2782L338.073 0.734416C336.65 0.133532 331.168 -0.324285 329.745 0.286137Z" fill="#E1E1E1"/>
<path d="M328.618 0.734416L296.795 14.2782C294.704 15.1652 293.348 17.2158 293.348 19.4858V32.5336C293.348 44.1889 296.604 55.7487 303.309 65.9447C308.953 74.5287 317.683 83.3703 331.13 88.9881C343.488 85.2207 352.714 75.1869 358.359 66.6028C365.063 56.4068 368.32 44.847 368.32 33.1917V19.4858C368.32 17.2158 366.964 15.1747 364.872 14.2782L333.059 0.734416C331.636 0.133531 330.041 0.133531 328.618 0.734416Z" fill="#F5F5F5"/>
<path d="M368.225 29.6532C368.225 29.6532 368.263 29.863 368.282 30.2541C368.301 30.7023 368.33 31.2746 368.358 31.9804C368.387 32.7339 368.435 33.6495 368.377 34.7178C368.32 35.786 368.377 37.0068 368.215 38.3421C368.091 39.6774 367.995 41.1558 367.718 42.7105C367.594 43.4926 367.489 44.3033 367.327 45.1331C367.145 45.9629 366.964 46.8022 366.782 47.6797C365.951 51.1419 364.796 54.8999 363.115 58.6482C361.424 62.3966 359.428 65.7825 357.404 68.7202C356.344 70.1509 355.369 71.5339 354.319 72.7261C353.803 73.327 353.335 73.9374 352.829 74.4715C352.323 75.0056 351.836 75.5207 351.377 76.0071C350.479 77.0086 349.553 77.8002 348.779 78.5442C348.015 79.2881 347.299 79.8795 346.717 80.3468C346.163 80.7951 345.714 81.148 345.37 81.4341C345.055 81.6821 344.892 81.7966 344.883 81.787C344.873 81.7775 345.016 81.6249 345.313 81.3578C345.647 81.0622 346.077 80.6807 346.602 80.2038C347.165 79.7173 347.853 79.1069 348.608 78.3439C349.362 77.5904 350.26 76.7797 351.148 75.7687C351.597 75.2727 352.074 74.7577 352.571 74.2235C353.068 73.6799 353.526 73.079 354.023 72.4781C355.054 71.2859 356.009 69.9029 357.05 68.4722C359.037 65.5441 361.004 62.1868 362.685 58.4575C364.357 54.7377 365.512 51.0084 366.362 47.5843C366.553 46.7259 366.744 45.877 366.926 45.0663C367.098 44.2461 367.203 43.4354 367.336 42.6628C367.632 41.1177 367.737 39.6488 367.89 38.3231C368.072 36.9973 368.043 35.7765 368.129 34.7178C368.205 33.6591 368.196 32.7434 368.196 31.9899C368.196 31.2841 368.205 30.7119 368.215 30.2636C368.215 29.8725 368.234 29.6627 368.253 29.6627L368.225 29.6532Z" fill="#E1E1E1"/>
<path d="M328.465 58.0187L310.214 43.5308L315.276 37.169L327.52 46.8881L345.389 26.9063L351.463 32.3238L328.465 58.0187Z" fill="white"/>
<path d="M414.679 71.6865H411.222V52.916C411.222 48.4999 407.621 44.9042 403.199 44.9042C398.777 44.9042 395.177 48.4999 395.177 52.916V71.6865H391.719V52.916C391.719 46.5924 396.867 41.4515 403.199 41.4515C409.531 41.4515 414.679 46.5924 414.679 52.916V71.6865Z" fill="#ECECEC"/>
<path d="M415.73 58.9439H390.678C389.054 58.9439 387.737 60.2591 387.737 61.8815V80.2228C387.737 81.8452 389.054 83.1605 390.678 83.1605H415.73C417.354 83.1605 418.671 81.8452 418.671 80.2228V61.8815C418.671 60.2591 417.354 58.9439 415.73 58.9439Z" fill="#ECECEC"/>
<path d="M405.578 71.6769C406.179 71.0665 406.561 70.2367 406.561 69.302C406.561 67.423 405.033 65.9065 403.161 65.9065C401.289 65.9065 399.761 67.4326 399.761 69.302C399.761 70.8567 400.812 72.1538 402.235 72.5544L401.499 75.7877H404.737L404.088 72.5544C404.661 72.3923 405.176 72.0871 405.587 71.6769" fill="#FAFAFA"/>
<path d="M22.0521 345.785C18.3655 343.467 14.1346 342.018 9.79859 341.569C7.79296 341.36 5.60587 341.426 4.00136 342.638C3.65754 342.895 3.33281 343.277 3.40922 343.696C3.46652 344.002 3.72439 344.23 3.97271 344.421C8.95814 348.217 16.5031 348.704 22.0521 345.785Z" fill="#E1E1E1"/>
<path d="M21.7373 345.442C18.9676 343.277 16.1693 341.102 13.8198 338.489C11.4704 335.875 9.56023 332.766 8.85348 329.323C8.64337 328.274 8.57652 327.081 9.24506 326.252C15.558 331.173 20.5148 337.535 21.7277 345.442" fill="#E1E1E1"/>
<path d="M21.9853 345.737C21.5078 342.294 21.3359 338.746 22.1286 335.36C22.9213 331.974 24.7646 328.731 27.668 326.795C28.7567 329.342 28.2888 332.27 27.5247 334.931C26.3404 339.042 24.4781 342.952 22.0331 346.472" fill="#E1E1E1"/>
<path d="M28.1741 356.811C24.4207 357.269 21.1449 359.243 18.3465 361.78C15.5386 364.317 13.5521 367.732 12.7212 371.413C16.4077 371.184 19.5308 368.59 21.7943 365.681C24.0578 362.772 25.6337 359.586 28.1168 356.859" fill="#E1E1E1"/>
<path d="M29.5114 358.585C26.4839 351.145 27.5822 342.18 32.3097 335.685C34.4491 343.286 33.6659 351.87 29.5114 358.585Z" fill="#E1E1E1"/>
<path d="M37.6868 368.294C34.2773 368.085 30.8104 368.895 27.8592 370.593C24.8986 372.291 22.4631 374.876 20.9255 377.928C20.7154 378.338 20.5339 378.872 20.8109 379.244C21.0496 379.568 21.5176 379.597 21.9188 379.568C25.2233 379.358 28.1458 377.374 30.5621 375.114C32.9784 372.854 35.0795 370.24 37.7537 368.285" fill="#E1E1E1"/>
<path d="M37.4286 367.77C35.6713 362.152 35.5663 356.029 37.1135 350.354C37.7247 348.112 38.7562 345.756 40.8382 344.698C41.0197 344.612 41.2202 344.526 41.4113 344.602C41.5832 344.669 41.6882 344.85 41.7742 345.022C42.5096 346.567 42.7292 348.313 42.6528 350.02C42.5764 351.727 42.2231 353.406 41.8697 355.075C41.2202 358.165 40.8669 361.484 39.1669 364.155C38.7657 364.785 38.4124 365.471 38.0876 366.148C37.7629 366.826 37.7629 367.064 37.4668 367.608" fill="#E1E1E1"/>
<path d="M59.061 370.984C57.4565 364.899 59.1565 357.517 63.0054 352.519C63.2919 352.147 63.6644 351.756 64.1228 351.804C64.8296 351.87 65.011 352.815 64.9824 353.52C64.7054 359.739 62.6234 365.872 59.061 370.984Z" fill="#E1E1E1"/>
<path d="M61.0096 372.319C68.4208 374.246 76.9114 372.377 83.0715 367.837C79.4232 365.986 75.1158 365.462 71.1237 366.377C67.1315 367.293 63.4832 369.077 61 372.319" fill="#E1E1E1"/>
<path d="M62.6519 368.266C66.7968 361.513 74.7525 357.107 82.6795 356.706C81.7627 359.92 79.1172 362.429 76.1278 363.936C73.1385 365.443 69.8053 366.101 66.5199 366.74C65.2401 366.988 63.4828 367.264 62.6614 368.266" fill="#E1E1E1"/>
<path d="M59.4717 348.599C60.5987 344.755 61.7257 340.883 62.0313 336.886C62.3369 332.89 61.7734 328.731 59.6914 325.298C55.8138 332.785 55.4223 341.531 59.3476 348.999" fill="#E1E1E1"/>
<path d="M72.5176 342.008C77.0446 333.787 86.2896 327.215 95.6492 326.29C92.0391 335.265 82.2019 342.199 72.5176 342.008Z" fill="#E1E1E1"/>
<path d="M69.6621 343.62C76.424 344.65 82.1734 348.961 88.496 351.575C89.8426 352.137 91.3039 352.576 92.7555 352.385C94.2072 352.195 95.6398 351.222 95.9646 349.801C96.232 348.618 95.6971 347.368 94.8471 346.5C93.9971 345.633 92.8797 345.089 91.7527 344.631C84.8763 341.77 77.4936 341.703 70.2542 343.439" fill="#E1E1E1"/>
<path d="M65.7561 348.351C67.2842 348.79 67.8095 349.581 69.0225 350.611C73.1292 354.112 78.0669 356.639 83.3007 357.936C83.845 358.07 84.5613 358.127 84.8288 357.631C85.0675 357.202 84.7619 356.677 84.4563 356.296C82.2596 353.549 79.127 351.679 75.8321 350.449C72.5371 349.219 69.6814 347.75 65.7466 348.065" fill="#E1E1E1"/>
<path d="M61.3435 319.766C66.8352 324.888 74.5807 327.52 82.0589 326.805C82.4027 326.776 82.7752 326.719 83.0044 326.471C83.5297 325.908 82.8993 325.031 82.2881 324.554C76.1948 319.814 68.8217 317.849 61.334 319.766" fill="#E1E1E1"/>
<path d="M66.5771 317.849C73.8452 312.412 83.8065 310.772 92.4307 313.585C89.174 316.79 84.6565 318.516 80.1104 318.984C75.5643 319.461 71.0086 318.955 66.5771 317.839" fill="#E1E1E1"/>
<path d="M64.4954 304.715C63.8937 298.64 64.2853 293.852 63.865 287.747C63.8268 287.261 63.7218 286.67 63.2729 286.498C62.633 286.25 62.1077 287.032 61.8976 287.681C60.083 293.308 61.0763 299.755 64.4858 304.582" fill="#E1E1E1"/>
<path d="M64.0562 305.383C68.1725 302.836 71.2669 299.517 74.1321 295.606C76.1186 292.888 77.7995 289.636 77.3506 286.298C74.5618 286.24 71.9068 287.776 70.0826 289.903C68.268 292.02 67.1888 294.672 66.377 297.342C65.5747 300.013 65.0017 302.76 64.0562 305.383Z" fill="#E1E1E1"/>
<path d="M73.9506 302.645C82.9951 299.307 91.4283 294.338 98.7345 288.053C95.7738 286.86 92.3833 287.576 89.4226 288.768C82.6608 291.496 77.131 296.093 73.8169 302.579" fill="#E1E1E1"/>
<path d="M66.8445 308.711C71.4193 309.207 76.0704 309.532 80.607 308.778C85.0671 308.034 89.2885 306.27 93.4526 304.515C93.7964 304.372 94.1784 304.2 94.3217 303.857C94.4841 303.485 94.3121 303.036 94.0065 302.76C93.7009 302.483 93.2998 302.359 92.9082 302.245C88.3716 300.976 83.4817 301.568 79.0216 303.075C74.5614 304.572 70.9035 306.365 66.835 308.711" fill="#E1E1E1"/>
<path d="M40.714 319.976C37.5909 313.681 37.7915 306.337 40.4943 299.851C42.3949 302.741 42.6241 306.422 42.2803 309.856C41.9365 313.29 40.8859 316.828 40.819 320.29" fill="#E1E1E1"/>
<path d="M28.2412 313.69C20.4479 313.538 12.6546 316.857 7.354 322.57C11.2411 323.18 15.2524 322.179 18.7861 320.453C22.3198 318.726 25.4716 316.304 28.5851 313.9" fill="#E1E1E1"/>
<path d="M19.8556 310.896C16.0449 310.59 12.3775 310.114 8.71003 311.239C5.04258 312.365 1.70941 314.911 0.209961 318.431C3.77235 318.831 7.39204 317.935 10.6584 316.456C13.9247 314.978 16.8949 312.927 19.8556 310.886" fill="#E1E1E1"/>
<path d="M32.2713 311.02C28.8427 308.778 25.3185 306.489 21.3263 305.564C17.3341 304.639 12.7021 305.326 9.92285 308.33C13.1605 310.228 17.0763 310.447 20.8297 310.447C24.5735 310.447 29.1769 310.4 32.7107 311.649" fill="#E1E1E1"/>
<path d="M32.2904 311.201C26.4263 305.45 24.201 295.12 26.56 287.261C31.173 294.252 33.2359 302.884 32.2904 311.201Z" fill="#E1E1E1"/>
<path d="M48.4214 294.91C49.5293 292.345 50.3029 289.645 51.2961 287.032C52.2894 284.419 53.5214 281.843 55.3934 279.774C57.2653 277.694 59.863 276.149 62.6518 276.016C60.9041 283.932 55.6417 291 48.5551 294.948" fill="#E1E1E1"/>
<path d="M45.4989 298.306C43.6652 295.788 41.5545 292.373 39.0714 290.494C36.5882 288.615 33.3601 287.48 30.3325 288.205C33.4174 293.708 39.2337 297.581 45.4989 298.306Z" fill="#E1E1E1"/>
<path d="M46.0816 295.12C44.8782 292.077 43.6748 288.997 43.1878 285.763C42.7007 282.53 42.9967 279.068 44.6586 276.254C47.8771 282.33 48.9181 288.854 46.2535 295.196" fill="#E1E1E1"/>
<path d="M48.4502 276.245C50.2744 270.217 55.7946 265.782 61.7638 263.75C62.5183 263.493 63.311 263.283 64.0941 263.397C64.8773 263.512 65.6509 264.055 65.8133 264.828C66.0329 265.848 65.1829 266.774 64.3902 267.451C59.7486 271.419 54.2856 274.423 48.4502 276.235" fill="#E1E1E1"/>
<path d="M48.5169 271.323C48.7461 267.441 48.9944 263.502 50.2551 259.82C51.5158 256.139 53.9608 252.686 57.504 251.074C58.1057 254.994 56.3771 258.895 54.2855 262.272C52.1939 265.648 49.6725 268.834 48.4214 272.601" fill="#E1E1E1"/>
<path d="M48.4214 273.994C46.9124 269.606 46.7596 264.027 44.1236 260.202C42.2803 257.531 39.3387 255.71 37.7533 252.877C36.7027 255.519 37.0179 258.571 38.1258 261.194C39.2336 263.817 41.0483 266.077 42.9966 268.157C44.9449 270.236 46.6163 271.8 48.4214 273.994Z" fill="#E1E1E1"/>
<path d="M48.4504 403.279C48.3358 403.279 48.2307 373.989 48.2212 337.878C48.2212 301.749 48.2976 272.468 48.4218 272.468C48.5459 272.468 48.6414 301.749 48.651 337.878C48.651 373.998 48.5746 403.279 48.4504 403.279Z" fill="#E1E1E1"/>
<path d="M74.0746 315.55C74.0746 315.55 73.6925 315.722 72.9762 315.96C72.1835 316.227 71.1616 316.571 69.9391 316.981C67.3796 317.849 63.8649 319.108 60.0542 320.672C56.2817 322.293 52.7193 323.6 50.685 325.355C49.6727 326.223 49.0901 327.158 48.8036 327.844C48.517 328.531 48.4597 328.951 48.4215 328.941C48.4024 328.941 48.412 328.836 48.4311 328.636C48.4693 328.436 48.517 328.14 48.6508 327.787C48.8991 327.062 49.4626 326.061 50.4845 325.136C51.5064 324.211 52.9199 323.371 54.5531 322.618C56.1767 321.864 57.9817 321.073 59.8919 320.281C63.7217 318.717 67.2649 317.496 69.8436 316.695C71.133 316.294 72.1931 315.998 72.9189 315.798C73.6543 315.607 74.065 315.512 74.065 315.541L74.0746 315.55Z" fill="#E1E1E1"/>
<path d="M82.4791 294.948C82.4791 294.948 82.3836 295.072 82.1735 295.282C81.9252 295.521 81.61 295.807 81.228 296.169C80.3493 296.961 79.1651 298.039 77.7134 299.355C74.6763 302.054 70.5695 305.707 66.0234 309.751C61.4582 313.805 57.5138 317.687 54.7823 320.605C53.4166 322.064 52.3373 323.266 51.6019 324.115C51.2581 324.506 50.9811 324.83 50.7519 325.088C50.5514 325.307 50.4463 325.422 50.4368 325.412C50.4272 325.412 50.5132 325.279 50.6851 325.04C50.8665 324.802 51.1244 324.458 51.4778 324.02C52.175 323.142 53.2255 321.902 54.5626 320.414C57.2464 317.439 61.1717 313.509 65.7464 309.446C70.3307 305.402 74.4948 301.758 77.5224 299.135C79.0123 297.857 80.2252 296.818 81.1229 296.045C81.5241 295.711 81.8488 295.444 82.1162 295.225C82.3454 295.044 82.4696 294.948 82.4791 294.958V294.948Z" fill="#E1E1E1"/>
<path d="M61.0954 313.871C60.9712 313.814 61.9263 311.621 62.8814 308.835C63.8364 306.06 64.2949 303.704 64.4095 303.733C64.5241 303.742 64.2471 306.155 63.2825 308.979C62.805 310.381 62.2797 311.621 61.8594 312.498C61.4392 313.376 61.1432 313.9 61.0954 313.871Z" fill="#E1E1E1"/>
<path d="M48.479 331.593C48.479 331.593 48.2021 331.316 47.7723 330.782C47.2948 330.172 46.6931 329.399 45.9672 328.474C44.4582 326.519 42.3571 323.819 40.0172 320.872C37.6677 317.925 35.5188 315.274 33.9525 313.356C33.2171 312.45 32.5963 311.687 32.1093 311.077C31.6795 310.533 31.4503 310.228 31.4694 310.209C31.4885 310.19 31.7654 310.466 32.2334 310.972C32.7014 311.477 33.3699 312.231 34.1817 313.166C35.8054 315.035 38.002 317.658 40.3515 320.605C42.7009 323.562 44.7543 326.29 46.206 328.293C46.9318 329.294 47.5144 330.114 47.8965 330.687C48.288 331.259 48.4886 331.583 48.4695 331.602L48.479 331.593Z" fill="#E1E1E1"/>
<path d="M42.8534 324.392C42.7865 324.468 41.2871 322.694 40.5039 319.995C39.9213 318.097 39.9022 316.351 39.9691 315.56L40.1601 315.579C40.0741 315.922 40.0168 316.094 39.9786 316.094C39.95 316.094 39.9404 315.903 39.9786 315.55L40.1696 315.569C40.2365 316.361 40.3607 318.04 40.9241 319.89C41.6786 322.503 42.9871 324.344 42.8725 324.411L42.8534 324.392Z" fill="#E1E1E1"/>
<path d="M35.6048 315.283C35.5475 315.34 35.07 314.73 33.9621 314.329C32.8638 313.91 31.2115 313.814 29.3969 313.967C27.5823 314.1 25.9587 314.425 24.803 314.711C23.6474 314.997 22.9311 315.226 22.912 315.169C22.8929 315.121 23.571 314.797 24.7266 314.425C25.8823 314.062 27.525 313.69 29.3682 313.547C31.202 313.385 32.9402 313.528 34.0767 314.053C35.2228 314.558 35.643 315.274 35.6048 315.283Z" fill="#E1E1E1"/>
<path d="M33.8855 313.07C33.8569 313.137 32.9304 312.689 31.3641 312.155C29.8074 311.621 27.5916 311.058 25.0798 310.867C22.5776 310.676 20.295 310.896 18.6713 311.191C17.0477 311.477 16.064 311.783 16.0449 311.716C16.0449 311.687 16.2741 311.592 16.7135 311.43C17.1528 311.268 17.8022 311.077 18.614 310.896C20.2377 310.524 22.5585 310.247 25.1085 310.438C27.6585 310.638 29.9124 311.258 31.4596 311.869C32.2332 312.174 32.854 312.46 33.2552 312.679C33.6658 312.899 33.8855 313.032 33.876 313.061L33.8855 313.07Z" fill="#E1E1E1"/>
<path d="M48.4214 303.733C48.3068 303.761 47.4855 300.91 46.5877 297.361C45.6899 293.813 45.05 290.914 45.1646 290.885C45.2793 290.857 46.1006 293.708 46.9984 297.257C47.8961 300.805 48.536 303.704 48.4214 303.733Z" fill="#E1E1E1"/>
<path d="M48.5361 303.733C48.4119 303.771 47.8771 301.863 46.5018 299.918C45.1551 297.924 43.4456 296.932 43.5029 296.827C43.522 296.78 43.9995 296.961 44.6585 297.419C45.3175 297.877 46.1388 298.659 46.8456 299.67C48.2782 301.701 48.6411 303.723 48.5361 303.723V303.733Z" fill="#E1E1E1"/>
<path d="M48.4504 387.666C48.4504 387.666 48.3167 386.96 47.9919 385.72C47.6672 384.48 47.0464 382.716 46.0341 380.646C44.0093 376.507 40.3228 371.27 35.6334 366.015C33.3126 363.363 31.0587 360.864 29.1485 358.47C27.2384 356.086 25.6626 353.806 24.5069 351.794C23.3513 349.781 22.6063 348.055 22.167 346.834C21.9474 346.224 21.7945 345.747 21.7086 345.413C21.6131 345.089 21.5749 344.908 21.5844 344.908C21.6226 344.898 21.8327 345.575 22.3198 346.768C22.8069 347.96 23.5901 349.657 24.7648 351.632C25.9395 353.616 27.5249 355.857 29.4446 358.213C31.3643 360.578 33.6182 363.068 35.9486 365.719C40.6475 370.984 44.3245 376.297 46.3015 380.493C47.2947 382.592 47.8678 384.385 48.1543 385.653C48.288 386.292 48.3835 386.779 48.4122 387.122C48.4504 387.456 48.4695 387.637 48.4504 387.637V387.666Z" fill="#E1E1E1"/>
<path d="M71.6012 361.551C71.6012 361.551 71.1714 361.809 70.3882 362.228C69.6146 362.667 68.5068 363.335 67.2365 364.308C65.9759 365.271 64.5528 366.549 63.1011 368.075C61.6494 369.611 60.1595 371.385 58.6314 373.292C55.5848 377.117 52.7291 380.493 51.0196 383.193C50.1504 384.528 49.5201 385.663 49.1094 386.454C48.6892 387.246 48.4695 387.685 48.4409 387.675C48.4313 387.675 48.4695 387.551 48.5555 387.332C48.6414 387.113 48.7656 386.788 48.9662 386.378C49.3386 385.558 49.9308 384.404 50.7712 383.03C52.4331 380.264 55.26 376.84 58.3067 373.025C59.8348 371.118 61.3438 369.334 62.8241 367.808C64.3045 366.282 65.7562 365.023 67.0646 364.069C68.3635 363.125 69.5096 362.476 70.3118 362.085C70.713 361.885 71.0377 361.761 71.2574 361.666C71.477 361.58 71.5916 361.532 71.6012 361.551Z" fill="#E1E1E1"/>
<path d="M72.0596 370.021C72.0596 370.078 71.0758 370.202 69.4904 370.393C67.9146 370.593 65.7084 370.86 63.4067 371.585C61.1145 372.329 59.2044 373.473 57.9628 374.437C56.7117 375.41 56.1195 376.211 56.0527 376.163C56.0336 376.144 56.1577 375.934 56.4347 375.572C56.7117 375.209 57.1606 374.732 57.7718 374.208C58.9943 373.159 60.9235 371.947 63.2825 371.184C65.6415 370.44 67.8764 370.221 69.4713 370.097C71.0663 369.983 72.0596 369.964 72.0691 370.021H72.0596Z" fill="#E1E1E1"/>
<path d="M56.807 375.238C56.6733 375.162 57.8289 373.397 58.7267 371.022C59.5671 368.628 59.7677 366.53 59.9205 366.559C59.9778 366.559 59.9683 367.093 59.8823 367.932C59.7773 368.771 59.5767 369.945 59.1374 371.175C58.6885 372.405 58.1059 373.426 57.6475 374.141C57.189 374.856 56.8643 375.267 56.8166 375.238H56.807Z" fill="#E1E1E1"/>
<path d="M79.1079 338.794C79.1079 338.794 78.9742 338.88 78.6972 339.013C78.3821 339.156 77.9809 339.338 77.4938 339.557C76.9686 339.786 76.3287 340.072 75.6028 340.453C74.877 340.825 74.0365 341.207 73.1483 341.741C72.6994 341.999 72.2315 342.256 71.7444 342.533C71.2573 342.809 70.7798 343.143 70.264 343.458C69.2325 344.087 68.2011 344.85 67.0932 345.642C64.9348 347.283 62.6617 349.219 60.4842 351.451C58.3162 353.711 56.4634 356.038 54.897 358.251C54.1521 359.377 53.4167 360.435 52.8246 361.484C52.5189 362.009 52.2038 362.495 51.9459 362.991C51.688 363.487 51.4397 363.964 51.201 364.413C50.7043 365.309 50.3509 366.168 49.9976 366.902C49.6442 367.636 49.3768 368.285 49.1667 368.819C48.9661 369.315 48.7942 369.716 48.6605 370.04C48.5363 370.316 48.4695 370.46 48.4599 370.46C48.4504 370.46 48.4886 370.297 48.5841 370.011C48.6987 369.677 48.8419 369.267 49.0139 368.762C49.1953 368.218 49.4436 367.55 49.7779 366.807C50.1122 366.063 50.4465 365.185 50.9335 364.279C51.1627 363.821 51.4111 363.335 51.6594 362.829C51.9172 362.324 52.2229 361.828 52.5189 361.303C53.1015 360.235 53.8274 359.167 54.5723 358.022C56.1291 355.781 58.001 353.425 60.1785 351.145C62.3847 348.894 64.6769 346.949 66.864 345.318C67.9814 344.536 69.032 343.773 70.073 343.153C70.5887 342.838 71.0758 342.514 71.5725 342.237C72.0691 341.97 72.5371 341.712 72.9955 341.464C73.8933 340.949 74.7528 340.577 75.4882 340.225C76.2236 339.862 76.8731 339.595 77.4174 339.395C77.9236 339.204 78.3248 339.042 78.659 338.918C78.9455 338.813 79.0984 338.765 79.0984 338.775L79.1079 338.794Z" fill="#E1E1E1"/>
<path d="M60.7803 351.06C60.7803 351.06 60.9426 350.344 61.7926 349.562C62.614 348.78 64.1134 348.055 65.8517 348.007C67.5899 347.96 69.0989 348.446 70.1208 348.837C71.1523 349.247 71.754 349.572 71.7349 349.619C71.7062 349.677 71.0663 349.448 70.0253 349.114C68.9843 348.799 67.5135 348.379 65.8612 348.418C64.2185 348.465 62.805 349.095 61.9837 349.781C61.1432 350.459 60.8471 351.098 60.7803 351.05V351.06Z" fill="#E1E1E1"/>
<path d="M58.0391 353.883C57.9245 353.816 58.956 352.309 59.1948 350.134C59.4622 347.969 58.8127 346.262 58.9369 346.224C58.9846 346.205 59.2139 346.605 59.4144 347.311C59.615 348.017 59.7487 349.057 59.615 350.182C59.4813 351.308 59.1184 352.28 58.7554 352.929C58.4021 353.578 58.0773 353.911 58.0391 353.883Z" fill="#E1E1E1"/>
<path d="M28.1934 391.862C28.8237 403.05 32.2046 414.439 37.4002 425.941H59.9874C64.9442 414.543 68.0864 403.184 68.6403 391.862H28.1934Z" fill="#E1E1E1"/>
<path d="M64.9823 409.975C64.9823 410.09 57.5423 410.185 48.3737 410.185C39.2051 410.185 31.7651 410.09 31.7651 409.975C31.7651 409.861 39.2051 409.765 48.3737 409.765C57.5423 409.765 64.9823 409.861 64.9823 409.975Z" fill="#FAFAFA"/>
<path d="M64.4762 414.029C64.4762 414.143 57.5042 414.239 48.9086 414.239C40.3131 414.239 33.3315 414.143 33.3315 414.029C33.3315 413.914 40.3035 413.819 48.9086 413.819C57.5138 413.819 64.4762 413.914 64.4762 414.029Z" fill="#FAFAFA"/>
<path d="M37.7628 399.216C37.8775 399.216 37.973 401.543 37.973 404.414C37.973 407.285 37.8775 409.612 37.7628 409.612C37.6482 409.612 37.5527 407.285 37.5527 404.414C37.5527 401.543 37.6482 399.216 37.7628 399.216Z" fill="#FAFAFA"/>
<path d="M49.8639 399.216C49.9785 399.216 50.074 401.629 50.074 404.595C50.074 407.562 49.9785 409.975 49.8639 409.975C49.7493 409.975 49.6538 407.562 49.6538 404.595C49.6538 401.629 49.7493 399.216 49.8639 399.216Z" fill="#FAFAFA"/>
<path d="M61.2292 399.121C61.3438 399.121 61.4393 401.581 61.4393 404.605C61.4393 407.628 61.3438 410.089 61.2292 410.089C61.1146 410.089 61.019 407.628 61.019 404.605C61.019 401.581 61.1146 399.121 61.2292 399.121Z" fill="#FAFAFA"/>
<path d="M67.9241 399.216C67.9241 399.331 59.2044 399.427 48.4408 399.427C37.6773 399.427 28.9575 399.331 28.9575 399.216C28.9575 399.102 37.6773 399.006 48.4408 399.006C59.2044 399.006 67.9241 399.102 67.9241 399.216Z" fill="#FAFAFA"/>
<path d="M418.366 294.843C422.377 293.165 425.223 289.035 425.242 284.171C425.271 277.799 420.438 272.611 414.459 272.582C408.481 272.554 403.61 277.694 403.581 284.066C403.562 288.978 406.427 293.146 410.486 294.834C393.82 297.342 394.575 315.436 394.575 315.436L433.99 315.617C433.99 315.617 434.888 297.333 418.366 294.834V294.843Z" fill="#ECECEC"/>
<path d="M241.182 31.866C243.99 31.3891 246.416 29.1763 247.152 26.0765C248.116 22.0134 245.795 17.9884 241.985 17.0918C238.174 16.1953 234.306 18.7514 233.341 22.8145C232.606 25.943 233.819 29.0332 236.149 30.7023C225.137 29.8439 222.95 41.4992 222.95 41.4992L248.078 47.4317C248.078 47.4317 251.363 35.8909 241.182 31.866Z" fill="#ECECEC"/>
<path d="M419.445 128.961C421.785 127.559 423.189 124.736 422.759 121.712C422.205 117.745 418.738 114.96 415.013 115.475C411.289 115.99 408.729 119.624 409.283 123.591C409.713 126.644 411.871 128.98 414.545 129.667C404.412 132.719 406.504 143.898 406.504 143.898L431.02 140.473C431.02 140.473 429.931 129.018 419.435 128.961H419.445Z" fill="#F5F5F5"/>
<path d="M25.9206 132.423L12.6738 121.903L16.3413 117.287L25.2234 124.345L38.2027 109.847L42.6055 113.777L25.9206 132.423Z" fill="#F5F5F5"/>
<path d="M427.219 426.294C427.219 426.428 331.579 426.543 213.619 426.543C95.6592 426.543 0 426.428 0 426.294C0 426.161 95.621 426.046 213.619 426.046C331.617 426.046 427.219 426.161 427.219 426.294Z" fill="#1E2E34"/>
<path d="M43.9898 147.655L14.698 162.334C12.5109 163.269 11.0879 165.415 11.0879 167.79V181.477C11.0879 193.704 14.507 205.817 21.5363 216.519C26.8178 224.55 33.8089 234.812 45.4606 240.678H50.7135C63.6737 236.729 73.3485 226.209 79.2699 217.205C86.2991 206.504 89.7183 194.391 89.7183 182.163V167.79C89.7183 165.415 88.2952 163.269 86.1081 162.334L52.7382 148.132C51.2483 147.503 45.4893 147.026 44.0089 147.655H43.9898Z" fill="#FF7E66"/>
<path d="M43.9898 147.655L14.698 162.334C12.5109 163.269 11.0879 165.415 11.0879 167.79V181.477C11.0879 193.704 14.507 205.817 21.5363 216.519C26.8178 224.55 33.8089 234.812 45.4606 240.678H50.7135C63.6737 236.729 73.3485 226.209 79.2699 217.205C86.2991 206.504 89.7183 194.391 89.7183 182.163V167.79C89.7183 165.415 88.2952 163.269 86.1081 162.334L52.7382 148.132C51.2483 147.503 45.4893 147.026 44.0089 147.655H43.9898Z" fill="#000465"/>
<path d="M42.8057 148.132L9.43582 162.334C7.24873 163.269 5.82568 165.415 5.82568 167.79V181.477C5.82568 193.704 9.24481 205.817 16.2741 216.519C22.1859 225.522 31.345 234.793 45.4513 240.678C58.4115 236.729 68.0863 226.209 74.0077 217.205C81.0369 206.504 84.4561 194.391 84.4561 182.163V167.79C84.4561 165.415 83.033 163.269 80.8459 162.334L47.476 148.132C45.9861 147.503 44.3052 147.503 42.8153 148.132H42.8057Z" fill="#012CFD"/>
<path opacity="0.3" d="M53.0578 210.213C64.3242 205.849 69.9149 193.19 65.545 181.939C61.175 170.687 48.4992 165.104 37.2327 169.468C25.9663 173.832 20.3756 186.491 24.7455 197.743C29.1155 208.994 41.7913 214.577 53.0578 210.213Z" fill="black"/>
<path d="M45.1364 191.053C50.1526 191.053 54.219 186.992 54.219 181.982C54.219 176.973 50.1526 172.912 45.1364 172.912C40.1202 172.912 36.0537 176.973 36.0537 181.982C36.0537 186.992 40.1202 191.053 45.1364 191.053Z" fill="white"/>
<path d="M28.5562 204.081C28.5562 204.081 32.7871 194.009 44.8113 194.009C56.8356 194.009 61.7351 204.081 61.7351 204.081C61.7351 204.081 56.3676 211.998 44.5057 211.693C33.7612 211.416 28.5657 204.081 28.5657 204.081H28.5562Z" fill="white"/>
<path d="M67.0166 189.841C67.0166 189.841 66.9975 189.717 66.9688 189.488C66.9497 189.231 66.9211 188.888 66.8924 188.449C66.8733 188.22 66.8638 187.962 66.8447 187.686C66.816 187.409 66.7492 187.104 66.7014 186.78C66.5964 186.122 66.4913 185.359 66.2334 184.529C65.8419 182.85 65.0492 180.857 63.798 178.758C62.5373 176.66 60.7227 174.476 58.2587 172.616C55.8041 170.775 52.7002 169.211 49.1283 168.581C45.5754 167.971 41.5737 168.085 37.7534 169.535C36.7793 169.85 35.872 170.327 34.936 170.775C34.0478 171.309 33.1118 171.805 32.2809 172.482C31.4023 173.083 30.6287 173.837 29.8264 174.571C29.1006 175.372 28.3365 176.164 27.7062 177.08C26.4168 178.863 25.2994 180.847 24.6118 183.031C23.905 185.196 23.523 187.505 23.4943 189.841C23.523 192.188 23.905 194.486 24.6118 196.661C25.2899 198.845 26.4168 200.829 27.7062 202.612C28.3365 203.528 29.1006 204.31 29.8264 205.121C30.6287 205.846 31.4023 206.599 32.2809 207.21C33.1118 207.877 34.0478 208.373 34.936 208.917C35.872 209.365 36.7888 209.852 37.763 210.157C41.5833 211.607 45.585 211.721 49.1378 211.111C52.7097 210.481 55.8137 208.917 58.2682 207.076C60.7323 205.216 62.5469 203.032 63.8076 200.934C65.0587 198.826 65.8514 196.842 66.243 195.163C66.5009 194.334 66.5964 193.571 66.711 192.912C66.7587 192.588 66.8256 192.283 66.8542 192.006C66.8733 191.73 66.8924 191.472 66.902 191.243C66.9306 190.805 66.9593 190.461 66.9784 190.204C66.9975 189.975 67.0166 189.851 67.0261 189.851C67.0357 189.851 67.0357 189.975 67.0261 190.204C67.0261 190.461 67.007 190.805 66.9975 191.243C66.9975 191.472 66.9784 191.73 66.9688 192.016C66.9497 192.302 66.8924 192.607 66.8447 192.932C66.7492 193.599 66.6632 194.362 66.4245 195.211C66.0615 196.918 65.2879 198.931 64.0463 201.077C62.7952 203.213 60.9806 205.455 58.4879 207.353C56.0047 209.241 52.8626 210.853 49.2238 211.511C45.6041 212.15 41.5164 212.055 37.6197 210.586C36.6265 210.271 35.6905 209.785 34.7354 209.327C33.8281 208.783 32.8635 208.278 32.0231 207.591C31.1253 206.971 30.3326 206.208 29.5112 205.464C28.7663 204.644 27.9831 203.843 27.3433 202.908C26.0253 201.086 24.8696 199.055 24.1724 196.823C23.4466 194.601 23.0646 192.245 23.0264 189.851C23.055 187.457 23.4466 185.101 24.1724 182.879C24.8696 180.647 26.0253 178.615 27.3433 176.794C27.9831 175.859 28.7663 175.058 29.5112 174.237C30.3326 173.493 31.1253 172.73 32.0231 172.11C32.8731 171.424 33.8281 170.918 34.7354 170.375C35.6905 169.917 36.6265 169.43 37.6197 169.116C41.5259 167.647 45.6136 167.551 49.2238 168.19C52.8626 168.849 56.0047 170.46 58.4879 172.349C60.9806 174.256 62.7952 176.488 64.0463 178.625C65.2879 180.771 66.0615 182.793 66.4245 184.491C66.6632 185.33 66.7587 186.102 66.8447 186.77C66.8924 187.104 66.9402 187.409 66.9688 187.686C66.9784 187.962 66.9879 188.22 66.9975 188.458C67.007 188.897 67.0166 189.24 67.0261 189.498C67.0261 189.736 67.0261 189.851 67.0261 189.851L67.0166 189.841Z" fill="#1E2E34"/>
<path d="M84.3413 178.463C84.3413 178.463 84.3795 178.682 84.3986 179.092C84.4177 179.56 84.4464 180.16 84.475 180.904C84.5037 181.696 84.5514 182.659 84.4941 183.775C84.475 184.338 84.4559 184.939 84.4368 185.568C84.4368 186.207 84.3891 186.875 84.3127 187.571C84.179 188.973 84.0835 190.518 83.7969 192.159C83.6632 192.979 83.5582 193.828 83.3863 194.696C83.2048 195.564 83.0042 196.451 82.8132 197.367C81.9441 200.991 80.7312 204.93 78.9643 208.869C77.1879 212.799 75.0963 216.357 72.9761 219.428C71.8682 220.925 70.8367 222.375 69.7384 223.624C69.194 224.254 68.7069 224.893 68.1817 225.456C67.6564 226.018 67.1406 226.552 66.6631 227.068C65.7176 228.117 64.7434 228.946 63.9316 229.729C63.1294 230.511 62.3844 231.121 61.7636 231.617C61.181 232.084 60.7131 232.466 60.3501 232.752C60.0254 233.01 59.844 233.134 59.8344 233.124C59.8249 233.115 59.9777 232.952 60.2833 232.676C60.6271 232.361 61.076 231.96 61.6299 231.464C62.2221 230.949 62.9479 230.32 63.7311 229.519C64.5238 228.727 65.4693 227.878 66.3957 226.82C66.8732 226.304 67.3699 225.761 67.8856 225.198C68.4013 224.635 68.8789 223.996 69.4137 223.367C70.4929 222.117 71.4957 220.668 72.5941 219.17C74.6761 216.099 76.739 212.57 78.4963 208.669C80.2441 204.758 81.457 200.858 82.3548 197.262C82.5554 196.356 82.7559 195.478 82.9469 194.62C83.1189 193.761 83.2335 192.912 83.3767 192.102C83.6823 190.48 83.7969 188.945 83.9498 187.552C84.0357 186.856 84.093 186.188 84.1026 185.559C84.1312 184.929 84.1694 184.338 84.1885 183.775C84.2649 182.659 84.2554 181.696 84.2554 180.914C84.2554 180.17 84.2649 179.569 84.2745 179.102C84.2745 178.692 84.2936 178.472 84.3127 178.472L84.3413 178.463Z" fill="#1E2E34"/>
<path d="M316.565 426.294H90.7406C84.6282 426.294 79.6714 421.172 79.6714 414.858V70.1222C79.6714 63.8082 84.6282 58.6864 90.7406 58.6864H316.565C322.678 58.6864 327.635 63.8082 327.635 70.1222V414.849C327.635 421.163 322.678 426.285 316.565 426.285V426.294Z" fill="#1E2E34"/>
<path d="M207.975 409.565C207.975 415.259 203.266 419.875 197.46 419.875C191.653 419.875 186.944 415.259 186.944 409.565C186.944 403.871 191.653 399.254 197.46 399.254C203.266 399.254 207.975 403.871 207.975 409.565Z" fill="#3F5963"/>
<path d="M229.062 78.1245H178.425C176.477 78.1245 174.891 76.4935 174.891 74.4715C174.891 72.459 176.477 70.8185 178.425 70.8185H229.062C231.011 70.8185 232.596 72.4495 232.596 74.4715C232.596 76.484 231.011 78.1245 229.062 78.1245Z" fill="#3F5963"/>
<path d="M319.603 84.925H87.2739V391.91H319.603V84.925Z" fill="white"/>
<path d="M319.603 84.925H309.689V391.91H319.603V84.925Z" fill="#F5F5F5"/>
<path d="M314.646 195.211C312.936 195.211 311.561 193.828 311.561 192.13V124.221C311.561 122.514 312.946 121.14 314.646 121.14C316.355 121.14 317.731 122.523 317.731 124.221V192.13C317.731 193.838 316.346 195.211 314.646 195.211Z" fill="#E1E1E1"/>
<path d="M289.308 154.78H118.008C115.286 154.78 113.08 152.577 113.08 149.859C113.08 147.14 115.286 144.937 118.008 144.937H289.308C292.03 144.937 294.236 147.14 294.236 149.859C294.236 152.577 292.03 154.78 289.308 154.78Z" fill="#E1E1E1"/>
<path d="M262.957 118.88H155.198C152.476 118.88 150.27 116.677 150.27 113.958C150.27 111.24 152.476 109.037 155.198 109.037H262.957C265.679 109.037 267.886 111.24 267.886 113.958C267.886 116.677 265.679 118.88 262.957 118.88Z" fill="#012CFD"/>
<path d="M264.982 174.59H142.324C139.602 174.59 137.396 172.387 137.396 169.669C137.396 166.95 139.602 164.747 142.324 164.747H264.982C267.704 164.747 269.911 166.95 269.911 169.669C269.911 172.387 267.704 174.59 264.982 174.59Z" fill="#E1E1E1"/>
<path d="M209.608 260.936H115.238C112.516 260.936 110.31 258.733 110.31 256.015C110.31 253.297 112.516 251.093 115.238 251.093H209.608C212.33 251.093 214.536 253.297 214.536 256.015C214.536 258.733 212.33 260.936 209.608 260.936Z" fill="#E1E1E1"/>
<path d="M286.538 240.325H115.238C112.516 240.325 110.31 238.122 110.31 235.404C110.31 232.685 112.516 230.482 115.238 230.482H286.538C289.26 230.482 291.467 232.685 291.467 235.404C291.467 238.122 289.26 240.325 286.538 240.325Z" fill="#E1E1E1"/>
<path d="M286.538 296.865H136.603C133.881 296.865 131.675 299.069 131.675 301.787C131.675 304.505 133.881 306.709 136.603 306.709H286.538C289.26 306.709 291.466 304.505 291.466 301.787C291.466 299.069 289.26 296.865 286.538 296.865Z" fill="#E1E1E1"/>
<path d="M286.538 327.74H115.238C112.516 327.74 110.31 325.536 110.31 322.818C110.31 320.1 112.516 317.896 115.238 317.896H286.538C289.26 317.896 291.467 320.1 291.467 322.818C291.467 325.536 289.26 327.74 286.538 327.74Z" fill="#E1E1E1"/>
<path d="M286.538 349.104H115.238C112.516 349.104 110.31 346.901 110.31 344.183C110.31 341.464 112.516 339.261 115.238 339.261H286.538C289.26 339.261 291.467 341.464 291.467 344.183C291.467 346.901 289.26 349.104 286.538 349.104Z" fill="#E1E1E1"/>
<path d="M122.945 301.787C122.945 304.61 120.653 306.899 117.826 306.899C114.999 306.899 112.707 304.61 112.707 301.787C112.707 298.964 114.999 296.675 117.826 296.675C120.653 296.675 122.945 298.964 122.945 301.787Z" fill="#012CFD"/>
<path d="M286.538 221.106H136.593C133.871 221.106 131.665 218.903 131.665 216.185C131.665 213.467 133.871 211.263 136.593 211.263H286.538C289.26 211.263 291.466 213.467 291.466 216.185C291.466 218.903 289.26 221.106 286.538 221.106Z" fill="#E1E1E1"/>
<path d="M117.826 221.297C120.653 221.297 122.945 219.008 122.945 216.185C122.945 213.361 120.653 211.073 117.826 211.073C114.999 211.073 112.707 213.361 112.707 216.185C112.707 219.008 114.999 221.297 117.826 221.297Z" fill="#012CFD"/>
<path d="M281.753 380.398H243.312C238.976 380.398 235.461 376.888 235.461 372.558C235.461 368.228 238.976 364.718 243.312 364.718H281.753C286.089 364.718 289.604 368.228 289.604 372.558C289.604 376.888 286.089 380.398 281.753 380.398Z" fill="#012CFD"/>
<path d="M83.7206 10.4439L43.8753 30.4067C40.8955 31.6752 38.9663 34.5938 38.9663 37.8271V56.445C38.9663 73.079 43.6175 89.5508 53.1777 104.106C60.3597 115.026 69.8722 128.99 85.7167 136.963H92.8701C110.501 131.594 123.661 117.277 131.713 105.031C141.273 90.4855 145.924 74.0042 145.924 57.3701V37.8176C145.924 34.5842 143.995 31.6656 141.015 30.3971L95.6207 11.083C93.5959 10.2246 85.7644 9.57599 83.7397 10.4344L83.7206 10.4439Z" fill="#FF7E66"/>
<path d="M83.7206 10.4439L43.8753 30.4067C40.8955 31.6752 38.9663 34.5938 38.9663 37.8271V56.445C38.9663 73.079 43.6175 89.5508 53.1777 104.106C60.3597 115.026 69.8722 128.99 85.7167 136.963H92.8701C110.501 131.594 123.661 117.277 131.713 105.031C141.273 90.4855 145.924 74.0042 145.924 57.3701V37.8176C145.924 34.5842 143.995 31.6656 141.015 30.3971L95.6207 11.083C93.5959 10.2246 85.7644 9.57599 83.7397 10.4344L83.7206 10.4439Z" fill="#000465"/>
<path d="M82.1162 11.0925L36.722 30.4067C33.7422 31.6752 31.813 34.5938 31.813 37.8271V56.445C31.813 73.079 36.4641 89.5509 46.0243 104.106C54.066 116.352 66.5295 128.952 85.7072 136.963C103.338 131.594 116.498 117.277 124.55 105.031C134.11 90.4856 138.761 74.0042 138.761 57.3702V37.8176C138.761 34.5842 136.832 31.6657 133.852 30.3971L88.4578 11.083C86.4331 10.2246 84.1505 10.2246 82.1257 11.083L82.1162 11.0925Z" fill="#012CFD"/>
<path d="M138.608 52.3342C138.608 52.3342 138.627 52.4105 138.637 52.5535C138.646 52.7252 138.656 52.935 138.675 53.1926C138.694 53.803 138.723 54.6232 138.761 55.6533C138.799 56.7216 138.856 58.0378 138.77 59.5543C138.742 60.3173 138.723 61.128 138.694 61.996C138.675 62.4252 138.665 62.8735 138.646 63.3313C138.608 63.7891 138.56 64.2469 138.522 64.7238C138.331 66.6314 138.207 68.7297 137.806 70.952C137.624 72.068 137.481 73.222 137.252 74.4047C136.994 75.5779 136.736 76.7892 136.469 78.0291C135.275 82.9602 133.632 88.3109 131.235 93.6616C128.828 99.0028 125.982 103.829 123.107 108.016C121.598 110.057 120.204 112.032 118.714 113.729C117.979 114.588 117.32 115.456 116.603 116.219C115.887 116.982 115.199 117.716 114.54 118.412C113.261 119.843 111.943 120.978 110.844 122.037C110.281 122.552 109.784 123.057 109.288 123.477C108.791 123.887 108.332 124.269 107.912 124.612C107.11 125.27 106.47 125.795 106.002 126.176C105.802 126.338 105.639 126.462 105.496 126.577C105.381 126.663 105.314 126.701 105.314 126.701C105.314 126.701 105.362 126.644 105.467 126.539C105.591 126.424 105.754 126.281 105.945 126.1C106.403 125.699 107.014 125.156 107.798 124.469C108.208 124.116 108.648 123.725 109.144 123.296C109.631 122.857 110.118 122.351 110.672 121.827C111.752 120.759 113.041 119.605 114.302 118.164C114.951 117.459 115.629 116.724 116.336 115.961C117.043 115.189 117.702 114.33 118.418 113.462C119.889 111.764 121.264 109.79 122.754 107.749C125.59 103.571 128.408 98.7739 130.805 93.4613C133.193 88.1392 134.835 82.8266 136.048 77.9242C136.325 76.6938 136.593 75.492 136.851 74.3189C137.089 73.1457 137.242 71.9917 137.433 70.8853C137.844 68.6725 137.997 66.5837 138.207 64.6857C138.255 64.2088 138.302 63.751 138.35 63.2931C138.369 62.8353 138.388 62.3966 138.417 61.9674C138.455 61.109 138.493 60.2983 138.532 59.5352C138.637 58.0187 138.608 56.712 138.598 55.6438C138.598 54.6042 138.598 53.7839 138.598 53.183C138.598 52.9255 138.608 52.7157 138.608 52.544C138.608 52.4009 138.618 52.3246 138.627 52.3246L138.608 52.3342Z" fill="#1E2E34"/>
<path d="M103.261 77.3519H98.4192V51.037C98.4192 44.847 93.3764 39.8014 87.1685 39.8014C80.9606 39.8014 75.9179 44.8374 75.9179 51.037V77.3519H71.0757V51.037C71.0757 42.1764 78.296 34.9753 87.159 34.9753C96.0219 34.9753 103.242 42.1859 103.242 51.037V77.3519H103.261Z" fill="#F5F5F5"/>
<path d="M103.299 59.4971H71.0372C67.9726 59.4971 65.4883 61.9781 65.4883 65.0386V87.8913C65.4883 90.9518 67.9726 93.4328 71.0372 93.4328H103.299C106.364 93.4328 108.848 90.9518 108.848 87.8913V65.0386C108.848 61.9781 106.364 59.4971 103.299 59.4971Z" fill="white"/>
<path d="M103.299 93.4328C103.299 93.4328 103.815 93.4328 104.742 93.1848C105.639 92.9368 107.024 92.2691 107.96 90.6954C108.428 89.9228 108.724 88.9404 108.724 87.8436C108.724 86.7277 108.715 85.5163 108.705 84.2097C108.695 81.5963 108.686 78.63 108.667 75.3585C108.648 72.0775 108.638 68.4913 108.619 64.6475C108.504 62.7972 107.301 60.9659 105.467 60.1743C104.551 59.7546 103.567 59.6783 102.497 59.7165C101.437 59.7165 100.367 59.7165 99.2786 59.7165C90.597 59.7165 81.0464 59.726 71.0278 59.7355C69.834 59.7451 68.6401 60.1457 67.7233 60.8896C66.8064 61.6336 66.1283 62.6637 65.8704 63.7987C65.7367 64.3709 65.7081 64.9337 65.7176 65.5536C65.7176 66.1545 65.7176 66.7649 65.7176 67.3563C65.7176 68.5581 65.7176 69.7503 65.7176 70.9234C65.7176 75.6447 65.7081 80.1942 65.6985 84.5339C65.7845 86.6895 65.3356 88.9118 66.453 90.6096C67.4654 92.3264 69.4042 93.3088 71.2857 93.2134C75.1441 93.2229 78.7447 93.2325 82.0301 93.242C88.5723 93.2706 93.8825 93.2992 97.5786 93.3183C99.3932 93.3374 100.816 93.3565 101.809 93.366C102.277 93.3755 102.64 93.3851 102.908 93.3946C103.156 93.3946 103.28 93.4137 103.28 93.4232C103.28 93.4328 103.156 93.4423 102.908 93.4518C102.64 93.4518 102.268 93.4614 101.809 93.4805C100.816 93.49 99.3932 93.5091 97.5786 93.5281C93.8825 93.5472 88.5723 93.5758 82.0301 93.6044C78.7447 93.6044 75.1441 93.6235 71.2857 93.6331C69.2991 93.7475 67.1693 92.6983 66.0806 90.8385C65.5171 89.9324 65.2401 88.826 65.2497 87.7482C65.2497 86.6895 65.2497 85.6213 65.2497 84.5339C65.2497 80.1942 65.2497 75.6447 65.2306 70.9234C65.2306 69.7408 65.2306 68.5581 65.2306 67.3563C65.2306 66.7554 65.2306 66.1545 65.2306 65.5536C65.221 64.9623 65.2401 64.3042 65.3929 63.6842C65.6699 62.4348 66.4148 61.3093 67.4176 60.4986C68.4205 59.6783 69.7289 59.2491 71.0278 59.23C81.0464 59.23 90.5875 59.2396 99.2786 59.2491C100.367 59.2491 101.437 59.2491 102.497 59.2491C103.529 59.211 104.684 59.2968 105.649 59.7546C107.626 60.613 108.915 62.6064 109.03 64.5999C109.058 68.4818 109.03 72.0584 109.02 75.3395C109.011 78.6109 108.992 81.5772 108.982 84.1906C108.982 85.4877 108.972 86.699 108.963 87.8245C108.953 88.9595 108.629 89.9896 108.122 90.7812C107.129 92.3931 105.687 93.0417 104.761 93.2611C103.806 93.49 103.29 93.4137 103.29 93.4137L103.299 93.4328Z" fill="#1E2E34"/>
<path d="M90.5015 77.3424C91.3515 76.4935 91.8767 75.3204 91.8767 74.0137C91.8767 71.3812 89.7374 69.2543 87.111 69.2543C84.4846 69.2543 82.3452 71.3908 82.3452 74.0137C82.3452 76.1883 83.816 78.01 85.8121 78.5728L84.7902 83.0937H89.3267L88.4099 78.5728C89.2121 78.3439 89.9284 77.9147 90.5015 77.3329" fill="#012CFD"/>
<path d="M386.304 111.373V150.021C386.39 156.707 387.374 167.198 376.782 166.846C367.614 165.854 365.188 157.184 365.112 150.946C365.073 147.989 365.045 145.519 365.016 145.214C365.016 145.214 354.988 144.393 354.138 134.503C353.727 129.724 353.689 119.805 353.756 110.83C353.832 101.197 361.31 93.2325 370.937 92.5267L371.892 92.4599C382.255 92.3073 386.429 101.015 386.295 111.364L386.304 111.373Z" fill="#FFC3A3"/>
<path d="M365.025 145.223C365.025 145.223 371.3 145.137 377.661 140.473C377.661 140.473 375.044 147.942 365.083 147.77L365.035 145.233L365.025 145.223Z" fill="#F59F75"/>
<path d="M370.708 114.893C370.908 115.093 372.045 114.178 373.707 114.13C375.369 114.063 376.61 114.902 376.782 114.683C376.868 114.588 376.668 114.225 376.123 113.844C375.588 113.462 374.691 113.109 373.659 113.147C372.628 113.186 371.768 113.596 371.281 114.015C370.784 114.435 370.622 114.807 370.717 114.902L370.708 114.893Z" fill="#1E2E34"/>
<path d="M370.679 119.576C370.708 120.282 371.329 120.845 372.074 120.835C372.809 120.816 373.392 120.234 373.363 119.528C373.334 118.822 372.713 118.26 371.978 118.269C371.233 118.279 370.66 118.87 370.689 119.576H370.679Z" fill="#1E2E34"/>
<path d="M366.553 126.424C366.553 126.338 365.598 126.243 364.042 126.157C363.65 126.148 363.277 126.1 363.192 125.833C363.077 125.556 363.211 125.127 363.363 124.66C363.659 123.696 363.975 122.676 364.299 121.617C365.589 117.287 366.496 113.739 366.315 113.691C366.143 113.643 364.949 117.106 363.659 121.436C363.354 122.504 363.058 123.525 362.771 124.498C362.657 124.946 362.437 125.47 362.685 126.043C362.809 126.329 363.115 126.52 363.363 126.567C363.621 126.624 363.841 126.615 364.032 126.615C365.579 126.586 366.544 126.52 366.544 126.434L366.553 126.424Z" fill="#1E2E34"/>
<path d="M371.415 107.835C371.577 108.207 372.905 107.93 374.5 108.007C376.095 108.054 377.403 108.436 377.585 108.083C377.671 107.911 377.422 107.577 376.878 107.244C376.343 106.919 375.503 106.633 374.547 106.585C373.592 106.547 372.733 106.767 372.179 107.053C371.615 107.339 371.348 107.654 371.415 107.825V107.835Z" fill="#1E2E34"/>
<path d="M355.647 110.315C355.819 110.61 357.117 110.286 358.684 110.229C360.25 110.153 361.558 110.382 361.721 110.067C361.797 109.914 361.539 109.647 360.985 109.409C360.441 109.17 359.601 108.989 358.665 109.027C357.719 109.065 356.888 109.313 356.353 109.599C355.809 109.886 355.561 110.172 355.637 110.315H355.647Z" fill="#1E2E34"/>
<path d="M340.604 101.95C340.71 101.549 341.006 101.225 341.359 101.015C342.133 100.558 343.03 100.615 343.89 100.605C346.516 100.567 349.133 99.7659 351.339 98.3447C352.371 96.8568 353.546 95.4548 354.806 94.1481C357.805 91.0578 360.279 88.95 362.838 87.9199C366.143 86.5941 371.673 86.0504 375.12 86.9565C378.568 87.8626 381.663 90.6572 382.14 94.1767C384.069 92.5457 386.973 92.5553 389.332 93.4995L389.389 93.4709C392.016 94.4056 393.505 97.1716 394.279 99.8422C395.053 102.513 395.387 105.365 396.8 107.759C397.096 108.255 397.45 108.855 397.192 109.38C396.991 109.781 396.476 109.952 396.036 109.886C395.587 109.819 395.196 109.571 394.814 109.332C395.11 110.029 395.396 110.734 395.693 111.431C394.747 111.593 393.763 111.516 392.837 111.24C392.283 113.739 391.614 116.591 390.975 118.279C389.876 118.279 388.873 118.355 388.195 118.966C387.278 119.786 386.868 121.34 385.34 120.749C384.566 120.453 383.85 118.822 383.592 118.031C381.863 112.785 381.29 107.167 381.921 101.683C380.832 100.529 379.523 99.5846 378.081 98.917L378.196 99.0219C375.426 98.0586 372.293 97.1143 369.667 98.4115C367.633 99.4225 366.429 101.53 364.911 103.219C362.027 106.414 358.13 108.15 353.823 108.331C353.679 111.116 353.909 115.055 353.765 117.84L351.416 113.376V113.395C351.225 113.071 351.062 112.737 350.91 112.413L350.862 112.318C350.614 111.774 350.384 111.24 350.079 110.715C350.079 110.715 350.06 110.734 350.05 110.734C348.541 112.07 346.306 110.029 347.5 108.407C347.739 108.083 348.016 107.797 348.341 107.558C347.653 108.207 346.621 108.512 345.714 108.235C344.807 107.959 344.11 107.043 344.186 106.099C344.243 105.45 344.702 104.878 345.284 104.621C344.062 104.716 342.811 104.449 341.751 103.839C341.053 103.438 340.366 102.789 340.604 101.912V101.95Z" fill="#1E2E34"/>
<path d="M379.036 95.3212C379.036 95.3212 379.447 95.5787 380.03 96.2273C380.603 96.8664 381.243 97.9918 381.548 99.5179C381.701 100.271 381.806 101.12 381.806 102.036C381.806 102.952 381.739 103.924 381.663 104.954C381.596 105.985 381.52 107.072 381.586 108.197C381.615 108.76 381.691 109.332 381.806 109.914C381.93 110.477 382.083 111.087 382.503 111.574C382.847 111.965 383.411 112.146 383.898 112.041C384.394 111.955 384.834 111.688 385.158 111.335C385.798 110.591 385.951 109.647 386.113 108.817L385.903 108.846C386.247 109.59 386.591 110.334 387.107 110.916C387.613 111.507 388.32 111.898 389.036 111.965C389.389 111.993 389.752 111.936 390.058 111.784C390.373 111.631 390.593 111.373 390.755 111.097C390.908 110.82 390.984 110.515 390.965 110.219C390.946 109.924 390.831 109.647 390.65 109.447L390.545 109.542C391.309 110.41 392.111 110.877 392.675 111.135C392.952 111.269 393.181 111.345 393.334 111.392C393.487 111.44 393.572 111.459 393.572 111.45C393.572 111.45 393.496 111.412 393.353 111.354C393.21 111.297 392.99 111.202 392.713 111.068C392.169 110.792 391.395 110.315 390.66 109.447L390.554 109.542C390.889 109.895 390.908 110.515 390.621 111.011C390.478 111.259 390.268 111.488 389.991 111.612C389.714 111.745 389.389 111.793 389.065 111.764C388.406 111.698 387.747 111.335 387.279 110.773C386.792 110.21 386.457 109.494 386.113 108.741L385.97 108.426L385.903 108.77C385.741 109.599 385.579 110.505 384.996 111.173C384.709 111.497 384.299 111.736 383.869 111.812C383.439 111.898 382.981 111.755 382.685 111.412C382.312 110.992 382.159 110.41 382.035 109.857C381.911 109.294 381.844 108.731 381.816 108.178C381.749 107.062 381.816 105.985 381.873 104.964C381.94 103.934 382.007 102.952 381.988 102.036C381.988 101.111 381.873 100.252 381.701 99.4893C381.376 97.9441 380.689 96.8091 380.087 96.1796C379.476 95.5406 379.027 95.3308 379.027 95.3308L379.036 95.3212Z" fill="#3F5963"/>
<path d="M348.369 104.945C348.369 104.945 348.398 104.974 348.446 105.012C348.512 105.059 348.598 105.117 348.694 105.193C348.799 105.279 348.942 105.365 349.114 105.46C349.286 105.555 349.477 105.679 349.716 105.775C350.633 106.213 352.113 106.643 353.956 106.538C355.78 106.433 357.977 105.784 359.935 104.335C361.912 102.913 363.65 100.815 365.073 98.421C365.789 97.2193 366.382 95.9889 367.031 94.8634C367.671 93.7284 368.387 92.6793 369.247 91.8495C370.097 91.0197 371.081 90.3997 372.102 90.1136C372.609 89.961 373.124 89.9324 373.611 89.9419C374.099 89.9705 374.567 90.0659 374.987 90.209C375.837 90.4951 376.534 90.9624 377.05 91.4489C377.575 91.9353 377.928 92.4503 378.167 92.8986C378.616 93.8047 378.645 94.3961 378.683 94.3865C378.683 94.3865 378.683 94.3484 378.683 94.2816C378.673 94.1958 378.654 94.1004 378.635 93.9764C378.587 93.7093 378.473 93.3278 378.263 92.8605C378.033 92.4027 377.68 91.8685 377.155 91.3535C376.629 90.848 375.932 90.352 375.054 90.0468C374.614 89.8942 374.137 89.7893 373.631 89.7607C373.124 89.7416 372.59 89.7797 372.064 89.9228C371.004 90.2089 369.982 90.8384 369.113 91.6873C368.225 92.5362 367.499 93.5949 366.85 94.7394C366.191 95.884 365.608 97.1048 364.892 98.297C363.478 100.682 361.769 102.751 359.83 104.163C357.91 105.603 355.761 106.252 353.966 106.376C352.151 106.5 350.69 106.099 349.773 105.698C348.847 105.288 348.407 104.916 348.388 104.945H348.369Z" fill="#3F5963"/>
<path d="M347.471 100.596C347.471 100.596 347.586 100.701 347.825 100.844C348.063 100.996 348.417 101.177 348.875 101.378C349.334 101.578 349.897 101.769 350.537 101.921C351.186 102.065 351.903 102.179 352.667 102.208C353.431 102.227 354.157 102.169 354.816 102.065C355.465 101.95 356.048 101.797 356.516 101.626C356.984 101.454 357.356 101.292 357.604 101.158C357.853 101.025 357.986 100.949 357.977 100.939C357.958 100.901 357.413 101.177 356.468 101.473C356 101.626 355.427 101.759 354.787 101.855C354.147 101.941 353.431 101.998 352.686 101.979C351.941 101.95 351.234 101.855 350.594 101.721C349.964 101.578 349.4 101.406 348.942 101.235C348.025 100.882 347.49 100.567 347.471 100.605V100.596Z" fill="#3F5963"/>
<path d="M355.57 114.893C355.771 115.093 356.907 114.178 358.569 114.13C360.231 114.063 361.473 114.902 361.644 114.683C361.73 114.588 361.53 114.225 360.985 113.844C360.451 113.462 359.553 113.109 358.521 113.147C357.49 113.186 356.63 113.596 356.143 114.015C355.647 114.435 355.484 114.807 355.58 114.902L355.57 114.893Z" fill="#1E2E34"/>
<path d="M357.271 119.576C357.299 120.282 357.92 120.845 358.665 120.835C359.4 120.816 359.983 120.234 359.954 119.528C359.926 118.823 359.305 118.26 358.569 118.269C357.824 118.279 357.251 118.87 357.28 119.576H357.271Z" fill="#1E2E34"/>
<path d="M386.046 118.765C386.209 118.679 392.703 116.257 392.98 123.038C393.257 129.82 386.39 128.694 386.371 128.503C386.352 128.313 386.046 118.765 386.046 118.765Z" fill="#FFC3A3"/>
<path d="M388.338 125.852C388.338 125.852 388.462 125.928 388.663 126.014C388.864 126.1 389.198 126.148 389.551 125.995C390.258 125.699 390.812 124.545 390.793 123.315C390.793 122.695 390.63 122.113 390.392 121.636C390.162 121.15 389.828 120.816 389.465 120.768C389.102 120.701 388.854 120.93 388.778 121.121C388.692 121.312 388.739 121.445 388.711 121.464C388.692 121.484 388.558 121.36 388.606 121.073C388.625 120.94 388.701 120.778 388.854 120.635C389.016 120.492 389.246 120.415 389.503 120.434C390.029 120.453 390.516 120.911 390.783 121.436C391.079 121.96 391.261 122.619 391.27 123.305C391.28 124.669 390.63 125.976 389.666 126.3C389.198 126.443 388.787 126.319 388.577 126.167C388.357 126.005 388.319 125.861 388.338 125.842V125.852Z" fill="#F59F75"/>
<path d="M371.386 127.826C371.444 127.836 371.444 128.227 371.205 128.799C370.966 129.362 370.45 130.096 369.639 130.611C368.836 131.126 367.938 131.298 367.327 131.231C366.706 131.174 366.363 130.974 366.391 130.916C366.41 130.84 366.773 130.916 367.337 130.878C367.9 130.85 368.664 130.649 369.381 130.192C370.107 129.734 370.603 129.123 370.899 128.637C371.195 128.151 371.31 127.807 371.386 127.826Z" fill="#1E2E34"/>
<path d="M405.587 396.002L407.612 418.931L414.784 436.633C415.3 437.911 414.565 439.332 413.17 439.723C412.387 439.943 411.556 439.809 410.907 439.342C406.809 436.366 392.044 425.417 391.872 423.995C391.662 422.145 387.89 399.607 387.89 399.607L405.577 396.011L405.587 396.002Z" fill="#3F5963"/>
<path d="M413.17 439.714L391.471 421.373L391.681 423.07C391.825 423.995 391.844 424.501 392.493 425.083C394.231 426.637 399.322 431.387 410.678 439.714C411.337 440.2 412.378 439.962 413.17 439.714Z" fill="#1E2E34"/>
<path d="M395.74 414.219C396.399 414.553 396.696 415.402 396.361 416.031C396.027 416.661 395.12 416.947 394.451 416.623C393.792 416.298 393.401 415.287 393.802 414.706C394.203 414.114 395.301 413.828 395.855 414.295" fill="white"/>
<path d="M406.475 430.281C406.618 430.329 407.038 429.079 408.414 428.287C409.76 427.458 411.145 427.648 411.164 427.505C411.183 427.448 410.849 427.296 410.276 427.286C409.703 427.267 408.882 427.42 408.137 427.868C407.382 428.316 406.886 428.936 406.656 429.432C406.427 429.928 406.427 430.271 406.484 430.281H406.475Z" fill="#1E2E34"/>
<path d="M408.557 433.171C408.681 433.257 409.379 432.436 410.601 431.969C411.814 431.483 412.922 431.588 412.951 431.445C413.008 431.321 411.776 430.949 410.4 431.502C409.006 432.036 408.424 433.114 408.557 433.171Z" fill="#1E2E34"/>
<path d="M402.798 426.676C402.922 426.771 403.992 425.502 405.826 424.625C407.64 423.719 409.359 423.623 409.35 423.471C409.378 423.347 407.526 423.204 405.577 424.177C403.61 425.121 402.674 426.618 402.798 426.676Z" fill="#1E2E34"/>
<path d="M401.557 419.751C401.633 419.885 402.922 419.217 404.67 418.988C406.408 418.731 407.85 419.007 407.889 418.864C407.946 418.75 406.466 418.215 404.594 418.492C402.722 418.75 401.471 419.656 401.566 419.761L401.557 419.751Z" fill="#1E2E34"/>
<path d="M400.783 413.036C400.869 413.16 402.139 412.264 404.002 412.159C405.854 412.016 407.249 412.731 407.316 412.598C407.354 412.55 407.048 412.283 406.456 412.035C405.864 411.787 404.957 411.587 403.963 411.653C402.96 411.72 402.101 412.035 401.547 412.369C400.993 412.693 400.735 412.989 400.783 413.036Z" fill="#1E2E34"/>
<path d="M403.81 410.881C403.81 410.881 403.858 410.566 403.743 410.013C403.629 409.46 403.361 408.668 402.75 407.819C402.435 407.419 402.101 406.904 401.384 406.665C401.031 406.551 400.534 406.665 400.277 406.989C400.019 407.314 399.971 407.695 400.009 408.058C400.2 409.507 401.69 410.776 403.447 410.814C405.214 410.814 406.695 409.727 407.239 408.401C407.354 408.058 407.411 407.657 407.182 407.285C406.953 406.913 406.437 406.808 406.093 406.894C405.377 407.066 404.966 407.505 404.574 407.838C403.81 408.554 403.361 409.279 403.113 409.784C402.865 410.299 402.798 410.604 402.827 410.614C402.922 410.662 403.314 409.431 404.832 408.105C405.214 407.8 405.663 407.409 406.179 407.314C406.427 407.266 406.656 407.342 406.771 407.524C406.886 407.695 406.867 407.991 406.771 408.258C406.303 409.345 404.947 410.337 403.457 410.309C401.967 410.29 400.668 409.174 400.506 408.01C400.468 407.733 400.515 407.438 400.659 407.257C400.802 407.075 401.031 407.009 401.27 407.066C401.767 407.199 402.139 407.648 402.445 408.02C403.658 409.593 403.705 410.91 403.81 410.871V410.881Z" fill="#1E2E34"/>
<path d="M347.748 397.185L348.655 416.594C348.655 416.594 327.94 423.976 327.73 427.582L367.89 427.286L367.804 396.984L347.748 397.185Z" fill="#3F5963"/>
<path d="M361.062 414.868C361.845 415.058 362.389 415.879 362.208 416.613C362.036 417.348 361.157 417.882 360.374 417.7C359.591 417.519 358.903 416.556 359.171 415.841C359.428 415.125 360.498 414.562 361.214 414.915" fill="#E1E1E1"/>
<path d="M367.9 427.286L367.766 424.234L329.315 425.655C329.315 425.655 327.53 426.399 327.749 427.582L367.91 427.286H367.9Z" fill="#1E2E34"/>
<path d="M348.006 416.413C348.006 416.594 348.999 416.67 349.964 417.262C350.947 417.824 351.454 418.616 351.635 418.54C351.816 418.502 351.511 417.405 350.327 416.718C349.142 416.022 347.958 416.251 348.006 416.413Z" fill="#1E2E34"/>
<path d="M343.804 418.072C343.756 418.254 344.615 418.559 345.284 419.331C345.981 420.085 346.153 420.924 346.354 420.915C346.535 420.943 346.669 419.866 345.809 418.912C344.959 417.958 343.813 417.891 343.804 418.063V418.072Z" fill="#1E2E34"/>
<path d="M341.454 422.822C341.636 422.86 341.893 421.935 341.387 420.934C340.881 419.923 339.955 419.532 339.869 419.684C339.764 419.837 340.356 420.371 340.766 421.201C341.196 422.021 341.254 422.794 341.454 422.813V422.822Z" fill="#1E2E34"/>
<path d="M348.321 411.959C348.407 412.13 349.305 411.863 350.413 411.93C351.521 411.968 352.39 412.312 352.485 412.159C352.6 412.025 351.75 411.348 350.441 411.291C349.133 411.224 348.216 411.816 348.321 411.959Z" fill="#1E2E34"/>
<path d="M340.767 257.789C340.786 258.914 345.427 414.067 345.427 414.067H370.249L375.283 281.347C375.283 281.347 381.156 350.745 381.156 352.242C381.156 353.74 386.342 414.82 386.342 414.82L409.359 413.056L407.85 273.317L405.042 252.829L340.776 257.789H340.767Z" fill="#1E2E34"/>
<path d="M377.861 276.426C377.861 276.426 377.517 276.598 376.849 276.826C376.19 277.055 375.235 277.37 374.051 277.742L373.821 277.818L373.802 277.599C373.669 275.73 373.506 273.24 373.363 270.503C373.201 267.537 373.086 264.847 373.029 262.911C373 261.938 372.981 261.146 372.981 260.603C372.981 260.059 373 259.754 373.029 259.754C373.067 259.754 373.115 260.049 373.172 260.593C373.229 261.137 373.296 261.919 373.373 262.892C373.516 264.837 373.688 267.518 373.85 270.484C373.993 273.221 374.108 275.72 374.165 277.59L373.926 277.446C375.13 277.113 376.104 276.846 376.782 276.664C377.46 276.493 377.842 276.407 377.852 276.435L377.861 276.426Z" fill="#3F5963"/>
<path d="M375.98 260.297C375.98 260.297 376.056 260.173 376.314 260.097C376.563 260.021 376.973 259.992 377.413 260.183C377.842 260.345 378.31 260.841 378.243 261.461C378.196 262.043 377.718 262.682 376.925 262.834C376.133 262.968 375.416 262.558 375.092 262.052C374.738 261.528 374.863 260.927 375.111 260.583C375.359 260.212 375.693 260.021 375.932 259.935C376.181 259.849 376.324 259.868 376.324 259.897C376.362 259.964 375.76 260.078 375.416 260.727C375.254 261.041 375.206 261.48 375.474 261.842C375.732 262.205 376.286 262.491 376.82 262.396C377.346 262.3 377.737 261.833 377.785 261.413C377.852 260.984 377.565 260.622 377.241 260.45C376.543 260.078 375.999 260.364 375.98 260.288V260.297Z" fill="#3F5963"/>
<path d="M387.374 261.89C387.24 261.9 387.049 261.232 386.954 260.393C386.858 259.553 386.887 258.857 387.021 258.848C387.154 258.838 387.345 259.506 387.441 260.355C387.536 261.194 387.508 261.89 387.374 261.9V261.89Z" fill="#3F5963"/>
<path d="M389.093 261.728C388.959 261.728 388.845 261.013 388.835 260.126C388.835 259.239 388.94 258.523 389.074 258.523C389.207 258.523 389.322 259.239 389.332 260.126C389.332 261.013 389.227 261.728 389.093 261.728Z" fill="#3F5963"/>
<path d="M359.171 262.806C359.037 262.815 358.827 262.014 358.703 261.003C358.579 259.992 358.588 259.172 358.722 259.153C358.856 259.134 359.066 259.944 359.19 260.955C359.314 261.966 359.304 262.787 359.171 262.806Z" fill="#3F5963"/>
<path d="M361.262 262.949C361.138 262.987 360.699 262.167 360.651 261.06C360.594 259.954 360.957 259.105 361.081 259.134C361.215 259.162 361.081 260.011 361.138 261.041C361.176 262.071 361.387 262.911 361.253 262.949H361.262Z" fill="#3F5963"/>
<path d="M353.402 260.879C353.402 260.879 353.402 261.127 353.316 261.566C353.24 262.005 353.077 262.625 352.819 263.388C352.313 264.904 351.32 266.936 349.744 268.92C348.159 270.894 346.335 272.401 344.892 273.326C344.176 273.793 343.565 274.137 343.126 274.347C342.686 274.556 342.447 274.661 342.428 274.642C342.39 274.585 343.326 274.089 344.701 273.107C346.067 272.134 347.824 270.636 349.381 268.691C350.928 266.745 351.941 264.771 352.523 263.302C353.106 261.833 353.326 260.87 353.402 260.889V260.879Z" fill="#3F5963"/>
<path d="M407.077 271.333C407.077 271.333 406.809 271.409 406.322 271.447C405.835 271.485 405.119 271.495 404.24 271.409C402.502 271.256 400.067 270.636 397.879 269.196C395.692 267.756 394.317 265.867 393.639 264.427C393.295 263.702 393.095 263.092 392.99 262.663C392.884 262.234 392.856 261.995 392.884 261.986C392.961 261.966 393.171 262.92 393.926 264.303C394.661 265.686 396.027 267.479 398.137 268.872C400.248 270.264 402.578 270.903 404.278 271.123C405.988 271.352 407.067 271.256 407.067 271.323L407.077 271.333Z" fill="#3F5963"/>
<path d="M366.64 349.905C366.611 350.01 362.495 349.123 357.452 347.922C352.409 346.72 348.34 345.661 348.379 345.556C348.407 345.451 352.524 346.338 357.566 347.54C362.609 348.742 366.668 349.801 366.64 349.905Z" fill="#3F5963"/>
<path d="M406.637 344.259C406.695 344.354 403.113 346.224 398.643 348.427C394.164 350.64 390.487 352.347 390.43 352.252C390.373 352.156 393.954 350.287 398.424 348.084C402.903 345.871 406.57 344.164 406.637 344.259Z" fill="#3F5963"/>
<path d="M328.714 205.245L332.104 209.48V202.183H342.801C342.801 202.183 343.985 218.884 343.737 222.442C343.651 223.691 343.097 225.742 342.428 227.888C341.034 232.332 335.409 233.725 332.066 230.482C330.939 229.395 329.793 228.155 328.723 226.762C323.967 220.658 316.078 205.798 316.078 205.798L324.311 200.829L328.723 205.235L328.714 205.245Z" fill="#FFC3A3"/>
<path d="M328.036 204.463C327.988 204.51 328.532 205.207 329.43 206.323C330.328 207.439 331.579 208.974 333.011 210.643C334.444 212.303 335.791 213.772 336.841 214.764C337.882 215.765 338.618 216.28 338.656 216.233C338.704 216.175 338.064 215.565 337.09 214.516C336.115 213.467 334.817 211.979 333.394 210.319C330.567 206.981 328.16 204.348 328.036 204.463Z" fill="#F59F75"/>
<path d="M353.106 153.941L364.376 149.525L385.148 148.352L394.909 152.052L381.538 159.473L370.001 159.053L353.106 153.941Z" fill="#FFC3A3"/>
<path d="M339.802 259.906C340.824 260.078 408.882 262.968 408.882 262.968L406.494 201.859L406.294 189.86L402.426 153.512C402.426 153.512 392.254 150.021 387.059 148.352C387.059 148.352 381.596 154.036 371.205 153.884C361.052 153.731 358.932 151.451 358.932 151.451L344.74 156.888C344.74 156.888 334.645 160.503 332.906 164.967C331.216 169.306 328.122 194.105 328.122 194.105H342.839L342.562 237.912L339.802 259.916V259.906Z" fill="#012CFD"/>
<g opacity="0.2">
<path d="M382.599 178.348L384.709 193.752L394.909 198.301L402.464 191.882V177.576L382.599 178.348Z" fill="black"/>
</g>
<path d="M402.197 182.717C402.197 182.841 397.956 182.946 392.722 182.946C387.489 182.946 383.248 182.841 383.248 182.717C383.248 182.593 387.489 182.488 392.722 182.488C397.956 182.488 402.197 182.593 402.197 182.717Z" fill="#1E2E34"/>
<path d="M335.218 171.319C335.218 171.319 335.265 171.452 335.323 171.729C335.389 172.034 335.485 172.425 335.59 172.912C335.848 173.932 336.259 175.43 336.946 177.251C337.624 179.073 338.579 181.219 339.754 183.623C340.862 186.074 341.865 188.897 342.915 191.949V191.978L342.925 192.016C342.896 195.678 342.877 199.684 342.849 203.871C342.753 213.219 342.658 221.679 342.591 227.85C342.533 230.883 342.495 233.353 342.466 235.117C342.438 235.938 342.428 236.596 342.409 237.092C342.39 237.54 342.371 237.779 342.361 237.779C342.342 237.779 342.333 237.54 342.323 237.092C342.323 236.596 342.304 235.938 342.295 235.117C342.295 233.353 342.295 230.883 342.285 227.85C342.314 221.679 342.361 213.219 342.409 203.871C342.447 199.684 342.486 195.678 342.514 192.025V192.092C341.492 189.04 340.509 186.207 339.439 183.775C338.293 181.362 337.357 179.188 336.707 177.347C336.048 175.506 335.676 173.989 335.456 172.95C335.351 172.425 335.284 172.025 335.246 171.748C335.208 171.471 335.198 171.328 335.208 171.328L335.218 171.319Z" fill="#1E2E34"/>
<path d="M407.373 164.175C407.373 164.175 407.392 164.642 407.363 165.482C407.325 166.397 407.287 167.59 407.229 169.03C407.105 172.101 406.943 176.202 406.761 180.733C406.551 185.263 406.37 189.364 406.226 192.436C406.141 193.876 406.074 195.068 406.026 195.984C405.969 196.823 405.921 197.281 405.892 197.281C405.864 197.281 405.854 196.813 405.854 195.974C405.873 195.059 405.892 193.857 405.921 192.426C405.997 189.431 406.131 185.282 406.322 180.714C406.513 176.145 406.723 172.006 406.914 169.011C407.01 167.513 407.105 166.302 407.191 165.472C407.277 164.633 407.344 164.175 407.373 164.175Z" fill="#1E2E34"/>
<g opacity="0.3">
<path d="M335.256 173.541C334.922 180.246 337.453 186.741 341.941 191.749C340.557 185.444 337.099 179.579 335.256 173.541Z" fill="black"/>
</g>
<g opacity="0.3">
<path d="M365.149 234.04C368.33 233.773 371.195 231.884 373.315 229.5C375.435 227.115 377.346 224.406 378.797 221.564C380.774 217.701 381.748 213.495 382.016 209.089C378.052 219.704 372.236 228.098 365.149 234.03V234.04Z" fill="black"/>
</g>
<path d="M383.267 204.472C383.267 204.472 383.267 204.606 383.21 204.863C383.143 205.169 383.057 205.531 382.961 205.97C382.856 206.447 382.713 207.029 382.503 207.696C382.302 208.364 382.092 209.136 381.787 209.957C381.233 211.626 380.431 213.562 379.437 215.66C378.415 217.749 377.174 219.99 375.693 222.232C374.194 224.464 372.609 226.476 371.08 228.222C369.514 229.938 368.034 231.426 366.697 232.571C366.047 233.162 365.417 233.649 364.873 234.087C364.328 234.526 363.851 234.879 363.44 235.156C363.067 235.404 362.762 235.613 362.504 235.795C362.284 235.938 362.17 236.004 362.16 235.995C362.16 235.985 362.256 235.89 362.456 235.728C362.695 235.537 362.991 235.308 363.344 235.022C363.736 234.726 364.204 234.354 364.729 233.897C365.255 233.448 365.875 232.952 366.506 232.342C367.814 231.178 369.256 229.681 370.794 227.955C372.303 226.2 373.86 224.197 375.35 221.984C376.82 219.762 378.062 217.539 379.093 215.479C380.096 213.4 380.927 211.492 381.51 209.842C381.834 209.031 382.064 208.268 382.283 207.61C382.513 206.952 382.684 206.38 382.809 205.913C382.933 205.483 383.047 205.13 383.133 204.835C383.21 204.587 383.257 204.463 383.277 204.463L383.267 204.472Z" fill="#1E2E34"/>
<path d="M381.309 185.349C381.309 185.349 381.299 185.568 381.232 185.969C381.156 186.417 381.051 187.009 380.917 187.743C380.783 188.516 380.602 189.46 380.325 190.538C380.058 191.615 379.8 192.855 379.37 194.191C379.169 194.868 378.959 195.564 378.749 196.298C378.529 197.033 378.243 197.777 377.976 198.549C377.46 200.114 376.782 201.735 376.085 203.461C374.614 206.857 372.79 210.51 370.564 214.172C368.31 217.816 365.884 221.097 363.525 223.958C362.313 225.36 361.176 226.705 360.011 227.878C359.438 228.47 358.903 229.061 358.349 229.586C357.795 230.11 357.26 230.616 356.754 231.102C355.751 232.084 354.767 232.886 353.927 233.61C353.096 234.345 352.332 234.936 351.711 235.404C351.11 235.852 350.632 236.214 350.269 236.491C349.935 236.739 349.763 236.853 349.753 236.844C349.753 236.834 349.906 236.682 350.221 236.415C350.575 236.128 351.033 235.747 351.606 235.27C352.217 234.784 352.953 234.173 353.774 233.42C354.596 232.676 355.57 231.865 356.553 230.873C357.05 230.387 357.575 229.872 358.12 229.347C358.664 228.813 359.189 228.222 359.753 227.621C360.899 226.448 362.016 225.093 363.22 223.701C365.55 220.839 367.957 217.568 370.192 213.943C372.398 210.3 374.222 206.676 375.712 203.309C376.409 201.601 377.106 199.99 377.632 198.435C377.899 197.662 378.195 196.928 378.424 196.193C378.654 195.469 378.864 194.772 379.074 194.105C379.513 192.779 379.79 191.549 380.086 190.48C380.382 189.412 380.592 188.477 380.745 187.714C380.908 186.989 381.041 186.398 381.137 185.959C381.232 185.559 381.29 185.349 381.299 185.349H381.309Z" fill="#1E2E34"/>
<path d="M327.529 166.33C331.722 172.702 348.713 198.492 353.736 206.122C354.29 206.962 353.603 208.059 352.6 207.935L322.429 204.148C322.105 204.11 321.818 203.938 321.627 203.671L292.803 164.356C292.211 163.545 292.841 162.41 293.844 162.487L324.893 164.776C325.973 164.852 326.947 165.424 327.539 166.33H327.529Z" fill="#E1E1E1"/>
<path d="M327.53 166.33C327.53 166.33 327.472 166.197 327.291 165.968C327.109 165.749 326.813 165.424 326.317 165.148C325.83 164.852 325.113 164.69 324.311 164.661C323.49 164.595 322.554 164.518 321.503 164.432C317.253 164.099 311.141 163.622 303.605 163.03C301.714 162.887 299.737 162.735 297.674 162.573C296.643 162.496 295.592 162.41 294.523 162.334C294.246 162.315 294.007 162.286 293.692 162.286C293.376 162.286 293.061 162.43 292.823 162.649C292.335 163.069 292.211 163.87 292.593 164.423C295.22 168.019 298.028 171.872 300.979 175.916C306.9 183.995 313.395 192.874 320.223 202.202C320.663 202.794 321.054 203.347 321.522 203.957C321.675 204.119 321.856 204.243 322.057 204.32C322.267 204.406 322.477 204.415 322.64 204.434L323.7 204.568C325.113 204.749 326.527 204.921 327.921 205.092C330.719 205.445 333.47 205.789 336.173 206.122C341.588 206.8 346.803 207.448 351.779 208.068C352.103 208.106 352.371 208.154 352.734 208.173C353.106 208.173 353.479 208.02 353.736 207.753C353.994 207.496 354.147 207.133 354.147 206.761C354.157 206.399 353.947 206.017 353.784 205.798C353.116 204.778 352.447 203.776 351.798 202.784C350.489 200.81 349.219 198.883 347.997 197.023C345.542 193.313 343.25 189.851 341.158 186.694C336.975 180.399 333.585 175.306 331.226 171.758C330.051 170.012 329.144 168.658 328.504 167.713C328.198 167.265 327.959 166.922 327.787 166.664C327.625 166.426 327.539 166.311 327.53 166.321C327.53 166.321 327.596 166.454 327.749 166.693C327.912 166.95 328.141 167.313 328.427 167.761C329.048 168.715 329.936 170.098 331.073 171.862C333.403 175.43 336.746 180.561 340.872 186.885C342.944 190.051 345.217 193.523 347.662 197.243C348.885 199.103 350.145 201.029 351.444 203.013C352.094 204.005 352.753 205.006 353.421 206.027C353.612 206.294 353.698 206.475 353.708 206.742C353.708 206.99 353.603 207.238 353.421 207.41C353.249 207.591 353.001 207.687 352.753 207.687C352.495 207.677 352.151 207.62 351.845 207.582C346.87 206.952 341.655 206.294 336.24 205.607C333.537 205.264 330.777 204.921 327.988 204.568C326.594 204.396 325.18 204.215 323.767 204.034L322.706 203.9C322.515 203.871 322.363 203.862 322.238 203.814C322.105 203.767 321.99 203.681 321.895 203.576C321.474 203.004 321.054 202.431 320.634 201.859C313.796 192.55 307.282 183.67 301.361 175.601C298.4 171.576 295.583 167.742 292.947 164.156C292.679 163.774 292.765 163.221 293.109 162.916C293.271 162.763 293.491 162.668 293.72 162.658C293.94 162.658 294.246 162.687 294.503 162.706C295.573 162.782 296.624 162.859 297.655 162.935C299.718 163.078 301.695 163.221 303.586 163.355C311.131 163.879 317.243 164.299 321.494 164.595C322.544 164.661 323.49 164.728 324.301 164.776C325.123 164.795 325.791 164.928 326.278 165.205C327.253 165.749 327.51 166.34 327.539 166.302L327.53 166.33Z" fill="#1E2E34"/>
<path d="M292.794 164.356C292.794 164.356 293.014 164.404 293.424 164.452C293.883 164.499 294.494 164.556 295.258 164.633C296.901 164.776 299.212 164.986 302.077 165.234C307.922 165.711 316.031 166.369 325.266 167.122L325.085 167.017C326.536 169.173 328.036 171.405 329.535 173.713C335.657 183.108 340.996 191.739 345.036 197.882C347.042 200.962 348.713 203.423 349.869 205.121C350.442 205.932 350.89 206.58 351.234 207.057C351.549 207.496 351.721 207.725 351.74 207.715C351.75 207.706 351.607 207.458 351.32 207C351.005 206.504 350.575 205.846 350.04 205.016C348.904 203.242 347.309 200.753 345.342 197.691C341.378 191.501 336.087 182.84 329.965 173.436C328.466 171.128 326.957 168.887 325.495 166.731L325.428 166.636H325.314C316.069 165.939 307.96 165.339 302.115 164.909C299.25 164.719 296.929 164.566 295.287 164.452C294.523 164.413 293.911 164.375 293.453 164.347C293.033 164.328 292.813 164.328 292.813 164.347L292.794 164.356Z" fill="#1E2E34"/>
<path d="M310.759 170.432C310.835 170.069 311.169 169.926 311.503 169.983C311.857 170.088 312.048 170.174 312.315 170.441C312.583 170.708 312.707 171.176 312.459 171.471C312.153 171.843 311.542 171.71 311.179 171.395C310.902 171.157 310.682 170.794 310.759 170.432Z" fill="white"/>
<path d="M324.846 192.731C324.846 192.731 326.04 189.899 323.012 189.527C319.994 189.164 312.058 189.527 312.058 189.527C312.058 189.527 307.722 189.984 308.638 193.094C308.638 193.094 306.079 195.383 307.445 197.853C308.82 200.323 309.364 199.589 309.364 199.589C309.364 199.589 309.001 202.603 311.284 203.061C311.284 203.061 313.767 205.989 316.05 205.808C318.332 205.626 328.045 200.962 328.685 200.047C329.325 199.131 330.242 198.616 329.688 197.596C329.688 197.596 330.882 194.915 328.313 194.515C328.313 194.515 328.131 192.283 324.836 192.741L324.846 192.731Z" fill="#FFC3A3"/>
<path d="M311.083 193.752C311.083 193.819 311.867 193.876 313.127 193.895C314.388 193.923 316.126 193.923 318.046 193.895C319.966 193.828 321.713 193.904 322.993 193.599C324.292 193.294 324.808 192.531 324.75 192.521C324.693 192.455 324.149 193.065 322.926 193.256C321.723 193.456 319.966 193.332 318.046 193.399C316.126 193.428 314.388 193.485 313.127 193.552C311.867 193.618 311.093 193.695 311.093 193.761L311.083 193.752Z" fill="#F59F75"/>
<path d="M313.242 198.33C313.242 198.33 313.461 198.464 313.901 198.559C314.34 198.654 314.989 198.731 315.792 198.673C316.594 198.626 317.53 198.454 318.542 198.177C319.555 197.901 320.634 197.51 321.77 197.157C322.907 196.804 324.005 196.556 325.018 196.489C326.011 196.441 327.081 196.47 327.787 195.926C328.141 195.678 328.379 195.335 328.446 194.982C328.513 194.639 328.446 194.334 328.332 194.124C328.093 193.685 327.768 193.666 327.778 193.685C327.749 193.723 328.017 193.819 328.15 194.2C328.303 194.572 328.227 195.249 327.587 195.621C326.966 196.041 326.059 195.993 324.989 196.012C323.919 196.06 322.773 196.308 321.618 196.661C320.491 197.033 319.411 197.386 318.409 197.71C317.425 198.015 316.518 198.206 315.753 198.301C314.216 198.492 313.261 198.225 313.242 198.311V198.33Z" fill="#F59F75"/>
<path d="M316.489 202.193C316.508 202.26 317.291 202.116 318.523 201.802C319.765 201.487 321.465 201.001 323.318 200.4C325.171 199.789 326.832 199.179 328.017 198.702C329.201 198.225 329.917 197.882 329.898 197.815C329.85 197.681 326.861 198.721 323.165 199.923C319.469 201.134 316.451 202.059 316.489 202.202V202.193Z" fill="#F59F75"/>
<path d="M315.715 205.779C315.715 205.836 316.374 205.817 317.406 205.588C318.437 205.369 319.822 204.892 321.274 204.224C322.726 203.566 323.996 202.889 324.922 202.403C325.839 201.916 326.402 201.592 326.374 201.525C326.307 201.373 323.938 202.422 321.073 203.767C318.218 205.13 315.706 205.646 315.725 205.779H315.715Z" fill="#F59F75"/>
<path d="M412.196 178.51C412.196 178.51 406.026 203.194 398.319 212.303C390.85 221.125 379.151 217.072 375.101 205.655C371.052 194.238 363.832 168.162 363.832 168.162L372.695 161.39L388.014 191.034L394.919 170.823L412.196 178.501V178.51Z" fill="#FFC3A3"/>
<path d="M364.242 168.849L357.738 159.435C357.738 159.435 355.58 158.929 354.968 158.576C354.233 158.147 353.507 154.408 353.526 153.674C353.545 152.949 352.266 151.242 352.781 150.755C353.297 150.278 355.045 150.24 354.949 149.534C354.93 149.382 353.66 147.827 354.663 146.683C355.026 146.272 356.496 145.91 356.496 145.91L356.391 142.324C356.391 142.324 358.33 138.079 360.317 139.615C360.317 139.615 367.795 145.357 368.549 146.272C369.304 147.188 372.179 159.139 372.694 161.39" fill="#FFC3A3"/>
<path d="M372.694 161.399C372.694 161.399 372.675 161.18 372.599 160.77C372.503 160.312 372.37 159.721 372.217 158.977C371.863 157.422 371.348 155.162 370.631 152.386C370.268 151.003 369.877 149.477 369.38 147.856C369.247 147.455 369.122 147.045 368.95 146.625C368.788 146.148 368.387 145.834 368.072 145.538C367.394 144.937 366.677 144.355 365.932 143.754C364.452 142.553 362.876 141.322 361.243 140.054C360.823 139.758 360.47 139.367 359.877 139.148C359.276 138.947 358.626 139.205 358.187 139.548C357.289 140.264 356.697 141.227 356.191 142.238L356.172 142.286V142.343C356.181 142.686 356.191 143.068 356.21 143.44C356.239 144.279 356.258 145.109 356.286 145.929L356.458 145.7C356.009 145.815 355.57 145.958 355.14 146.139C354.93 146.244 354.71 146.339 354.5 146.559C354.348 146.759 354.204 146.969 354.137 147.226C353.985 147.722 354.09 148.228 354.252 148.657C354.328 148.876 354.434 149.077 354.548 149.277L354.71 149.563L354.749 149.62C354.749 149.62 354.749 149.582 354.749 149.611C354.749 149.63 354.749 149.658 354.739 149.668C354.72 149.754 354.548 149.859 354.367 149.925C354.185 150.002 353.985 150.059 353.784 150.126C353.584 150.183 353.373 150.25 353.173 150.326C352.963 150.421 352.753 150.469 352.552 150.765C352.399 151.07 352.485 151.318 352.533 151.528C352.59 151.747 352.667 151.938 352.753 152.129C352.915 152.51 353.096 152.873 353.23 153.226C353.297 153.407 353.345 153.569 353.345 153.731C353.345 153.95 353.373 154.141 353.402 154.341C353.459 154.732 353.536 155.114 353.612 155.496C353.775 156.249 353.956 156.974 354.223 157.661C354.367 158.004 354.481 158.347 354.796 158.662C355.159 158.929 355.475 158.986 355.809 159.11C356.468 159.32 357.108 159.473 357.738 159.625L357.633 159.559C359.639 162.41 361.281 164.738 362.446 166.388C363 167.16 363.449 167.78 363.784 168.238C364.089 168.658 364.261 168.877 364.28 168.868C364.29 168.858 364.156 168.62 363.87 168.181C363.554 167.704 363.134 167.074 362.609 166.273C361.472 164.595 359.877 162.239 357.92 159.349L357.881 159.292L357.814 159.273C357.203 159.12 356.563 158.958 355.923 158.748C355.627 158.643 355.245 158.529 355.045 158.366C354.854 158.185 354.71 157.832 354.586 157.518C354.338 156.859 354.166 156.135 354.013 155.4C353.937 155.028 353.87 154.656 353.822 154.275C353.803 154.084 353.775 153.893 353.775 153.721C353.775 153.493 353.708 153.264 353.641 153.073C353.498 152.682 353.316 152.319 353.163 151.957C353.087 151.776 353.02 151.595 352.963 151.413C352.915 151.242 352.896 151.041 352.944 150.975C352.972 150.908 353.173 150.793 353.345 150.736C353.526 150.669 353.727 150.612 353.927 150.545C354.128 150.479 354.338 150.421 354.548 150.336C354.749 150.24 355.007 150.154 355.159 149.83C355.198 149.754 355.207 149.668 355.207 149.582C355.207 149.553 355.198 149.477 355.169 149.41L355.121 149.325L354.959 149.048C354.854 148.867 354.768 148.685 354.691 148.495C354.548 148.123 354.481 147.713 354.596 147.35C354.634 147.169 354.749 147.007 354.863 146.854C354.959 146.749 355.159 146.644 355.341 146.559C355.732 146.387 356.162 146.253 356.582 146.148L356.764 146.101V145.92C356.735 145.099 356.707 144.269 356.687 143.43C356.678 143.058 356.668 142.677 356.659 142.333L356.64 142.438C357.108 141.494 357.7 140.54 358.493 139.92C358.884 139.615 359.352 139.453 359.772 139.586C360.173 139.72 360.584 140.111 360.995 140.407C362.638 141.675 364.213 142.896 365.694 144.079C366.439 144.67 367.155 145.252 367.833 145.834C368.177 146.139 368.502 146.396 368.626 146.768C368.788 147.159 368.922 147.56 369.056 147.961C369.562 149.563 369.982 151.079 370.354 152.453C371.071 155.181 371.653 157.413 372.074 158.996C372.265 159.73 372.427 160.322 372.542 160.77C372.647 161.171 372.713 161.39 372.733 161.38L372.694 161.399Z" fill="#F59F75"/>
<path d="M356.497 145.92C356.497 145.996 357.261 145.939 358.435 146.053C359.027 146.101 359.677 146.32 360.479 146.52C361.31 146.702 362.217 146.606 363.125 146.539C364.939 146.291 366.477 147.064 367.289 147.894C368.129 148.724 368.206 149.525 368.292 149.496C368.33 149.515 368.368 148.647 367.528 147.674C367.117 147.207 366.506 146.74 365.742 146.415C364.978 146.072 364.013 146.005 363.096 146.082C362.17 146.148 361.31 146.244 360.565 146.101C359.82 145.939 359.075 145.729 358.464 145.729C357.232 145.7 356.497 145.872 356.497 145.92Z" fill="#F59F75"/>
<path d="M359.142 145.719C359.257 145.776 359.553 145.338 359.515 144.718C359.476 144.098 359.123 143.697 359.027 143.764C358.913 143.831 359.027 144.241 359.056 144.737C359.094 145.233 359.018 145.662 359.142 145.71V145.719Z" fill="#F59F75"/>
<path d="M354.711 149.687C354.711 149.801 357.27 149.916 360.346 149.248C361.119 149.086 361.816 148.867 362.418 148.991C363.02 149.096 363.469 149.496 363.755 149.878C364.319 150.669 364.414 151.337 364.491 151.308C364.529 151.308 364.567 150.631 364.023 149.696C363.736 149.248 363.239 148.752 362.494 148.581C361.75 148.418 360.976 148.657 360.241 148.809C357.223 149.468 354.701 149.563 354.701 149.696L354.711 149.687Z" fill="#F59F75"/>
<path d="M353.717 153.082C353.717 153.14 354.252 153.197 355.102 153.082C355.952 152.987 357.098 152.691 358.34 152.453C358.97 152.338 359.562 152.243 360.088 152.281C360.613 152.31 361.052 152.482 361.339 152.739C361.95 153.254 361.883 153.845 361.95 153.836C361.979 153.836 362.036 153.712 362.026 153.454C362.007 153.206 361.883 152.834 361.558 152.501C361.243 152.167 360.708 151.919 360.116 151.862C359.524 151.795 358.894 151.89 358.254 152.005C356.974 152.253 355.866 152.596 355.045 152.768C354.233 152.949 353.717 153.016 353.717 153.082Z" fill="#F59F75"/>
<path d="M355.943 155.772C355.866 155.829 356.497 156.497 357.662 156.487L357.433 156.287C357.452 156.487 357.48 156.688 357.499 156.888C357.671 158.214 357.91 159.282 358.034 159.263C358.158 159.244 358.13 158.157 357.958 156.84C357.929 156.64 357.901 156.449 357.872 156.239L357.843 156.03H357.643C356.669 156.106 356 155.667 355.933 155.772H355.943Z" fill="#F59F75"/>
<path d="M402.425 153.512C402.425 153.512 415.061 156.573 415.032 173.303C415.004 189.975 411.212 198.301 411.212 198.301L387.918 185.645L393.113 172.616L402.416 153.512H402.425Z" fill="#012CFD"/>
<path d="M411.222 198.301C411.222 198.301 411.05 198.244 410.735 198.092C410.381 197.91 409.932 197.681 409.388 197.405C408.165 196.766 406.485 195.879 404.422 194.791C400.181 192.512 394.365 189.383 387.813 185.854L387.622 185.75L387.698 185.549C388.1 184.51 388.52 183.403 388.95 182.287C390.44 178.424 391.853 174.752 393.152 171.395C393.801 169.726 394.422 168.133 394.995 166.645C395.549 165.148 396.17 163.774 396.838 162.582C398.147 160.188 399.704 158.49 401.041 157.727C401.7 157.327 402.282 157.146 402.674 157.069C402.874 157.031 403.027 157.012 403.132 157.012C403.237 157.012 403.285 157.012 403.285 157.012C403.304 157.069 402.406 157.06 401.136 157.88C399.866 158.681 398.395 160.36 397.135 162.744C396.495 163.927 395.912 165.281 395.368 166.779C394.804 168.276 394.202 169.869 393.563 171.538C392.283 174.896 390.879 178.577 389.399 182.44C388.969 183.556 388.548 184.662 388.147 185.702L388.033 185.406C394.556 188.983 400.344 192.169 404.565 194.486C406.599 195.631 408.251 196.556 409.455 197.233C409.99 197.548 410.419 197.796 410.763 197.996C411.059 198.177 411.212 198.273 411.203 198.292L411.222 198.301Z" fill="#1E2E34"/>
</g>
<defs>
<clipPath id="clip0_96_905">
<rect width="434" height="440" fill="white"/>
</clipPath>
</defs>
</svg>
