<svg width="430" height="420" viewBox="0 0 434 409" fill="none" xmlns="http://www.w3.org/2000/svg">
<g clip-path="url(#clip0_96_594)">
<path d="M41.8265 336.46H26.0811V372.744H41.8265V336.46Z" fill="#ECECEC"/>
<path d="M95.2406 336.46H79.4951V372.744H95.2406V336.46Z" fill="#ECECEC"/>
<path d="M68.5379 303.439H52.7925V372.753H68.5379V303.439Z" fill="#F5F5F5"/>
<path d="M121.952 303.439H106.207V372.753H121.952V303.439Z" fill="#F5F5F5"/>
<path d="M148.663 305.422H132.918V372.753H148.663V305.422Z" fill="#ECECEC"/>
<path d="M202.077 305.422H186.332V372.753H202.077V305.422Z" fill="#ECECEC"/>
<path d="M255.5 305.422H239.755V372.753H255.5V305.422Z" fill="#ECECEC"/>
<path d="M175.375 270.089H159.629V372.753H175.375V270.089Z" fill="#F5F5F5"/>
<path d="M228.788 280.134H213.043V372.753H228.788V280.134Z" fill="#F5F5F5"/>
<path d="M334.401 305.422H318.655V372.753H334.401V305.422Z" fill="#ECECEC"/>
<path d="M307.689 318.337H291.944V372.744H307.689V318.337Z" fill="#F5F5F5"/>
<path d="M390.264 269.486H374.519V372.753H390.264V269.486Z" fill="#ECECEC"/>
<path d="M363.561 318.337H347.816V372.744H363.561V318.337Z" fill="#F5F5F5"/>
<path d="M417.003 318.337H401.257V372.744H417.003V318.337Z" fill="#F5F5F5"/>
<path d="M282.212 294.318H266.466V372.744H282.212V294.318Z" fill="#ECECEC"/>
<path d="M170.248 270.089C170.248 272.328 168.439 274.137 166.2 274.137C163.961 274.137 162.151 272.328 162.151 270.089C162.151 267.85 163.961 266.041 166.2 266.041C168.439 266.041 170.248 267.85 170.248 270.089Z" fill="#E1E1E1"/>
<path d="M166.2 277.437C162.142 277.437 158.843 274.138 158.843 270.08C158.843 266.022 162.142 262.723 166.2 262.723C170.257 262.723 173.556 266.022 173.556 270.08C173.556 274.138 170.257 277.437 166.2 277.437ZM166.2 263.326C162.471 263.326 159.437 266.36 159.437 270.089C159.437 273.818 162.471 276.853 166.2 276.853C169.928 276.853 172.962 273.818 172.962 270.089C172.962 266.36 169.928 263.326 166.2 263.326Z" fill="#E1E1E1"/>
<path d="M169.435 259.762L169.225 251.792L171.217 251.82L167.498 247.277L163.778 251.865L165.844 251.874L166.045 259.743L169.435 259.762Z" fill="#ECECEC"/>
<path d="M38.4362 319.881C38.4362 322.12 36.6268 323.929 34.3879 323.929C32.149 323.929 30.3396 322.12 30.3396 319.881C30.3396 317.642 32.149 315.832 34.3879 315.832C36.6268 315.832 38.4362 317.642 38.4362 319.881Z" fill="#E1E1E1"/>
<path d="M34.3879 327.394C30.3305 327.394 27.0315 324.094 27.0315 320.036C27.0315 315.979 30.3305 312.679 34.3879 312.679C38.4453 312.679 41.7443 315.979 41.7443 320.036C41.7443 324.094 38.4453 327.394 34.3879 327.394ZM34.3879 313.273C30.6594 313.273 27.6255 316.308 27.6255 320.036C27.6255 323.765 30.6594 326.8 34.3879 326.8C38.1164 326.8 41.1503 323.765 41.1503 320.036C41.1503 316.308 38.1164 313.273 34.3879 313.273Z" fill="#E1E1E1"/>
<path d="M31.9388 294.775L32.1582 303.065L30.0837 303.028L33.9493 307.753L37.8148 302.982L35.6764 302.973L35.4571 294.793L31.9388 294.775Z" fill="#ECECEC"/>
<path d="M246.197 277.437L246.417 285.727L244.342 285.7L248.208 290.415L252.073 285.654L249.935 285.636L249.716 277.465L246.197 277.437Z" fill="#ECECEC"/>
<path d="M294.96 350.873L247.54 306.391C217.503 291.887 171.116 270.501 165.706 270.802C159.648 271.159 44.6593 316.509 0.859008 333.956L0 331.79C6.44256 329.222 157.893 268.929 165.569 268.472C165.624 268.472 165.679 268.472 165.734 268.472C174.15 268.472 241.061 300.67 248.71 304.371L249.003 304.572L295.343 348.04C304.134 343.397 354.523 316.81 355.383 316.426C355.684 316.298 356.479 315.969 425.775 315.979V318.309C399.192 318.291 359.239 318.364 356.205 318.62C353.573 319.954 315.758 339.896 295.7 350.489L294.969 350.873H294.96Z" fill="#E1E1E1"/>
<path d="M252.256 304.426C252.256 306.665 250.446 308.474 248.207 308.474C245.969 308.474 244.159 306.665 244.159 304.426C244.159 302.187 245.969 300.378 248.207 300.378C250.446 300.378 252.256 302.187 252.256 304.426Z" fill="#E1E1E1"/>
<path d="M248.207 311.93C244.15 311.93 240.851 308.63 240.851 304.573C240.851 300.515 244.15 297.215 248.207 297.215C252.265 297.215 255.564 300.515 255.564 304.573C255.564 308.63 252.265 311.93 248.207 311.93ZM248.207 297.818C244.479 297.818 241.445 300.853 241.445 304.582C241.445 308.311 244.479 311.345 248.207 311.345C251.936 311.345 254.97 308.311 254.97 304.582C254.97 300.853 251.936 297.818 248.207 297.818Z" fill="#E1E1E1"/>
<path d="M359.897 316.499C359.897 318.738 358.087 320.547 355.849 320.547C353.61 320.547 351.8 318.738 351.8 316.499C351.8 314.26 353.61 312.451 355.849 312.451C358.087 312.451 359.897 314.26 359.897 316.499Z" fill="#E1E1E1"/>
<path d="M355.849 324.003C351.791 324.003 348.492 320.704 348.492 316.646C348.492 312.588 351.791 309.288 355.849 309.288C359.906 309.288 363.205 312.588 363.205 316.646C363.205 320.704 359.906 324.003 355.849 324.003ZM355.849 309.892C352.12 309.892 349.086 312.926 349.086 316.655C349.086 320.384 352.12 323.418 355.849 323.418C359.577 323.418 362.611 320.384 362.611 316.655C362.611 312.926 359.577 309.892 355.849 309.892Z" fill="#E1E1E1"/>
<path d="M353.673 292.435L353.884 300.725L351.818 300.697L355.684 305.422L359.549 300.652L357.402 300.643L357.192 292.463L353.673 292.435Z" fill="#ECECEC"/>
<path d="M360.865 216.066C360.555 196.434 376.19 180.212 395.728 179.901C415.266 179.59 431.414 195.301 431.724 214.924C432.035 234.555 416.399 250.778 396.861 251.088C377.324 251.399 361.176 235.688 360.865 216.066ZM413.237 215.225C413.091 205.839 405.369 198.326 396.03 198.482C386.69 198.628 379.215 206.387 379.361 215.774C379.508 225.16 387.23 232.672 396.569 232.517C405.908 232.362 413.384 224.611 413.237 215.225Z" fill="#F5F5F5"/>
<path d="M360.866 216.066C360.555 196.434 376.191 180.212 395.719 179.901L396.021 198.473C386.681 198.628 379.206 206.378 379.353 215.764C379.499 225.151 387.221 232.663 396.56 232.508L396.853 251.079C377.315 251.39 361.167 235.679 360.856 216.057L360.866 216.066Z" fill="#E1E1E1"/>
<path d="M392.548 177.05C415.403 176.684 433.635 194.424 434 217.382L412.369 217.729C412.196 206.753 403.843 199.834 392.914 200.017L392.548 177.05Z" fill="#ECECEC"/>
<path d="M101.765 8.29865H85.8096V58.1453H101.765V8.29865Z" fill="#ECECEC"/>
<path d="M125.589 19.6773H109.633V58.1361H125.589V19.6773Z" fill="#ECECEC"/>
<path d="M147.649 35.3058H131.693V58.1453H147.649V35.3058Z" fill="#ECECEC"/>
<path d="M284.798 38.4954V10.5469C300.123 10.5469 312.743 23.1594 312.743 38.4954C312.743 53.8314 300.132 66.4439 284.798 66.4439C269.464 66.4439 257.209 54.2244 256.862 39.1443L284.798 38.4954Z" fill="#ECECEC"/>
<path d="M279.607 27.9393L251.662 28.57C251.662 21.2949 254.504 13.6635 259.576 8.44486C264.648 3.22623 271.894 0.201068 279.169 0L279.598 27.9393H279.607Z" fill="#F5F5F5"/>
<path d="M33.8212 193.72L53.3773 178.21C61.8851 188.94 60.0483 204.77 49.3199 213.278C38.5914 221.787 22.7637 219.95 14.2559 209.221C5.74807 198.491 7.58489 182.661 18.3133 174.152C20.0222 172.8 21.8956 171.676 23.8969 170.807L33.812 193.711L33.8212 193.72Z" fill="#F5F5F5"/>
<path d="M28.5117 168.267L35.3929 186.363L49.9504 173.997C49.9504 173.997 42.2376 166.055 28.5117 168.267Z" fill="#E1E1E1"/>
<path d="M408.01 395.583C408.01 395.711 322.055 395.821 216.04 395.821C110.026 395.821 24.0522 395.711 24.0522 395.583C24.0522 395.455 109.99 395.346 216.04 395.346C322.091 395.346 408.01 395.455 408.01 395.583Z" fill="#1E2E34"/>
<path d="M49.6488 69.2497C45.8289 60.5032 35.6488 56.5093 26.9033 60.3296C18.1579 64.1499 14.1644 74.3312 17.9843 83.0777C20.7441 89.4113 26.8485 93.2499 33.3185 93.4327C34.1409 95.3063 35.0639 97.4266 35.0639 97.4266L48.936 91.3672C48.936 91.3672 48.0404 89.0915 47.1997 87.0716C51.1475 82.2186 52.3172 75.3823 49.6396 69.2497H49.6488Z" fill="#012CFD"/>
<path d="M43.9006 93.4967C43.9006 93.4967 43.8732 93.4327 43.8275 93.2956C43.7818 93.1494 43.7179 92.9574 43.6448 92.6924C43.4894 92.1623 43.2518 91.3855 42.9777 90.371C42.7035 89.3565 42.3837 88.1135 42.1004 86.6512C41.8262 85.1889 41.5886 83.4981 41.616 81.6154C41.6252 80.674 41.6891 79.6961 41.8811 78.6816C41.9907 78.1789 42.1735 77.658 42.539 77.2376C42.9045 76.8172 43.4803 76.5613 44.0651 76.6344C44.3576 76.6709 44.65 76.808 44.8419 77.0457C45.0429 77.2741 45.1435 77.5849 45.1343 77.8865C45.1069 78.4988 44.7962 79.0472 44.3758 79.4767C43.4894 80.2993 42.2466 80.7289 40.9855 80.6832C39.7244 80.6375 38.4633 80.0251 37.5951 79.0198C37.1748 78.5171 36.8001 77.923 36.7087 77.2376C36.5899 76.5613 36.9463 75.7478 37.6683 75.5102C38.0247 75.3823 38.4359 75.4828 38.7192 75.7204C39.0116 75.9489 39.2035 76.2779 39.2766 76.6435C39.4137 77.3747 39.1487 78.0693 38.8471 78.6999C38.2074 79.9611 37.0468 81.0122 35.6213 81.3778C34.2048 81.7433 32.633 81.3869 31.5638 80.4364C31.0247 79.9703 30.6408 79.294 30.6226 78.5628C30.6226 78.2064 30.7322 77.8134 31.0155 77.5575C31.2805 77.2924 31.6735 77.1919 32.0299 77.2193C32.3863 77.2467 32.7335 77.3929 32.9985 77.6214C33.2727 77.8408 33.4737 78.1332 33.6382 78.4257C33.9581 79.0289 34.1317 79.6778 34.1865 80.3359C34.3053 81.6519 33.9032 82.9772 33.1173 83.9642C32.3314 84.9513 31.2074 85.6185 30.0377 85.8469C29.462 85.9566 28.8314 85.984 28.2831 85.7099C27.7531 85.4448 27.3602 84.8233 27.5338 84.2201C27.616 83.9277 27.8445 83.6992 28.0912 83.5621C28.3471 83.425 28.6304 83.3702 28.9137 83.3793C29.4894 83.4067 29.9646 83.7175 30.3576 84.0465C31.1343 84.7319 31.8106 85.4265 32.4868 86.0846C35.1461 88.7259 37.1931 90.9559 38.5912 92.5188C39.2858 93.2956 39.8249 93.9171 40.1813 94.3284C40.3549 94.5294 40.492 94.694 40.5834 94.8036C40.6748 94.9133 40.7113 94.9681 40.7113 94.9681C40.7113 94.9681 40.6565 94.9224 40.5651 94.8128C40.4646 94.7031 40.3275 94.5477 40.1448 94.3467C39.7701 93.9354 39.2218 93.3322 38.5273 92.5645C37.1108 91.0199 35.0547 88.799 32.3771 86.1851C31.71 85.5362 31.0064 84.8325 30.2479 84.1653C29.8641 83.8454 29.4072 83.5621 28.9045 83.5438C28.4111 83.5255 27.8445 83.7723 27.6983 84.2658C27.5612 84.7594 27.8902 85.3077 28.3654 85.5453C28.8497 85.7921 29.4437 85.7738 30.0012 85.655C31.1252 85.4357 32.2126 84.7959 32.962 83.8363C33.7205 82.8858 34.0951 81.6154 33.9855 80.345C33.9307 79.7144 33.757 79.0838 33.4555 78.508C33.163 77.9505 32.6513 77.4478 32.0116 77.4112C31.7009 77.3838 31.381 77.4752 31.1617 77.6946C30.9333 77.9048 30.8327 78.2246 30.8419 78.5445C30.8602 79.1934 31.2074 79.824 31.7192 80.2627C32.7335 81.1675 34.2322 81.5148 35.5847 81.1584C36.9463 80.8111 38.0612 79.7966 38.6735 78.5902C38.9659 77.987 39.2035 77.3107 39.0847 76.6709C39.0207 76.3602 38.8562 76.0677 38.6095 75.8758C38.3719 75.6839 38.0429 75.6016 37.7505 75.7021C37.4581 75.7935 37.2205 76.022 37.0743 76.2962C36.928 76.5704 36.8915 76.8903 36.928 77.201C37.0194 77.8316 37.3667 78.3983 37.7688 78.8827C38.5912 79.8423 39.8066 80.4364 41.0129 80.4821C42.2192 80.5369 43.4254 80.1165 44.2662 79.3397C44.6591 78.9467 44.9607 78.4166 44.979 77.8773C45.0155 77.3381 44.5951 76.8537 44.0743 76.808C43.5625 76.744 43.0233 76.9725 42.7035 77.3564C42.3654 77.7402 42.1826 78.2338 42.0821 78.7273C41.8902 79.7144 41.8171 80.7014 41.8079 81.6337C41.7805 83.4981 41.9999 85.1798 42.2649 86.6421C42.5299 88.1044 42.8406 89.3474 43.0965 90.3618C43.3706 91.3672 43.5808 92.144 43.727 92.6924C43.8001 92.9483 43.8549 93.1494 43.8915 93.2956C43.928 93.4327 43.9372 93.5058 43.9372 93.5058L43.9006 93.4967Z" fill="#1E2E34"/>
<path d="M48.9999 94.4013L37.0834 99.601C36.5899 99.8203 36.0142 99.5919 35.7949 99.0984C35.5756 98.6049 35.804 98.0292 36.2975 97.8099L48.214 92.6101C48.7074 92.3908 49.2832 92.6193 49.5025 93.1128C49.7218 93.6062 49.4933 94.1819 48.9999 94.4013Z" fill="#1E2E34"/>
<path d="M49.338 95.1875L37.4215 100.388C36.9281 100.607 36.6996 101.183 36.9189 101.676C37.1382 102.17 37.714 102.399 38.2074 102.179L39.5142 101.613L42.6944 104.153C43.0599 104.446 43.5534 104.51 43.9829 104.327L48.2414 102.472C48.6709 102.28 48.9633 101.868 48.9907 101.402L49.2375 97.3718L50.1239 96.9879C50.6174 96.7686 50.8458 96.1928 50.6265 95.6993C50.4072 95.2057 49.8315 94.9773 49.338 95.1966V95.1875Z" fill="#1E2E34"/>
<g opacity="0.2">
<path d="M19.2454 70.5201C19.8851 69.076 20.6984 67.897 21.4934 67.0288C22.2976 66.1606 23.0469 65.5756 23.6227 65.2557C24.1984 64.9359 24.5639 64.8445 24.6462 64.9541C24.8381 65.2101 23.8237 66.1606 22.6814 67.9519C21.53 69.7158 20.3237 72.4394 20.2415 75.5833C20.1775 78.7273 21.2558 81.5148 22.325 83.3245C23.3851 85.1615 24.3537 86.1577 24.1527 86.4045C24.0613 86.5141 23.7049 86.4045 23.1475 86.0572C22.59 85.7099 21.859 85.0884 21.1005 84.1836C20.342 83.2788 19.5835 82.0724 19.0169 80.5918C18.4503 79.1203 18.0939 77.3747 18.1305 75.5285" fill="white"/>
</g>
<g opacity="0.2">
<path d="M28.7494 63.9668C27.7442 64.3963 26.739 64.506 26.4008 64.0216C26.2455 63.7749 26.3003 63.4185 26.5745 63.0347C26.8395 62.66 27.3147 62.2762 27.9087 62.0112C28.5118 61.7553 29.1149 61.6731 29.5719 61.7371C30.0288 61.801 30.3395 62.0021 30.4035 62.2854" fill="white"/>
</g>
<path d="M48.8811 101.768C48.8811 101.768 48.5247 101.795 47.949 101.878C47.3824 101.951 46.6056 102.133 45.8197 102.508C45.0338 102.883 44.3941 103.367 43.9829 103.751C43.5625 104.144 43.3432 104.418 43.3067 104.4C43.2884 104.391 43.4712 104.071 43.8732 103.641C44.2753 103.212 44.915 102.7 45.7283 102.307C46.5417 101.923 47.355 101.759 47.9307 101.722C48.5155 101.686 48.8811 101.74 48.8719 101.768H48.8811Z" fill="#3F5963"/>
<path d="M49.2741 97.3901C49.3015 97.4449 47.1631 98.4319 44.5039 99.5833C41.8446 100.744 39.6788 101.639 39.6514 101.585C39.624 101.53 41.7624 100.543 44.4216 99.3914C47.0809 98.2308 49.2467 97.3353 49.2741 97.3901Z" fill="#3F5963"/>
<path d="M49.1463 99.1266C49.1463 99.1266 48.735 99.3916 48.0222 99.7571C47.3186 100.123 46.3316 100.598 45.2259 101.1C44.1202 101.603 43.1149 102.023 42.3747 102.316C41.6345 102.608 41.1685 102.773 41.1593 102.745C41.1502 102.718 41.5888 102.508 42.3108 102.179C43.0875 101.822 44.0653 101.393 45.1345 100.909C46.2037 100.424 47.1724 99.9765 47.9491 99.6201C48.6711 99.2911 49.1188 99.0992 49.1371 99.1266H49.1463Z" fill="#3F5963"/>
<path d="M253.362 201.37H183.352C180.673 201.37 178.5 203.542 178.5 206.223V249.087C178.5 251.767 180.673 253.94 183.352 253.94H253.362C256.042 253.94 258.214 251.767 258.214 249.087V206.223C258.214 203.542 256.042 201.37 253.362 201.37Z" fill="white"/>
<path d="M253.362 253.949C253.362 253.949 253.59 253.94 254.02 253.876C254.449 253.812 255.098 253.666 255.82 253.227C256.542 252.797 257.337 252.039 257.803 250.887C258.305 249.736 258.095 248.264 258.132 246.647C258.114 240.148 258.095 230.771 258.068 219.192C258.068 216.294 258.068 213.26 258.05 210.089C258.05 209.294 258.05 208.499 258.05 207.694C258.031 206.89 258.104 206.058 257.949 205.291C257.629 203.737 256.46 202.329 254.888 201.818C254.111 201.516 253.27 201.562 252.402 201.562C251.534 201.562 250.666 201.562 249.779 201.562C248.016 201.562 246.234 201.562 244.415 201.562C240.787 201.562 237.05 201.562 233.221 201.571C217.896 201.571 201.044 201.58 183.362 201.589C182.302 201.589 181.251 201.955 180.437 202.622C179.624 203.289 179.039 204.221 178.82 205.245C178.71 205.757 178.71 206.278 178.719 206.826V208.453C178.719 209.54 178.719 210.619 178.719 211.697C178.719 216.002 178.719 220.252 178.719 224.419C178.719 232.764 178.719 240.806 178.71 248.475C178.683 249.443 178.774 250.339 179.204 251.162C179.606 251.975 180.255 252.66 181.022 253.108C181.799 253.565 182.685 253.775 183.59 253.748C184.513 253.748 185.427 253.748 186.332 253.748C189.96 253.748 193.487 253.748 196.896 253.757C203.713 253.766 210.055 253.775 215.858 253.785C227.445 253.812 236.821 253.839 243.309 253.849C246.544 253.867 249.057 253.876 250.775 253.885C251.616 253.894 252.265 253.903 252.713 253.903C253.151 253.903 253.371 253.922 253.371 253.922C253.371 253.922 253.142 253.94 252.713 253.94C252.265 253.94 251.616 253.949 250.775 253.958C249.057 253.967 246.544 253.976 243.309 253.995C236.812 254.013 227.436 254.031 215.858 254.059C210.064 254.059 203.713 254.077 196.896 254.086C193.487 254.086 189.96 254.086 186.332 254.095C185.427 254.095 184.513 254.095 183.59 254.095C182.649 254.123 181.662 253.903 180.83 253.41C179.99 252.925 179.286 252.185 178.856 251.299C178.39 250.43 178.29 249.379 178.317 248.438C178.317 240.77 178.317 232.727 178.308 224.383C178.308 220.215 178.308 215.965 178.308 211.661C178.308 210.582 178.308 209.504 178.308 208.416V206.789C178.308 206.259 178.308 205.674 178.418 205.117C178.655 204.002 179.295 202.978 180.181 202.247C181.068 201.516 182.219 201.123 183.371 201.114C201.054 201.114 217.905 201.123 233.23 201.132C237.059 201.132 240.796 201.132 244.424 201.141C246.243 201.141 248.025 201.141 249.789 201.141C250.666 201.141 251.543 201.141 252.411 201.141C253.261 201.141 254.184 201.096 255.016 201.425C256.706 201.982 257.958 203.499 258.296 205.163C258.452 206.013 258.379 206.835 258.397 207.63C258.397 208.435 258.397 209.239 258.397 210.025C258.397 213.187 258.388 216.221 258.379 219.128C258.351 230.717 258.324 240.094 258.315 246.583C258.315 247.396 258.315 248.155 258.305 248.877C258.305 249.599 258.178 250.284 257.94 250.869C257.456 252.039 256.624 252.807 255.884 253.236C255.144 253.675 254.477 253.812 254.047 253.858C253.608 253.903 253.389 253.885 253.389 253.885L253.362 253.949Z" fill="#1E2E34"/>
<path d="M217.284 231.896H214.222V244.069H217.284V231.896Z" fill="#012CFD"/>
<path d="M191.742 230.132H188.68V244.069H191.742V230.132Z" fill="#012CFD"/>
<path d="M198.129 227.234H195.068V244.078H198.129V227.234Z" fill="#012CFD"/>
<path d="M204.517 228.157H201.456V244.078H204.517V228.157Z" fill="#012CFD"/>
<path d="M210.905 222.765H207.843V244.069H210.905V222.765Z" fill="#012CFD"/>
<path d="M223.671 222.875H220.61V244.078H223.671V222.875Z" fill="#012CFD"/>
<path d="M230.059 229.839H226.998V244.078H230.059V229.839Z" fill="#012CFD"/>
<path d="M236.447 223.807H233.385V244.078H236.447V223.807Z" fill="#012CFD"/>
<path d="M242.834 219.237H239.773V244.069H242.834V219.237Z" fill="#012CFD"/>
<path d="M249.222 223.707H246.161V244.078H249.222V223.707Z" fill="#012CFD"/>
<path d="M211.362 211.697C211.362 211.825 205.933 211.935 199.235 211.935C192.537 211.935 187.108 211.825 187.108 211.697C187.108 211.569 192.537 211.46 199.235 211.46C205.933 211.46 211.362 211.569 211.362 211.697Z" fill="#1E2E34"/>
<path d="M381.29 48.1741H419.57C421.508 48.1741 423.07 49.7461 423.07 51.6745V89.9597C423.07 91.8973 421.498 93.4601 419.57 93.4601H393.087L382.432 102.234V93.4601H381.29C379.352 93.4601 377.79 91.8881 377.79 89.9597V51.6745C377.79 49.7369 379.361 48.1741 381.29 48.1741Z" fill="white"/>
<path d="M423.071 62.4773L377.781 62.4773V52.4239C377.781 50.0842 379.682 48.1741 382.03 48.1741L418.794 48.1741C421.161 48.1741 423.071 50.0934 423.071 52.4513V62.4682V62.4773Z" fill="#012CFD"/>
<path d="M397.428 68.2809V83.6809H393.864V71.1415H390.785V68.2809H397.428Z" fill="#1E2E34"/>
<path d="M412.169 68.2809V70.5932L406.448 83.6809H402.573L408.093 71.1872H402.994V73.6914H399.823V68.2809H412.16H412.169Z" fill="#1E2E34"/>
<path d="M394.102 56.2899C394.102 56.3721 397.218 56.4361 401.047 56.4361C404.876 56.4361 408.002 56.3721 408.002 56.2899C408.002 56.2076 404.894 56.1437 401.047 56.1437C397.2 56.1437 394.102 56.2076 394.102 56.2899Z" fill="#1E2E34"/>
<path d="M381.29 48.1741C381.29 48.1741 381.207 48.1741 381.052 48.1741C380.897 48.1741 380.659 48.2015 380.358 48.2838C379.773 48.43 378.85 48.8504 378.228 49.9014C377.918 50.4132 377.717 51.0896 377.735 51.8299C377.735 52.561 377.735 53.3561 377.726 54.2153C377.726 55.9426 377.717 57.9167 377.707 60.1285C377.707 64.5611 377.689 69.926 377.68 76.0586C377.68 79.1294 377.68 82.3922 377.671 85.8195C377.671 86.6786 377.671 87.5469 377.671 88.4243C377.671 88.863 377.671 89.3108 377.671 89.7495C377.671 90.1973 377.707 90.6726 377.854 91.1113C378.146 91.9978 378.804 92.7655 379.654 93.1951C380.074 93.4144 380.55 93.5424 381.025 93.5789C381.509 93.6063 381.957 93.5789 382.432 93.5972L382.304 93.4692C382.304 96.2385 382.304 99.1997 382.304 102.243V102.526L382.523 102.344C385.932 99.5378 389.505 96.6041 393.179 93.5789L393.087 93.6155C399.649 93.6155 406.539 93.6155 413.612 93.6155C415.23 93.6155 416.829 93.6155 418.428 93.6155H419.625C420.036 93.6155 420.448 93.5332 420.841 93.387C421.617 93.1037 422.284 92.5553 422.705 91.8516C422.915 91.5043 423.07 91.1204 423.153 90.7183C423.235 90.3161 423.235 89.9048 423.226 89.521C423.226 88.7441 423.226 87.9673 423.226 87.1904C423.226 85.6459 423.226 84.1104 423.226 82.5841C423.226 76.4973 423.226 70.6206 423.226 65.0272C423.226 62.2306 423.226 59.4979 423.226 56.8474C423.226 55.5222 423.226 54.2153 423.226 52.9266C423.207 52.2868 423.271 51.6471 423.153 50.9982C423.025 50.3584 422.732 49.7461 422.294 49.2799C421.864 48.7956 421.307 48.4483 420.713 48.2472C420.11 48.037 419.47 48.0735 418.876 48.0735C417.679 48.0735 416.5 48.0735 415.339 48.0735C413.027 48.0735 410.816 48.0735 408.696 48.0827C400.243 48.101 393.389 48.1192 388.655 48.1284C386.298 48.1375 384.461 48.1467 383.209 48.1558C382.587 48.1558 382.121 48.1649 381.792 48.1741C381.472 48.1741 381.308 48.1924 381.308 48.1924C381.308 48.1924 381.472 48.2015 381.792 48.2106C382.121 48.2106 382.596 48.2106 383.209 48.2289C384.461 48.2289 386.298 48.2472 388.655 48.2563C393.398 48.2655 400.243 48.2837 408.696 48.302C410.816 48.302 413.027 48.302 415.339 48.3112C416.491 48.3112 417.67 48.3112 418.876 48.3112C419.479 48.3112 420.073 48.2838 420.64 48.4757C421.197 48.6585 421.718 48.9875 422.111 49.4445C422.513 49.8832 422.787 50.4589 422.906 51.053C423.006 51.6471 422.952 52.296 422.97 52.9357C422.97 54.2244 422.97 55.5313 422.97 56.8566C422.97 59.507 422.97 62.2397 422.97 65.0364C422.97 70.6297 422.97 76.5064 422.97 82.5933C422.97 84.1196 422.97 85.655 422.97 87.1996C422.97 87.9764 422.97 88.7533 422.97 89.5301C422.97 89.9231 422.97 90.2978 422.897 90.6726C422.814 91.0381 422.677 91.3946 422.486 91.7145C422.102 92.3634 421.48 92.8752 420.768 93.1311C420.064 93.4144 419.26 93.323 418.455 93.3413C416.865 93.3413 415.257 93.3413 413.64 93.3413C406.566 93.3413 399.676 93.3413 393.115 93.3413H393.06L393.023 93.3778C389.35 96.4121 385.777 99.3551 382.377 102.161L382.596 102.261C382.596 99.218 382.596 96.2568 382.596 93.4875V93.3596H382.469C382.002 93.3596 381.518 93.3687 381.08 93.3504C380.632 93.323 380.193 93.1951 379.8 92.994C379.005 92.5919 378.393 91.879 378.119 91.0564C377.972 90.6451 377.936 90.2156 377.945 89.7769C377.945 89.3291 377.945 88.8904 377.945 88.4517C377.945 87.5743 377.945 86.706 377.945 85.8469C377.945 82.4105 377.945 79.1568 377.936 76.086C377.927 69.9534 377.918 64.5885 377.909 60.1559C377.909 57.9442 377.899 55.97 377.89 54.2427C377.936 52.5336 377.662 50.9982 378.347 49.9654C378.95 48.9326 379.846 48.5031 380.422 48.3477C381.016 48.1924 381.345 48.2198 381.335 48.2015L381.29 48.1741Z" fill="#1E2E34"/>
<path d="M393.773 43.7414H393.672C392.885 43.7414 392.247 44.3798 392.247 45.1672V52.5427C392.247 53.3301 392.885 53.9685 393.672 53.9685H393.773C394.56 53.9685 395.198 53.3301 395.198 52.5427V45.1672C395.198 44.3798 394.56 43.7414 393.773 43.7414Z" fill="#E1E1E1"/>
<path d="M393.672 53.9685C393.672 53.9685 393.307 53.9868 392.832 53.6212C392.612 53.4384 392.384 53.1277 392.338 52.7255C392.32 52.3234 392.338 51.8116 392.338 51.2815C392.338 50.1848 392.356 48.8961 392.365 47.4795C392.365 46.7666 392.365 46.0172 392.365 45.2403C392.356 44.8747 392.484 44.5274 392.74 44.2624C392.996 44.0065 393.352 43.8694 393.745 43.8877C394.12 43.8877 394.476 44.0613 394.714 44.3264C394.961 44.6097 395.052 44.9479 395.025 45.3317C395.025 46.1086 395.025 46.858 395.025 47.58C395.034 48.9966 395.043 50.2853 395.052 51.382C395.052 51.6471 395.052 51.9121 395.061 52.1498C395.061 52.3965 395.08 52.625 395.043 52.8169C394.961 53.2191 394.723 53.5115 394.486 53.676C393.992 54.0051 393.617 53.9228 393.627 53.9685C393.627 53.9776 393.709 53.9868 393.873 53.9868C394.038 53.9868 394.285 53.9319 394.55 53.7674C394.815 53.6029 395.098 53.2922 395.198 52.8443C395.253 52.6159 395.235 52.3782 395.244 52.1406C395.244 51.8938 395.244 51.6379 395.253 51.3729C395.253 50.2762 395.272 48.9875 395.281 47.5709C395.281 46.858 395.281 46.0994 395.281 45.3226C395.308 44.9296 395.198 44.4543 394.897 44.1253C394.614 43.7871 394.166 43.5769 393.709 43.5769C393.27 43.5587 392.804 43.7232 392.493 44.043C392.183 44.3538 392.018 44.8108 392.037 45.222C392.037 45.9989 392.037 46.7483 392.037 47.4612C392.046 48.8778 392.055 50.1665 392.064 51.2632C392.073 51.8116 392.064 52.2868 392.101 52.7347C392.174 53.1916 392.429 53.5115 392.685 53.6943C392.941 53.8862 393.188 53.9411 393.343 53.9594C393.508 53.9776 393.59 53.9594 393.59 53.9594L393.672 53.9685Z" fill="#1E2E34"/>
<path d="M407.599 43.7414H407.498C406.711 43.7414 406.073 44.3798 406.073 45.1672V52.5427C406.073 53.3301 406.711 53.9685 407.498 53.9685H407.599C408.386 53.9685 409.024 53.3301 409.024 52.5427V45.1672C409.024 44.3798 408.386 43.7414 407.599 43.7414Z" fill="#E1E1E1"/>
<path d="M407.498 53.9685C407.498 53.9685 407.133 53.9868 406.658 53.6212C406.438 53.4384 406.21 53.1277 406.164 52.7255C406.146 52.3234 406.164 51.8116 406.164 51.2815C406.164 50.1848 406.183 48.8961 406.192 47.4795C406.192 46.7666 406.192 46.0172 406.192 45.2403C406.183 44.8747 406.31 44.5274 406.566 44.2624C406.822 44.0065 407.179 43.8694 407.572 43.8877C407.946 43.8877 408.303 44.0613 408.54 44.3264C408.787 44.6097 408.878 44.9479 408.851 45.3317C408.851 46.1086 408.851 46.858 408.851 47.58C408.86 48.9966 408.869 50.2853 408.878 51.382C408.878 51.6471 408.878 51.9121 408.888 52.1498C408.888 52.3965 408.906 52.625 408.869 52.8169C408.787 53.2191 408.549 53.5115 408.312 53.676C407.818 54.0051 407.444 53.9228 407.453 53.9685C407.453 53.9776 407.535 53.9868 407.7 53.9868C407.864 53.9868 408.111 53.9319 408.376 53.7674C408.641 53.6029 408.924 53.2922 409.025 52.8443C409.079 52.6159 409.061 52.3782 409.07 52.1406C409.07 51.8938 409.07 51.6379 409.079 51.3729C409.079 50.2762 409.098 48.9875 409.107 47.5709C409.107 46.858 409.107 46.0994 409.107 45.3226C409.134 44.9296 409.025 44.4543 408.723 44.1253C408.44 43.7871 407.992 43.5769 407.535 43.5769C407.096 43.5587 406.63 43.7232 406.32 44.043C406.009 44.3538 405.844 44.8108 405.863 45.222C405.863 45.9989 405.863 46.7483 405.863 47.4612C405.872 48.8778 405.881 50.1665 405.89 51.2632C405.899 51.8116 405.89 52.2868 405.927 52.7347C406 53.1916 406.256 53.5115 406.512 53.6943C406.767 53.8862 407.014 53.9411 407.169 53.9594C407.334 53.9776 407.416 53.9594 407.416 53.9594L407.498 53.9685Z" fill="#1E2E34"/>
<path d="M304.39 169.756L307.68 173.869V166.795H318.034C318.034 166.795 319.185 182.99 318.939 186.445C318.857 187.651 318.326 189.644 317.669 191.728C316.316 196.041 310.87 197.394 307.635 194.241C306.547 193.181 305.441 191.984 304.39 190.64C299.785 184.727 292.145 170.305 292.145 170.305L300.123 165.488L304.4 169.765L304.39 169.756Z" fill="#FFC3A3"/>
<path d="M303.741 168.998C303.687 169.043 304.226 169.72 305.094 170.807C305.962 171.886 307.177 173.385 308.557 174.993C309.946 176.602 311.244 178.028 312.258 178.987C313.264 179.956 313.976 180.459 314.013 180.413C314.059 180.358 313.437 179.773 312.496 178.75C311.555 177.735 310.294 176.282 308.914 174.673C306.172 171.438 303.842 168.888 303.723 168.998H303.741Z" fill="#F59F75"/>
<path d="M360.116 77.3564L360.582 114.974C360.664 121.372 359.467 130.786 349.351 130.448C340.597 129.497 338.275 121.208 338.202 115.23C338.166 112.397 338.138 110.039 338.111 109.747C338.111 109.747 328.525 108.961 327.711 99.4922C327.319 94.9133 327.282 85.4265 327.346 76.8354C327.419 67.6137 334.565 59.9914 343.759 59.3242L344.672 59.2603C354.578 59.114 360.226 67.4492 360.098 77.3472L360.116 77.3564Z" fill="#FFC3A3"/>
<path d="M338.12 109.755C338.12 109.755 344.115 109.673 350.192 105.204C350.192 105.204 347.688 112.351 338.166 112.186L338.12 109.755Z" fill="#F59F75"/>
<path d="M343.548 80.7287C343.74 80.9206 344.828 80.0433 346.418 79.9976C347.999 79.9336 349.187 80.7378 349.351 80.5276C349.433 80.4362 349.242 80.089 348.721 79.7234C348.209 79.3579 347.35 79.0198 346.363 79.0563C345.376 79.0929 344.554 79.4858 344.088 79.8879C343.612 80.29 343.457 80.6464 343.548 80.7287Z" fill="#1E2E34"/>
<path d="M342.68 84.5581C342.708 85.2344 343.302 85.7736 344.005 85.7553C344.709 85.737 345.266 85.1796 345.239 84.5033C345.212 83.8271 344.618 83.2879 343.914 83.2971C343.21 83.3062 342.653 83.8728 342.68 84.549V84.5581Z" fill="#1E2E34"/>
<path d="M339.573 91.7601C339.573 91.6779 338.659 91.5865 337.179 91.5042C336.804 91.4951 336.448 91.4494 336.366 91.1935C336.256 90.9284 336.384 90.5172 336.53 90.0693C336.813 89.1463 337.115 88.1775 337.426 87.1538C338.659 83.0137 339.518 79.6138 339.354 79.5681C339.189 79.5224 338.047 82.84 336.822 86.9802C336.53 88.0038 336.247 88.9726 335.973 89.9048C335.863 90.3344 335.653 90.8371 335.89 91.3763C336.009 91.6505 336.302 91.8241 336.539 91.8789C336.786 91.9338 336.996 91.9246 337.179 91.9246C338.659 91.8972 339.573 91.8333 339.573 91.751V91.7601Z" fill="#1E2E34"/>
<path d="M344.224 73.9747C344.38 74.3311 345.65 74.066 347.167 74.1392C348.693 74.1848 349.936 74.5504 350.109 74.2123C350.192 74.0478 349.954 73.7279 349.433 73.4172C348.921 73.1065 348.117 72.8324 347.203 72.7867C346.29 72.7501 345.476 72.9603 344.946 73.2344C344.407 73.5086 344.151 73.8102 344.215 73.9747H344.224Z" fill="#1E2E34"/>
<path d="M329.155 76.3509C329.32 76.6342 330.562 76.3235 332.061 76.2687C333.56 76.1956 334.803 76.4149 334.967 76.1133C335.04 75.9671 334.794 75.7112 334.264 75.4828C333.743 75.2543 332.948 75.0807 332.043 75.1172C331.147 75.1538 330.352 75.3914 329.841 75.6564C329.329 75.9214 329.082 76.2047 329.155 76.3418V76.3509Z" fill="#1E2E34"/>
<path d="M359.851 84.4303C360.006 84.3481 366.221 82.0267 366.486 88.5248C366.751 95.023 360.18 93.9445 360.162 93.7617C360.143 93.5789 359.851 84.4303 359.851 84.4303Z" fill="#FFC3A3"/>
<path d="M362.045 91.2203C362.045 91.2203 362.163 91.2935 362.355 91.3757C362.547 91.458 362.867 91.5036 363.205 91.3574C363.881 91.0741 364.412 89.9684 364.393 88.7895C364.393 88.1955 364.238 87.6381 364.009 87.1812C363.79 86.7151 363.47 86.3953 363.123 86.3496C362.776 86.2856 362.538 86.5049 362.465 86.6877C362.383 86.8705 362.428 86.9984 362.401 87.0167C362.383 87.035 362.255 86.9162 362.301 86.642C362.319 86.5141 362.392 86.3587 362.538 86.2217C362.684 86.0846 362.913 86.0115 363.16 86.0297C363.662 86.048 364.128 86.4867 364.384 86.9893C364.667 87.4919 364.841 88.1224 364.85 88.7804C364.859 90.0872 364.238 91.3391 363.315 91.6499C362.867 91.7869 362.474 91.6681 362.273 91.5219C362.063 91.3666 362.026 91.2295 362.045 91.2112V91.2203Z" fill="#F59F75"/>
<path d="M341.108 96.2563C341.035 96.0918 342.305 95.708 343.201 94.52C343.649 93.9352 343.905 93.2955 344.097 92.8203C344.288 92.3451 344.425 92.0527 344.499 92.0709C344.563 92.0892 344.544 92.4091 344.444 92.9208C344.334 93.4234 344.115 94.1545 343.612 94.8216C343.11 95.4978 342.442 95.8999 341.949 96.0918C341.456 96.2929 341.117 96.302 341.099 96.2472L341.108 96.2563Z" fill="#1E2E34"/>
<path d="M314.781 68.3449C314.881 67.961 315.165 67.6503 315.503 67.4492C316.243 67.0105 317.102 67.0654 317.924 67.0562C320.437 67.0197 322.932 66.252 325.043 64.8902C326.03 63.4644 327.145 62.1209 328.36 60.878C331.23 57.9168 333.588 55.9061 336.037 54.919C339.199 53.6486 344.48 53.1277 347.77 53.9959C351.069 54.8642 354.021 57.5329 354.478 60.9054C356.324 59.3425 359.102 59.3608 361.35 60.2656L361.405 60.2382C363.909 61.1339 365.334 63.7752 366.074 66.3342C366.815 68.8933 367.125 71.626 368.487 73.9108C368.77 74.3861 369.108 74.9619 368.862 75.4645C368.67 75.8484 368.185 76.0129 367.756 75.9489C367.326 75.8849 366.952 75.6473 366.586 75.4188C366.87 76.086 367.144 76.7532 367.427 77.4295C366.522 77.5849 365.581 77.5118 364.704 77.2467C364.174 79.6413 363.534 82.3648 362.922 83.9825C361.871 83.9825 360.911 84.0556 360.272 84.6314C359.394 85.4174 359.001 86.9071 357.539 86.3405C356.799 86.0572 356.123 84.4943 355.867 83.7358C354.222 78.7182 353.674 73.3442 354.268 68.089C353.226 66.9831 351.974 66.0783 350.603 65.4385L350.713 65.5391C348.063 64.616 345.074 63.7203 342.561 64.9542C340.615 65.9138 339.473 67.9428 338.011 69.5513C335.251 72.6039 331.531 74.2673 327.419 74.4501C327.282 77.1188 327.501 80.8842 327.364 83.553L325.125 79.2848V79.3031C324.943 78.9924 324.787 78.6725 324.641 78.3617L324.595 78.2703C324.358 77.7494 324.138 77.2467 323.846 76.7441C323.846 76.7441 323.828 76.7623 323.819 76.7623C322.375 78.0327 320.246 76.086 321.388 74.5323C321.616 74.2216 321.881 73.9474 322.192 73.7189C321.534 74.3404 320.547 74.6328 319.679 74.3678C318.811 74.1028 318.144 73.2254 318.217 72.3206C318.272 71.7082 318.71 71.1507 319.268 70.9131C318.098 71.0045 316.91 70.7486 315.887 70.1728C315.219 69.7889 314.561 69.1674 314.79 68.3266L314.781 68.3449Z" fill="#1E2E34"/>
<path d="M351.499 62.0021C351.499 62.0021 351.892 62.2489 352.449 62.8704C352.998 63.4827 353.61 64.5612 353.902 66.0143C354.048 66.7364 354.149 67.5498 354.14 68.418C354.14 69.2863 354.076 70.2276 354.003 71.2056C353.939 72.1926 353.866 73.2345 353.93 74.313C353.957 74.8522 354.03 75.4006 354.14 75.9489C354.259 76.4882 354.405 77.0731 354.807 77.5392C355.136 77.9139 355.675 78.0876 356.141 77.987C356.616 77.9048 357.037 77.6489 357.347 77.3107C357.96 76.5978 358.106 75.693 358.261 74.8979L358.06 74.9253C358.389 75.6382 358.718 76.3419 359.212 76.9086C359.696 77.4752 360.372 77.8499 361.058 77.9139C361.396 77.9413 361.743 77.8865 362.035 77.7403C362.337 77.594 362.547 77.3473 362.703 77.0822C362.849 76.8172 362.922 76.5247 362.904 76.2414C362.885 75.9581 362.776 75.693 362.602 75.5011L362.501 75.5925C363.233 76.4242 364 76.872 364.539 77.1188C364.804 77.2467 365.024 77.3199 365.17 77.3656C365.316 77.4112 365.398 77.4295 365.398 77.4204C365.398 77.4204 365.325 77.3838 365.188 77.329C365.051 77.2742 364.841 77.1828 364.576 77.0548C364.055 76.7898 363.315 76.3328 362.611 75.5102L362.511 75.6016C362.83 75.9398 362.849 76.5339 362.575 77.0091C362.438 77.2467 362.236 77.4661 361.971 77.5849C361.706 77.7128 361.396 77.7585 361.085 77.7311C360.454 77.6672 359.833 77.3199 359.376 76.7806C358.91 76.2414 358.59 75.5559 358.27 74.8431L358.133 74.5415L358.069 74.8705C357.914 75.6656 357.759 76.5339 357.201 77.1736C356.927 77.4844 356.543 77.7129 356.123 77.786C355.712 77.8682 355.273 77.7311 354.99 77.4021C354.633 77 354.487 76.4425 354.368 75.9124C354.25 75.3731 354.186 74.8339 354.158 74.3038C354.094 73.2437 354.158 72.2109 354.213 71.2238C354.277 70.2368 354.341 69.3045 354.323 68.418C354.323 67.5315 354.213 66.7089 354.048 65.9778C353.738 64.4972 353.08 63.4187 352.504 62.8064C351.919 62.194 351.49 61.993 351.49 61.993L351.499 62.0021Z" fill="#3F5963"/>
<path d="M322.201 71.2147C322.201 71.2147 322.229 71.2421 322.274 71.2787C322.338 71.3244 322.411 71.3792 322.512 71.4523C322.612 71.5254 322.749 71.6168 322.914 71.7082C323.078 71.7996 323.261 71.9184 323.49 72.0098C324.367 72.4302 325.783 72.8415 327.547 72.741C329.293 72.6404 331.394 72.0281 333.268 70.6298C335.159 69.268 336.823 67.2664 338.175 64.9724C338.86 63.83 339.427 62.651 340.048 61.5634C340.661 60.4758 341.346 59.4705 342.169 58.6754C342.982 57.8802 343.923 57.2862 344.901 57.0211C345.385 56.8749 345.87 56.8475 346.336 56.8566C346.802 56.884 347.249 56.9754 347.652 57.1125C348.465 57.3867 349.123 57.8345 349.625 58.3006C350.128 58.7668 350.466 59.2603 350.695 59.6898C351.124 60.5581 351.152 61.1156 351.179 61.1065C351.179 61.1065 351.179 61.0699 351.179 61.0059C351.17 60.9237 351.152 60.8323 351.133 60.7135C351.088 60.4576 350.978 60.092 350.777 59.6441C350.558 59.2054 350.219 58.6936 349.717 58.2092C349.214 57.7248 348.547 57.2496 347.706 56.9663C347.286 56.82 346.829 56.7195 346.345 56.6921C345.86 56.6738 345.349 56.7104 344.846 56.8475C343.832 57.1216 342.863 57.7249 342.022 58.5383C341.172 59.3425 340.478 60.3662 339.857 61.4629C339.226 62.5596 338.669 63.7295 337.983 64.8628C336.64 67.1385 334.995 69.1218 333.14 70.4744C331.303 71.8545 329.256 72.4759 327.538 72.5948C325.802 72.7136 324.413 72.3297 323.526 71.9459C322.64 71.5529 322.219 71.1964 322.201 71.2238V71.2147Z" fill="#3F5963"/>
<path d="M321.342 67.0562C321.342 67.0562 321.452 67.1568 321.68 67.2938C321.909 67.4401 322.247 67.6137 322.685 67.8056C323.124 67.9975 323.663 68.1803 324.276 68.3265C324.888 68.4636 325.582 68.5732 326.313 68.6006C327.044 68.6189 327.739 68.5641 328.36 68.4636C328.982 68.3539 329.539 68.2077 329.987 68.0432C330.435 67.8787 330.791 67.7233 331.02 67.5954C331.257 67.4675 331.376 67.3944 331.376 67.3852C331.358 67.3487 330.837 67.6137 329.941 67.897C329.494 68.0432 328.945 68.162 328.333 68.2625C327.721 68.3448 327.035 68.3996 326.323 68.3813C325.61 68.3539 324.934 68.2625 324.321 68.1346C323.718 67.9975 323.179 67.833 322.74 67.6685C321.863 67.3304 321.36 67.0288 321.333 67.0654L321.342 67.0562Z" fill="#3F5963"/>
<path d="M329.082 80.7287C329.274 80.9206 330.361 80.0433 331.952 79.9976C333.532 79.9336 334.72 80.7378 334.885 80.5276C334.967 80.4362 334.775 80.089 334.254 79.7234C333.743 79.3579 332.884 79.0198 331.897 79.0563C330.91 79.0929 330.087 79.4858 329.621 79.8879C329.146 80.29 328.991 80.6464 329.082 80.7287Z" fill="#1E2E34"/>
<path d="M329.42 84.5581C329.448 85.2344 330.042 85.7736 330.745 85.7553C331.449 85.7461 332.007 85.1796 331.979 84.5033C331.952 83.8271 331.358 83.2879 330.654 83.2971C329.95 83.3062 329.393 83.8728 329.42 84.549V84.5581Z" fill="#1E2E34"/>
<path d="M378.832 363.604L380.797 387.257L387.742 405.518C388.244 406.834 387.522 408.296 386.179 408.708C385.421 408.936 384.616 408.79 383.986 408.305C380.02 405.235 365.718 393.947 365.554 392.476C365.343 390.575 361.697 367.315 361.697 367.315L378.823 363.604H378.832Z" fill="#3F5963"/>
<path d="M386.179 408.708L365.17 389.78L365.38 391.534C365.517 392.494 365.535 393.015 366.166 393.609C367.847 395.209 372.773 400.116 383.776 408.708C384.415 409.21 385.421 408.963 386.188 408.708H386.179Z" fill="#1E2E34"/>
<path d="M369.3 382.404C369.931 382.751 370.223 383.629 369.903 384.268C369.583 384.917 368.697 385.219 368.057 384.881C367.418 384.543 367.043 383.51 367.427 382.898C367.82 382.285 368.88 381.993 369.419 382.468" fill="white"/>
<path d="M379.691 398.965C379.828 399.019 380.23 397.722 381.564 396.908C382.871 396.059 384.214 396.25 384.224 396.104C384.242 396.04 383.922 395.894 383.355 395.876C382.798 395.857 382.012 396.013 381.281 396.47C380.55 396.927 380.066 397.576 379.846 398.087C379.627 398.599 379.627 398.955 379.682 398.965H379.691Z" fill="#1E2E34"/>
<path d="M381.71 401.944C381.829 402.035 382.506 401.186 383.693 400.71C384.863 400.208 385.942 400.317 385.969 400.171C386.024 400.043 384.836 399.659 383.492 400.235C382.149 400.793 381.583 401.898 381.71 401.953V401.944Z" fill="#1E2E34"/>
<path d="M376.136 395.245C376.255 395.345 377.287 394.038 379.069 393.134C380.833 392.202 382.496 392.101 382.487 391.946C382.515 391.818 380.723 391.672 378.832 392.668C376.931 393.645 376.017 395.19 376.145 395.245H376.136Z" fill="#1E2E34"/>
<path d="M374.939 388.107C375.021 388.244 376.264 387.559 377.955 387.321C379.645 387.056 381.034 387.349 381.071 387.193C381.126 387.074 379.691 386.526 377.882 386.809C376.063 387.074 374.857 388.016 374.948 388.116L374.939 388.107Z" fill="#1E2E34"/>
<path d="M374.189 381.179C374.281 381.307 375.505 380.384 377.306 380.275C379.106 380.128 380.449 380.869 380.522 380.732C380.559 380.677 380.266 380.412 379.691 380.156C379.115 379.9 378.247 379.69 377.278 379.763C376.31 379.836 375.469 380.165 374.939 380.494C374.4 380.832 374.153 381.134 374.199 381.188L374.189 381.179Z" fill="#1E2E34"/>
<path d="M377.123 378.958C377.123 378.958 377.169 378.629 377.059 378.063C376.949 377.496 376.693 376.673 376.099 375.796C375.798 375.385 375.469 374.846 374.783 374.608C374.436 374.489 373.961 374.599 373.714 374.937C373.468 375.266 373.422 375.668 373.458 376.043C373.641 377.542 375.085 378.848 376.785 378.885C378.494 378.885 379.928 377.761 380.458 376.399C380.568 376.052 380.623 375.632 380.404 375.248C380.184 374.864 379.682 374.754 379.353 374.846C378.667 375.029 378.265 375.476 377.881 375.814C377.141 376.555 376.712 377.295 376.465 377.816C376.218 378.346 376.163 378.657 376.191 378.666C376.282 378.72 376.666 377.441 378.137 376.079C378.512 375.76 378.941 375.367 379.435 375.266C379.682 375.211 379.901 375.294 380.011 375.476C380.12 375.659 380.102 375.961 380.011 376.235C379.554 377.35 378.247 378.382 376.803 378.355C375.368 378.337 374.098 377.185 373.943 375.979C373.906 375.687 373.952 375.385 374.089 375.202C374.226 375.019 374.454 374.946 374.674 375.01C375.149 375.147 375.515 375.613 375.807 375.997C376.986 377.624 377.022 378.976 377.123 378.94V378.958Z" fill="#1E2E34"/>
<path d="M322.832 364.82L323.709 384.844C323.709 384.844 303.65 392.458 303.449 396.177L342.342 395.876L342.26 364.61L322.841 364.811L322.832 364.82Z" fill="#3F5963"/>
<path d="M335.717 383.071C336.475 383.272 336.996 384.113 336.832 384.872C336.667 385.63 335.808 386.178 335.05 385.986C334.291 385.804 333.633 384.808 333.88 384.067C334.136 383.327 335.168 382.742 335.863 383.108" fill="#E1E1E1"/>
<path d="M342.342 395.884L342.214 392.732L304.975 394.203C304.975 394.203 303.248 394.971 303.458 396.186L342.351 395.884H342.342Z" fill="#1E2E34"/>
<path d="M323.078 384.662C323.078 384.853 324.038 384.927 324.979 385.53C325.93 386.105 326.423 386.928 326.597 386.855C326.77 386.818 326.478 385.685 325.326 384.972C324.184 384.25 323.033 384.488 323.078 384.662Z" fill="#1E2E34"/>
<path d="M319.012 386.38C318.966 386.563 319.797 386.882 320.446 387.677C321.123 388.454 321.287 389.322 321.479 389.313C321.662 389.341 321.78 388.226 320.949 387.248C320.126 386.261 319.012 386.197 319.012 386.371V386.38Z" fill="#1E2E34"/>
<path d="M316.736 391.278C316.91 391.315 317.166 390.364 316.672 389.332C316.188 388.29 315.283 387.888 315.21 388.043C315.101 388.199 315.685 388.756 316.078 389.615C316.49 390.465 316.554 391.26 316.745 391.278H316.736Z" fill="#1E2E34"/>
<path d="M323.38 380.073C323.462 380.247 324.33 379.973 325.4 380.046C326.478 380.092 327.31 380.439 327.41 380.275C327.52 380.137 326.697 379.443 325.436 379.379C324.175 379.315 323.289 379.918 323.38 380.073Z" fill="#1E2E34"/>
<path d="M316.06 221.02C316.078 222.18 320.574 382.24 320.574 382.24H344.617L349.488 245.321C349.488 245.321 355.172 316.911 355.172 318.455C355.172 320 360.189 383.007 360.189 383.007L382.478 381.189L381.016 237.032L378.292 215.892L316.06 221.01V221.02Z" fill="#1E2E34"/>
<path d="M351.992 240.249C351.992 240.249 351.654 240.423 351.014 240.66C350.375 240.898 349.452 241.218 348.3 241.602L348.081 241.675L348.063 241.446C347.926 239.518 347.779 236.95 347.633 234.126C347.478 231.064 347.368 228.295 347.313 226.293C347.286 225.288 347.268 224.474 347.268 223.917C347.268 223.359 347.286 223.039 347.313 223.039C347.35 223.039 347.395 223.35 347.45 223.908C347.505 224.465 347.569 225.279 347.642 226.275C347.788 228.276 347.953 231.046 348.099 234.107C348.236 236.931 348.346 239.509 348.41 241.437L348.172 241.282C349.333 240.934 350.283 240.66 350.932 240.477C351.59 240.295 351.956 240.212 351.974 240.249H351.992Z" fill="#3F5963"/>
<path d="M350.164 223.606C350.164 223.606 350.237 223.478 350.484 223.396C350.722 223.314 351.124 223.295 351.544 223.487C351.955 223.661 352.422 224.163 352.348 224.803C352.303 225.406 351.837 226.055 351.069 226.22C350.301 226.357 349.607 225.936 349.296 225.415C348.958 224.876 349.077 224.255 349.314 223.898C349.552 223.515 349.881 223.314 350.109 223.231C350.347 223.149 350.484 223.158 350.493 223.186C350.53 223.25 349.954 223.368 349.616 224.045C349.461 224.364 349.406 224.821 349.671 225.196C349.918 225.571 350.457 225.872 350.978 225.772C351.489 225.671 351.864 225.196 351.91 224.757C351.974 224.31 351.7 223.944 351.38 223.761C350.703 223.378 350.173 223.67 350.164 223.597V223.606Z" fill="#3F5963"/>
<path d="M361.204 225.251C361.076 225.26 360.893 224.565 360.793 223.697C360.701 222.829 360.729 222.116 360.857 222.098C360.984 222.089 361.167 222.774 361.268 223.652C361.359 224.52 361.332 225.233 361.204 225.251Z" fill="#3F5963"/>
<path d="M362.867 225.086C362.739 225.086 362.629 224.346 362.62 223.432C362.62 222.518 362.721 221.778 362.849 221.778C362.977 221.778 363.086 222.518 363.095 223.432C363.095 224.346 362.995 225.086 362.867 225.086Z" fill="#3F5963"/>
<path d="M333.889 226.192C333.761 226.201 333.551 225.37 333.432 224.337C333.313 223.295 333.323 222.445 333.451 222.427C333.579 222.418 333.789 223.25 333.908 224.282C334.026 225.324 334.017 226.174 333.889 226.192Z" fill="#3F5963"/>
<path d="M335.908 226.347C335.79 226.393 335.369 225.543 335.324 224.401C335.269 223.259 335.625 222.381 335.744 222.418C335.881 222.445 335.744 223.323 335.799 224.383C335.835 225.452 336.045 226.311 335.908 226.347Z" fill="#3F5963"/>
<path d="M328.305 224.209C328.305 224.209 328.305 224.465 328.223 224.913C328.15 225.361 327.985 226.01 327.739 226.787C327.245 228.349 326.286 230.451 324.76 232.49C323.224 234.528 321.451 236.081 320.062 237.032C319.368 237.516 318.783 237.873 318.354 238.083C317.933 238.302 317.696 238.412 317.677 238.385C317.641 238.321 318.545 237.809 319.871 236.803C321.196 235.798 322.895 234.253 324.403 232.252C325.902 230.25 326.88 228.212 327.437 226.695C328.004 225.178 328.214 224.191 328.287 224.2L328.305 224.209Z" fill="#3F5963"/>
<path d="M380.285 234.994C380.285 234.994 380.029 235.067 379.553 235.103C379.078 235.14 378.393 235.149 377.543 235.067C375.852 234.912 373.504 234.272 371.384 232.791C369.264 231.301 367.939 229.355 367.281 227.865C366.943 227.116 366.751 226.485 366.65 226.046C366.55 225.608 366.522 225.352 366.55 225.352C366.623 225.333 366.833 226.311 367.555 227.746C368.268 229.172 369.593 231.027 371.64 232.462C373.687 233.897 375.944 234.555 377.58 234.784C379.234 235.021 380.275 234.921 380.285 234.994Z" fill="#3F5963"/>
<path d="M341.117 316.051C341.09 316.161 337.106 315.247 332.217 314.004C327.328 312.761 323.398 311.674 323.425 311.564C323.453 311.455 327.437 312.368 332.326 313.611C337.206 314.854 341.145 315.942 341.117 316.051Z" fill="#3F5963"/>
<path d="M379.855 310.221C379.91 310.321 376.447 312.249 372.115 314.525C367.784 316.8 364.22 318.573 364.165 318.473C364.11 318.372 367.573 316.444 371.905 314.168C376.237 311.893 379.8 310.12 379.855 310.221Z" fill="#3F5963"/>
<path d="M328.013 120.001L338.934 115.715L359.047 114.581L368.505 118.173L355.547 125.366L344.38 124.964L328.013 120.001Z" fill="#FFC3A3"/>
<path d="M315.137 222.765C316.124 222.939 382.03 225.736 382.03 225.736L379.718 166.466L379.526 154.832L375.78 119.581C375.78 119.581 365.929 116.19 360.902 114.572C360.902 114.572 355.611 120.083 345.55 119.937C335.717 119.791 333.661 117.57 333.661 117.57L319.917 122.844C319.917 122.844 310.139 126.353 308.457 130.676C306.821 134.889 303.815 158.935 303.815 158.935H318.062L317.797 201.415L315.128 222.756L315.137 222.765Z" fill="#012CFD"/>
<g opacity="0.2">
<path d="M356.571 143.672L358.618 158.606L368.506 163.03L375.807 156.797V142.923L356.571 143.672Z" fill="black"/>
</g>
<path d="M375.551 147.904C375.551 148.032 371.439 148.132 366.376 148.132C361.313 148.132 357.201 148.032 357.201 147.904C357.201 147.776 361.313 147.675 366.376 147.675C371.439 147.675 375.551 147.776 375.551 147.904Z" fill="#1E2E34"/>
<path d="M310.696 136.854C310.696 136.854 310.742 136.991 310.806 137.247C310.87 137.54 310.961 137.924 311.071 138.39C311.318 139.386 311.72 140.83 312.387 142.594C313.045 144.367 313.968 146.442 315.101 148.772C316.17 151.148 317.148 153.881 318.162 156.851V156.879L318.172 156.915C318.144 160.462 318.126 164.355 318.098 168.413C318.007 177.479 317.916 185.677 317.852 191.664C317.797 194.607 317.76 197.001 317.724 198.71C317.696 199.514 317.678 200.145 317.669 200.62C317.651 201.059 317.632 201.288 317.623 201.288C317.605 201.288 317.596 201.059 317.587 200.62C317.587 200.145 317.568 199.505 317.559 198.701C317.559 196.992 317.559 194.597 317.55 191.655C317.577 185.668 317.623 177.47 317.669 168.404C317.705 164.346 317.742 160.462 317.769 156.915V156.979C316.782 154.018 315.832 151.276 314.79 148.918C313.685 146.579 312.771 144.467 312.149 142.685C311.51 140.894 311.153 139.432 310.943 138.426C310.843 137.924 310.779 137.531 310.742 137.266C310.705 137.001 310.687 136.863 310.705 136.863L310.696 136.854Z" fill="#1E2E34"/>
<path d="M380.569 129.927C380.569 129.927 380.587 130.384 380.559 131.188C380.523 132.074 380.486 133.235 380.431 134.624C380.313 137.604 380.157 141.579 379.984 145.975C379.783 150.372 379.609 154.347 379.472 157.327C379.39 158.716 379.326 159.877 379.271 160.763C379.216 161.577 379.17 162.024 379.143 162.024C379.116 162.024 379.097 161.577 379.106 160.763C379.125 159.877 379.143 158.716 379.17 157.318C379.243 154.411 379.371 150.39 379.563 145.957C379.746 141.525 379.947 137.512 380.139 134.606C380.23 133.153 380.322 131.983 380.404 131.17C380.486 130.356 380.55 129.917 380.587 129.917L380.569 129.927Z" fill="#1E2E34"/>
<g opacity="0.3">
<path d="M310.733 139.011C310.413 145.519 312.862 151.816 317.203 156.669C315.86 150.554 312.515 144.86 310.733 139.011Z" fill="black"/>
</g>
<g opacity="0.3">
<path d="M339.674 197.687C342.754 197.422 345.532 195.603 347.579 193.281C349.626 190.969 351.49 188.346 352.888 185.586C354.798 181.839 355.749 177.763 356.004 173.494C352.166 183.785 346.537 191.929 339.665 197.687H339.674Z" fill="black"/>
</g>
<path d="M357.229 169.007C357.229 169.007 357.229 169.144 357.174 169.391C357.11 169.683 357.028 170.04 356.937 170.46C356.836 170.926 356.69 171.493 356.489 172.133C356.297 172.782 356.096 173.522 355.794 174.326C355.264 175.944 354.478 177.817 353.519 179.865C352.523 181.884 351.326 184.06 349.891 186.235C348.438 188.401 346.903 190.348 345.422 192.048C343.905 193.72 342.471 195.155 341.173 196.261C340.542 196.837 339.93 197.303 339.4 197.723C338.879 198.153 338.404 198.491 338.011 198.765C337.655 199.012 337.353 199.213 337.106 199.386C336.896 199.524 336.786 199.588 336.777 199.578C336.777 199.569 336.869 199.478 337.061 199.313C337.298 199.131 337.582 198.902 337.92 198.637C338.294 198.354 338.751 197.988 339.263 197.549C339.775 197.111 340.369 196.636 340.981 196.041C342.242 194.917 343.649 193.464 345.139 191.792C346.592 190.092 348.109 188.154 349.553 186.006C350.969 183.849 352.176 181.702 353.181 179.7C354.149 177.68 354.954 175.834 355.52 174.235C355.831 173.449 356.059 172.718 356.269 172.078C356.489 171.438 356.653 170.89 356.781 170.424C356.909 170.012 357.01 169.665 357.092 169.373C357.165 169.135 357.22 169.007 357.229 169.016V169.007Z" fill="#1E2E34"/>
<path d="M355.328 150.454C355.328 150.454 355.319 150.664 355.255 151.057C355.182 151.496 355.081 152.062 354.953 152.775C354.826 153.525 354.652 154.439 354.378 155.481C354.122 156.532 353.866 157.729 353.455 159.027C353.263 159.676 353.062 160.361 352.852 161.074C352.641 161.787 352.358 162.509 352.102 163.258C351.609 164.775 350.942 166.347 350.275 168.02C348.849 171.319 347.076 174.856 344.929 178.402C342.745 181.93 340.396 185.12 338.111 187.889C336.933 189.242 335.836 190.558 334.703 191.682C334.145 192.258 333.634 192.824 333.094 193.345C332.555 193.857 332.044 194.342 331.55 194.817C330.581 195.767 329.622 196.544 328.809 197.248C328.004 197.961 327.264 198.537 326.661 198.984C326.085 199.423 325.619 199.77 325.263 200.035C324.943 200.273 324.769 200.392 324.76 200.383C324.76 200.374 324.906 200.227 325.208 199.971C325.546 199.688 325.994 199.323 326.551 198.856C327.145 198.381 327.858 197.796 328.644 197.065C329.439 196.343 330.38 195.557 331.331 194.597C331.815 194.122 332.327 193.629 332.848 193.117C333.378 192.596 333.88 192.02 334.429 191.444C335.544 190.302 336.622 188.995 337.792 187.642C340.049 184.873 342.379 181.693 344.545 178.183C346.683 174.655 348.447 171.136 349.891 167.864C350.567 166.21 351.243 164.647 351.755 163.139C352.02 162.39 352.303 161.677 352.523 160.973C352.742 160.27 352.952 159.593 353.153 158.944C353.583 157.656 353.848 156.468 354.131 155.426C354.423 154.393 354.615 153.488 354.771 152.739C354.926 152.035 355.054 151.468 355.155 151.039C355.246 150.646 355.301 150.445 355.319 150.454H355.328Z" fill="#1E2E34"/>
<path d="M303.248 132.019C307.315 138.198 323.755 163.212 328.625 170.606C329.165 171.42 328.497 172.489 327.529 172.37L298.304 168.696C297.994 168.66 297.71 168.495 297.527 168.239L269.619 130.118C269.043 129.332 269.655 128.227 270.624 128.3L300.689 130.521C301.731 130.594 302.682 131.151 303.257 132.029L303.248 132.019Z" fill="#E1E1E1"/>
<path d="M303.248 132.02C303.248 132.02 303.184 131.892 303.02 131.672C302.846 131.453 302.554 131.151 302.078 130.877C301.612 130.585 300.918 130.429 300.132 130.402C299.337 130.338 298.432 130.265 297.409 130.182C293.297 129.863 287.375 129.396 280.073 128.821C278.246 128.684 276.327 128.537 274.325 128.382C273.329 128.309 272.306 128.227 271.273 128.144C270.999 128.126 270.78 128.099 270.469 128.099C270.158 128.099 269.857 128.236 269.628 128.446C269.162 128.857 269.043 129.634 269.409 130.164C271.958 133.655 274.673 137.384 277.533 141.305C283.263 149.138 289.559 157.756 296.166 166.795C296.586 167.371 296.97 167.91 297.427 168.504C297.573 168.66 297.747 168.778 297.948 168.852C298.158 168.934 298.359 168.943 298.515 168.961L299.547 169.089C300.918 169.263 302.28 169.436 303.632 169.601C306.337 169.939 309.005 170.277 311.628 170.606C316.864 171.264 321.927 171.895 326.743 172.489C327.054 172.526 327.319 172.571 327.675 172.59C328.032 172.59 328.397 172.443 328.644 172.187C328.9 171.932 329.037 171.584 329.046 171.228C329.064 170.881 328.854 170.506 328.699 170.296C328.05 169.309 327.401 168.34 326.77 167.38C325.5 165.461 324.276 163.596 323.088 161.796C320.712 158.195 318.491 154.841 316.462 151.779C312.414 145.674 309.133 140.739 306.849 137.293C305.716 135.602 304.829 134.286 304.217 133.372C303.924 132.943 303.687 132.604 303.522 132.358C303.367 132.129 303.276 132.02 303.276 132.02C303.276 132.02 303.34 132.147 303.486 132.385C303.641 132.641 303.86 132.979 304.144 133.427C304.738 134.359 305.606 135.694 306.703 137.403C308.96 140.867 312.195 145.838 316.188 151.971C318.199 155.042 320.401 158.405 322.759 162.015C323.938 163.825 325.162 165.689 326.423 167.609C327.054 168.568 327.693 169.546 328.342 170.533C328.525 170.798 328.607 170.972 328.616 171.228C328.616 171.465 328.516 171.703 328.342 171.877C328.178 172.05 327.931 172.151 327.693 172.142C327.447 172.133 327.109 172.069 326.816 172.041C322 171.429 316.947 170.789 311.71 170.122C309.088 169.793 306.428 169.455 303.714 169.117C302.362 168.943 301 168.778 299.629 168.605L298.597 168.477C298.414 168.449 298.259 168.44 298.14 168.395C298.012 168.349 297.893 168.267 297.802 168.166C297.391 167.618 296.988 167.06 296.577 166.503C289.952 157.473 283.646 148.864 277.907 141.04C275.038 137.128 272.315 133.418 269.756 129.945C269.5 129.57 269.582 129.04 269.911 128.738C270.076 128.592 270.277 128.501 270.496 128.492C270.716 128.492 271.008 128.519 271.255 128.537C272.297 128.61 273.311 128.684 274.307 128.757C276.308 128.903 278.218 129.04 280.055 129.168C287.357 129.68 293.278 130.091 297.4 130.374C298.423 130.438 299.328 130.502 300.123 130.557C300.918 130.575 301.558 130.703 302.033 130.968C302.974 131.489 303.23 132.065 303.257 132.029L303.248 132.02Z" fill="#1E2E34"/>
<path d="M269.61 130.109C269.61 130.109 269.82 130.155 270.222 130.201C270.67 130.246 271.255 130.301 271.995 130.383C273.585 130.52 275.824 130.721 278.602 130.968C284.268 131.434 292.118 132.074 301.055 132.805L300.872 132.705C302.279 134.798 303.732 136.964 305.185 139.203C311.107 148.315 316.289 156.687 320.2 162.646C322.146 165.634 323.755 168.02 324.888 169.665C325.436 170.451 325.884 171.081 326.204 171.538C326.505 171.968 326.679 172.187 326.688 172.178C326.697 172.169 326.56 171.931 326.286 171.483C325.975 171.008 325.564 170.359 325.043 169.555C323.947 167.837 322.393 165.424 320.492 162.454C316.654 156.449 311.527 148.05 305.597 138.929C304.144 136.69 302.682 134.514 301.274 132.431L301.21 132.339H301.091C292.145 131.663 284.295 131.087 278.62 130.667C275.842 130.484 273.603 130.328 272.004 130.219C271.264 130.182 270.67 130.146 270.222 130.118C269.82 130.1 269.601 130.1 269.601 130.118L269.61 130.109Z" fill="#1E2E34"/>
<path d="M287.009 135.995C287.083 135.648 287.412 135.502 287.731 135.557C288.079 135.657 288.252 135.739 288.517 135.995C288.782 136.251 288.892 136.708 288.664 137C288.371 137.357 287.768 137.229 287.421 136.927C287.156 136.699 286.945 136.342 287.019 135.995H287.009Z" fill="white"/>
<path d="M300.653 157.619C300.653 157.619 301.804 154.868 298.88 154.512C295.956 154.155 288.27 154.512 288.27 154.512C288.27 154.512 284.067 154.96 284.953 157.966C284.953 157.966 282.468 160.187 283.802 162.582C285.136 164.976 285.666 164.264 285.666 164.264C285.666 164.264 285.31 167.188 287.53 167.636C287.53 167.636 289.934 170.478 292.145 170.296C294.357 170.122 303.76 165.598 304.381 164.711C305.003 163.825 305.889 163.322 305.359 162.326C305.359 162.326 306.511 159.73 304.025 159.337C304.025 159.337 303.851 157.171 300.653 157.61V157.619Z" fill="#FFC3A3"/>
<path d="M287.32 158.615C287.32 158.679 288.078 158.734 289.294 158.761C290.518 158.789 292.2 158.789 294.064 158.761C295.919 158.697 297.61 158.771 298.852 158.478C300.114 158.186 300.607 157.445 300.552 157.427C300.497 157.363 299.967 157.957 298.779 158.14C297.619 158.332 295.91 158.213 294.055 158.277C292.191 158.304 290.509 158.359 289.294 158.423C288.078 158.487 287.32 158.56 287.32 158.624V158.615Z" fill="#F59F75"/>
<path d="M289.413 163.047C289.413 163.047 289.623 163.175 290.052 163.267C290.473 163.358 291.103 163.431 291.88 163.376C292.657 163.331 293.571 163.166 294.548 162.892C295.526 162.618 296.577 162.243 297.674 161.905C298.77 161.567 299.839 161.32 300.817 161.256C301.777 161.211 302.809 161.238 303.495 160.717C303.833 160.48 304.071 160.141 304.135 159.803C304.198 159.465 304.135 159.173 304.025 158.972C303.796 158.551 303.477 158.524 303.486 158.551C303.458 158.588 303.714 158.679 303.851 159.054C304.007 159.41 303.924 160.068 303.303 160.434C302.709 160.845 301.823 160.799 300.79 160.809C299.757 160.854 298.642 161.092 297.527 161.439C296.431 161.795 295.389 162.143 294.42 162.463C293.47 162.755 292.593 162.947 291.853 163.038C290.363 163.221 289.431 162.965 289.422 163.047H289.413Z" fill="#F59F75"/>
<path d="M292.556 166.795C292.575 166.859 293.333 166.712 294.53 166.411C295.736 166.109 297.381 165.634 299.173 165.049C300.973 164.464 302.572 163.861 303.723 163.395C304.875 162.929 305.569 162.6 305.542 162.536C305.496 162.408 302.599 163.413 299.017 164.583C295.435 165.762 292.511 166.658 292.547 166.786L292.556 166.795Z" fill="#F59F75"/>
<path d="M291.807 170.277C291.807 170.332 292.446 170.313 293.442 170.085C294.439 169.866 295.782 169.409 297.189 168.769C298.597 168.129 299.83 167.471 300.717 167.005C301.603 166.53 302.151 166.219 302.124 166.155C302.06 166.009 299.766 167.024 296.988 168.33C294.219 169.655 291.788 170.158 291.807 170.277Z" fill="#F59F75"/>
<path d="M385.238 143.828C385.238 143.828 379.262 167.764 371.795 176.602C364.567 185.156 353.235 181.226 349.315 170.149C345.395 159.081 338.404 133.793 338.404 133.793L346.985 127.23L361.816 155.983L368.496 136.388L385.229 143.837L385.238 143.828Z" fill="#FFC3A3"/>
<path d="M338.797 134.46L332.5 125.339C332.5 125.339 330.408 124.854 329.814 124.507C329.101 124.086 328.397 120.467 328.415 119.754C328.434 119.051 327.191 117.396 327.694 116.93C328.196 116.464 329.878 116.428 329.786 115.751C329.768 115.605 328.534 114.097 329.512 112.982C329.868 112.58 331.285 112.233 331.285 112.233L331.184 108.75C331.184 108.75 333.067 104.638 334.986 106.127C334.986 106.127 342.233 111.693 342.964 112.58C343.695 113.466 346.482 125.064 346.976 127.24" fill="#FFC3A3"/>
<path d="M346.985 127.23C346.985 127.23 346.966 127.011 346.884 126.618C346.793 126.179 346.665 125.594 346.51 124.872C346.171 123.364 345.66 121.18 344.974 118.484C344.627 117.14 344.243 115.669 343.759 114.097C343.631 113.704 343.503 113.311 343.339 112.9C343.183 112.443 342.799 112.132 342.489 111.849C341.831 111.264 341.136 110.697 340.414 110.121C338.98 108.961 337.463 107.763 335.872 106.53C335.461 106.237 335.123 105.862 334.547 105.652C333.963 105.46 333.341 105.707 332.912 106.045C332.034 106.74 331.477 107.672 330.983 108.65L330.965 108.696V108.75C330.974 109.089 330.983 109.454 331.002 109.82C331.029 110.633 331.047 111.447 331.075 112.233L331.239 112.013C330.801 112.132 330.38 112.26 329.96 112.443C329.75 112.543 329.54 112.635 329.339 112.845C329.192 113.037 329.046 113.247 328.991 113.485C328.845 113.96 328.946 114.453 329.101 114.874C329.183 115.084 329.284 115.285 329.384 115.468L329.549 115.742L329.585 115.797C329.585 115.797 329.585 115.76 329.585 115.788C329.585 115.806 329.585 115.834 329.576 115.843C329.558 115.925 329.384 116.025 329.22 116.099C329.046 116.172 328.854 116.227 328.653 116.291C328.461 116.354 328.26 116.409 328.059 116.492C327.858 116.583 327.648 116.629 327.456 116.912C327.31 117.214 327.392 117.451 327.438 117.652C327.493 117.862 327.575 118.054 327.648 118.237C327.803 118.603 327.977 118.959 328.114 119.297C328.178 119.471 328.224 119.626 328.224 119.782C328.224 120.001 328.251 120.184 328.278 120.376C328.333 120.76 328.406 121.125 328.48 121.491C328.644 122.222 328.818 122.926 329.074 123.593C329.211 123.931 329.32 124.26 329.622 124.562C329.969 124.827 330.28 124.872 330.6 124.991C331.239 125.192 331.861 125.348 332.464 125.485L332.363 125.421C334.31 128.181 335.891 130.438 337.024 132.047C337.563 132.796 337.993 133.39 338.312 133.838C338.614 134.25 338.778 134.46 338.788 134.441C338.797 134.423 338.66 134.204 338.386 133.774C338.084 133.317 337.673 132.696 337.17 131.928C336.064 130.301 334.52 128.016 332.628 125.22L332.592 125.165L332.528 125.147C331.934 125 331.312 124.836 330.7 124.635C330.408 124.534 330.042 124.425 329.85 124.269C329.668 124.096 329.53 123.748 329.412 123.447C329.174 122.807 329.01 122.112 328.854 121.399C328.781 121.043 328.717 120.677 328.662 120.312C328.644 120.129 328.617 119.937 328.617 119.773C328.617 119.544 328.553 119.325 328.489 119.142C328.352 118.767 328.178 118.411 328.023 118.054C327.95 117.881 327.876 117.698 327.831 117.524C327.785 117.36 327.767 117.159 327.812 117.095C327.84 117.031 328.032 116.921 328.196 116.866C328.37 116.793 328.562 116.738 328.763 116.684C328.955 116.62 329.156 116.565 329.366 116.482C329.558 116.391 329.814 116.309 329.96 115.989C329.997 115.907 330.006 115.824 330.006 115.742C330.006 115.715 329.996 115.642 329.969 115.578L329.923 115.495L329.768 115.23C329.668 115.057 329.576 114.874 329.512 114.691C329.375 114.326 329.302 113.933 329.412 113.585C329.457 113.412 329.558 113.256 329.677 113.11C329.768 113.009 329.96 112.9 330.143 112.818C330.517 112.653 330.938 112.525 331.34 112.415L331.513 112.37V112.196C331.486 111.401 331.459 110.597 331.44 109.783C331.431 109.418 331.422 109.052 331.413 108.714L331.395 108.814C331.852 107.891 332.427 106.977 333.186 106.374C333.57 106.082 334.017 105.917 334.429 106.054C334.812 106.182 335.215 106.557 335.617 106.849C337.207 108.074 338.733 109.262 340.168 110.414C340.889 110.99 341.584 111.556 342.233 112.123C342.562 112.415 342.882 112.662 343 113.028C343.165 113.402 343.284 113.795 343.421 114.179C343.914 115.733 344.316 117.195 344.682 118.539C345.376 121.189 345.943 123.346 346.345 124.891C346.537 125.604 346.683 126.179 346.802 126.618C346.912 127.011 346.966 127.212 346.985 127.212V127.23Z" fill="#F59F75"/>
<path d="M331.294 112.223C331.294 112.297 332.025 112.242 333.176 112.351C333.752 112.397 334.374 112.607 335.159 112.808C335.964 112.982 336.841 112.891 337.718 112.827C339.482 112.589 340.962 113.329 341.757 114.133C342.571 114.938 342.653 115.714 342.735 115.687C342.772 115.705 342.808 114.864 341.995 113.923C341.593 113.466 341.008 113.009 340.259 112.708C339.518 112.37 338.586 112.306 337.691 112.388C336.795 112.452 335.964 112.543 335.242 112.406C334.52 112.251 333.807 112.041 333.204 112.041C332.007 112.013 331.294 112.178 331.303 112.223H331.294Z" fill="#F59F75"/>
<path d="M333.862 112.031C333.972 112.086 334.264 111.666 334.228 111.063C334.191 110.459 333.853 110.076 333.752 110.14C333.643 110.204 333.752 110.606 333.78 111.09C333.816 111.574 333.743 111.986 333.862 112.031Z" fill="#F59F75"/>
<path d="M329.567 115.879C329.567 115.989 332.043 116.098 335.022 115.45C335.763 115.285 336.448 115.084 337.033 115.194C337.609 115.294 338.056 115.687 338.33 116.053C338.879 116.82 338.97 117.46 339.043 117.433C339.08 117.433 339.116 116.775 338.586 115.87C338.312 115.44 337.828 114.947 337.106 114.792C336.384 114.627 335.644 114.865 334.922 115.011C331.998 115.651 329.558 115.742 329.558 115.879H329.567Z" fill="#F59F75"/>
<path d="M328.607 119.169C328.607 119.224 329.128 119.279 329.951 119.169C330.773 119.078 331.879 118.795 333.085 118.557C333.688 118.447 334.264 118.356 334.776 118.393C335.287 118.42 335.708 118.584 335.991 118.831C336.585 119.334 336.521 119.9 336.585 119.891C336.613 119.891 336.676 119.772 336.658 119.526C336.64 119.279 336.521 118.923 336.201 118.603C335.9 118.274 335.379 118.036 334.803 117.981C334.227 117.917 333.615 118.009 332.994 118.118C331.751 118.365 330.673 118.694 329.887 118.859C329.101 119.041 328.598 119.096 328.598 119.16L328.607 119.169Z" fill="#F59F75"/>
<path d="M330.764 121.783C330.691 121.838 331.303 122.487 332.436 122.478L332.217 122.286C332.235 122.487 332.263 122.67 332.281 122.871C332.446 124.159 332.674 125.192 332.802 125.174C332.921 125.155 332.893 124.104 332.729 122.825C332.702 122.633 332.674 122.441 332.647 122.249L332.619 122.048H332.427C331.477 122.121 330.828 121.701 330.773 121.792L330.764 121.783Z" fill="#F59F75"/>
<path d="M375.78 119.581C375.78 119.581 388.016 122.542 387.988 138.774C387.961 154.941 384.297 163.021 384.297 163.021L361.734 150.746L366.769 138.106L375.78 119.581Z" fill="#012CFD"/>
<path d="M384.297 163.03C384.297 163.03 384.132 162.975 383.831 162.829C383.492 162.655 383.054 162.436 382.524 162.161C381.345 161.54 379.718 160.681 377.717 159.63C373.614 157.418 367.975 154.384 361.633 150.966L361.451 150.865L361.524 150.673C361.908 149.659 362.319 148.589 362.73 147.511C364.174 143.764 365.545 140.199 366.797 136.946C367.427 135.328 368.021 133.783 368.588 132.339C369.127 130.886 369.721 129.552 370.37 128.4C371.64 126.079 373.139 124.434 374.436 123.684C375.076 123.3 375.643 123.127 376.026 123.045C376.218 123.008 376.365 122.99 376.465 122.99C376.566 122.99 376.62 122.99 376.62 122.99C376.639 123.045 375.771 123.035 374.537 123.84C373.303 124.617 371.878 126.243 370.662 128.556C370.041 129.707 369.474 131.014 368.953 132.467C368.405 133.921 367.82 135.465 367.208 137.083C365.965 140.336 364.603 143.91 363.178 147.657C362.767 148.745 362.355 149.805 361.962 150.819L361.853 150.527C368.167 154 373.778 157.08 377.863 159.328C379.837 160.434 381.436 161.339 382.606 161.988C383.127 162.289 383.547 162.536 383.876 162.728C384.16 162.902 384.306 162.993 384.306 163.011L384.297 163.03Z" fill="#1E2E34"/>
<path d="M85.1422 347.894L63.9595 367.278L87.9386 393.765C90.3237 391.315 83.0039 373.018 83.0039 373.018L96.2362 360.214L85.1422 347.894Z" fill="#3F5963"/>
<path d="M76.7258 363.787C76.1226 363.403 75.2271 363.568 74.8158 364.153C74.4046 364.737 74.5691 365.651 75.1631 366.053C75.7571 366.446 76.8446 366.282 77.1827 365.651C77.5208 365.021 77.2741 363.961 76.5978 363.714" fill="white"/>
<path d="M63.9595 367.278L66.171 365.231L88.2584 391.58C88.2584 391.58 88.8067 393.225 87.8472 393.838L63.9595 367.278Z" fill="#1E2E34"/>
<path d="M83.5155 373.319C83.3784 373.429 82.7387 372.835 81.7427 372.579C80.7557 372.296 79.8967 372.47 79.8419 372.305C79.7596 372.159 80.71 371.656 81.898 371.994C83.0951 372.323 83.6526 373.237 83.5064 373.319H83.5155Z" fill="white"/>
<path d="M84.8865 377.14C84.786 377.286 84.0641 376.92 83.1137 376.975C82.1633 377.003 81.4779 377.432 81.3683 377.295C81.2403 377.195 81.8526 376.427 83.0314 376.372C84.2103 376.317 85.0053 377.021 84.8865 377.131V377.14Z" fill="white"/>
<path d="M82.9855 381.728C82.8211 381.618 83.2049 380.914 84.3472 380.558C85.3524 380.238 86.184 380.595 86.1292 380.75C86.0926 380.924 85.3524 380.869 84.5299 381.134C83.6983 381.38 83.1226 381.837 82.9947 381.719L82.9855 381.728Z" fill="white"/>
<path d="M86.4309 370.267C86.2664 370.322 85.9009 369.563 85.1972 368.878C84.5027 368.174 83.7351 367.827 83.7899 367.662C83.8173 367.507 84.7951 367.626 85.6267 368.448C86.4583 369.261 86.5954 370.239 86.44 370.267H86.4309Z" fill="white"/>
<path d="M88.9988 366.784C88.944 366.83 88.4048 366.391 87.8017 365.45C87.5001 364.984 87.2077 364.381 86.9701 363.677C86.8513 363.321 86.7599 362.946 86.6868 362.553C86.6594 362.361 86.6046 362.142 86.632 361.868C86.632 361.603 86.9061 361.21 87.2625 361.182C87.5915 361.137 87.8931 361.292 88.0667 361.484C88.2495 361.676 88.35 361.868 88.4505 362.041C88.6424 362.398 88.7978 362.763 88.9166 363.12C89.145 363.832 89.2273 364.509 89.2181 365.066C89.209 366.199 88.9166 366.839 88.8435 366.821C88.7521 366.802 88.88 366.135 88.7886 365.084C88.743 364.564 88.6241 363.942 88.3866 363.302C88.2678 362.983 88.1124 362.654 87.9296 362.325C87.7469 361.977 87.5367 361.74 87.3448 361.776C87.2717 361.795 87.2534 361.804 87.226 361.941C87.2077 362.069 87.226 362.252 87.2625 362.443C87.3174 362.818 87.3996 363.175 87.5001 363.504C87.692 364.171 87.9296 364.755 88.1672 365.231C88.6424 366.181 89.0628 366.711 88.9897 366.775L88.9988 366.784Z" fill="white"/>
<path d="M88.6603 366.784C88.5963 366.757 88.8339 366.081 89.629 365.277C90.0219 364.875 90.5702 364.463 91.2464 364.143C91.5846 363.988 91.9592 363.851 92.3613 363.751C92.7634 363.668 93.2843 363.54 93.7961 363.988C94.0428 364.244 94.0337 364.646 93.924 364.875C93.8235 365.121 93.6864 365.277 93.5585 365.45C93.2934 365.779 92.9827 366.044 92.6629 366.264C92.0232 366.693 91.347 366.885 90.7804 366.94C89.6289 367.04 88.9801 366.647 89.0167 366.593C89.0441 366.492 89.7021 366.711 90.7164 366.51C91.219 366.41 91.8039 366.2 92.3431 365.798C92.6081 365.606 92.8639 365.359 93.0833 365.076C93.33 364.783 93.4579 364.472 93.33 364.39C93.2112 364.253 92.8 364.226 92.4801 364.317C92.1237 364.399 91.7765 364.509 91.4658 364.637C90.8352 364.902 90.3143 365.249 89.9122 365.578C89.0989 366.245 88.7425 366.821 88.6603 366.766V366.784Z" fill="white"/>
<path d="M80.0249 366.575L80.2899 395.291L116.012 395.135C115.793 391.726 97.2782 384.954 97.2782 384.954L97.863 366.547L80.0249 366.575Z" fill="#3F5963"/>
<path d="M86.23 383.446C85.5355 383.638 85.0694 384.415 85.2248 385.118C85.3893 385.813 86.1752 386.306 86.8697 386.124C87.5642 385.941 88.1582 385.027 87.9206 384.351C87.683 383.675 86.7235 383.154 86.0929 383.492" fill="white"/>
<path d="M80.2898 395.345L80.2441 392.275L114.604 393.435C114.604 393.435 116.195 394.13 116.012 395.254L80.2898 395.345Z" fill="#1E2E34"/>
<path d="M97.8632 384.762C97.8632 384.936 96.9859 385.018 96.1269 385.585C95.2588 386.124 94.8201 386.882 94.6556 386.818C94.4912 386.782 94.747 385.74 95.7979 385.073C96.8397 384.397 97.8998 384.598 97.8541 384.762H97.8632Z" fill="white"/>
<path d="M101.619 386.298C101.655 386.471 100.906 386.764 100.312 387.504C99.6998 388.226 99.5536 389.021 99.3799 389.021C99.2155 389.048 99.0875 388.025 99.8369 387.12C100.577 386.206 101.601 386.133 101.61 386.298H101.619Z" fill="white"/>
<path d="M103.767 390.776C103.611 390.812 103.365 389.944 103.803 388.984C104.242 388.025 105.064 387.641 105.137 387.787C105.238 387.933 104.708 388.445 104.361 389.24C103.986 390.026 103.94 390.757 103.767 390.776Z" fill="white"/>
<path d="M97.5343 380.558C97.4612 380.713 96.657 380.476 95.6792 380.558C94.6922 380.613 93.9246 380.942 93.8332 380.796C93.7327 380.668 94.4821 380.019 95.6426 379.955C96.8032 379.882 97.6257 380.43 97.5434 380.567L97.5343 380.558Z" fill="white"/>
<path d="M81.825 202.768C81.825 202.768 76.8172 208.133 74.359 213.269C71.9008 218.406 68.1175 229.346 68.1175 229.346C68.1175 229.346 63.4112 246.062 64.4621 253.94C65.513 261.818 72.5496 315.704 72.5496 315.704C72.5496 315.704 71.1605 358.422 77.1919 377.432L78.3068 382.477L98.4478 378.904L102.907 273.16L115.198 203.243L81.825 202.777V202.768Z" fill="#1E2E34"/>
<path d="M107.54 207.274C107.458 207.301 107.485 206.616 106.763 206.113C106.416 205.875 105.886 205.766 105.384 205.976C104.89 206.168 104.47 206.707 104.488 207.328C104.488 207.95 104.927 208.471 105.429 208.654C105.941 208.845 106.471 208.708 106.8 208.462C107.504 207.932 107.449 207.246 107.531 207.274C107.559 207.274 107.613 207.42 107.577 207.694C107.549 207.968 107.403 208.379 107.01 208.727C106.626 209.065 105.959 209.293 105.274 209.065C104.598 208.864 103.995 208.16 103.995 207.328C103.976 206.497 104.552 205.775 105.219 205.546C105.886 205.3 106.572 205.501 106.965 205.83C107.376 206.159 107.531 206.57 107.568 206.844C107.604 207.118 107.568 207.274 107.531 207.274H107.54Z" fill="#3F5963"/>
<path d="M130.916 217.309C130.916 217.309 138.3 284.347 139.36 295.853C140.42 307.369 98.6397 368.759 98.6397 368.759L81.0117 347.93L107.906 297.928L98.8498 248.118L110.775 203.179L129.317 203.399L130.916 217.309Z" fill="#1E2E34"/>
<path d="M74.1123 361.292C74.1123 361.292 74.1214 361.795 74.2585 362.754C74.3773 363.714 74.6149 365.131 74.953 366.949C75.6201 370.596 76.7076 375.888 78.1697 382.496L78.1972 382.633L78.3342 382.605C84.0274 381.609 90.863 380.412 98.4844 379.077L98.6397 379.05V378.895C99.2063 365.067 99.8734 348.552 100.595 330.83C101.336 311.765 102.03 294.09 102.597 279.585V279.603C104.104 267.951 105.356 258.318 106.225 251.573C106.645 248.228 106.974 245.596 107.202 243.786C107.312 242.899 107.385 242.223 107.449 241.739C107.504 241.273 107.513 241.035 107.513 241.035C107.513 241.035 107.458 241.273 107.394 241.73C107.321 242.205 107.221 242.89 107.093 243.768C106.837 245.577 106.48 248.2 106.014 251.545C105.101 258.281 103.803 267.914 102.222 279.549V279.567C101.637 294.071 100.915 311.747 100.148 330.812C99.453 348.533 98.8133 365.057 98.2742 378.876L98.4295 378.694C90.8173 380.064 83.9909 381.289 78.2977 382.313L78.4713 382.422C76.9726 375.824 75.8486 370.541 75.1267 366.913C74.7703 365.094 74.5053 363.687 74.359 362.736C74.2768 362.261 74.2311 361.895 74.1946 361.648C74.158 361.402 74.1306 361.283 74.1306 361.283L74.1123 361.292Z" fill="#3F5963"/>
<path d="M104.616 230.031C104.616 230.031 105.018 230.04 105.722 230.086C106.407 230.104 107.504 230.205 108.555 229.602C109.076 229.3 109.487 228.761 109.697 228.075C109.916 227.39 109.971 226.604 110.044 225.772C110.191 224.1 110.328 222.263 110.456 220.325C110.712 216.459 110.858 212.949 110.94 210.418C110.986 209.23 111.022 208.224 111.05 207.411C111.077 206.698 111.114 206.305 111.141 206.305C111.178 206.305 111.205 206.698 111.232 207.411C111.26 208.124 111.278 209.147 111.278 210.427C111.278 212.968 111.187 216.486 110.931 220.362C110.803 222.299 110.648 224.145 110.474 225.818C110.392 226.649 110.319 227.472 110.063 228.212C109.825 228.953 109.313 229.583 108.719 229.903C108.125 230.232 107.522 230.324 107.01 230.351C106.49 230.369 106.051 230.333 105.704 230.278C104.991 230.177 104.616 230.068 104.616 230.04V230.031Z" fill="#3F5963"/>
<path d="M130.112 217.355C130.085 217.4 129.317 217.071 128.184 216.331C127.051 215.6 125.589 214.421 124.227 212.867C122.865 211.313 121.888 209.705 121.312 208.489C120.727 207.274 120.498 206.47 120.553 206.451C120.69 206.378 121.897 209.513 124.592 212.556C127.252 215.627 130.213 217.218 130.121 217.355H130.112Z" fill="#3F5963"/>
<path d="M66.7009 142.347L74.7244 171.502L78.2701 187.012C78.2701 200.374 74.7244 206.46 74.7244 206.46L129.363 203.737C129.363 203.737 130.258 166.759 129.363 159.767L122.71 135.556L105.384 131.307L83.7532 131.718L66.7009 142.356V142.347Z" fill="#012CFD"/>
<path d="M141.764 183.338C141.718 183.338 141.572 182.798 141.562 181.903C141.544 181.007 141.7 179.746 142.175 178.439C142.659 177.141 143.363 176.081 143.957 175.414C144.551 174.737 145.017 174.417 145.044 174.454C145.154 174.545 143.482 176.063 142.577 178.594C141.626 181.108 141.91 183.347 141.773 183.347L141.764 183.338Z" fill="#1E2E34"/>
<path d="M158.396 164.154L144.204 172.635L136.153 152.008C136.153 152.008 135.093 149.458 131.501 143.161C126.786 134.889 120.8 135.319 120.8 135.319L113.581 146.039L121.248 162.463C121.248 162.463 125.909 192.925 134.956 195.283C148.764 198.893 158.396 164.154 158.396 164.154Z" fill="#012CFD"/>
<g opacity="0.3">
<path d="M69.7806 224.703C76.214 224.447 82.8942 221.714 88.4229 218.424C93.9516 215.134 98.9686 211.067 104.187 207.292C116.688 198.271 141.489 178.485 153.077 168.321L149.714 169.08L71.6905 219.576L69.7715 224.694L69.7806 224.703Z" fill="black"/>
</g>
<path d="M129.537 195.548C129.537 195.548 129.509 195.365 129.491 195.009C129.491 194.607 129.473 194.095 129.464 193.464C129.464 192.057 129.445 190.137 129.436 187.789C129.464 182.935 129.491 176.346 129.528 169.062C129.528 167.234 129.601 165.452 129.482 163.743C129.381 162.034 129.153 160.388 128.815 158.862C128.157 155.773 126.658 153.314 125.461 151.249C124.236 149.193 123.268 147.502 122.683 146.286C122.39 145.683 122.189 145.199 122.061 144.87C121.934 144.541 121.879 144.358 121.897 144.358C121.915 144.358 121.998 144.513 122.153 144.833C122.308 145.153 122.537 145.61 122.857 146.204C123.487 147.383 124.492 149.037 125.753 151.075C126.987 153.113 128.55 155.608 129.244 158.762C129.61 160.324 129.838 161.979 129.957 163.715C130.076 165.452 130.021 167.243 130.012 169.071C129.92 176.355 129.838 182.945 129.783 187.798C129.729 190.146 129.692 192.066 129.655 193.473C129.628 194.104 129.61 194.616 129.601 195.018C129.582 195.374 129.564 195.557 129.546 195.557L129.537 195.548Z" fill="#1E2E34"/>
<path d="M124.255 110.45C122.948 110.624 121.568 110.012 120.828 108.915C121.714 109.052 122.665 109.18 123.46 108.769C124.255 108.357 124.712 107.188 124.081 106.548C123.597 106.045 122.793 106.137 122.089 106.082C120.462 105.963 118.964 104.811 118.434 103.276C117.84 101.585 118.379 99.7298 118.598 97.9476C119.21 92.7747 116.752 87.355 112.457 84.4121L101.299 77.9596C97.2508 83.1417 95.9898 90.1242 96.8305 96.6406C97.6712 103.157 100.431 109.29 103.757 114.965C104.726 116.62 105.759 118.255 107.12 119.599C108.491 120.942 110.227 121.975 112.137 122.176C112.64 120.613 112.32 118.804 111.315 117.506C114.33 117.698 117.41 116.592 119.612 114.536C118.817 113.923 118.022 113.311 117.218 112.699C119.74 113.037 122.391 112.187 124.246 110.45H124.255Z" fill="#1E2E34"/>
<path d="M81.2769 92.2446C81.478 87.5835 84.3748 83.6809 88.8618 82.3922L102.853 78.3983C108.921 77.5666 113.206 84.9422 113.782 91.0473C114.422 97.8288 114.897 104.985 114.248 110.076C112.941 120.321 105.174 121.856 105.174 121.856C105.174 121.838 105.302 126.499 105.384 129.479L105.256 152.218L84.6124 129.917L81.2495 92.3817C81.2495 92.208 81.2678 92.4914 81.2861 92.2537L81.2769 92.2446Z" fill="#B67864"/>
<path d="M112.009 98.834C112.055 99.5194 111.506 100.132 110.794 100.196C110.072 100.26 109.459 99.7478 109.414 99.0625C109.368 98.3771 109.916 97.7648 110.629 97.7008C111.351 97.6369 111.973 98.1486 112.018 98.834H112.009Z" fill="#1E2E34"/>
<path d="M112.366 95.0777C112.21 95.2513 111.196 94.5476 109.789 94.5933C108.381 94.6207 107.376 95.3792 107.212 95.2056C107.139 95.1325 107.294 94.8218 107.733 94.4745C108.162 94.1364 108.911 93.7983 109.789 93.7709C110.666 93.7526 111.415 94.045 111.845 94.3649C112.283 94.6847 112.448 94.9863 112.366 95.0685V95.0777Z" fill="#1E2E34"/>
<path d="M99.7 98.8431C99.7457 99.5285 99.1974 100.141 98.4846 100.205C97.7627 100.269 97.1504 99.757 97.1047 99.0716C97.059 98.3862 97.6073 97.774 98.3201 97.71C99.042 97.646 99.6635 98.1578 99.7 98.8431Z" fill="#1E2E34"/>
<path d="M99.0055 95.4615C98.8501 95.6351 97.8357 94.9315 96.4284 94.9863C95.0211 95.0137 94.0159 95.7722 93.8514 95.5986C93.7783 95.5255 93.9245 95.2148 94.3723 94.8675C94.8018 94.5294 95.5511 94.1913 96.4284 94.1639C97.3057 94.1456 98.0551 94.438 98.4846 94.7579C98.9232 95.0777 99.0786 95.3793 99.0055 95.4615Z" fill="#1E2E34"/>
<path d="M103.721 106.383C103.721 106.301 104.58 106.127 105.996 105.899C106.353 105.853 106.691 105.771 106.746 105.524C106.819 105.259 106.663 104.875 106.472 104.464C106.106 103.605 105.722 102.709 105.329 101.759C103.739 97.911 102.569 94.7396 102.725 94.6757C102.88 94.6117 104.297 97.6825 105.896 101.53C106.28 102.481 106.645 103.386 107.002 104.254C107.148 104.656 107.394 105.113 107.23 105.661C107.139 105.935 106.883 106.137 106.654 106.201C106.426 106.274 106.225 106.292 106.051 106.301C104.626 106.42 103.748 106.456 103.739 106.374L103.721 106.383Z" fill="#1E2E34"/>
<path d="M91.5483 118.612C91.5483 118.612 95.0666 125.521 105.238 124.25L105.174 121.856C105.174 121.856 98.4752 122.487 91.5575 118.612H91.5483Z" fill="#754539"/>
<path d="M98.4204 90.9192C98.2924 91.3031 96.8851 91.166 95.2402 91.4219C93.5953 91.6412 92.2794 92.1621 92.0418 91.8239C91.9413 91.6595 92.1606 91.2939 92.6906 90.9101C93.2115 90.5263 94.0522 90.1425 95.0392 90.0054C96.0261 89.8683 96.94 89.9963 97.5431 90.2247C98.1554 90.4532 98.4661 90.7456 98.4204 90.9284V90.9192Z" fill="#1E2E34"/>
<path d="M111.781 90.7913C111.543 91.1202 110.565 90.8187 109.396 90.8369C108.226 90.8187 107.248 91.1202 107.01 90.7913C106.91 90.6359 107.056 90.3069 107.477 89.9871C107.888 89.6764 108.591 89.4022 109.396 89.4022C110.2 89.4022 110.903 89.6672 111.315 89.9871C111.735 90.3069 111.881 90.6268 111.781 90.7913Z" fill="#1E2E34"/>
<path d="M98.4478 109.125C98.6123 108.284 99.4438 107.617 100.303 107.681C100.933 107.727 101.509 108.138 101.811 108.686C102.112 109.244 102.14 109.92 101.948 110.523L101.92 110.66C101.363 111.309 100.376 111.565 99.5809 111.227C98.795 110.889 98.2833 109.975 98.4478 109.134V109.125Z" fill="#754539"/>
<path d="M102.935 110.651C102.935 110.441 101.509 110.55 100.404 109.408C99.2978 108.275 99.3343 106.749 99.1424 106.749C99.0511 106.74 98.8957 107.105 98.9231 107.745C98.9505 108.376 99.2247 109.271 99.9009 109.966C100.577 110.66 101.427 110.916 102.012 110.916C102.606 110.916 102.953 110.733 102.935 110.642V110.651Z" fill="#1E2E34"/>
<path d="M85.9829 76.0038C87.5547 73.4995 91.274 70.8948 94.1892 70.383C97.5064 69.8072 99.5077 70.3739 101.692 72.3663C101.692 72.3663 103.392 74.0022 104.982 74.313C106.572 74.6237 107.906 74.3587 109.798 75.3274C112.393 76.6527 113.526 80.1257 114.732 82.7761C116.222 86.0754 118.351 89.1097 119.329 92.5919C120.307 96.074 119.786 100.36 116.843 102.481C117.401 99.5013 117.867 96.1928 116.231 93.6429C114.988 91.6962 112.768 90.6178 111.168 88.9544C109.24 86.9437 108.984 84.2567 106.965 82.3374C102.35 77.9596 94.2257 85.6642 85.9829 76.0038Z" fill="#1E2E34"/>
<path d="M115.28 89.9414C114.083 87.026 112.786 84.0922 110.73 81.7068C108.18 78.7273 104.497 76.7441 100.613 76.2505C96.7204 75.7479 92.663 76.7441 89.4463 78.9832L88.6421 79.0472C91.1369 82.2095 95.1212 84.1287 99.1421 84.1105C101.536 84.1013 104.141 83.489 106.197 84.7137C108.171 85.9018 108.92 88.3877 110.547 90.0146C111.653 91.1296 113.142 91.8059 114.211 92.9483C115.354 94.1639 115.929 95.7816 116.478 97.3444C117.19 94.895 116.249 92.2994 115.28 89.9414Z" fill="#1E2E34"/>
<path d="M93.842 80.9665L87.3081 75.2178C82.218 74.9527 78.9465 79.7692 77.201 83.4798C75.9034 86.2399 75.5013 89.3291 74.5144 92.2263C73.5091 95.1966 71.9008 97.9385 70.9869 100.936C70.0731 103.934 69.9452 107.416 71.7546 109.984C72.1384 109.29 72.513 108.586 72.8969 107.891C73.0888 110.789 74.3224 113.613 76.3237 115.715C76.47 114.984 76.6162 114.262 76.7624 113.53C77.8224 115.733 79.5587 117.607 81.6788 118.822L84.7402 127.002C89.2637 113.238 77.6214 112.187 93.842 80.9665Z" fill="#1E2E34"/>
<path d="M92.9099 82.1729C92.517 84.0282 92.1149 85.8927 91.3747 87.6383C90.6345 89.3839 89.547 91.029 88.0117 92.1349C85.7728 93.7526 82.8943 94.0908 80.2167 94.7305C77.53 95.3794 74.6697 96.6133 73.564 99.1449C74.0026 95.4343 74.7702 91.7602 75.8577 88.1867C77.0548 84.2476 78.782 80.2262 82.0627 77.7403C85.0692 75.4645 89.2637 74.7882 92.7911 76.1409" fill="#1E2E34"/>
<path d="M85.9558 100.178C85.8187 99.8395 79.4767 97.7465 79.5864 104.427C79.6869 110.907 86.1934 109.445 86.2026 109.262C86.2026 109.079 85.9558 100.187 85.9558 100.187V100.178Z" fill="#B67864"/>
<path d="M84.1555 106.831C84.1555 106.831 84.0458 106.913 83.8539 107.004C83.6712 107.096 83.3513 107.16 83.0132 107.041C82.3278 106.803 81.7247 105.725 81.6699 104.555C81.6424 103.961 81.7521 103.404 81.9531 102.928C82.145 102.453 82.4466 102.115 82.7847 102.042C83.1228 101.96 83.3787 102.161 83.461 102.334C83.5524 102.517 83.5158 102.645 83.5432 102.654C83.5615 102.673 83.6803 102.545 83.6255 102.28C83.598 102.152 83.5158 101.996 83.3605 101.878C83.2051 101.75 82.9766 101.695 82.7299 101.722C82.2273 101.768 81.7886 102.234 81.5693 102.746C81.3226 103.267 81.1855 103.897 81.2129 104.564C81.2769 105.871 81.9714 107.077 82.9127 107.333C83.3696 107.443 83.7443 107.297 83.9453 107.141C84.1464 106.977 84.1738 106.831 84.1555 106.821V106.831Z" fill="#754539"/>
<path d="M83.4517 108.001C82.8212 107.9 82.1449 108.357 82.0078 108.988C81.8708 109.618 82.282 110.313 82.9034 110.487C83.5248 110.66 84.2468 110.295 84.4569 109.692C84.6763 109.088 84.3473 108.339 83.7533 108.092" fill="white"/>
<path d="M83.7534 108.092C83.7534 108.092 84.1829 108.303 84.3565 108.942C84.4388 109.253 84.4114 109.655 84.1281 109.966C83.8631 110.276 83.3787 110.468 82.9309 110.35C82.4832 110.222 82.1816 109.792 82.1176 109.39C82.0445 108.979 82.2364 108.622 82.474 108.403C82.9675 107.955 83.4518 108.056 83.4427 108.001C83.4427 107.983 83.3422 107.937 83.1411 107.937C82.9401 107.937 82.6294 108.01 82.3369 108.239C82.0445 108.458 81.7795 108.906 81.8526 109.417C81.9166 109.911 82.273 110.45 82.8578 110.624C83.4427 110.788 84.0276 110.523 84.3474 110.13C84.6855 109.728 84.6855 109.207 84.5667 108.869C84.4479 108.513 84.2195 108.293 84.055 108.184C83.8813 108.074 83.7717 108.056 83.7625 108.074L83.7534 108.092Z" fill="#1E2E34"/>
<path d="M93.3211 82.5925C93.1931 82.6473 92.59 80.4449 90.7897 78.4071C89.0169 76.3418 86.9151 75.4554 86.9882 75.3274C87.0065 75.2817 87.5548 75.4371 88.3589 75.8757C89.1631 76.3144 90.1958 77.0637 91.1187 78.1238C92.0417 79.1838 92.6448 80.3079 92.9738 81.1577C93.3028 82.0076 93.3759 82.5742 93.3302 82.5833L93.3211 82.5925Z" fill="#3F5963"/>
<path d="M256.286 102.883C256.286 102.883 256.368 103.148 256.478 103.669C256.578 104.19 256.77 104.958 256.907 105.954C257.245 107.946 257.565 110.871 257.584 114.49C257.611 118.109 257.282 122.432 256.277 127.121C255.774 129.46 255.125 131.901 254.221 134.35C253.334 136.799 252.274 139.295 250.913 141.707C249.56 144.129 248.025 146.359 246.398 148.397C244.744 150.417 242.99 152.227 241.244 153.872C237.68 157.08 234.089 159.529 230.89 161.22C227.692 162.92 224.923 163.944 222.977 164.492C222.017 164.812 221.24 164.94 220.719 165.068C220.198 165.187 219.924 165.241 219.924 165.223C219.924 165.205 220.189 165.123 220.701 164.976C221.204 164.821 221.971 164.657 222.922 164.309C224.841 163.715 227.564 162.646 230.726 160.919C233.888 159.2 237.424 156.742 240.943 153.543C242.67 151.907 244.397 150.107 246.033 148.105C247.641 146.085 249.158 143.873 250.501 141.479C251.854 139.093 252.905 136.617 253.791 134.195C254.687 131.773 255.345 129.36 255.856 127.039C256.88 122.396 257.236 118.1 257.255 114.499C257.273 110.898 257.008 107.983 256.725 105.99C256.615 104.985 256.45 104.217 256.377 103.696C256.295 103.175 256.259 102.892 256.277 102.892L256.286 102.883Z" fill="#1E2E34"/>
<path d="M261.056 93.1677C253.416 79.6321 240.97 69.8803 225.992 65.7036C211.014 61.536 195.315 63.4461 181.781 71.0867C171.134 77.0914 162.791 86.1303 157.646 97.2073C149.751 114.225 150.518 134.094 159.702 150.362C167.342 163.898 179.798 173.65 194.766 177.826C199.957 179.271 205.23 179.983 210.466 179.983C220.354 179.983 230.132 177.433 238.978 172.443C252.493 164.812 262.235 152.355 266.411 137.366C270.587 122.377 268.687 106.676 261.056 93.1585V93.1677ZM224.521 70.9953C238.082 74.7699 249.359 83.6078 256.277 95.8638C264.593 110.597 265.287 128.601 258.141 144.01C253.48 154.046 245.923 162.225 236.282 167.673C224.018 174.591 209.808 176.318 196.247 172.544C182.685 168.769 171.409 159.931 164.491 147.675C157.573 135.41 155.846 121.189 159.62 107.635C163.394 94.0725 172.231 82.7944 184.486 75.8758C192.5 71.3518 201.346 69.0486 210.301 69.0486C215.044 69.0486 219.824 69.6975 224.521 71.0045V70.9953Z" fill="#1E2E34"/>
<path d="M165.679 140.108C165.679 140.108 165.587 139.971 165.45 139.678C165.295 139.34 165.103 138.92 164.865 138.408C164.61 137.86 164.308 137.174 164.034 136.361C163.751 135.547 163.376 134.633 163.111 133.573C162.965 133.052 162.809 132.504 162.654 131.928C162.499 131.352 162.398 130.749 162.261 130.118C161.969 128.876 161.804 127.514 161.612 126.088C161.32 123.227 161.219 120.056 161.493 116.747C161.804 113.439 162.453 110.332 163.239 107.562C163.687 106.191 164.08 104.884 164.582 103.705C164.829 103.111 165.03 102.536 165.286 101.996C165.542 101.466 165.788 100.945 166.026 100.461C166.474 99.4648 166.995 98.6331 167.415 97.8836C167.826 97.1251 168.238 96.5036 168.585 96.01C168.905 95.5439 169.17 95.1692 169.38 94.8585C169.563 94.6026 169.672 94.4655 169.681 94.4746C169.691 94.4838 169.617 94.63 169.453 94.9133C169.261 95.2332 169.023 95.6262 168.731 96.1106C168.402 96.6224 168.018 97.253 167.634 98.0207C167.241 98.7793 166.739 99.6201 166.318 100.616C166.09 101.11 165.862 101.622 165.615 102.152C165.377 102.691 165.176 103.267 164.948 103.861C164.463 105.031 164.089 106.338 163.659 107.69C162.901 110.432 162.27 113.512 161.969 116.793C161.704 120.074 161.777 123.209 162.051 126.051C162.234 127.468 162.38 128.812 162.654 130.055C162.782 130.676 162.873 131.279 163.019 131.855C163.166 132.422 163.312 132.97 163.449 133.491C163.687 134.542 164.034 135.456 164.299 136.278C164.546 137.101 164.82 137.787 165.048 138.344C165.249 138.865 165.414 139.295 165.551 139.642C165.66 139.943 165.715 140.099 165.697 140.108H165.679Z" fill="#1E2E34"/>
<path d="M173.657 150.06C173.602 150.17 172.67 149.786 171.765 148.946C170.86 148.114 170.394 147.218 170.504 147.154C170.614 147.081 171.226 147.812 172.085 148.598C172.935 149.393 173.721 149.942 173.648 150.06H173.657Z" fill="#1E2E34"/>
<path d="M157.601 92.7106C162.48 82.2002 170.559 73.0699 181.397 66.9556C194.739 59.4247 210.219 57.5419 224.978 61.6547C239.736 65.7675 252.018 75.3822 259.548 88.7258C275.093 116.272 265.333 151.34 237.781 166.886C224.439 174.417 208.958 176.3 194.2 172.187C179.441 168.075 167.159 158.46 159.629 145.116C150.198 128.4 150.08 108.915 157.601 92.7106ZM258.086 139.514C265.104 124.388 264.995 106.21 256.195 90.6177C249.167 78.1697 237.717 69.1948 223.945 65.3562C210.174 61.5176 195.735 63.2724 183.279 70.3006C170.824 77.3289 161.859 88.7806 158.021 102.554C154.183 116.327 155.937 130.767 162.965 143.224C169.992 155.672 181.443 164.647 195.214 168.486C208.986 172.324 223.424 170.57 235.88 163.541C245.987 157.838 253.526 149.311 258.077 139.514H258.086Z" fill="#3F5963"/>
<path d="M209.671 175.231C204.426 175.231 199.144 174.518 193.944 173.065C178.948 168.888 166.474 159.118 158.825 145.564C149.632 129.269 148.864 109.363 156.769 92.3268C161.923 81.2224 170.276 72.1835 180.94 66.1606C194.492 58.5108 210.22 56.6007 225.216 60.7774C240.212 64.9542 252.686 74.7242 260.334 88.2781C276.126 116.263 266.21 151.889 238.22 167.682C229.355 172.681 219.568 175.231 209.671 175.231ZM209.498 60.4393C199.902 60.4393 190.426 62.9069 181.845 67.7508C171.519 73.5818 163.422 82.3466 158.432 93.0946C150.774 109.6 151.515 128.885 160.425 144.669C167.836 157.802 179.917 167.261 194.438 171.31C208.968 175.359 224.192 173.504 237.324 166.091C264.428 150.792 274.042 116.281 258.744 89.1737C251.333 76.0403 239.252 66.581 224.731 62.5322C219.696 61.1339 214.588 60.4393 209.498 60.4393ZM209.671 171.392C204.764 171.392 199.829 170.725 194.977 169.372C180.968 165.47 169.316 156.349 162.17 143.681C155.024 131.014 153.233 116.327 157.135 102.316C161.037 88.3055 170.157 76.6527 182.823 69.5056C195.488 62.3586 210.174 60.5672 224.183 64.4698C238.192 68.3723 249.844 77.4935 256.99 90.1608C265.58 105.387 266.293 123.977 258.909 139.889C254.102 150.253 246.289 158.707 236.328 164.328C228.049 168.998 218.91 171.383 209.662 171.383L209.671 171.392ZM209.507 64.287C200.569 64.287 191.733 66.5901 183.737 71.105C171.5 78.0145 162.682 89.2743 158.908 102.81C155.133 116.345 156.861 130.548 163.769 142.786C170.678 155.024 181.936 163.843 195.47 167.609C209.004 171.383 223.205 169.656 235.441 162.746C245.064 157.318 252.612 149.147 257.255 139.13C264.392 123.748 263.697 105.78 255.4 91.0656C248.491 78.8279 237.233 70.0083 223.699 66.2428C219.011 64.9359 214.24 64.287 209.507 64.287Z" fill="#3F5963"/>
<path d="M49.4569 224.876L48.4243 223.24C46.2128 219.74 48.7258 214.183 51.1658 212.648L159.401 144.33C159.949 143.983 160.79 144.34 161.283 145.126L168.53 156.614C169.023 157.391 168.978 158.305 168.439 158.652L60.8342 226.576C58.3943 228.121 51.6775 228.386 49.4661 224.886L49.4569 224.876Z" fill="#3F5963"/>
<path d="M150.29 170.533L153.571 167.06C153.571 167.06 153.187 159.145 154.539 157.208L155.243 156.038C155.243 156.038 154.539 152.19 156.614 151.295C157.199 149.841 157.957 149.247 158.981 150.061C158.981 150.061 158.405 147.164 161.101 146.78C163.806 146.396 164.573 158.661 164.573 158.661C164.573 158.661 165.926 164.163 162.837 164.163C162.837 164.163 161.101 166.091 159.173 166.283C159.173 166.283 158.597 169.564 155.892 169.373L150.29 170.533Z" fill="#B67864"/>
<path d="M158.77 164.858C158.77 164.858 158.935 164.958 159.081 165.251C159.227 165.543 159.337 166.027 159.236 166.612C159.145 167.188 158.807 167.864 158.222 168.367C157.646 168.888 156.879 169.262 156.065 169.546C154.439 170.121 152.885 170.35 151.761 170.395C150.637 170.45 149.943 170.35 149.952 170.304C149.943 170.167 152.739 170.277 155.928 169.144C156.714 168.869 157.436 168.531 157.966 168.074C158.505 167.627 158.816 167.069 158.944 166.548C159.209 165.488 158.706 164.885 158.779 164.858H158.77Z" fill="#754539"/>
<path d="M161.164 160.498C161.036 160.498 161.027 158.03 160.433 155.078C159.858 152.117 158.935 149.832 159.053 149.787C159.099 149.768 159.401 150.308 159.766 151.24C160.132 152.172 160.552 153.497 160.854 154.996C161.146 156.495 161.265 157.884 161.274 158.88C161.283 159.886 161.219 160.498 161.164 160.498Z" fill="#754539"/>
<path d="M158.834 161.851C158.706 161.86 158.478 159.456 157.856 156.55C157.253 153.643 156.495 151.349 156.613 151.304C156.714 151.258 157.664 153.516 158.277 156.458C158.898 159.401 158.944 161.842 158.834 161.851Z" fill="#754539"/>
<path d="M163.157 161.75C163.257 161.686 163.66 162.445 163.395 163.404C163.139 164.364 162.408 164.812 162.353 164.711C162.271 164.62 162.773 164.108 162.983 163.295C163.212 162.49 163.038 161.796 163.157 161.75Z" fill="#754539"/>
<path d="M155.599 162.298C155.48 162.298 155.453 160.945 155.353 159.291C155.252 157.637 155.106 156.294 155.225 156.276C155.334 156.257 155.672 157.582 155.773 159.264C155.883 160.945 155.709 162.307 155.59 162.298H155.599Z" fill="#754539"/>
<path d="M83.4152 190.859C83.4152 190.859 84.4387 189.223 86.5862 187.953C88.7429 186.683 93.0471 186.18 93.8604 184.727C94.6737 183.274 95.9987 184.763 95.286 186.619C94.829 187.807 91.7128 190.558 91.7128 190.558C91.7128 190.558 94.5457 191.846 96.7207 191.07C98.9048 190.293 106.188 189.516 106.755 190.622C107.394 191.865 105.512 191.901 104.653 192.203C104.004 192.431 98.987 193.866 98.987 193.866C98.987 193.866 108.189 195.228 109.259 195.877C110.428 196.581 108.939 197.449 108.363 197.367C107.997 197.312 106.17 198.427 104.872 199.259C103.986 199.825 102.935 200.035 101.902 199.862L99.7729 199.505L106.106 201.37C106.106 201.37 107.038 202.594 105.384 202.841C104.644 202.951 84.5666 202.183 83.0314 201.991C80.3813 201.662 76.1045 201.543 76.1045 201.543L79.3943 189.562L83.4152 190.869V190.859Z" fill="#B67864"/>
<path d="M108.509 197.513C108.527 197.623 106.48 198.052 103.922 198.034C101.354 198.034 99.3158 197.577 99.3341 197.467C99.3524 197.339 101.39 197.595 103.922 197.604C106.444 197.623 108.491 197.385 108.509 197.513Z" fill="#754539"/>
<path d="M67.5418 184.745L76.7441 165.781L68.6201 141.15C68.6201 141.15 65.4399 142.484 62.5065 146.46C59.6096 150.39 56.4752 158.743 56.4752 158.743C56.4752 158.743 46.4504 181.683 44.7963 185.111C43.1514 188.538 40.483 194.872 44.7963 198.427C49.1096 201.973 77.9595 202.092 77.9595 202.092L81.0209 189.333L67.5418 184.736V184.745Z" fill="#012CFD"/>
<path d="M68.6292 154.036C68.7571 154 70.9046 160.407 73.4268 168.358C75.949 176.309 77.8955 182.78 77.7767 182.826C77.6487 182.862 75.5012 176.456 72.979 168.504C70.4568 160.553 68.5104 154.082 68.6383 154.036H68.6292Z" fill="#1E2E34"/>
<path d="M81.0208 189.342C81.0208 189.342 80.6278 189.287 79.9516 189.104C79.1748 188.885 78.2244 188.62 77.0821 188.3C74.6696 187.614 71.3432 186.609 67.6422 185.64C63.9411 184.681 60.5325 183.959 58.0469 184.032C55.543 184.069 54.1539 184.909 54.1174 184.809C54.1082 184.791 54.4372 184.571 55.086 184.297C55.744 184.023 56.7584 183.767 58.0286 183.694C60.5873 183.53 64.0508 184.215 67.761 185.174C71.4803 186.143 74.7884 187.194 77.1826 187.971C78.3798 188.355 79.3393 188.684 80.0064 188.921C80.6735 189.159 81.0299 189.305 81.0208 189.332V189.342Z" fill="#1E2E34"/>
<g opacity="0.3">
<path d="M70.7128 160.306C70.4387 165.433 70.9047 171.255 71.5353 176.355L74.1215 171.164C73.7011 168.504 71.7729 163.167 70.8499 160.644" fill="black"/>
</g>
<path d="M231.868 98.0299H219.924V141.086H231.868V98.0299Z" fill="#012CFD"/>
<path d="M194.447 123.364H182.503V142.914H194.447V123.364Z" fill="#012CFD"/>
<path d="M212.897 112.735H200.953V142.905H212.897V112.735Z" fill="#012CFD"/>
<path d="M227.445 83.7997C227.445 83.7997 227.354 83.9368 227.162 84.1835C226.934 84.4577 226.641 84.7959 226.276 85.2346C225.453 86.1759 224.32 87.4829 222.904 89.1006C219.97 92.409 215.894 97.0062 211.188 102.307L211.06 102.453L210.896 102.344C208.593 100.836 206.116 99.2271 203.567 97.5546L203.877 97.5089C203.786 97.6094 203.695 97.7282 203.594 97.8379C197.554 104.921 192.089 111.337 188.095 116.025L187.995 116.144L187.867 116.053C185.436 114.252 183.453 112.781 182.037 111.721C181.388 111.227 180.858 110.825 180.465 110.523C180.109 110.249 179.926 110.094 179.935 110.076C179.944 110.066 180.145 110.185 180.52 110.441C180.931 110.725 181.47 111.099 182.146 111.565C183.59 112.589 185.601 114.015 188.068 115.77L187.84 115.797C191.806 111.081 197.234 104.638 203.238 97.518C203.329 97.4083 203.43 97.2895 203.521 97.189L203.658 97.0245L203.832 97.1433C206.381 98.8158 208.849 100.433 211.152 101.951L210.859 101.987C215.611 96.732 219.733 92.1806 222.703 88.8904C224.156 87.3092 225.325 86.0297 226.175 85.1157C226.559 84.7045 226.879 84.3755 227.116 84.1196C227.336 83.9002 227.454 83.7814 227.464 83.7905L227.445 83.7997Z" fill="#1E2E34"/>
<path d="M227.829 92.8935C227.765 92.8935 227.701 91.8425 227.665 90.1425C227.619 88.4426 227.592 86.0937 227.592 83.4799L227.866 83.7175C227.793 83.7266 227.71 83.7449 227.628 83.754C224.996 84.1836 222.611 84.5583 220.884 84.7959C219.157 85.0336 218.079 85.1524 218.069 85.0884C218.06 85.0244 219.111 84.7868 220.829 84.4578C222.547 84.1288 224.923 83.7083 227.555 83.2788C227.637 83.2697 227.72 83.2514 227.793 83.2422L228.067 83.1965V83.4799C228.067 86.0937 228.039 88.4426 227.994 90.1425C227.948 91.8425 227.893 92.8935 227.829 92.8935Z" fill="#1E2E34"/>
</g>
<defs>
<clipPath id="clip0_96_594">
<rect width="434" height="409" fill="white"/>
</clipPath>
</defs>
</svg>
